<svg width="30" height="30" viewBox="0 0 30 30" fill="none" xmlns="http://www.w3.org/2000/svg">
<path d="M6 5C4.89 5 4 5.89 4 7V19C4 19.5304 4.21071 20.0391 4.58579 20.4142C4.96086 20.7893 5.46957 21 6 21H14.08C14.0295 20.669 14.0027 20.3348 14 20C14 18.1435 14.7375 16.363 16.0503 15.0503C17.363 13.7375 19.1435 13 21 13C22.0388 13.0045 23.0636 13.2402 24 13.69V9C24 8.46957 23.7893 7.96086 23.4142 7.58579C23.0391 7.21071 22.5304 7 22 7H14L12 5H6ZM20 15C19.9389 14.9989 19.8793 15.0193 19.8318 15.0577C19.7842 15.0961 19.7517 15.15 19.74 15.21L19.55 16.53C19.25 16.66 18.96 16.82 18.7 17L17.46 16.5C17.35 16.5 17.22 16.5 17.15 16.63L16.15 18.36C16.09 18.47 16.11 18.6 16.21 18.68L17.27 19.5C17.2301 19.8321 17.2301 20.1679 17.27 20.5L16.21 21.32C16.1651 21.3585 16.1346 21.4113 16.1237 21.4694C16.1128 21.5276 16.1221 21.5878 16.15 21.64L17.15 23.37C17.21 23.5 17.34 23.5 17.46 23.5L18.7 23C18.96 23.18 19.24 23.35 19.55 23.47L19.74 24.79C19.76 24.91 19.86 25 20 25H22C22.11 25 22.22 24.91 22.24 24.79L22.43 23.47C22.73 23.34 23 23.18 23.27 23L24.5 23.5C24.63 23.5 24.76 23.5 24.83 23.37L25.83 21.64C25.8579 21.5878 25.8672 21.5276 25.8563 21.4694C25.8454 21.4113 25.8149 21.3585 25.77 21.32L24.7 20.5C24.72 20.33 24.74 20.17 24.74 20C24.74 19.83 24.73 19.67 24.7 19.5L25.76 18.68C25.8049 18.6415 25.8354 18.5887 25.8463 18.5306C25.8572 18.4724 25.8479 18.4122 25.82 18.36L24.82 16.63C24.76 16.5 24.63 16.5 24.5 16.5L23.27 17C23 16.82 22.73 16.65 22.42 16.53L22.23 15.21C22.2237 15.153 22.1969 15.1003 22.1546 15.0617C22.1122 15.023 22.0573 15.0011 22 15H20ZM21 18.5C21.83 18.5 22.5 19.17 22.5 20C22.5 20.83 21.83 21.5 21 21.5C20.16 21.5 19.5 20.83 19.5 20C19.5 19.17 20.17 18.5 21 18.5Z" fill="#D8D8D8"/>
</svg>
