<svg width="30" height="30" viewBox="0 0 30 30" fill="none" xmlns="http://www.w3.org/2000/svg">
<mask id="mask0" mask-type="alpha" maskUnits="userSpaceOnUse" x="5" y="5" width="20" height="20">
<path fill-rule="evenodd" clip-rule="evenodd" d="M15 5C9.48 5 5 9.48 5 15C5 20.52 9.48 25 15 25C20.52 25 25 20.52 25 15C25 9.48 20.52 5 15 5ZM15 8C16.66 8 18 9.34 18 11C18 12.66 16.66 14 15 14C13.34 14 12 12.66 12 11C12 9.34 13.34 8 15 8ZM15 22.2C12.5 22.2 10.29 20.92 9 18.98C9.03 16.99 13 15.9 15 15.9C16.99 15.9 20.97 16.99 21 18.98C19.71 20.92 17.5 22.2 15 22.2Z" fill="white"/>
</mask>
<g mask="url(#mask0)">
</g>
<path d="M22.79 18.41C23.74 16.24 23.74 13.75 22.79 11.59L20.05 12.83C20.65 14.21 20.65 15.78 20.06 17.17L22.79 18.41ZM18.42 7.21C17.3428 6.74004 16.1802 6.49748 15.005 6.49748C13.8298 6.49748 12.6672 6.74004 11.59 7.21L12.83 9.94C14.22 9.35 15.79 9.35 17.18 9.95L18.42 7.21ZM7.21 11.58C6.74003 12.6589 6.49748 13.8232 6.49748 15C6.49748 16.1768 6.74003 17.3411 7.21 18.42L9.95 17.17C9.35 15.79 9.35 14.21 9.95 12.82L7.21 11.58ZM11.59 22.79C12.6672 23.2607 13.8304 23.5029 15.006 23.5012C16.1817 23.4995 17.3441 23.2539 18.42 22.78L17.18 20.05C16.4951 20.346 15.7571 20.4995 15.011 20.5012C14.2649 20.5029 13.5263 20.3528 12.84 20.06L11.59 22.79ZM15 5C16.3132 5 17.6136 5.25866 18.8268 5.7612C20.0401 6.26375 21.1425 7.00035 22.0711 7.92893C22.9997 8.85752 23.7362 9.95991 24.2388 11.1732C24.7413 12.3864 25 13.6868 25 15C25 17.6522 23.9464 20.1957 22.0711 22.0711C20.1957 23.9464 17.6522 25 15 25C13.6868 25 12.3864 24.7413 11.1732 24.2388C9.95991 23.7362 8.85752 22.9997 7.92893 22.0711C6.05357 20.1957 5 17.6522 5 15C5 12.3478 6.05357 9.8043 7.92893 7.92893C9.8043 6.05357 12.3478 5 15 5ZM15 11C13.9391 11 12.9217 11.4214 12.1716 12.1716C11.4214 12.9217 11 13.9391 11 15C11 16.0609 11.4214 17.0783 12.1716 17.8284C12.9217 18.5786 13.9391 19 15 19C16.0609 19 17.0783 18.5786 17.8284 17.8284C18.5786 17.0783 19 16.0609 19 15C19 13.9391 18.5786 12.9217 17.8284 12.1716C17.0783 11.4214 16.0609 11 15 11Z" fill="#202124"/>
</svg>
