<svg width="22" height="18" viewBox="0 0 22 18" fill="none" xmlns="http://www.w3.org/2000/svg">
<g clip-path="url(#clip0)">
<rect y="0.75" width="22" height="16.5" fill="white"/>
<rect y="0.75" width="22" height="16.5" fill="url(#paint0_linear)"/>
<path d="M20.0664 0.621094H1.93362C1.63597 0.621094 1.35732 0.694269 1.10522 0.814883L10.957 10.6667L13.1652 8.5446C13.1652 8.5446 13.1653 8.54439 13.1654 8.5443C13.1654 8.54422 13.1656 8.54413 13.1656 8.54413L20.8951 0.815054C20.6429 0.694355 20.3641 0.621094 20.0664 0.621094Z" fill="#109CF1"/>
<path d="M21.8065 1.57502L14.5326 8.8485L21.8062 16.1221C21.9268 15.87 22 15.5914 22 15.2937V2.40311C22 2.10564 21.927 1.82703 21.8065 1.57502Z" fill="#109CF1"/>
<path d="M0.193789 1.72631C0.0731757 1.97841 0 2.25706 0 2.5547V15.4453C0 15.7428 0.0730897 16.0215 0.193617 16.2735L7.46748 9L0.193789 1.72631Z" fill="#109CF1"/>
<path d="M13.6211 9.91149L11.4127 12.0338C11.2868 12.1597 11.1219 12.2227 10.957 12.2227C10.7921 12.2227 10.6272 12.1597 10.5013 12.0338L8.37885 9.91141L1.10486 17.1849C1.357 17.3056 1.63582 17.3789 1.93355 17.3789H20.0663C20.364 17.3789 20.6426 17.3057 20.8947 17.1851L13.6211 9.91149Z" fill="#109CF1"/>
</g>
<defs>
<linearGradient id="paint0_linear" x1="11" y1="0.75" x2="11" y2="17.25" gradientUnits="userSpaceOnUse">
<stop stop-color="white"/>
<stop offset="1" stop-color="white" stop-opacity="0"/>
</linearGradient>
<clipPath id="clip0">
<rect y="0.75" width="22" height="16.5" fill="white"/>
</clipPath>
</defs>
</svg>
