<svg width="20" height="20" viewBox="0 0 20 20" fill="none" xmlns="http://www.w3.org/2000/svg">
<path d="M19.2927 12.1232C19.4349 11.4729 19.5105 10.7978 19.5105 10.105C19.5105 4.91055 15.2995 0.699414 10.1048 0.699414C9.55632 0.699414 9.01913 0.746797 8.49632 0.837031C7.65569 0.307383 6.66116 0 5.59436 0C2.5819 0 0.139832 2.44234 0.139832 5.45441C0.139832 6.46133 0.413777 7.40375 0.889558 8.2134C0.764832 8.82445 0.699207 9.45691 0.699207 10.1049C0.699207 15.2994 4.91026 19.5105 10.1048 19.5105C10.6932 19.5105 11.2687 19.4561 11.8271 19.3527C12.5949 19.7654 13.4729 20 14.4056 20C17.4182 20 19.8601 17.5579 19.8601 14.5455C19.8601 13.6751 19.6553 12.8531 19.2927 12.1232ZM14.9287 14.5999C14.4936 15.2156 13.8507 15.7036 13.0178 16.0498C12.1929 16.3927 11.2041 16.5665 10.0786 16.5665C8.72764 16.5665 7.59499 16.3289 6.71096 15.86C6.07905 15.5186 5.55796 15.0562 5.16237 14.4858C4.76276 13.9095 4.56018 13.3376 4.56018 12.7862C4.56018 12.4415 4.69225 12.1427 4.95253 11.8982C5.21018 11.6558 5.54038 11.533 5.93421 11.533C6.25741 11.533 6.53616 11.63 6.76272 11.8215C6.97925 12.005 7.16507 12.2764 7.31425 12.627C7.48093 13.0088 7.66272 13.3311 7.8546 13.585C8.03901 13.8292 8.30448 14.0344 8.64339 14.1946C8.9844 14.3561 9.44405 14.4379 10.0094 14.4379C10.787 14.4379 11.4245 14.2719 11.9041 13.9444C12.3724 13.6246 12.6001 13.2407 12.6001 12.7708C12.6001 12.3995 12.4812 12.1077 12.2368 11.8787C11.9808 11.6393 11.6432 11.4529 11.2332 11.3252C10.8057 11.1919 10.2253 11.0482 9.50749 10.8979C8.53511 10.6896 7.70854 10.4425 7.05022 10.1633C7.04761 10.1623 7.04503 10.1612 7.04257 10.1601C6.36811 9.8732 5.82448 9.47543 5.42682 8.9777C5.02288 8.47223 4.81823 7.83809 4.81823 7.0927C4.81823 6.38215 5.03311 5.74168 5.4569 5.18922C5.87749 4.64062 6.49179 4.2143 7.28257 3.92176C8.06315 3.63309 8.99171 3.48684 10.0424 3.48684C10.8824 3.48684 11.6209 3.58383 12.2373 3.77551C12.8572 3.96859 13.3799 4.2293 13.7906 4.55012C14.2042 4.87332 14.5119 5.2191 14.7052 5.57824C14.9004 5.94098 14.9993 6.30199 14.9993 6.65117C14.9993 6.98723 14.8695 7.29266 14.6135 7.55883C14.356 7.82656 14.031 7.9625 13.6475 7.9625C13.2992 7.9625 13.0266 7.8775 12.8374 7.70988C12.6614 7.5543 12.4788 7.31168 12.2761 6.96262C12.0416 6.51703 11.7578 6.16574 11.4321 5.9182C11.1161 5.67781 10.5877 5.55574 9.86175 5.55574C9.18753 5.55574 8.63921 5.69109 8.2321 5.95801C7.83975 6.2152 7.64917 6.51016 7.64917 6.85953C7.64917 7.07387 7.7105 7.25293 7.83671 7.40707C7.97046 7.57035 8.15897 7.71375 8.39725 7.83293C8.64452 7.95719 8.89921 8.05594 9.1544 8.12641C9.41573 8.19895 9.8544 8.30641 10.4558 8.44535C11.0896 8.58141 11.6798 8.73129 12.217 8.89168C12.325 8.92387 12.4316 8.95648 12.5351 8.98953C13.1614 9.19 13.7027 9.43727 14.1441 9.72434C14.5946 10.0177 14.9513 10.3945 15.2044 10.8443C15.4582 11.2957 15.5868 11.8531 15.5868 12.5006C15.5868 13.2757 15.3653 13.9818 14.9287 14.5999Z" fill="#00B8ED"/>
</svg>
