<svg width="21" height="20" viewBox="0 0 21 20" fill="none" xmlns="http://www.w3.org/2000/svg">
<g clip-path="url(#clip0)">
<path d="M10.6692 0H10.6642C5.15044 0 0.666687 4.485 0.666687 10C0.666687 12.1875 1.37169 14.215 2.57044 15.8612L1.32419 19.5763L5.16794 18.3475C6.74919 19.395 8.63544 20 10.6692 20C16.1829 20 20.6667 15.5138 20.6667 10C20.6667 4.48625 16.1829 0 10.6692 0Z" fill="#4CAF50"/>
<path d="M16.4879 14.1212C16.2467 14.8025 15.2892 15.3675 14.5254 15.5325C14.0029 15.6437 13.3204 15.7325 11.0229 14.78C8.08419 13.5625 6.19169 10.5762 6.04419 10.3825C5.90294 10.1887 4.85669 8.8012 4.85669 7.3662C4.85669 5.9312 5.58544 5.23245 5.87919 4.93245C6.12044 4.6862 6.51919 4.5737 6.90169 4.5737C7.02544 4.5737 7.13669 4.57995 7.23669 4.58495C7.53044 4.59745 7.67794 4.61495 7.87169 5.0787C8.11294 5.65995 8.70044 7.09495 8.77044 7.24245C8.84169 7.38995 8.91294 7.58995 8.81294 7.7837C8.71919 7.9837 8.63669 8.07245 8.48919 8.24245C8.34169 8.41245 8.20169 8.54245 8.05419 8.72495C7.91919 8.8837 7.76669 9.0537 7.93669 9.34745C8.10669 9.63495 8.69419 10.5937 9.55919 11.3637C10.6754 12.3575 11.5804 12.675 11.9042 12.81C12.1454 12.91 12.4329 12.8862 12.6092 12.6987C12.8329 12.4575 13.1092 12.0575 13.3904 11.6637C13.5904 11.3812 13.8429 11.3462 14.1079 11.4462C14.3779 11.54 15.8067 12.2462 16.1004 12.3925C16.3942 12.54 16.5879 12.61 16.6592 12.7337C16.7292 12.8575 16.7292 13.4387 16.4879 14.1212Z" fill="#FAFAFA"/>
</g>
<defs>
<clipPath id="clip0">
<rect x="0.666687" width="20" height="20" fill="white"/>
</clipPath>
</defs>
</svg>
