<svg width="16" height="14" viewBox="0 0 16 14" fill="none" xmlns="http://www.w3.org/2000/svg">
<ellipse cx="6.67501" cy="12.7986" rx="7.67501" ry="0.75" fill="url(#paint0_radial)"/>
<g clip-path="url(#clip0)">
<path d="M8.93069 6.33788C8.80722 5.67939 8.56029 4.83571 8.23105 3.97145C7.90181 3.10719 7.53141 2.30466 7.18159 1.72849C6.79062 1.09058 6.50253 0.823074 6.29675 0.884807L6.37906 1.09058C6.42022 1.07001 6.62599 1.17289 7.01697 1.83138C7.34621 2.38697 7.71661 3.16892 8.04585 4.03318C8.37509 4.87687 8.62202 5.72055 8.74549 6.35845C8.88953 7.11983 8.80722 7.3256 8.74549 7.34618L8.8278 7.55196C9.03358 7.46965 9.07473 7.05809 8.93069 6.33788Z" fill="url(#paint1_linear)"/>
<path d="M8.76607 1.62565C9.03358 2.09894 9.32167 2.75742 9.58918 3.45706C9.85669 4.1567 10.0625 4.83576 10.1859 5.39136C10.3505 6.07042 10.2888 6.23504 10.2682 6.25562L10.3505 6.48197C10.865 6.29677 9.81553 3.51879 9.7538 3.39533C9.71264 3.27186 8.64261 0.51446 8.14874 0.699659L8.23105 0.926013C8.27221 0.926013 8.41625 1.00832 8.76607 1.62565Z" fill="url(#paint2_linear)"/>
<path d="M0.946557 0.452707C0.65847 0.51444 0.102875 1.72852 0.102875 1.72852L3.88916 1.50217L0.123452 1.89314C0.123452 1.89314 0.905402 3.00433 1.19349 3.02491C1.48158 3.04549 4.0332 3.02491 6.11154 1.60505L6.02923 1.35812L6.07038 1.15235C3.72454 0.0617324 1.23464 0.390974 0.946557 0.452707Z" fill="url(#paint3_linear)"/>
<path d="M0.0822754 1.81079C0.0822754 1.83137 0.102853 1.85195 0.123431 1.87253C0.329207 1.8931 6.99636 1.52271 10.3505 1.33751L10.2888 0.80249C6.9552 1.09058 0.288052 1.68733 0.102853 1.74906C0.0822754 1.76964 0.0822754 1.79022 0.0822754 1.81079Z" fill="white"/>
<path d="M10.3094 0.740784C8.68374 0.884827 0.164603 1.6462 0.0822929 1.72851C0.0617153 1.74909 0.0411377 1.79024 0.0411377 1.81082C0.0411377 1.85198 0.0822929 1.87255 0.102871 1.89313C0.144026 1.93429 7.40793 1.54331 10.3711 1.35811H10.3917L10.3094 0.740784ZM10.3505 1.33753C6.99637 1.52273 0.329224 1.89313 0.123448 1.87255C0.102871 1.85198 0.0822929 1.8314 0.0822929 1.81082C0.0822929 1.79024 0.0822929 1.76966 0.123448 1.74909C0.308647 1.68735 6.97579 1.0906 10.3094 0.781939L10.3505 1.33753Z" fill="#A6A6A6"/>
<path d="M0.802525 1.54334C0.514438 1.62565 0.041153 2.88089 0.041153 2.88089L3.84801 2.32529L0.0823082 3.04551C0.0823082 3.04551 0.946568 4.07439 1.25523 4.07439C1.5639 4.07439 4.11552 3.82746 6.11155 2.2224L6.00866 1.99605L6.02924 1.79027C3.60108 0.884858 1.09061 1.46103 0.802525 1.54334Z" fill="url(#paint4_linear)"/>
<path d="M0.041153 2.98374C0.041153 3.00432 0.0617306 3.0249 0.0823082 3.04548C0.288084 3.04548 7.01697 2.07833 10.3917 1.58447L10.3094 1.02887C6.93465 1.62562 0.246929 2.81912 0.0617306 2.90143C0.041153 2.94259 0.041153 2.96317 0.041153 2.98374Z" fill="white"/>
<path d="M10.3094 0.987732C8.66318 1.27582 0.102888 2.79856 0.0411552 2.88087C0 2.92203 0 2.94261 0 2.98376C0 3.02492 0.0411552 3.04549 0.0617329 3.06607C0.102888 3.08665 7.42852 2.03719 10.4123 1.60506H10.4329L10.3094 0.987732ZM10.3917 1.58448C7.01697 2.05777 0.288087 3.02492 0.0823105 3.02492C0.0617329 3.00434 0.0411552 2.98376 0.0411552 2.96318C0.0411552 2.94261 0.0411552 2.92203 0.0617329 2.90145C0.246931 2.81914 6.93466 1.62564 10.3094 1.02889L10.3917 1.58448Z" fill="#A6A6A6"/>
<path d="M0.843688 2.94259C0.555602 3.04548 0.164627 4.34187 0.164627 4.34187L3.99206 3.49819L0.205782 4.50649C0.205782 4.50649 1.15235 5.47364 1.46102 5.43249C1.76968 5.39133 4.34188 4.9592 6.2556 3.18953L6.15271 2.96317V2.7574C3.62167 2.05776 1.13178 2.81913 0.843688 2.94259Z" fill="url(#paint5_linear)"/>
<path d="M0.144058 4.42415C0.144058 4.44473 0.164636 4.4653 0.185213 4.4653C0.39099 4.44473 7.14045 2.96314 10.5358 2.20177L10.4123 1.66675C7.03756 2.53101 0.329257 4.23895 0.164636 4.34184C0.144058 4.38299 0.144058 4.40357 0.144058 4.42415Z" fill="white"/>
<path d="M10.4329 1.64618C8.78665 2.05773 0.226356 4.23896 0.144045 4.34185C0.123468 4.383 0.10289 4.42416 0.10289 4.44474C0.10289 4.48589 0.144045 4.50647 0.1852 4.52705C0.226356 4.54762 7.57257 2.92199 10.5769 2.26351H10.5975L10.4329 1.64618ZM10.5563 2.22235C7.16101 2.96315 0.411554 4.46531 0.205778 4.48589C0.1852 4.46531 0.164623 4.46531 0.164623 4.44474C0.164623 4.42416 0.164623 4.40358 0.1852 4.383C0.349821 4.28011 7.05813 2.57217 10.4329 1.70791L10.5563 2.22235Z" fill="#A6A6A6"/>
<path d="M1.15235 4.50648C0.884843 4.62994 0.596756 5.96749 0.596756 5.96749L4.32131 4.77399L0.658489 6.11153C0.658489 6.11153 1.68737 6.99637 1.99603 6.93464C2.3047 6.8729 4.83575 6.21442 6.58484 4.25955L6.46138 4.03319L6.4408 3.82742C3.84802 3.37471 1.41986 4.36243 1.15235 4.50648Z" fill="url(#paint6_linear)"/>
<path d="M0.596756 6.04978C0.596756 6.07036 0.637911 6.09093 0.658489 6.09093C0.864265 6.04978 7.4491 3.95086 10.7621 2.9014L10.5769 2.38696C7.30506 3.53931 0.781955 5.86458 0.617334 5.96747C0.596756 6.00862 0.596756 6.0292 0.596756 6.04978Z" fill="white"/>
<path d="M10.5769 2.34583C8.97184 2.90142 0.637907 5.8646 0.576174 5.94691C0.555597 5.98806 0.535019 6.02922 0.555597 6.0498C0.576175 6.09095 0.61733 6.11153 0.637907 6.11153C0.69964 6.13211 7.84008 3.84799 10.7827 2.922H10.8033L10.5769 2.34583ZM10.7621 2.90142C7.4491 3.95088 0.864261 6.0498 0.658485 6.09095C0.637907 6.09095 0.61733 6.07037 0.596752 6.0498C0.596752 6.02922 0.596752 6.00864 0.61733 5.96749C0.781951 5.8646 7.30506 3.53933 10.5769 2.38698L10.7621 2.90142Z" fill="#A6A6A6"/>
<path d="M1.62565 6.04982C1.35814 6.21444 1.2141 7.55199 1.2141 7.55199L4.81518 6.00867L1.29641 7.71661C1.29641 7.71661 2.4076 8.49856 2.69568 8.39567C2.98377 8.31336 5.43251 7.38737 6.99641 5.28845L6.85236 5.08267L6.81121 4.8769C4.19785 4.6917 1.89316 5.90578 1.62565 6.04982Z" fill="url(#paint7_linear)"/>
<path d="M1.23466 7.65486C1.23466 7.67544 1.27582 7.69601 1.2964 7.69601C1.50217 7.63428 7.84008 4.91803 11.0296 3.53933L10.8033 3.04547C7.65488 4.50648 1.39929 7.44908 1.23466 7.57255C1.23466 7.6137 1.23466 7.63428 1.23466 7.65486Z" fill="white"/>
<path d="M10.8032 3.00433C9.25992 3.70397 1.25523 7.4491 1.21407 7.55199C1.1935 7.59314 1.1935 7.6343 1.1935 7.65488C1.21407 7.69603 1.25523 7.71661 1.27581 7.71661C1.33754 7.73719 8.23104 4.75343 11.0502 3.53935H11.0708L10.8032 3.00433ZM11.0296 3.53935C7.84007 4.91805 1.50216 7.6343 1.29638 7.69603C1.27581 7.69603 1.25523 7.67545 1.23465 7.65488C1.23465 7.6343 1.23465 7.61372 1.23465 7.57257C1.3787 7.4491 7.65487 4.5065 10.8032 3.02491L11.0296 3.53935Z" fill="#A6A6A6"/>
<path d="M2.18123 7.38732C1.9343 7.57252 1.89314 8.93065 1.89314 8.93065L5.35018 7.09924L1.95488 9.05411C1.95488 9.05411 3.1278 9.75375 3.41589 9.63029C3.70397 9.5274 6.0704 8.43678 7.46968 6.2144L7.30506 6.0292L7.2639 5.82343C4.65054 5.82343 2.42816 7.20213 2.18123 7.38732Z" fill="url(#paint8_linear)"/>
<path d="M1.89314 9.01294C1.91372 9.03352 1.9343 9.03352 1.95488 9.0541C2.16065 8.99237 8.2722 5.80284 11.3588 4.19778L11.1119 3.70392C8.06643 5.39128 2.03719 8.78659 1.89314 8.93063C1.89314 8.97179 1.89314 8.99237 1.89314 9.01294Z" fill="white"/>
<path d="M11.0913 3.66278C9.60975 4.48589 1.89314 8.80719 1.85199 8.93065C1.85199 8.95123 1.85199 8.99238 1.85199 9.03354C1.87257 9.0747 1.91372 9.0747 1.9343 9.09527C1.99603 9.11585 8.66318 5.63823 11.3794 4.21838H11.4L11.0913 3.66278ZM11.3588 4.17722C8.27221 5.78228 2.14008 8.97181 1.95488 9.03354C1.9343 9.03354 1.91372 9.01296 1.89314 8.99238C1.89314 8.97181 1.89314 8.95123 1.89314 8.91007C2.03719 8.78661 8.06643 5.3913 11.1119 3.70394L11.3588 4.17722Z" fill="#A6A6A6"/>
<path d="M2.90144 8.47801C2.67509 8.66321 2.71624 10.0213 2.71624 10.0213L6.00866 8.02531L2.81913 10.1654C2.81913 10.1654 4.01263 10.7827 4.28014 10.6592C4.54765 10.5358 6.81119 9.3217 8.02527 7.03758L7.84007 6.85238L7.77834 6.64661C5.22671 6.79065 3.14837 8.29282 2.90144 8.47801Z" fill="url(#paint9_linear)"/>
<path d="M2.73682 10.1242C2.75739 10.1448 2.77797 10.1448 2.79855 10.1653C2.98375 10.083 8.78664 6.56425 11.7087 4.79457L11.4206 4.32129C8.56028 6.17327 2.88086 9.89782 2.73682 10.0419C2.73682 10.083 2.73682 10.1036 2.73682 10.1242Z" fill="white"/>
<path d="M11.4206 4.25958C10.0213 5.165 2.73682 9.91843 2.71624 10.0213C2.69566 10.0625 2.69566 10.1036 2.71624 10.1242C2.73682 10.1654 2.77797 10.1654 2.81913 10.1859C2.88086 10.1859 9.17761 6.3585 11.7704 4.7946L11.791 4.77402L11.4206 4.25958ZM11.7087 4.77402C8.78664 6.5437 2.98375 10.0625 2.79855 10.1448C2.77797 10.1448 2.75739 10.1242 2.73682 10.1036C2.71624 10.083 2.71624 10.0625 2.73682 10.0213C2.88086 9.89785 8.56028 6.1733 11.4206 4.30074L11.7087 4.77402Z" fill="#A6A6A6"/>
<path d="M3.5805 9.30103C3.37473 9.50681 3.51877 10.8444 3.51877 10.8444L6.58484 8.62197L3.60108 10.9678C3.60108 10.9678 4.81516 11.5028 5.08267 11.3588C5.3296 11.2147 7.46967 9.83605 8.49856 7.4902L8.31336 7.32558L8.23105 7.14038C5.72058 7.44905 3.78628 9.09525 3.5805 9.30103Z" fill="url(#paint10_linear)"/>
<path d="M3.53933 10.9267C3.55991 10.9472 3.58048 10.9472 3.60106 10.9472C3.78626 10.8444 9.19817 6.95519 11.935 4.97974L11.6058 4.54761C8.95124 6.60537 3.64222 10.7003 3.53933 10.8649C3.51875 10.8855 3.51875 10.9061 3.53933 10.9267Z" fill="white"/>
<path d="M11.6058 4.52704C10.3094 5.51476 3.51877 10.7415 3.49819 10.8444C3.47762 10.8855 3.49819 10.9267 3.51877 10.9473C3.53935 10.9884 3.5805 10.9884 3.62166 10.9884C3.68339 10.9884 9.56859 6.74942 11.9967 5.0209L12.0173 5.00032L11.6058 4.52704ZM11.935 5.00032C9.19819 6.9552 3.78628 10.8649 3.60108 10.9678C3.5805 10.9678 3.55993 10.9678 3.53935 10.9473C3.51877 10.9267 3.51877 10.9061 3.53935 10.8649C3.66281 10.7209 8.95126 6.62596 11.6264 4.56819L11.935 5.00032Z" fill="#A6A6A6"/>
<path d="M8.10758 6.6054C7.77833 6.04981 7.40794 5.26786 7.0787 4.4036C6.74945 3.55992 6.50252 2.71623 6.37906 2.07833C6.23501 1.31696 6.31732 1.11118 6.37906 1.0906L6.29675 0.884827C6.09097 0.967137 6.04981 1.35811 6.19386 2.09891C6.31732 2.75739 6.56426 3.60107 6.8935 4.46533C7.22274 5.32959 7.59314 6.13212 7.94296 6.70829C8.33393 7.3462 8.62202 7.63429 8.82779 7.55198L8.74548 7.3462C8.70433 7.36678 8.49855 7.26389 8.10758 6.6054Z" fill="url(#paint11_linear)"/>
<path d="M8.74549 3.78629C8.78665 3.90975 9.85668 6.66716 10.3505 6.48196L10.2682 6.2556C10.2477 6.2556 10.1036 6.17329 9.75379 5.55596C9.48628 5.08268 9.1982 4.4242 8.93069 3.72456C8.66318 3.02492 8.4574 2.34586 8.33394 1.79026C8.16932 1.1112 8.23105 0.946577 8.25163 0.926L8.16932 0.699646C7.65488 0.884845 8.70433 3.66282 8.74549 3.78629Z" fill="url(#paint12_linear)"/>
<path d="M10.865 0.473275C10.9473 0.905405 11.0296 1.52273 11.5029 2.75739C11.9762 3.99205 12.2025 4.38302 12.5523 4.87689C12.6347 4.85631 13.0256 4.71226 13.1285 4.67111C14.0751 4.30071 14.6924 3.70396 14.9599 3.00432C15.1451 2.48988 15.1451 1.95486 14.9599 1.44042C14.7541 0.925982 14.4043 0.51443 13.9105 0.267498C13.252 -0.0823211 12.3877 -0.123476 11.4411 0.246921C11.3383 0.288076 10.9473 0.432119 10.865 0.473275Z" fill="url(#paint13_radial)"/>
<path d="M12.5318 4.89745C12.5318 4.89745 11.935 3.9303 11.4823 2.77795C11.0296 1.60503 10.8444 0.493835 10.8444 0.493835L10.083 0.781922C10.083 0.781922 10.3094 1.89311 10.7415 3.04546C11.1737 4.19781 11.7498 5.16496 11.7498 5.16496L12.5318 4.89745Z" fill="url(#paint14_linear)"/>
</g>
<defs>
<radialGradient id="paint0_radial" cx="0" cy="0" r="1" gradientUnits="userSpaceOnUse" gradientTransform="translate(6.67501 12.7986) rotate(90) scale(0.75 7.67501)">
<stop stop-color="#4A4A4A"/>
<stop offset="1" stop-color="#C4C4C4" stop-opacity="0"/>
</radialGradient>
<linearGradient id="paint1_linear" x1="9.16179" y1="7.41963" x2="6.62545" y2="0.766182" gradientUnits="userSpaceOnUse">
<stop stop-color="#757679"/>
<stop offset="0.503" stop-color="#DCDDDE"/>
<stop offset="0.5828" stop-color="#C3C5C7"/>
<stop offset="0.7136" stop-color="#A0A2A5"/>
<stop offset="0.8314" stop-color="#888A8D"/>
<stop offset="0.9309" stop-color="#7A7C7E"/>
<stop offset="1" stop-color="#757679"/>
</linearGradient>
<linearGradient id="paint2_linear" x1="10.6185" y1="6.37381" x2="8.41694" y2="0.59868" gradientUnits="userSpaceOnUse">
<stop stop-color="#757679"/>
<stop offset="0.503" stop-color="#DCDDDE"/>
<stop offset="0.5828" stop-color="#C3C5C7"/>
<stop offset="0.7136" stop-color="#A0A2A5"/>
<stop offset="0.8314" stop-color="#888A8D"/>
<stop offset="0.9309" stop-color="#7A7C7E"/>
<stop offset="1" stop-color="#757679"/>
</linearGradient>
<linearGradient id="paint3_linear" x1="3.20866" y1="2.88845" x2="2.97452" y2="0.22603" gradientUnits="userSpaceOnUse">
<stop stop-color="#4F4F51"/>
<stop offset="0.1525" stop-color="#7E8083"/>
<stop offset="0.3148" stop-color="#A8AAAD"/>
<stop offset="0.4659" stop-color="#CCCECF"/>
<stop offset="0.6009" stop-color="#E6E7E8"/>
<stop offset="0.7148" stop-color="#F6F7F7"/>
<stop offset="0.7939" stop-color="white"/>
<stop offset="0.9387" stop-color="#C1C1C1"/>
<stop offset="1" stop-color="#A6A6A6"/>
</linearGradient>
<linearGradient id="paint4_linear" x1="3.29087" y1="3.77694" x2="2.84229" y2="1.13846" gradientUnits="userSpaceOnUse">
<stop stop-color="#4F4F51"/>
<stop offset="0.1525" stop-color="#7E8083"/>
<stop offset="0.3148" stop-color="#A8AAAD"/>
<stop offset="0.4659" stop-color="#CCCECF"/>
<stop offset="0.6009" stop-color="#E6E7E8"/>
<stop offset="0.7148" stop-color="#F6F7F7"/>
<stop offset="0.7939" stop-color="white"/>
<stop offset="1" stop-color="#EBEBEC"/>
</linearGradient>
<linearGradient id="paint5_linear" x1="3.50043" y1="4.97893" x2="2.86493" y2="2.37745" gradientUnits="userSpaceOnUse">
<stop stop-color="#4F4F51"/>
<stop offset="0.1525" stop-color="#7E8083"/>
<stop offset="0.3148" stop-color="#A8AAAD"/>
<stop offset="0.4659" stop-color="#CCCECF"/>
<stop offset="0.6009" stop-color="#E6E7E8"/>
<stop offset="0.7148" stop-color="#F6F7F7"/>
<stop offset="0.7939" stop-color="white"/>
<stop offset="1" stop-color="#EBEBEC"/>
</linearGradient>
<linearGradient id="paint6_linear" x1="3.98491" y1="6.29037" x2="3.11625" y2="3.75749" gradientUnits="userSpaceOnUse">
<stop stop-color="#4F4F51"/>
<stop offset="0.1525" stop-color="#7E8083"/>
<stop offset="0.3148" stop-color="#A8AAAD"/>
<stop offset="0.4659" stop-color="#CCCECF"/>
<stop offset="0.6009" stop-color="#E6E7E8"/>
<stop offset="0.7148" stop-color="#F6F7F7"/>
<stop offset="0.7939" stop-color="white"/>
<stop offset="1" stop-color="#EBEBEC"/>
</linearGradient>
<linearGradient id="paint7_linear" x1="4.62866" y1="7.56676" x2="3.51821" y2="5.13003" gradientUnits="userSpaceOnUse">
<stop stop-color="#4F4F51"/>
<stop offset="0.1525" stop-color="#7E8083"/>
<stop offset="0.3148" stop-color="#A8AAAD"/>
<stop offset="0.4659" stop-color="#CCCECF"/>
<stop offset="0.6009" stop-color="#E6E7E8"/>
<stop offset="0.7148" stop-color="#F6F7F7"/>
<stop offset="0.7939" stop-color="white"/>
<stop offset="1" stop-color="#EBEBEC"/>
</linearGradient>
<linearGradient id="paint8_linear" x1="5.27397" y1="8.66841" x2="3.98747" y2="6.31982" gradientUnits="userSpaceOnUse">
<stop stop-color="#4F4F51"/>
<stop offset="0.1525" stop-color="#7E8083"/>
<stop offset="0.3148" stop-color="#A8AAAD"/>
<stop offset="0.4659" stop-color="#CCCECF"/>
<stop offset="0.6009" stop-color="#E6E7E8"/>
<stop offset="0.7148" stop-color="#F6F7F7"/>
<stop offset="0.7939" stop-color="white"/>
<stop offset="1" stop-color="#EBEBEC"/>
</linearGradient>
<linearGradient id="paint9_linear" x1="6.04756" y1="9.59029" x2="4.61733" y2="7.32938" gradientUnits="userSpaceOnUse">
<stop stop-color="#4F4F51"/>
<stop offset="0.1525" stop-color="#7E8083"/>
<stop offset="0.3148" stop-color="#A8AAAD"/>
<stop offset="0.4659" stop-color="#CCCECF"/>
<stop offset="0.6009" stop-color="#E6E7E8"/>
<stop offset="0.7148" stop-color="#F6F7F7"/>
<stop offset="0.7939" stop-color="white"/>
<stop offset="1" stop-color="#EBEBEC"/>
</linearGradient>
<linearGradient id="paint10_linear" x1="6.74956" y1="10.1873" x2="5.16234" y2="8.03923" gradientUnits="userSpaceOnUse">
<stop stop-color="#4F4F51"/>
<stop offset="0.1525" stop-color="#7E8083"/>
<stop offset="0.3148" stop-color="#A8AAAD"/>
<stop offset="0.4659" stop-color="#CCCECF"/>
<stop offset="0.6009" stop-color="#E6E7E8"/>
<stop offset="0.7148" stop-color="#F6F7F7"/>
<stop offset="0.7939" stop-color="white"/>
<stop offset="1" stop-color="#EBEBEC"/>
</linearGradient>
<linearGradient id="paint11_linear" x1="8.49287" y1="7.67464" x2="5.95653" y2="1.0212" gradientUnits="userSpaceOnUse">
<stop stop-color="#A3A3A3"/>
<stop offset="0.1916" stop-color="#C1C1C1"/>
<stop offset="0.6" stop-color="white"/>
<stop offset="0.6506" stop-color="#F8F8F8"/>
<stop offset="0.7234" stop-color="#E5E5E5"/>
<stop offset="0.8096" stop-color="#C6C6C6"/>
<stop offset="0.9052" stop-color="#9B9B9B"/>
<stop offset="1" stop-color="#696969"/>
</linearGradient>
<linearGradient id="paint12_linear" x1="10.1083" y1="6.56827" x2="7.90679" y2="0.793141" gradientUnits="userSpaceOnUse">
<stop stop-color="#A3A3A3"/>
<stop offset="0.1916" stop-color="#C1C1C1"/>
<stop offset="0.6" stop-color="white"/>
<stop offset="0.6506" stop-color="#F8F8F8"/>
<stop offset="0.7234" stop-color="#E5E5E5"/>
<stop offset="0.8096" stop-color="#C6C6C6"/>
<stop offset="0.9052" stop-color="#9B9B9B"/>
<stop offset="1" stop-color="#696969"/>
</linearGradient>
<radialGradient id="paint13_radial" cx="0" cy="0" r="1" gradientUnits="userSpaceOnUse" gradientTransform="translate(12.0221 2.55867) rotate(-110.867) scale(2.62547 3.28213)">
<stop offset="0.0121212" stop-color="white"/>
<stop offset="0.2109" stop-color="#FBFBFB"/>
<stop offset="0.3514" stop-color="#F2F2F3"/>
<stop offset="0.474" stop-color="#E4E5E6"/>
<stop offset="0.5863" stop-color="#D2D4D5"/>
<stop offset="0.6916" stop-color="#BABCBF"/>
<stop offset="0.7918" stop-color="#9EA0A3"/>
<stop offset="0.8878" stop-color="#7F8183"/>
<stop offset="0.9783" stop-color="#5A5B5D"/>
<stop offset="1" stop-color="#4F4F51"/>
</radialGradient>
<linearGradient id="paint14_linear" x1="12.0741" y1="5.06575" x2="10.3922" y2="0.653796" gradientUnits="userSpaceOnUse">
<stop/>
<stop offset="0.0475179" stop-color="#0E0E0E"/>
<stop offset="0.1371" stop-color="#323232"/>
<stop offset="0.2582" stop-color="#6D6D6D"/>
<stop offset="0.3273" stop-color="#919191"/>
<stop offset="0.3516" stop-color="#878787"/>
<stop offset="0.47" stop-color="#575757"/>
<stop offset="0.5825" stop-color="#313131"/>
<stop offset="0.6863" stop-color="#161616"/>
<stop offset="0.7782" stop-color="#060606"/>
<stop offset="0.8485"/>
</linearGradient>
<clipPath id="clip0">
<rect width="15.0834" height="11.4" fill="white"/>
</clipPath>
</defs>
</svg>
