<svg width="15" height="16" viewBox="0 0 15 16" fill="none" xmlns="http://www.w3.org/2000/svg">
<ellipse cx="7.5" cy="14.45" rx="7.5" ry="0.75" fill="url(#paint0_radial)"/>
<path d="M2.76029 9.12571C2.76029 9.12571 3.56324 8.32277 3.68676 8.07571C3.68676 8.07571 4.53603 6.90218 4.675 6.3463C4.675 6.3463 4.99926 5.5588 5.15368 4.49336C5.15368 4.49336 5.27721 3.1963 5.10735 2.57865C5.10735 2.57865 4.92206 1.45144 4.55147 0.725708C2.45147 1.82203 1 4.01468 1 6.56247C1 7.62791 1.24706 8.63159 1.71029 9.52718C1.77206 9.63527 1.83382 9.74335 1.89559 9.86688C2.18897 9.63527 2.63676 9.28012 2.76029 9.12571Z" fill="url(#paint1_linear)"/>
<path d="M9.925 9.54265C10.0331 8.97132 10.0485 8.81691 10.4654 7.45809C10.4654 7.45809 10.9596 6.0375 11.9169 4.95662C11.9169 4.95662 12.9669 3.78309 13.3529 3.47426V3.45882C12.2257 1.38971 10.0485 0 7.5625 0C6.62058 0 5.74044 0.200735 4.9375 0.555882C4.81397 0.617647 4.69044 0.663971 4.56691 0.725735C4.9375 1.45147 5.12279 2.57868 5.12279 2.57868C5.2772 3.19632 5.16911 4.49338 5.16911 4.49338C5.0147 5.57426 4.69044 6.34632 4.69044 6.34632C4.55147 6.90221 3.7022 8.07574 3.7022 8.07574C3.57867 8.32279 2.77573 9.12574 2.77573 9.12574C2.66764 9.28015 2.20441 9.63529 1.89558 9.85147C3.02279 11.7971 5.13823 13.125 7.5625 13.125C8.41176 13.125 9.23014 12.9551 9.97132 12.6618C9.92499 12.5074 9.84779 12.1831 9.81691 11.689C9.78602 11.025 9.81691 10.114 9.925 9.54265Z" fill="url(#paint2_radial)"/>
<path d="M13.3375 3.4588C12.9515 3.76762 11.9015 4.94115 11.9015 4.94115C10.9441 6.03748 10.45 7.44263 10.45 7.44263C10.0331 8.81689 10.0176 8.9713 9.90955 9.52718C9.80147 10.0985 9.77058 11.0095 9.80147 11.6735C9.83235 12.1676 9.90955 12.4919 9.95588 12.6463C10.0794 12.6 10.2184 12.5382 10.3419 12.4764C12.5809 11.4419 14.125 9.18748 14.125 6.56248C14.125 5.43527 13.8316 4.38527 13.3375 3.4588Z" fill="url(#paint3_radial)"/>
<path d="M4.31986 1.17349C4.3353 1.20437 4.27354 1.26614 4.16545 1.29702C4.05736 1.3279 3.96471 1.3279 3.93383 1.29702C3.91839 1.26614 3.9956 1.20437 4.08824 1.17349C4.21177 1.14261 4.30442 1.14261 4.31986 1.17349Z" fill="url(#paint4_linear)"/>
<path d="M4.90661 0.802872C4.89117 0.78743 4.89117 0.771989 4.87572 0.756548C4.84484 0.710225 4.78308 0.710224 4.72131 0.725666C4.5669 0.802872 4.42793 0.880077 4.28896 0.957283C4.28896 0.957283 4.14999 1.04993 4.10367 1.12714C4.0419 1.23522 4.0419 1.29699 4.0419 1.29699C4.0419 1.29699 4.24264 1.29699 4.38161 1.1889C4.42793 1.14258 4.48969 1.1117 4.53602 1.08081C4.64411 1.01905 4.73675 0.972724 4.84484 0.926401C4.92205 0.91096 4.93749 0.849195 4.90661 0.802872Z" fill="url(#paint5_linear)"/>
<path d="M5.86394 0.941884C5.87939 0.988208 5.78674 1.01909 5.67865 1.03453C5.57056 1.04997 5.46247 1.01909 5.44703 0.988208C5.43159 0.941884 5.52424 0.911002 5.63233 0.895561C5.74042 0.88012 5.8485 0.895561 5.86394 0.941884Z" fill="url(#paint6_linear)"/>
<path d="M5.63238 0.880118C5.53973 0.802912 5.36988 0.756588 5.36988 0.756588C5.16915 0.710265 4.96841 0.694824 4.76767 0.679382C4.73679 0.679382 4.69047 0.679382 4.65959 0.679382C4.6287 0.694824 4.59782 0.725706 4.5515 0.725706C4.59782 0.833794 4.67503 0.864676 4.67503 0.864676C4.70591 0.880118 4.73679 0.895559 4.76767 0.895559C4.98385 0.926441 5.16915 0.957323 5.36988 0.988206C5.63238 1.08085 5.77135 1.01909 5.77135 1.01909C5.77135 1.01909 5.74047 0.957323 5.63238 0.880118Z" fill="url(#paint7_linear)"/>
<path d="M4.53604 1.79112C4.55148 1.82201 4.47427 1.88377 4.36618 1.89921C4.2581 1.9301 4.15001 1.91465 4.13457 1.88377C4.11913 1.85289 4.19633 1.80657 4.30442 1.77568C4.41251 1.7448 4.5206 1.76024 4.53604 1.79112Z" fill="url(#paint8_linear)"/>
<path d="M5.12282 1.42055C5.09194 1.37422 5.03018 1.35878 4.96841 1.38966C4.814 1.45143 4.65959 1.52863 4.52062 1.60584C4.52062 1.60584 4.38165 1.68305 4.31988 1.76025C4.25812 1.8529 4.24268 1.91466 4.24268 1.91466C4.24268 1.91466 4.44341 1.9301 4.59782 1.82202C4.65959 1.77569 4.70591 1.74481 4.75223 1.71393C4.86032 1.6676 4.96841 1.62128 5.0765 1.57496C5.13826 1.55952 5.16915 1.49775 5.13826 1.45143C5.13826 1.45143 5.13826 1.43599 5.12282 1.42055Z" fill="url(#paint9_linear)"/>
<path d="M6.08015 1.63672C6.0956 1.68304 6.00295 1.71392 5.87942 1.72936C5.75589 1.72936 5.66324 1.71392 5.6478 1.6676C5.63236 1.62127 5.72501 1.59039 5.84854 1.57495C5.97207 1.57495 6.08015 1.59039 6.08015 1.63672Z" fill="url(#paint10_linear)"/>
<path d="M5.98748 1.71391C5.98748 1.71391 5.9566 1.65214 5.86395 1.57494C5.7713 1.49773 5.61689 1.45141 5.61689 1.45141C5.41615 1.38964 5.21542 1.35876 5.01468 1.32788C4.89115 1.31244 4.79851 1.297 4.79851 1.297C4.79851 1.31244 4.79851 1.31244 4.79851 1.32788C4.82939 1.46685 4.92204 1.51317 4.92204 1.51317C4.93748 1.52861 4.96836 1.54406 5.01468 1.54406C5.21542 1.57494 5.40071 1.60582 5.60145 1.66759C5.83307 1.76023 5.98748 1.71391 5.98748 1.71391Z" fill="url(#paint11_linear)"/>
<path d="M4.67501 2.40883C4.69045 2.43971 4.5978 2.48603 4.48972 2.50147C4.38163 2.51692 4.27354 2.50147 4.2581 2.47059C4.24266 2.43971 4.3353 2.39339 4.44339 2.37794C4.56692 2.3625 4.65957 2.37794 4.67501 2.40883Z" fill="url(#paint12_linear)"/>
<path d="M5.30808 2.06908C5.29264 2.02276 5.21543 2.00732 5.15367 2.02276C4.99925 2.08452 4.8294 2.14629 4.67499 2.20805C4.67499 2.20805 4.52058 2.28526 4.45881 2.34702C4.38161 2.43967 4.36617 2.51688 4.36617 2.51688C4.36617 2.51688 4.5669 2.54776 4.72131 2.43967C4.78308 2.40879 4.84484 2.37791 4.89117 2.34702C4.99925 2.3007 5.12278 2.25438 5.23087 2.22349C5.29264 2.20805 5.32352 2.16173 5.30808 2.11541C5.32352 2.09996 5.30808 2.08452 5.30808 2.06908Z" fill="url(#paint13_linear)"/>
<path d="M6.24998 2.34704C6.24998 2.39337 6.15733 2.42425 6.04925 2.42425C5.92572 2.42425 5.83307 2.39337 5.83307 2.34704C5.83307 2.30072 5.92572 2.26984 6.0338 2.26984C6.14189 2.26984 6.23454 2.30072 6.24998 2.34704Z" fill="url(#paint14_linear)"/>
<path d="M6.14188 2.40879C6.14188 2.40879 6.12644 2.34703 6.03379 2.26982C5.95659 2.17717 5.78674 2.13085 5.78674 2.13085C5.60144 2.06909 5.40071 2.02276 5.19997 1.97644C5.07644 1.961 4.9838 1.94556 4.9838 1.94556C4.9838 1.961 4.9838 1.961 4.9838 1.97644C5.01468 2.11541 5.09188 2.16173 5.09188 2.16173C5.10732 2.17717 5.13821 2.19262 5.18453 2.20806C5.38527 2.23894 5.57056 2.3007 5.75585 2.36247C5.98747 2.45512 6.14188 2.40879 6.14188 2.40879Z" fill="url(#paint15_linear)"/>
<path d="M4.76763 3.02643C4.78307 3.05731 4.69043 3.10363 4.5669 3.11907C4.45881 3.13451 4.35072 3.11907 4.35072 3.07275C4.33528 3.04187 4.42793 2.99554 4.53601 2.9801C4.65954 2.9801 4.75219 2.99554 4.76763 3.02643Z" fill="url(#paint16_linear)"/>
<path d="M5.41618 2.73302C5.40074 2.6867 5.33898 2.67126 5.26177 2.6867C5.09192 2.73302 4.93751 2.77935 4.76765 2.84111C4.76765 2.84111 4.61324 2.90288 4.55148 2.96464C4.45883 3.05729 4.44339 3.11905 4.44339 3.11905C4.44339 3.11905 4.64413 3.14993 4.81398 3.07273C4.87574 3.04185 4.93751 3.01096 4.99927 2.99552C5.1228 2.96464 5.23089 2.91832 5.35442 2.88743C5.41618 2.87199 5.44707 2.82567 5.43163 2.77935C5.43163 2.7639 5.43163 2.74846 5.41618 2.73302Z" fill="url(#paint17_linear)"/>
<path d="M6.34265 3.04187C6.34265 3.08819 6.25 3.11907 6.12647 3.10363C6.00294 3.10363 5.91029 3.05731 5.91029 3.02643C5.91029 2.9801 6.00294 2.96466 6.12647 2.96466C6.25 2.96466 6.34265 3.01098 6.34265 3.04187Z" fill="url(#paint18_linear)"/>
<path d="M6.21911 3.10361C6.21911 3.10361 6.20367 3.04185 6.12646 2.9492C6.04926 2.85655 5.89485 2.79479 5.89485 2.79479C5.70955 2.71758 5.50882 2.67126 5.32352 2.62494C5.19999 2.59405 5.10735 2.57861 5.10735 2.57861C5.10735 2.59405 5.10735 2.59405 5.10735 2.6095C5.12279 2.74847 5.19999 2.79479 5.19999 2.79479C5.21543 2.81023 5.24632 2.82567 5.2772 2.84111C5.46249 2.88744 5.64779 2.9492 5.83308 3.02641C6.0647 3.14994 6.21911 3.10361 6.21911 3.10361Z" fill="url(#paint19_linear)"/>
<path d="M4.79853 3.6441C4.79853 3.67498 4.70589 3.72131 4.5978 3.72131C4.47427 3.72131 4.38162 3.70587 4.38162 3.67498C4.38162 3.6441 4.45883 3.61322 4.58236 3.59778C4.69045 3.59778 4.78309 3.61322 4.79853 3.6441Z" fill="url(#paint20_linear)"/>
<path d="M5.47797 3.38158C5.46252 3.33525 5.40076 3.30437 5.33899 3.31981C5.16914 3.35069 4.99929 3.39702 4.82944 3.44334C4.82944 3.44334 4.65958 3.48967 4.59782 3.55143C4.50517 3.64408 4.47429 3.70584 4.47429 3.70584C4.47429 3.70584 4.65958 3.75217 4.84488 3.67496C4.90664 3.64408 4.98385 3.61319 5.03017 3.59775C5.1537 3.56687 5.27723 3.53599 5.40076 3.52055C5.46252 3.50511 5.50885 3.45878 5.49341 3.41246C5.49341 3.4279 5.49341 3.41246 5.47797 3.38158Z" fill="url(#paint21_linear)"/>
<path d="M6.37355 3.75218C6.37355 3.79851 6.2809 3.81395 6.15738 3.79851C6.03385 3.78307 5.9412 3.73674 5.95664 3.70586C5.95664 3.65954 6.04929 3.6441 6.17282 3.65954C6.2809 3.67498 6.37355 3.70586 6.37355 3.75218Z" fill="url(#paint22_linear)"/>
<path d="M6.25 3.81394C6.25 3.81394 6.23456 3.75217 6.17279 3.65953C6.11103 3.56688 5.95661 3.48967 5.95661 3.48967C5.77132 3.41247 5.58603 3.33526 5.40073 3.28894C5.2772 3.25806 5.18456 3.22717 5.18456 3.22717C5.18456 3.24261 5.18456 3.24261 5.18456 3.25806C5.18456 3.39703 5.26176 3.44335 5.26176 3.44335C5.2772 3.45879 5.30808 3.48967 5.33897 3.48967C5.52426 3.55144 5.70956 3.6132 5.87941 3.70585C6.09558 3.82938 6.25 3.81394 6.25 3.81394Z" fill="url(#paint23_linear)"/>
<path d="M4.76765 4.26172C4.76765 4.2926 4.675 4.32348 4.55147 4.32348C4.42794 4.32348 4.3353 4.2926 4.3353 4.26172C4.3353 4.23083 4.42794 4.19995 4.53603 4.19995C4.65956 4.19995 4.76765 4.23083 4.76765 4.26172Z" fill="url(#paint24_linear)"/>
<path d="M5.47793 4.04552C5.46249 3.99919 5.40073 3.96831 5.33896 3.98375C5.16911 4.01464 4.98382 4.04552 4.81396 4.0764C4.81396 4.0764 4.64411 4.12272 4.5669 4.18449C4.45882 4.26169 4.42793 4.32346 4.42793 4.32346C4.42793 4.32346 4.61323 4.38522 4.79852 4.30802C4.86029 4.27714 4.93749 4.26169 4.99926 4.24625C5.12279 4.21537 5.24631 4.19993 5.36984 4.18449C5.43161 4.16905 5.47793 4.13816 5.47793 4.09184C5.49337 4.0764 5.47793 4.06096 5.47793 4.04552Z" fill="url(#paint25_linear)"/>
<path d="M6.34268 4.46245C6.34268 4.50877 6.23459 4.52422 6.1265 4.50877C6.01841 4.49333 5.92577 4.44701 5.92577 4.40069C5.92577 4.35436 6.03385 4.33892 6.14194 4.35436C6.25003 4.3698 6.34268 4.41613 6.34268 4.46245Z" fill="url(#paint26_linear)"/>
<path d="M6.21914 4.50876C6.21914 4.50876 6.21914 4.44699 6.15738 4.35435C6.09561 4.24626 5.95664 4.16905 5.95664 4.16905C5.78679 4.07641 5.6015 3.9992 5.4162 3.93744C5.29267 3.89111 5.20002 3.86023 5.20002 3.86023C5.20002 3.87567 5.20002 3.87567 5.20002 3.89111C5.18458 4.03008 5.26179 4.09185 5.26179 4.09185C5.27723 4.10729 5.30811 4.13817 5.339 4.13817C5.52429 4.19994 5.69414 4.29258 5.864 4.38523C6.04929 4.5242 6.21914 4.50876 6.21914 4.50876Z" fill="url(#paint27_linear)"/>
<path d="M4.67503 4.87935C4.67503 4.91023 4.58238 4.94111 4.45885 4.94111C4.33532 4.94111 4.24268 4.89479 4.24268 4.86391C4.24268 4.83302 4.33532 4.80214 4.45885 4.81758C4.58238 4.80214 4.69047 4.84847 4.67503 4.87935Z" fill="url(#paint28_linear)"/>
<path d="M5.41618 4.69409C5.41618 4.64776 5.35441 4.61688 5.27721 4.61688C5.10736 4.63232 4.92206 4.66321 4.75221 4.69409C4.75221 4.69409 4.58236 4.72497 4.48971 4.78674C4.38162 4.86394 4.3353 4.92571 4.3353 4.92571C4.3353 4.92571 4.52059 4.98747 4.70588 4.94115C4.78309 4.92571 4.84486 4.89482 4.90662 4.89482C5.03015 4.87938 5.15368 4.86394 5.27721 4.8485C5.33897 4.8485 5.3853 4.80218 5.3853 4.75585C5.41618 4.72497 5.41618 4.70953 5.41618 4.69409Z" fill="url(#paint29_linear)"/>
<path d="M6.23457 5.14186C6.21912 5.18818 6.12648 5.18818 6.00295 5.17274C5.89486 5.14186 5.80221 5.09553 5.81765 5.06465C5.83309 5.03377 5.92574 5.01833 6.04927 5.03377C6.1728 5.06465 6.25001 5.11097 6.23457 5.14186Z" fill="url(#paint30_linear)"/>
<path d="M6.11101 5.1882C6.11101 5.1882 6.11101 5.12644 6.06468 5.03379C6.01836 4.94114 5.87939 4.84849 5.87939 4.84849C5.70954 4.75585 5.53968 4.6632 5.35439 4.58599C5.23086 4.53967 5.15365 4.50879 5.15365 4.50879C5.15365 4.52423 5.15365 4.52423 5.13821 4.53967C5.10733 4.67864 5.18454 4.74041 5.18454 4.74041C5.19998 4.75585 5.21542 4.78673 5.2463 4.80217C5.41615 4.87938 5.58601 4.97202 5.75586 5.06467C5.94115 5.20364 6.11101 5.1882 6.11101 5.1882Z" fill="url(#paint31_linear)"/>
<path d="M4.55149 5.48156C4.55149 5.51245 4.44341 5.54333 4.33532 5.52789C4.21179 5.51245 4.13458 5.48156 4.13458 5.45068C4.13458 5.4198 4.24267 5.40436 4.35076 5.40436C4.45885 5.40436 4.55149 5.43524 4.55149 5.48156Z" fill="url(#paint32_linear)"/>
<path d="M5.29267 5.34259C5.29267 5.29626 5.23091 5.26538 5.16915 5.26538C4.98385 5.26538 4.814 5.28082 4.6287 5.3117C4.6287 5.3117 4.44341 5.34259 4.3662 5.38891C4.24267 5.45068 4.21179 5.51244 4.21179 5.51244C4.21179 5.51244 4.38165 5.58965 4.58238 5.54332C4.65959 5.52788 4.72135 5.51244 4.78312 5.497C4.90665 5.48156 5.03017 5.48156 5.16915 5.48156C5.23091 5.48156 5.29267 5.43523 5.29267 5.40435C5.29267 5.37347 5.29267 5.35803 5.29267 5.34259Z" fill="url(#paint33_linear)"/>
<path d="M6.08017 5.83671C6.06472 5.88304 5.95664 5.88304 5.84855 5.85215C5.74046 5.82127 5.66325 5.75951 5.66325 5.72862C5.67869 5.69774 5.77134 5.6823 5.89487 5.71318C6.0184 5.74407 6.09561 5.79039 6.08017 5.83671Z" fill="url(#paint34_linear)"/>
<path d="M5.9412 5.86758C5.9412 5.86758 5.95664 5.80582 5.91031 5.71317C5.86399 5.60508 5.74046 5.52788 5.74046 5.52788C5.58605 5.41979 5.4162 5.32714 5.24634 5.23449C5.13826 5.18817 5.04561 5.14185 5.04561 5.14185C5.04561 5.15729 5.03017 5.15729 5.03017 5.17273C4.98384 5.3117 5.04561 5.37346 5.04561 5.37346C5.06105 5.3889 5.07649 5.41979 5.10737 5.43523C5.27723 5.52788 5.43164 5.62052 5.58605 5.72861C5.78678 5.86758 5.9412 5.86758 5.9412 5.86758Z" fill="url(#paint35_linear)"/>
<path d="M4.35072 6.06837C4.33528 6.09925 4.24263 6.11469 4.1191 6.09925C4.01101 6.08381 3.91837 6.03749 3.91837 6.00661C3.91837 5.97572 4.02645 5.96028 4.13454 5.97572C4.27351 5.99116 4.36616 6.03749 4.35072 6.06837Z" fill="url(#paint36_linear)"/>
<path d="M5.12275 5.9757C5.12275 5.92938 5.07643 5.8985 4.99922 5.8985C4.81393 5.8985 4.64407 5.8985 4.45878 5.91394C4.45878 5.91394 4.27349 5.92938 4.18084 5.9757C4.05731 6.03747 4.01099 6.09923 4.01099 6.09923C4.01099 6.09923 4.18084 6.17644 4.38157 6.14556C4.45878 6.13012 4.53599 6.13012 4.59775 6.11467C4.72128 6.11467 4.86025 6.11467 4.98378 6.11467C5.04554 6.11467 5.10731 6.08379 5.10731 6.03747C5.12275 6.00659 5.12275 5.99115 5.12275 5.9757Z" fill="url(#paint37_linear)"/>
<path d="M5.86396 6.50069C5.84852 6.53158 5.74043 6.54702 5.63235 6.50069C5.52426 6.46981 5.44705 6.40805 5.46249 6.36172C5.47793 6.33084 5.58602 6.33084 5.69411 6.36172C5.8022 6.40805 5.8794 6.46981 5.86396 6.50069Z" fill="url(#paint38_linear)"/>
<path d="M5.72496 6.53158C5.72496 6.53158 5.7404 6.46982 5.70951 6.37717C5.67863 6.26908 5.5551 6.17643 5.5551 6.17643C5.40069 6.06835 5.24628 5.96026 5.09187 5.86761C4.98378 5.80585 4.90657 5.75952 4.90657 5.75952C4.90657 5.77496 4.89113 5.77496 4.89113 5.7904C4.84481 5.92937 4.89113 5.99114 4.89113 5.99114C4.90657 6.02202 4.92201 6.03746 4.9529 6.0529C5.10731 6.14555 5.26172 6.25364 5.40069 6.37717C5.5551 6.51614 5.72496 6.53158 5.72496 6.53158Z" fill="url(#paint39_linear)"/>
<path d="M4.10369 6.63969C4.08825 6.67057 3.9956 6.68602 3.87207 6.65513C3.76398 6.62425 3.67134 6.57793 3.68678 6.54705C3.70222 6.51616 3.79487 6.50072 3.9184 6.5316C4.02648 6.56249 4.11913 6.60881 4.10369 6.63969Z" fill="url(#paint40_linear)"/>
<path d="M4.89118 6.59338C4.90662 6.54706 4.84486 6.50073 4.7831 6.50073C4.5978 6.48529 4.41251 6.48529 4.22721 6.48529C4.22721 6.48529 4.04192 6.48529 3.94927 6.53161C3.82574 6.57794 3.77942 6.6397 3.77942 6.6397C3.77942 6.6397 3.94927 6.73235 4.15001 6.70147C4.22721 6.68603 4.30442 6.68603 4.36618 6.68603C4.48971 6.68603 4.62868 6.70147 4.75221 6.70147C4.81398 6.70147 4.87574 6.67058 4.89118 6.6397C4.87574 6.62426 4.87574 6.60882 4.89118 6.59338Z" fill="url(#paint41_linear)"/>
<path d="M5.57058 7.1647C5.55514 7.19559 5.44705 7.19559 5.33896 7.14926C5.23088 7.10294 5.16911 7.04118 5.18455 7.01029C5.19999 6.97941 5.30808 6.97941 5.41617 7.02573C5.52426 7.05662 5.60146 7.11838 5.57058 7.1647Z" fill="url(#paint42_linear)"/>
<path d="M5.43165 7.18014C5.43165 7.18014 5.44709 7.11837 5.43165 7.02573C5.40077 6.91764 5.29268 6.82499 5.29268 6.82499C5.15371 6.70146 5.01474 6.59337 4.84488 6.48529C4.73679 6.42352 4.65959 6.3772 4.65959 6.3772C4.65959 6.39264 4.64415 6.39264 4.64415 6.40808C4.58238 6.53161 4.62871 6.60881 4.62871 6.60881C4.64415 6.6397 4.65959 6.65514 4.67503 6.67058C4.82944 6.77867 4.96841 6.88676 5.10738 7.01029C5.27724 7.1647 5.43165 7.18014 5.43165 7.18014Z" fill="url(#paint43_linear)"/>
<path d="M3.8103 7.21102C3.79486 7.24191 3.68677 7.24191 3.57868 7.21102C3.47059 7.18014 3.39339 7.13382 3.40883 7.10293C3.42427 7.07205 3.53236 7.07205 3.64045 7.10293C3.73309 7.11838 3.82574 7.18014 3.8103 7.21102Z" fill="url(#paint44_linear)"/>
<path d="M4.59782 7.19555C4.61326 7.14923 4.56694 7.1029 4.48973 7.1029C4.30444 7.08746 4.13458 7.07202 3.94929 7.05658C3.94929 7.05658 3.76399 7.05658 3.67135 7.08746C3.53238 7.13379 3.48605 7.18011 3.48605 7.18011C3.48605 7.18011 3.64047 7.2882 3.85664 7.27276C3.93385 7.27276 4.01105 7.27276 4.07282 7.27276C4.19635 7.2882 4.33532 7.30364 4.45885 7.31908C4.52061 7.33452 4.58238 7.30364 4.59782 7.25731C4.58238 7.22643 4.58238 7.21099 4.59782 7.19555Z" fill="url(#paint45_linear)"/>
<path d="M5.23088 7.79776C5.2 7.82864 5.10735 7.82864 4.99926 7.78232C4.89117 7.736 4.82941 7.67423 4.86029 7.62791C4.89117 7.59703 4.98382 7.59702 5.09191 7.64335C5.18456 7.68967 5.24632 7.76688 5.23088 7.79776Z" fill="url(#paint46_linear)"/>
<path d="M5.09192 7.81319C5.09192 7.81319 5.1228 7.75143 5.10736 7.65878C5.09192 7.55069 4.99927 7.4426 4.99927 7.4426C4.87574 7.31907 4.73677 7.19555 4.58236 7.08746C4.47427 6.99481 4.39707 6.94849 4.39707 6.94849C4.39707 6.96393 4.38162 6.96393 4.38162 6.97937C4.30442 7.1029 4.35074 7.1801 4.35074 7.1801C4.35074 7.21099 4.36618 7.22643 4.39707 7.25731C4.53604 7.3654 4.67501 7.48893 4.79854 7.61246C4.92207 7.78231 5.09192 7.81319 5.09192 7.81319Z" fill="url(#paint47_linear)"/>
<path d="M3.45513 7.75143C3.43969 7.78231 3.33161 7.78231 3.22352 7.75143C3.11543 7.72055 3.03822 7.65878 3.05366 7.6279C3.06911 7.59702 3.17719 7.59702 3.28528 7.6279C3.39337 7.65878 3.47058 7.72055 3.45513 7.75143Z" fill="url(#paint48_linear)"/>
<path d="M4.24265 7.78236C4.2581 7.73603 4.21177 7.68971 4.15001 7.67427C3.98015 7.64338 3.79486 7.6125 3.60957 7.59706C3.60957 7.59706 3.42427 7.58162 3.33163 7.6125C3.19265 7.64338 3.13089 7.70515 3.13089 7.70515C3.13089 7.70515 3.26986 7.81324 3.48604 7.81324C3.56324 7.81324 3.64045 7.81324 3.70221 7.81324C3.82574 7.82868 3.96471 7.84412 4.08824 7.875C4.15001 7.89044 4.22721 7.85956 4.24265 7.81324C4.22721 7.81324 4.22721 7.7978 4.24265 7.78236Z" fill="url(#paint49_linear)"/>
<path d="M4.8294 8.41541C4.79852 8.44629 4.70587 8.43085 4.59778 8.38453C4.50513 8.33821 4.44337 8.261 4.47425 8.23012C4.50513 8.19923 4.59778 8.21468 4.70587 8.261C4.79852 8.30732 4.84484 8.38453 4.8294 8.41541Z" fill="url(#paint50_linear)"/>
<path d="M4.675 8.41543C4.675 8.41543 4.70589 8.35366 4.70589 8.26101C4.70589 8.15293 4.61324 8.04484 4.61324 8.04484C4.50515 7.90587 4.36618 7.78234 4.24265 7.65881C4.15 7.5816 4.08824 7.53528 4.08824 7.53528C4.08824 7.55072 4.0728 7.55072 4.0728 7.56616C3.98015 7.68969 4.02647 7.75146 4.02647 7.75146C4.02647 7.78234 4.04191 7.79778 4.0728 7.82866C4.21177 7.95219 4.31986 8.07572 4.42794 8.21469C4.52059 8.38454 4.675 8.41543 4.675 8.41543Z" fill="url(#paint51_linear)"/>
<path d="M3.03825 8.27641C3.02281 8.30729 2.91472 8.30729 2.80663 8.26097C2.69854 8.21464 2.63678 8.15288 2.65222 8.122C2.66766 8.09111 2.77575 8.10656 2.88384 8.13744C2.99193 8.18376 3.06913 8.24553 3.03825 8.27641Z" fill="url(#paint52_linear)"/>
<path d="M3.84116 8.33818C3.85661 8.29186 3.82572 8.24553 3.74852 8.23009C3.57866 8.18377 3.39337 8.15288 3.22352 8.122C3.22352 8.122 3.03822 8.09112 2.93014 8.122C2.79116 8.15288 2.71396 8.19921 2.71396 8.19921C2.71396 8.19921 2.85293 8.32274 3.05366 8.32274C3.13087 8.32274 3.20808 8.33818 3.26984 8.33818C3.39337 8.36906 3.5169 8.3845 3.64043 8.41538C3.70219 8.43083 3.7794 8.41538 3.79484 8.36906C3.82572 8.36906 3.82572 8.35362 3.84116 8.33818Z" fill="url(#paint53_linear)"/>
<path d="M4.35073 9.01757C4.31985 9.04845 4.21176 9.03301 4.11911 8.97124C4.02646 8.90948 3.98014 8.83227 4.01102 8.80139C4.04191 8.77051 4.13455 8.78595 4.24264 8.84771C4.33529 8.90948 4.38161 8.98669 4.35073 9.01757Z" fill="url(#paint54_linear)"/>
<path d="M4.21176 9.00215C4.21176 9.00215 4.24264 8.95583 4.25808 8.84774C4.25808 8.73965 4.18088 8.61612 4.18088 8.61612C4.07279 8.47715 3.9647 8.33818 3.84117 8.21465C3.74853 8.13745 3.7022 8.07568 3.7022 8.07568C3.68676 8.09112 3.68676 8.09112 3.67132 8.10657C3.57867 8.21465 3.60956 8.29186 3.60956 8.29186C3.60956 8.32274 3.625 8.33818 3.64044 8.36907C3.76397 8.4926 3.87206 8.63157 3.9647 8.77054C4.05735 8.97127 4.21176 9.00215 4.21176 9.00215Z" fill="url(#paint55_linear)"/>
<path d="M2.59047 8.77058C2.55958 8.80146 2.46694 8.78602 2.35885 8.73969C2.25076 8.69337 2.189 8.6316 2.21988 8.60072C2.23532 8.56984 2.34341 8.58528 2.4515 8.63161C2.54414 8.67793 2.60591 8.73969 2.59047 8.77058Z" fill="url(#paint56_linear)"/>
<path d="M3.37792 8.87864C3.40881 8.83232 3.36248 8.78599 3.30072 8.77055C3.13086 8.72423 2.96101 8.67791 2.77572 8.64702C2.77572 8.64702 2.59042 8.61614 2.48234 8.63158C2.32792 8.66246 2.26616 8.69335 2.26616 8.69335C2.26616 8.69335 2.38969 8.81688 2.60586 8.83232C2.68307 8.83232 2.76028 8.84776 2.82204 8.8632C2.94557 8.89408 3.0691 8.92496 3.19263 8.97129C3.25439 8.98673 3.3316 8.97129 3.34704 8.94041C3.34704 8.90952 3.36248 8.89408 3.37792 8.87864Z" fill="url(#paint57_linear)"/>
<path d="M3.82571 9.57351C3.79483 9.60439 3.68674 9.57351 3.60954 9.51174C3.51689 9.44998 3.47057 9.37277 3.51689 9.34189C3.54777 9.31101 3.65586 9.34189 3.73307 9.40365C3.82572 9.48086 3.8566 9.54262 3.82571 9.57351Z" fill="url(#paint58_linear)"/>
<path d="M3.68677 9.5735C3.68677 9.5735 3.7331 9.52718 3.74854 9.41909C3.76398 9.311 3.70221 9.18747 3.70221 9.18747C3.60957 9.0485 3.51692 8.89409 3.39339 8.77056C3.31618 8.69336 3.25442 8.63159 3.25442 8.63159C3.23898 8.64703 3.23898 8.64703 3.22354 8.64703C3.11545 8.75512 3.13089 8.83233 3.13089 8.83233C3.13089 8.86321 3.13089 8.87865 3.16177 8.90953C3.26986 9.03306 3.36251 9.18747 3.45515 9.32644C3.53236 9.51174 3.68677 9.5735 3.68677 9.5735Z" fill="url(#paint59_linear)"/>
<path d="M2.08086 9.2492C2.04998 9.28008 1.95733 9.26464 1.84924 9.20287C1.7566 9.15655 1.69483 9.07934 1.72572 9.04846C1.7566 9.01758 1.84924 9.03302 1.95733 9.09479C2.03454 9.15655 2.0963 9.21831 2.08086 9.2492Z" fill="url(#paint60_linear)"/>
<path d="M2.85295 9.40365C2.88383 9.35733 2.85295 9.311 2.79118 9.29556C2.62133 9.2338 2.45148 9.18747 2.28162 9.14115C2.28162 9.14115 2.09633 9.09483 1.98824 9.11027C1.83383 9.12571 1.75662 9.15659 1.75662 9.15659C1.75662 9.15659 1.86471 9.28012 2.08089 9.311C2.15809 9.32644 2.2353 9.34189 2.29706 9.35733C2.42059 9.38821 2.54412 9.43453 2.65221 9.48086C2.71398 9.4963 2.79118 9.4963 2.82206 9.44997C2.8375 9.43453 2.8375 9.41909 2.85295 9.40365Z" fill="url(#paint61_linear)"/>
<path d="M3.23896 10.1139C3.20808 10.1448 3.09999 10.1139 3.02278 10.0367C2.94558 9.97494 2.89925 9.89773 2.94558 9.86685C2.97646 9.83597 3.08455 9.86685 3.16175 9.92862C3.23896 10.0058 3.28528 10.0985 3.23896 10.1139Z" fill="url(#paint62_linear)"/>
<path d="M3.09998 10.0985C3.09998 10.0985 3.1463 10.0521 3.17718 9.94405C3.20806 9.83597 3.1463 9.71244 3.1463 9.71244C3.06909 9.55802 2.97645 9.41905 2.8838 9.28008C2.80659 9.18744 2.76027 9.12567 2.76027 9.12567C2.74483 9.12567 2.74483 9.14111 2.72939 9.14111C2.60586 9.2492 2.6213 9.32641 2.6213 9.32641C2.6213 9.35729 2.6213 9.37273 2.63674 9.40361C2.72939 9.54258 2.82203 9.68155 2.8838 9.83597C2.94556 10.0367 3.09998 10.0985 3.09998 10.0985Z" fill="url(#paint63_linear)"/>
<path d="M2.21987 9.77422C2.06546 9.71246 1.89561 9.65069 1.72575 9.58893C1.72575 9.69702 1.77208 9.78966 1.83384 9.85143C1.92649 9.88231 2.00369 9.91319 2.0809 9.94408C2.14267 9.97496 2.21987 9.95952 2.25075 9.92863C2.2662 9.91319 2.28164 9.89775 2.28164 9.88231C2.31252 9.85143 2.28164 9.8051 2.21987 9.77422Z" fill="url(#paint64_linear)"/>
<path d="M2.60586 10.6235C2.55953 10.6543 2.46689 10.6235 2.38968 10.5463C2.31248 10.4691 2.28159 10.3918 2.32792 10.361C2.37424 10.3301 2.46689 10.3764 2.54409 10.4382C2.60586 10.5154 2.63674 10.608 2.60586 10.6235Z" fill="url(#paint65_linear)"/>
<path d="M2.45145 10.5926C2.45145 10.5926 2.49777 10.5463 2.5441 10.4382C2.57498 10.3301 2.5441 10.2066 2.5441 10.2066C2.48233 10.0522 2.40513 9.89775 2.32792 9.75878C2.26616 9.66613 2.21983 9.60437 2.21983 9.60437C2.20439 9.60437 2.20439 9.61981 2.18895 9.61981C2.04998 9.71246 2.06542 9.78966 2.06542 9.78966C2.06542 9.82055 2.06542 9.83599 2.08086 9.86687C2.15807 10.0058 2.23527 10.1603 2.2816 10.3147C2.31248 10.5308 2.45145 10.5926 2.45145 10.5926Z" fill="url(#paint66_linear)"/>
<path d="M10.2184 12.0286C10.203 11.9823 10.2802 11.936 10.3728 11.9206C10.4655 11.9051 10.5581 11.9051 10.5581 11.9514C10.5735 11.9823 10.4963 12.0441 10.4037 12.0595C10.311 12.075 10.2184 12.075 10.2184 12.0286Z" fill="url(#paint67_linear)"/>
<path d="M9.66249 12.4147C9.67793 12.461 9.7397 12.4919 9.78602 12.461C9.92499 12.3992 10.064 12.322 10.2029 12.2448C10.2029 12.2448 10.3419 12.1676 10.3882 12.0904C10.4654 11.9823 10.4654 11.9051 10.4654 11.9051C10.4654 11.9051 10.2956 11.8742 10.1566 11.9978C10.1103 12.0441 10.0485 12.075 10.0022 12.1058C9.90955 12.1522 9.80146 12.1985 9.70882 12.2448C9.66249 12.2603 9.63161 12.322 9.64705 12.3683C9.64705 12.3838 9.66249 12.3992 9.66249 12.4147Z" fill="url(#paint68_linear)"/>
<path d="M8.85954 12.1213C8.85954 12.0749 8.93675 12.0286 9.04484 12.0286C9.13748 12.0286 9.23013 12.0595 9.23013 12.1058C9.23013 12.1522 9.15293 12.1985 9.06028 12.1985C8.95219 12.2139 8.85954 12.1676 8.85954 12.1213Z" fill="url(#paint69_linear)"/>
<path d="M8.95219 12.0441C8.95219 12.0441 8.96764 12.1059 9.0294 12.2139C9.10661 12.3066 9.23014 12.3684 9.23014 12.3684C9.39999 12.4301 9.5544 12.4919 9.72425 12.5228C9.83234 12.5382 9.90955 12.5691 9.90955 12.5691C9.90955 12.5537 9.90955 12.5382 9.90955 12.5382C9.89411 12.3838 9.8169 12.3375 9.8169 12.3375C9.80146 12.322 9.77058 12.3066 9.73969 12.2912C9.56984 12.2448 9.41543 12.1985 9.24558 12.1213C9.09117 11.9978 8.95219 12.0441 8.95219 12.0441Z" fill="url(#paint70_linear)"/>
<path d="M10.1721 11.3338C10.1721 11.2875 10.2493 11.2411 10.3419 11.2257C10.4346 11.2103 10.5272 11.2257 10.5272 11.272C10.5272 11.3183 10.45 11.3492 10.3574 11.3801C10.2493 11.3956 10.1721 11.3647 10.1721 11.3338Z" fill="url(#paint71_linear)"/>
<path d="M9.58529 11.6735C9.60073 11.7198 9.64706 11.7507 9.70882 11.7353C9.84779 11.6889 10.0022 11.6272 10.1412 11.55C10.1412 11.55 10.2801 11.4728 10.3419 11.411C10.4191 11.3029 10.4346 11.2257 10.4346 11.2257C10.4346 11.2257 10.2647 11.1948 10.1257 11.2875C10.064 11.3184 10.0176 11.3647 9.97132 11.3801C9.86323 11.4264 9.77059 11.4573 9.6625 11.5036C9.61618 11.5191 9.56985 11.5809 9.58529 11.6272C9.56985 11.6426 9.58529 11.6581 9.58529 11.6735Z" fill="url(#paint72_linear)"/>
<path d="M8.79779 11.3184C8.79779 11.272 8.875 11.2411 8.98308 11.2411C9.09117 11.2411 9.16838 11.2875 9.16838 11.3338C9.16838 11.3801 9.09117 11.411 8.98308 11.411C8.89044 11.411 8.79779 11.3647 8.79779 11.3184Z" fill="url(#paint73_linear)"/>
<path d="M8.90588 11.2566C8.90588 11.2566 8.92132 11.3184 8.98309 11.4265C9.04485 11.5346 9.16838 11.5963 9.16838 11.5963C9.3228 11.6735 9.49265 11.7353 9.64706 11.7971C9.75515 11.8279 9.83235 11.8434 9.83235 11.8434C9.83235 11.8279 9.83235 11.8125 9.83235 11.8125C9.83235 11.6581 9.75515 11.5963 9.75515 11.5963C9.73971 11.5809 9.70882 11.55 9.69338 11.55C9.53897 11.5037 9.36912 11.4265 9.21471 11.3493C9.04485 11.2103 8.90588 11.2566 8.90588 11.2566Z" fill="url(#paint74_linear)"/>
<path d="M10.1721 10.639C10.1721 10.5926 10.2493 10.5618 10.3419 10.5463C10.4346 10.5309 10.5272 10.5618 10.5272 10.6081C10.5272 10.6544 10.45 10.6853 10.3574 10.7007C10.2493 10.7007 10.1721 10.6698 10.1721 10.639Z" fill="url(#paint75_linear)"/>
<path d="M9.55443 10.9323C9.56987 10.9787 9.61619 11.0095 9.67796 10.9941C9.83237 10.9478 9.97134 10.9015 10.1258 10.8397C10.1258 10.8397 10.2647 10.7779 10.3265 10.7162C10.4191 10.6235 10.4346 10.5463 10.4346 10.5463C10.4346 10.5463 10.2647 10.5 10.1103 10.5926C10.0485 10.6235 9.98678 10.6544 9.94046 10.6698C9.83237 10.7007 9.72428 10.7316 9.63163 10.7625C9.56987 10.7779 9.53899 10.8243 9.53899 10.886C9.55443 10.9015 9.55443 10.9169 9.55443 10.9323Z" fill="url(#paint76_linear)"/>
<path d="M8.81323 10.5309C8.81323 10.4845 8.90588 10.4537 8.99853 10.4691C9.09117 10.4845 9.16838 10.5309 9.16838 10.5772C9.16838 10.6235 9.07573 10.6544 8.98309 10.639C8.89044 10.6235 8.81323 10.5772 8.81323 10.5309Z" fill="url(#paint77_linear)"/>
<path d="M8.92133 10.4691C8.92133 10.4691 8.92133 10.5309 8.98309 10.639C9.04486 10.7471 9.16838 10.8243 9.16838 10.8243C9.3228 10.9169 9.47721 10.9941 9.63162 11.0559C9.73971 11.0868 9.81691 11.1176 9.81691 11.1176C9.81691 11.1022 9.81691 11.0868 9.81691 11.0868C9.83235 10.9323 9.75515 10.8706 9.75515 10.8706C9.73971 10.8397 9.72427 10.8243 9.69338 10.8088C9.53897 10.7471 9.38456 10.6698 9.23015 10.5772C9.0603 10.4382 8.92133 10.4691 8.92133 10.4691Z" fill="url(#paint78_linear)"/>
<path d="M10.2184 9.94409C10.2184 9.89776 10.2956 9.86688 10.4037 9.86688C10.5118 9.86688 10.589 9.89776 10.589 9.92865C10.589 9.97497 10.5118 10.0059 10.4037 10.0059C10.2956 10.0059 10.2184 9.97497 10.2184 9.94409Z" fill="url(#paint79_linear)"/>
<path d="M9.58528 10.1912C9.58528 10.2375 9.64705 10.2684 9.69337 10.2684C9.84778 10.2375 10.0022 10.1912 10.1412 10.1603C10.1412 10.1603 10.2956 10.114 10.3573 10.0522C10.45 9.95954 10.4809 9.89778 10.4809 9.89778C10.4809 9.89778 10.3265 9.83602 10.1566 9.91322C10.0948 9.9441 10.0331 9.95954 9.98675 9.99043C9.87866 10.0213 9.77057 10.0368 9.66249 10.0676C9.60072 10.0831 9.56984 10.1294 9.56984 10.1757C9.58528 10.1603 9.58528 10.1757 9.58528 10.1912Z" fill="url(#paint80_linear)"/>
<path d="M8.875 9.74328C8.875 9.69695 8.96765 9.68151 9.06029 9.69695C9.15294 9.71239 9.23015 9.77416 9.23015 9.82048C9.23015 9.86681 9.1375 9.88225 9.04485 9.86681C8.93676 9.83592 8.875 9.7896 8.875 9.74328Z" fill="url(#paint81_linear)"/>
<path d="M8.98308 9.68158C8.98308 9.68158 8.98308 9.74335 9.0294 9.85143C9.07572 9.95952 9.19925 10.0522 9.19925 10.0522C9.33822 10.1448 9.49264 10.2375 9.64705 10.3147C9.75514 10.361 9.8169 10.3919 9.8169 10.3919C9.8169 10.3764 9.8169 10.3764 9.8169 10.361C9.83234 10.2066 9.77058 10.1448 9.77058 10.1448C9.75514 10.1139 9.7397 10.0985 9.70881 10.0831C9.5544 10.0058 9.41543 9.9132 9.27646 9.82055C9.12205 9.66614 8.98308 9.68158 8.98308 9.68158Z" fill="url(#paint82_linear)"/>
<path d="M10.3265 9.24926C10.3265 9.20294 10.4191 9.1875 10.5118 9.1875C10.6198 9.1875 10.697 9.23382 10.6816 9.26471C10.6816 9.29559 10.589 9.32647 10.4963 9.32647C10.4037 9.32647 10.3265 9.29559 10.3265 9.24926Z" fill="url(#paint83_linear)"/>
<path d="M9.67795 9.46545C9.67795 9.51178 9.72427 9.5581 9.78604 9.54266C9.94045 9.52722 10.0949 9.49634 10.2493 9.46545C10.2493 9.46545 10.4037 9.41913 10.4809 9.37281C10.589 9.2956 10.6199 9.2184 10.6199 9.2184C10.6199 9.2184 10.4654 9.14119 10.2956 9.2184C10.2338 9.24928 10.1721 9.26472 10.1257 9.28016C10.0177 9.2956 9.90957 9.31104 9.80148 9.32648C9.73971 9.32648 9.69339 9.37281 9.69339 9.43457C9.67795 9.43457 9.67795 9.45001 9.67795 9.46545Z" fill="url(#paint84_linear)"/>
<path d="M8.99853 8.95588C9.01397 8.90956 9.09118 8.89412 9.19926 8.925C9.29191 8.95588 9.36912 9.00221 9.35368 9.04853C9.33823 9.09486 9.26103 9.1103 9.15294 9.07941C9.06029 9.06397 8.98309 9.00221 8.99853 8.95588Z" fill="url(#paint85_linear)"/>
<path d="M9.10661 8.90956C9.10661 8.90956 9.10661 8.97132 9.1375 9.09485C9.18382 9.20294 9.29191 9.29559 9.29191 9.29559C9.43088 9.40367 9.56985 9.51176 9.72426 9.58897C9.81691 9.63529 9.89411 9.68161 9.89411 9.68161C9.89411 9.66617 9.89411 9.66617 9.90955 9.65073C9.94044 9.49632 9.87867 9.43456 9.87867 9.43456C9.86323 9.40367 9.84779 9.38823 9.81691 9.37279C9.67794 9.28014 9.52353 9.1875 9.4 9.07941C9.24558 8.89411 9.10661 8.90956 9.10661 8.90956Z" fill="url(#paint86_linear)"/>
<path d="M10.4809 8.58532C10.4809 8.53899 10.5735 8.52355 10.6662 8.53899C10.7588 8.55443 10.836 8.60076 10.836 8.63164C10.836 8.66252 10.7434 8.69341 10.6507 8.67796C10.5426 8.66252 10.4654 8.6162 10.4809 8.58532Z" fill="url(#paint87_linear)"/>
<path d="M9.81691 8.73971C9.81691 8.78603 9.86323 8.83235 9.925 8.83235C10.0794 8.81691 10.2338 8.80147 10.3882 8.78603C10.3882 8.78603 10.5426 8.75515 10.6199 8.70882C10.7279 8.63162 10.7588 8.56985 10.7588 8.56985C10.7588 8.56985 10.6044 8.49265 10.4346 8.53897C10.3728 8.55441 10.311 8.56985 10.2493 8.58529C10.1412 8.60074 10.0331 8.60074 9.925 8.61618C9.86323 8.61618 9.81691 8.6625 9.81691 8.70882C9.81691 8.70882 9.81691 8.72427 9.81691 8.73971Z" fill="url(#paint88_linear)"/>
<path d="M9.18382 8.18381C9.19926 8.13749 9.29191 8.13749 9.38456 8.16837C9.4772 8.19926 9.53897 8.26102 9.52353 8.30734C9.50809 8.35367 9.41544 8.35367 9.32279 8.32279C9.23015 8.2919 9.16838 8.23014 9.18382 8.18381Z" fill="url(#paint89_linear)"/>
<path d="M9.2919 8.15295C9.2919 8.15295 9.27646 8.21472 9.30734 8.33825C9.33822 8.44634 9.44631 8.55443 9.44631 8.55443C9.56984 8.67795 9.70881 8.78604 9.86322 8.87869C9.95587 8.94045 10.0331 8.98678 10.0331 8.98678C10.0331 8.97134 10.0485 8.97134 10.0485 8.9559C10.0948 8.80148 10.0485 8.73972 10.0485 8.73972C10.0331 8.70884 10.0176 8.6934 10.0022 8.67795C9.86322 8.58531 9.72425 8.47722 9.60072 8.35369C9.43087 8.15295 9.2919 8.15295 9.2919 8.15295Z" fill="url(#paint90_linear)"/>
<path d="M10.6816 7.92134C10.6971 7.87502 10.7743 7.85957 10.8824 7.89046C10.975 7.9059 11.0522 7.95222 11.0368 7.99854C11.0368 8.02943 10.9441 8.04487 10.836 8.02943C10.7434 8.01399 10.6662 7.96766 10.6816 7.92134Z" fill="url(#paint91_linear)"/>
<path d="M10.0176 8.02943C10.0176 8.07575 10.0485 8.12207 10.1103 8.12207C10.2647 8.12207 10.4191 8.12207 10.5735 8.10663C10.5735 8.10663 10.7279 8.09119 10.8051 8.04487C10.9132 7.9831 10.9596 7.92134 10.9596 7.92134C10.9596 7.92134 10.8206 7.82869 10.6353 7.85957C10.5735 7.87502 10.5118 7.89046 10.45 7.89046C10.3419 7.89046 10.2338 7.89046 10.1257 7.89046C10.064 7.89046 10.0176 7.92134 10.0176 7.9831C10.0176 7.99854 10.0176 8.01399 10.0176 8.02943Z" fill="url(#paint92_linear)"/>
<path d="M9.41544 7.44264C9.43088 7.39632 9.52352 7.39632 9.61617 7.44264C9.70882 7.48896 9.77058 7.55073 9.75514 7.59705C9.7397 7.64338 9.64705 7.64338 9.55441 7.59705C9.46176 7.55073 9.39999 7.47352 9.41544 7.44264Z" fill="url(#paint93_linear)"/>
<path d="M9.53898 7.41174C9.53898 7.41174 9.52354 7.47351 9.53898 7.59704C9.55442 7.70513 9.66251 7.82866 9.66251 7.82866C9.78604 7.95218 9.90957 8.07571 10.0485 8.1838C10.1412 8.24557 10.203 8.29189 10.203 8.29189C10.203 8.27645 10.2184 8.27645 10.2184 8.26101C10.2647 8.1066 10.2338 8.04483 10.2338 8.04483C10.2338 8.01395 10.203 7.99851 10.1875 7.96763C10.0485 7.85954 9.92501 7.73601 9.81692 7.61248C9.67795 7.41174 9.53898 7.41174 9.53898 7.41174Z" fill="url(#paint94_linear)"/>
<path d="M10.9287 7.28819C10.9441 7.24186 11.0368 7.24186 11.1294 7.27274C11.2221 7.30363 11.2993 7.34995 11.2838 7.39627C11.2684 7.42716 11.1912 7.4426 11.0831 7.41171C10.9905 7.38083 10.9132 7.31907 10.9287 7.28819Z" fill="url(#paint95_linear)"/>
<path d="M10.2493 7.34997C10.2338 7.39629 10.2802 7.44262 10.3419 7.45806C10.4963 7.4735 10.6507 7.4735 10.8052 7.4735C10.8052 7.4735 10.9596 7.4735 11.0522 7.42717C11.1757 7.36541 11.2221 7.30365 11.2221 7.30365C11.2221 7.30365 11.0831 7.19556 10.9132 7.22644C10.8515 7.24188 10.7897 7.24188 10.7279 7.24188C10.6199 7.24188 10.5118 7.22644 10.4037 7.211C10.3419 7.211 10.2956 7.24188 10.2802 7.2882C10.2647 7.30365 10.2647 7.33453 10.2493 7.34997Z" fill="url(#paint96_linear)"/>
<path d="M9.69338 6.70143C9.70882 6.65511 9.80146 6.67055 9.89411 6.71687C9.98676 6.7632 10.0331 6.8404 10.0176 6.87128C10.0022 6.91761 9.90955 6.90217 9.81691 6.85584C9.7397 6.80952 9.67794 6.74776 9.69338 6.70143Z" fill="url(#paint97_linear)"/>
<path d="M9.81692 6.68597C9.81692 6.68597 9.80148 6.74774 9.81692 6.87127C9.83236 6.97936 9.92501 7.10289 9.92501 7.10289C10.0331 7.24186 10.1566 7.36539 10.2802 7.47347C10.3728 7.55068 10.4191 7.597 10.4191 7.597C10.4191 7.58156 10.4346 7.58156 10.4346 7.56612C10.4963 7.42715 10.4655 7.34994 10.4655 7.34994C10.4655 7.31906 10.45 7.30362 10.4191 7.27274C10.2956 7.16465 10.1721 7.02568 10.0794 6.88671C9.95589 6.70142 9.81692 6.68597 9.81692 6.68597Z" fill="url(#paint98_linear)"/>
<path d="M11.222 6.65515C11.2375 6.62427 11.3301 6.60883 11.4228 6.65515C11.5154 6.68603 11.5772 6.7478 11.5618 6.77868C11.5463 6.80956 11.4537 6.80956 11.361 6.77868C11.2838 6.7478 11.2066 6.70148 11.222 6.65515Z" fill="url(#paint99_linear)"/>
<path d="M10.5427 6.67058C10.5272 6.7169 10.5735 6.76322 10.6199 6.77866C10.7743 6.80955 10.9287 6.82499 11.0831 6.82499C11.0831 6.82499 11.2375 6.82499 11.3302 6.79411C11.4537 6.74778 11.5 6.68602 11.5 6.68602C11.5 6.68602 11.3765 6.57793 11.1912 6.59337C11.1294 6.59337 11.0522 6.59337 11.0059 6.59337C10.8978 6.57793 10.7897 6.56249 10.6816 6.54705C10.6199 6.53161 10.5735 6.56249 10.5581 6.60881C10.5581 6.63969 10.5581 6.65513 10.5427 6.67058Z" fill="url(#paint100_linear)"/>
<path d="M10.0331 5.99117C10.064 5.94484 10.1412 5.96029 10.2338 6.02205C10.311 6.08382 10.3728 6.14558 10.3419 6.1919C10.3265 6.23823 10.2338 6.22279 10.1412 6.16102C10.064 6.1147 10.0177 6.03749 10.0331 5.99117Z" fill="url(#paint101_linear)"/>
<path d="M10.1566 5.99115C10.1566 5.99115 10.1257 6.05291 10.1412 6.17644C10.1412 6.29997 10.2184 6.40806 10.2184 6.40806C10.311 6.54703 10.4345 6.686 10.5426 6.80953C10.6198 6.88674 10.6816 6.9485 10.6816 6.9485C10.6816 6.93306 10.697 6.93306 10.697 6.91762C10.7743 6.77865 10.7434 6.70144 10.7434 6.70144C10.7434 6.67056 10.7279 6.63968 10.7125 6.62424C10.6044 6.50071 10.4963 6.36174 10.4037 6.22277C10.2956 6.00659 10.1566 5.99115 10.1566 5.99115Z" fill="url(#paint102_linear)"/>
<path d="M11.5618 6.05296C11.5772 6.02207 11.6699 6.02207 11.7625 6.0684C11.8551 6.11472 11.9169 6.17649 11.9015 6.20737C11.886 6.23825 11.7934 6.23825 11.7007 6.19193C11.6081 6.16104 11.5463 6.09928 11.5618 6.05296Z" fill="url(#paint103_linear)"/>
<path d="M10.8824 6.02208C10.8669 6.0684 10.8978 6.11472 10.9596 6.13017C11.114 6.16105 11.2684 6.19193 11.4228 6.22281C11.4228 6.22281 11.5772 6.23825 11.6699 6.20737C11.7934 6.16105 11.8551 6.11472 11.8551 6.11472C11.8551 6.11472 11.7316 5.99119 11.5618 5.99119C11.5 5.99119 11.4228 5.9912 11.3765 5.97575C11.2684 5.96031 11.1603 5.92943 11.0522 5.89855C10.9904 5.88311 10.9441 5.91399 10.9287 5.96031C10.8978 5.99119 10.8978 6.00664 10.8824 6.02208Z" fill="url(#paint104_linear)"/>
<path d="M10.4345 5.31177C10.4654 5.28088 10.5426 5.29633 10.6353 5.35809C10.7125 5.41986 10.7588 5.49706 10.7434 5.52794C10.7125 5.55883 10.6353 5.54338 10.5426 5.48162C10.45 5.41985 10.4037 5.34265 10.4345 5.31177Z" fill="url(#paint105_linear)"/>
<path d="M10.5581 5.31177C10.5581 5.31177 10.5272 5.37353 10.5272 5.49706C10.5272 5.62059 10.589 5.74412 10.589 5.74412C10.6816 5.89853 10.7743 6.0375 10.8824 6.17647C10.9596 6.25368 11.0059 6.31544 11.0059 6.31544C11.0059 6.3 11.0213 6.3 11.0213 6.28456C11.0985 6.14559 11.0831 6.06838 11.0831 6.06838C11.0831 6.0375 11.0676 6.00662 11.0522 5.99118C10.9441 5.85221 10.8515 5.71324 10.7588 5.55883C10.6971 5.34265 10.5581 5.31177 10.5581 5.31177Z" fill="url(#paint106_linear)"/>
<path d="M11.9478 5.48159C11.9633 5.45071 12.0559 5.45071 12.1486 5.51247C12.2412 5.55879 12.2875 5.62056 12.2721 5.66688C12.2566 5.69777 12.164 5.69777 12.0713 5.636C11.9941 5.58968 11.9324 5.51247 11.9478 5.48159Z" fill="url(#paint107_linear)"/>
<path d="M11.2838 5.40441C11.2684 5.45073 11.2993 5.49705 11.3456 5.52794C11.5 5.57426 11.639 5.62058 11.7934 5.65147C11.7934 5.65147 11.9478 5.68235 12.0404 5.65147C12.164 5.62058 12.2257 5.57426 12.2257 5.57426C12.2257 5.57426 12.1176 5.43529 11.9323 5.43529C11.8706 5.43529 11.8088 5.41985 11.7471 5.41985C11.639 5.38897 11.5309 5.35808 11.4228 5.3272C11.3765 5.31176 11.3147 5.3272 11.2838 5.37352C11.2993 5.37352 11.2838 5.38897 11.2838 5.40441Z" fill="url(#paint108_linear)"/>
<path d="M10.8824 4.64779C10.9132 4.6169 10.9904 4.63234 11.0676 4.70955C11.1449 4.77132 11.1757 4.86396 11.1603 4.89484C11.1294 4.92573 11.0522 4.91029 10.975 4.84852C10.8824 4.77132 10.8515 4.69411 10.8824 4.64779Z" fill="url(#paint109_linear)"/>
<path d="M11.0059 4.66321C11.0059 4.66321 10.975 4.72497 10.9596 4.83306C10.9441 4.95659 11.0059 5.08012 11.0059 5.08012C11.0831 5.23453 11.1757 5.38894 11.2684 5.52791C11.3302 5.62056 11.3765 5.68233 11.3765 5.68233C11.3919 5.66688 11.3919 5.66688 11.3919 5.65144C11.4846 5.52791 11.4691 5.45071 11.4691 5.43527C11.4691 5.40438 11.4691 5.3735 11.4382 5.35806C11.3456 5.21909 11.253 5.06468 11.1912 4.91027C11.1294 4.70953 11.0059 4.66321 11.0059 4.66321Z" fill="url(#paint110_linear)"/>
<path d="M12.3801 4.94112C12.3956 4.91023 12.4882 4.92567 12.5809 4.972C12.6581 5.03376 12.7198 5.09553 12.689 5.12641C12.6735 5.15729 12.5809 5.14185 12.4882 5.09553C12.411 5.03376 12.3647 4.972 12.3801 4.94112Z" fill="url(#paint111_linear)"/>
<path d="M11.7162 4.80217C11.6853 4.8485 11.7162 4.89482 11.7779 4.9257C11.9169 4.98747 12.0713 5.03379 12.2257 5.08011C12.2257 5.08011 12.3801 5.12644 12.4728 5.111C12.5963 5.09556 12.6735 5.04923 12.6735 5.04923C12.6735 5.04923 12.5809 4.91026 12.3956 4.87938C12.3338 4.86394 12.2721 4.86394 12.2103 4.8485C12.1022 4.81761 12.0096 4.77129 11.9015 4.72497C11.8551 4.70953 11.7934 4.72497 11.7625 4.77129C11.7316 4.77129 11.7162 4.78673 11.7162 4.80217Z" fill="url(#paint112_linear)"/>
<path d="M11.3765 4.03012C11.4074 3.99924 11.4846 4.03012 11.5618 4.09189C11.639 4.16909 11.6699 4.2463 11.639 4.27718C11.6081 4.30806 11.5309 4.27718 11.4537 4.21541C11.3765 4.15365 11.3456 4.061 11.3765 4.03012Z" fill="url(#paint113_linear)"/>
<path d="M11.5 4.04553C11.5 4.04553 11.4537 4.1073 11.4382 4.21538C11.4228 4.32347 11.4691 4.46244 11.4691 4.46244C11.5309 4.6323 11.6081 4.78671 11.7007 4.92568C11.7625 5.01833 11.8088 5.09553 11.8088 5.09553C11.8243 5.08009 11.8243 5.08009 11.8397 5.06465C11.9478 4.94112 11.9324 4.86391 11.9324 4.86391C11.9324 4.83303 11.9324 4.80215 11.9169 4.78671C11.8243 4.6323 11.7625 4.47789 11.7007 4.32347C11.6235 4.1073 11.5 4.04553 11.5 4.04553Z" fill="url(#paint114_linear)"/>
<path d="M12.8588 4.41614C12.8897 4.38525 12.9669 4.4007 13.0441 4.46246C13.1213 4.52423 13.1676 4.60143 13.1522 4.63231C13.1213 4.6632 13.0441 4.63231 12.9669 4.58599C12.8743 4.52423 12.8279 4.44702 12.8588 4.41614Z" fill="url(#paint115_linear)"/>
<path d="M12.1948 4.24629C12.164 4.29261 12.1949 4.35438 12.2412 4.36982C12.3801 4.43158 12.5191 4.49335 12.6735 4.55511C12.6735 4.55511 12.8279 4.60143 12.9206 4.60143C13.0596 4.58599 13.1213 4.53967 13.1213 4.53967C13.1213 4.53967 13.0287 4.4007 12.8588 4.35438C12.7971 4.33893 12.7353 4.32349 12.6735 4.30805C12.5654 4.26173 12.4728 4.21541 12.3801 4.16908C12.3338 4.1382 12.2721 4.15364 12.2412 4.19996C12.2103 4.21541 12.2103 4.23085 12.1948 4.24629Z" fill="url(#paint116_linear)"/>
<path d="M11.9169 3.44335C11.9478 3.41247 12.025 3.44335 12.1022 3.52056C12.164 3.59776 12.1949 3.69041 12.164 3.72129C12.1331 3.75218 12.0559 3.72129 11.9787 3.64409C11.9015 3.55144 11.8706 3.47424 11.9169 3.44335Z" fill="url(#paint117_linear)"/>
<path d="M12.0405 3.4588C12.0405 3.4588 11.9941 3.50512 11.9633 3.62865C11.9324 3.73674 11.9787 3.87571 11.9787 3.87571C12.025 4.04557 12.1022 4.19998 12.1794 4.35439C12.2412 4.44704 12.2721 4.52424 12.2721 4.52424C12.2875 4.5088 12.2875 4.5088 12.303 4.49336C12.411 4.38527 12.411 4.29262 12.411 4.29262C12.411 4.26174 12.411 4.23086 12.3956 4.19998C12.3184 4.04557 12.2566 3.89115 12.2103 3.7213C12.164 3.53601 12.0405 3.4588 12.0405 3.4588Z" fill="url(#paint118_linear)"/>
<path d="M13.3684 3.93747C13.3993 3.90659 13.4765 3.93747 13.5537 3.99923C13.6309 4.061 13.6618 4.1382 13.6463 4.16909C13.6155 4.19997 13.5382 4.16909 13.461 4.10732C13.3838 4.04556 13.3375 3.96835 13.3684 3.93747Z" fill="url(#paint119_linear)"/>
<path d="M12.7198 3.70586C12.689 3.75218 12.7044 3.7985 12.7507 3.82939C12.8897 3.90659 13.0287 3.9838 13.1676 4.04556C13.1676 4.04556 13.3066 4.10733 13.4147 4.10733C13.5537 4.10733 13.6154 4.061 13.6154 4.061C13.6154 4.061 13.5382 3.90659 13.3684 3.86027C13.3066 3.84483 13.2448 3.81394 13.1831 3.7985C13.0904 3.75218 12.9823 3.69042 12.8897 3.64409C12.8434 3.61321 12.7816 3.62865 12.7507 3.65953C12.7507 3.67497 12.7353 3.69042 12.7198 3.70586Z" fill="url(#paint120_linear)"/>
<path d="M12.5037 2.88748C12.5346 2.8566 12.6118 2.90292 12.6735 2.98013C12.7353 3.05733 12.7507 3.14998 12.7198 3.18086C12.689 3.21175 12.6118 3.16542 12.55 3.08822C12.4882 3.01101 12.4573 2.91836 12.5037 2.88748Z" fill="url(#paint121_linear)"/>
<path d="M12.6272 2.91833C12.6272 2.91833 12.5809 2.96466 12.5345 3.08819C12.4882 3.19628 12.5191 3.35069 12.5191 3.35069C12.5654 3.52054 12.6117 3.69039 12.6735 3.84481C12.7198 3.95289 12.7507 4.01466 12.7507 4.01466C12.7662 4.01466 12.7662 3.99922 12.7816 3.99922C12.9051 3.89113 12.9051 3.81392 12.9051 3.81392C12.9051 3.78304 12.9051 3.75216 12.9051 3.72128C12.8434 3.56686 12.797 3.39701 12.7662 3.22716C12.7353 2.99554 12.6272 2.91833 12.6272 2.91833Z" fill="url(#paint122_linear)"/>
<defs>
<radialGradient id="paint0_radial" cx="0" cy="0" r="1" gradientUnits="userSpaceOnUse" gradientTransform="translate(7.5 14.45) rotate(90) scale(0.75 7.5)">
<stop stop-color="#4A4A4A"/>
<stop offset="1" stop-color="#C4C4C4" stop-opacity="0"/>
</radialGradient>
<linearGradient id="paint1_linear" x1="6.0029" y1="6.35107" x2="-0.622945" y2="3.81766" gradientUnits="userSpaceOnUse">
<stop stop-color="#F5F5F5"/>
<stop offset="0.3407" stop-color="#F2F2F2"/>
<stop offset="0.5608" stop-color="#E9E9E9"/>
<stop offset="0.7461" stop-color="#DBDBDB"/>
<stop offset="0.8303" stop-color="#D1D1D1"/>
<stop offset="1" stop-color="#C7C7C7"/>
</linearGradient>
<radialGradient id="paint2_radial" cx="0" cy="0" r="1" gradientUnits="userSpaceOnUse" gradientTransform="translate(3.9847 1.92189) scale(14.1792)">
<stop stop-color="#F5F5F5"/>
<stop offset="0.2078" stop-color="#F2F2F2"/>
<stop offset="0.3283" stop-color="#EAEAEA"/>
<stop offset="0.4264" stop-color="#DCDCDC"/>
<stop offset="0.5125" stop-color="#C8C8C8"/>
<stop offset="0.59" stop-color="#AFAFAF"/>
<stop offset="0.6242" stop-color="#A1A1A1"/>
<stop offset="1" stop-color="#C7C7C7"/>
</radialGradient>
<radialGradient id="paint3_radial" cx="0" cy="0" r="1" gradientUnits="userSpaceOnUse" gradientTransform="translate(5.03229 2.5795) scale(14.1793)">
<stop stop-color="#F5F5F5"/>
<stop offset="0.1644" stop-color="#F2F2F2"/>
<stop offset="0.2912" stop-color="#E8E8E8"/>
<stop offset="0.4056" stop-color="#D8D8D8"/>
<stop offset="0.5125" stop-color="#C0C0C0"/>
<stop offset="0.6134" stop-color="#A3A3A3"/>
<stop offset="0.6485" stop-color="#969696"/>
<stop offset="1" stop-color="#C7C7C7"/>
</radialGradient>
<linearGradient id="paint4_linear" x1="4.12888" y1="1.3271" x2="4.1393" y2="1.14382" gradientUnits="userSpaceOnUse">
<stop/>
<stop offset="0.1736" stop-color="#111112"/>
<stop offset="0.3562" stop-color="#313132"/>
<stop offset="0.5429" stop-color="#4C4D4F"/>
<stop offset="0.7326" stop-color="#666769"/>
<stop offset="0.9225" stop-color="#828487"/>
<stop offset="1" stop-color="#8F9194"/>
</linearGradient>
<linearGradient id="paint5_linear" x1="4.42115" y1="0.799197" x2="4.52303" y2="1.19821" gradientUnits="userSpaceOnUse">
<stop offset="0.0121212" stop-color="#9A2119"/>
<stop offset="0.4545" stop-color="#ED1C24"/>
<stop offset="1" stop-color="#BE1E2D"/>
</linearGradient>
<linearGradient id="paint6_linear" x1="5.62848" y1="1.05567" x2="5.67528" y2="0.864505" gradientUnits="userSpaceOnUse">
<stop/>
<stop offset="0.1736" stop-color="#111112"/>
<stop offset="0.3562" stop-color="#313132"/>
<stop offset="0.5429" stop-color="#4C4D4F"/>
<stop offset="0.7326" stop-color="#666769"/>
<stop offset="0.9225" stop-color="#828487"/>
<stop offset="1" stop-color="#8F9194"/>
</linearGradient>
<linearGradient id="paint7_linear" x1="5.05636" y1="1.05656" x2="5.27648" y2="0.665717" gradientUnits="userSpaceOnUse">
<stop offset="0.0121212" stop-color="#9A2119"/>
<stop offset="0.4545" stop-color="#ED1C24"/>
<stop offset="1" stop-color="#BE1E2D"/>
</linearGradient>
<linearGradient id="paint8_linear" x1="4.32547" y1="1.92465" x2="4.33511" y2="1.75512" gradientUnits="userSpaceOnUse">
<stop/>
<stop offset="0.1736" stop-color="#111112"/>
<stop offset="0.3562" stop-color="#313132"/>
<stop offset="0.5429" stop-color="#4C4D4F"/>
<stop offset="0.7326" stop-color="#666769"/>
<stop offset="0.9225" stop-color="#828487"/>
<stop offset="1" stop-color="#8F9194"/>
</linearGradient>
<linearGradient id="paint9_linear" x1="4.65012" y1="1.42762" x2="4.72746" y2="1.82298" gradientUnits="userSpaceOnUse">
<stop offset="0.0121212" stop-color="#9A2119"/>
<stop offset="0.4545" stop-color="#ED1C24"/>
<stop offset="1" stop-color="#BE1E2D"/>
</linearGradient>
<linearGradient id="paint10_linear" x1="5.8539" y1="1.73965" x2="5.89782" y2="1.56026" gradientUnits="userSpaceOnUse">
<stop/>
<stop offset="0.1736" stop-color="#111112"/>
<stop offset="0.3562" stop-color="#313132"/>
<stop offset="0.5429" stop-color="#4C4D4F"/>
<stop offset="0.7326" stop-color="#666769"/>
<stop offset="0.9225" stop-color="#828487"/>
<stop offset="1" stop-color="#8F9194"/>
</linearGradient>
<linearGradient id="paint11_linear" x1="5.25786" y1="1.70421" x2="5.50187" y2="1.32328" gradientUnits="userSpaceOnUse">
<stop offset="0.0121212" stop-color="#9A2119"/>
<stop offset="0.4545" stop-color="#ED1C24"/>
<stop offset="1" stop-color="#BE1E2D"/>
</linearGradient>
<linearGradient id="paint12_linear" x1="4.46526" y1="2.52633" x2="4.47417" y2="2.3697" gradientUnits="userSpaceOnUse">
<stop/>
<stop offset="0.1736" stop-color="#111112"/>
<stop offset="0.3562" stop-color="#313132"/>
<stop offset="0.5429" stop-color="#4C4D4F"/>
<stop offset="0.7326" stop-color="#666769"/>
<stop offset="0.9225" stop-color="#828487"/>
<stop offset="1" stop-color="#8F9194"/>
</linearGradient>
<linearGradient id="paint13_linear" x1="4.80834" y1="2.08348" x2="4.87694" y2="2.43421" gradientUnits="userSpaceOnUse">
<stop offset="0.0121212" stop-color="#9A2119"/>
<stop offset="0.4545" stop-color="#ED1C24"/>
<stop offset="1" stop-color="#BE1E2D"/>
</linearGradient>
<linearGradient id="paint14_linear" x1="6.01424" y1="2.42803" x2="6.05546" y2="2.25967" gradientUnits="userSpaceOnUse">
<stop/>
<stop offset="0.1736" stop-color="#111112"/>
<stop offset="0.3562" stop-color="#313132"/>
<stop offset="0.5429" stop-color="#4C4D4F"/>
<stop offset="0.7326" stop-color="#666769"/>
<stop offset="0.9225" stop-color="#828487"/>
<stop offset="1" stop-color="#8F9194"/>
</linearGradient>
<linearGradient id="paint15_linear" x1="5.43959" y1="2.3579" x2="5.66322" y2="2.00882" gradientUnits="userSpaceOnUse">
<stop offset="0.0121212" stop-color="#9A2119"/>
<stop offset="0.4545" stop-color="#ED1C24"/>
<stop offset="1" stop-color="#BE1E2D"/>
</linearGradient>
<linearGradient id="paint16_linear" x1="4.54902" y1="3.12962" x2="4.55728" y2="2.98455" gradientUnits="userSpaceOnUse">
<stop/>
<stop offset="0.1736" stop-color="#111112"/>
<stop offset="0.3562" stop-color="#313132"/>
<stop offset="0.5429" stop-color="#4C4D4F"/>
<stop offset="0.7326" stop-color="#666769"/>
<stop offset="0.9225" stop-color="#828487"/>
<stop offset="1" stop-color="#8F9194"/>
</linearGradient>
<linearGradient id="paint17_linear" x1="4.90868" y1="2.74147" x2="4.96869" y2="3.04835" gradientUnits="userSpaceOnUse">
<stop offset="0.0121212" stop-color="#9A2119"/>
<stop offset="0.4545" stop-color="#ED1C24"/>
<stop offset="1" stop-color="#BE1E2D"/>
</linearGradient>
<linearGradient id="paint18_linear" x1="6.11059" y1="3.11828" x2="6.14944" y2="2.95963" gradientUnits="userSpaceOnUse">
<stop/>
<stop offset="0.1736" stop-color="#111112"/>
<stop offset="0.3562" stop-color="#313132"/>
<stop offset="0.5429" stop-color="#4C4D4F"/>
<stop offset="0.7326" stop-color="#666769"/>
<stop offset="0.9225" stop-color="#828487"/>
<stop offset="1" stop-color="#8F9194"/>
</linearGradient>
<linearGradient id="paint19_linear" x1="5.55973" y1="3.01352" x2="5.7635" y2="2.69543" gradientUnits="userSpaceOnUse">
<stop offset="0.0121212" stop-color="#9A2119"/>
<stop offset="0.4545" stop-color="#ED1C24"/>
<stop offset="1" stop-color="#BE1E2D"/>
</linearGradient>
<linearGradient id="paint20_linear" x1="4.57679" y1="3.73311" x2="4.58454" y2="3.59696" gradientUnits="userSpaceOnUse">
<stop/>
<stop offset="0.1736" stop-color="#111112"/>
<stop offset="0.3562" stop-color="#313132"/>
<stop offset="0.5429" stop-color="#4C4D4F"/>
<stop offset="0.7326" stop-color="#666769"/>
<stop offset="0.9225" stop-color="#828487"/>
<stop offset="1" stop-color="#8F9194"/>
</linearGradient>
<linearGradient id="paint21_linear" x1="4.95114" y1="3.39799" x2="5.00305" y2="3.66343" gradientUnits="userSpaceOnUse">
<stop offset="0.0121212" stop-color="#9A2119"/>
<stop offset="0.4545" stop-color="#ED1C24"/>
<stop offset="1" stop-color="#BE1E2D"/>
</linearGradient>
<linearGradient id="paint22_linear" x1="6.1428" y1="3.80805" x2="6.17972" y2="3.65723" gradientUnits="userSpaceOnUse">
<stop/>
<stop offset="0.1736" stop-color="#111112"/>
<stop offset="0.3562" stop-color="#313132"/>
<stop offset="0.5429" stop-color="#4C4D4F"/>
<stop offset="0.7326" stop-color="#666769"/>
<stop offset="0.9225" stop-color="#828487"/>
<stop offset="1" stop-color="#8F9194"/>
</linearGradient>
<linearGradient id="paint23_linear" x1="5.61862" y1="3.66806" x2="5.80312" y2="3.38008" gradientUnits="userSpaceOnUse">
<stop offset="0.0121212" stop-color="#9A2119"/>
<stop offset="0.4545" stop-color="#ED1C24"/>
<stop offset="1" stop-color="#BE1E2D"/>
</linearGradient>
<linearGradient id="paint24_linear" x1="4.54927" y1="4.33452" x2="4.5567" y2="4.204" gradientUnits="userSpaceOnUse">
<stop/>
<stop offset="0.1736" stop-color="#111112"/>
<stop offset="0.3562" stop-color="#313132"/>
<stop offset="0.5429" stop-color="#4C4D4F"/>
<stop offset="0.7326" stop-color="#666769"/>
<stop offset="0.9225" stop-color="#828487"/>
<stop offset="1" stop-color="#8F9194"/>
</linearGradient>
<linearGradient id="paint25_linear" x1="4.9359" y1="4.04529" x2="4.98103" y2="4.27607" gradientUnits="userSpaceOnUse">
<stop offset="0.0121212" stop-color="#9A2119"/>
<stop offset="0.4545" stop-color="#ED1C24"/>
<stop offset="1" stop-color="#BE1E2D"/>
</linearGradient>
<linearGradient id="paint26_linear" x1="6.11163" y1="4.4949" x2="6.14724" y2="4.34942" gradientUnits="userSpaceOnUse">
<stop/>
<stop offset="0.1736" stop-color="#111112"/>
<stop offset="0.3562" stop-color="#313132"/>
<stop offset="0.5429" stop-color="#4C4D4F"/>
<stop offset="0.7326" stop-color="#666769"/>
<stop offset="0.9225" stop-color="#828487"/>
<stop offset="1" stop-color="#8F9194"/>
</linearGradient>
<linearGradient id="paint27_linear" x1="5.61656" y1="4.31882" x2="5.7829" y2="4.05915" gradientUnits="userSpaceOnUse">
<stop offset="0.0121212" stop-color="#9A2119"/>
<stop offset="0.4545" stop-color="#ED1C24"/>
<stop offset="1" stop-color="#BE1E2D"/>
</linearGradient>
<linearGradient id="paint28_linear" x1="4.46657" y1="4.93152" x2="4.47383" y2="4.80393" gradientUnits="userSpaceOnUse">
<stop/>
<stop offset="0.1736" stop-color="#111112"/>
<stop offset="0.3562" stop-color="#313132"/>
<stop offset="0.5429" stop-color="#4C4D4F"/>
<stop offset="0.7326" stop-color="#666769"/>
<stop offset="0.9225" stop-color="#828487"/>
<stop offset="1" stop-color="#8F9194"/>
</linearGradient>
<linearGradient id="paint29_linear" x1="4.86175" y1="4.66605" x2="4.90771" y2="4.90099" gradientUnits="userSpaceOnUse">
<stop offset="0.0121212" stop-color="#9A2119"/>
<stop offset="0.4545" stop-color="#ED1C24"/>
<stop offset="1" stop-color="#BE1E2D"/>
</linearGradient>
<linearGradient id="paint30_linear" x1="6.01753" y1="5.17621" x2="6.0524" y2="5.03376" gradientUnits="userSpaceOnUse">
<stop/>
<stop offset="0.1736" stop-color="#111112"/>
<stop offset="0.3562" stop-color="#313132"/>
<stop offset="0.5429" stop-color="#4C4D4F"/>
<stop offset="0.7326" stop-color="#666769"/>
<stop offset="0.9225" stop-color="#828487"/>
<stop offset="1" stop-color="#8F9194"/>
</linearGradient>
<linearGradient id="paint31_linear" x1="5.55403" y1="4.96343" x2="5.70338" y2="4.73028" gradientUnits="userSpaceOnUse">
<stop offset="0.0121212" stop-color="#9A2119"/>
<stop offset="0.4545" stop-color="#ED1C24"/>
<stop offset="1" stop-color="#BE1E2D"/>
</linearGradient>
<linearGradient id="paint32_linear" x1="4.32975" y1="5.52197" x2="4.33707" y2="5.39335" gradientUnits="userSpaceOnUse">
<stop/>
<stop offset="0.1736" stop-color="#111112"/>
<stop offset="0.3562" stop-color="#313132"/>
<stop offset="0.5429" stop-color="#4C4D4F"/>
<stop offset="0.7326" stop-color="#666769"/>
<stop offset="0.9225" stop-color="#828487"/>
<stop offset="1" stop-color="#8F9194"/>
</linearGradient>
<linearGradient id="paint33_linear" x1="4.72999" y1="5.2719" x2="4.78152" y2="5.53537" gradientUnits="userSpaceOnUse">
<stop offset="0.0121212" stop-color="#9A2119"/>
<stop offset="0.4545" stop-color="#ED1C24"/>
<stop offset="1" stop-color="#BE1E2D"/>
</linearGradient>
<linearGradient id="paint34_linear" x1="5.8614" y1="5.84969" x2="5.89633" y2="5.70702" gradientUnits="userSpaceOnUse">
<stop/>
<stop offset="0.1736" stop-color="#111112"/>
<stop offset="0.3562" stop-color="#313132"/>
<stop offset="0.5429" stop-color="#4C4D4F"/>
<stop offset="0.7326" stop-color="#666769"/>
<stop offset="0.9225" stop-color="#828487"/>
<stop offset="1" stop-color="#8F9194"/>
</linearGradient>
<linearGradient id="paint35_linear" x1="5.43172" y1="5.59974" x2="5.56503" y2="5.39163" gradientUnits="userSpaceOnUse">
<stop offset="0.0121212" stop-color="#9A2119"/>
<stop offset="0.4545" stop-color="#ED1C24"/>
<stop offset="1" stop-color="#BE1E2D"/>
</linearGradient>
<linearGradient id="paint36_linear" x1="4.13899" y1="6.10352" x2="4.14654" y2="5.97081" gradientUnits="userSpaceOnUse">
<stop/>
<stop offset="0.1736" stop-color="#111112"/>
<stop offset="0.3562" stop-color="#313132"/>
<stop offset="0.5429" stop-color="#4C4D4F"/>
<stop offset="0.7326" stop-color="#666769"/>
<stop offset="0.9225" stop-color="#828487"/>
<stop offset="1" stop-color="#8F9194"/>
</linearGradient>
<linearGradient id="paint37_linear" x1="4.5418" y1="5.86317" x2="4.59966" y2="6.15897" gradientUnits="userSpaceOnUse">
<stop offset="0.0121212" stop-color="#9A2119"/>
<stop offset="0.4545" stop-color="#ED1C24"/>
<stop offset="1" stop-color="#BE1E2D"/>
</linearGradient>
<linearGradient id="paint38_linear" x1="5.64289" y1="6.5125" x2="5.67863" y2="6.36651" gradientUnits="userSpaceOnUse">
<stop/>
<stop offset="0.1736" stop-color="#111112"/>
<stop offset="0.3562" stop-color="#313132"/>
<stop offset="0.5429" stop-color="#4C4D4F"/>
<stop offset="0.7326" stop-color="#666769"/>
<stop offset="0.9225" stop-color="#828487"/>
<stop offset="1" stop-color="#8F9194"/>
</linearGradient>
<linearGradient id="paint39_linear" x1="5.22931" y1="6.25656" x2="5.37405" y2="6.03063" gradientUnits="userSpaceOnUse">
<stop offset="0.0121212" stop-color="#9A2119"/>
<stop offset="0.4545" stop-color="#ED1C24"/>
<stop offset="1" stop-color="#BE1E2D"/>
</linearGradient>
<linearGradient id="paint40_linear" x1="3.8946" y1="6.67342" x2="3.90259" y2="6.53309" gradientUnits="userSpaceOnUse">
<stop/>
<stop offset="0.1736" stop-color="#111112"/>
<stop offset="0.3562" stop-color="#313132"/>
<stop offset="0.5429" stop-color="#4C4D4F"/>
<stop offset="0.7326" stop-color="#666769"/>
<stop offset="0.9225" stop-color="#828487"/>
<stop offset="1" stop-color="#8F9194"/>
</linearGradient>
<linearGradient id="paint41_linear" x1="4.2977" y1="6.43823" x2="4.36242" y2="6.76914" gradientUnits="userSpaceOnUse">
<stop offset="0.0121212" stop-color="#9A2119"/>
<stop offset="0.4545" stop-color="#ED1C24"/>
<stop offset="1" stop-color="#BE1E2D"/>
</linearGradient>
<linearGradient id="paint42_linear" x1="5.36379" y1="7.1615" x2="5.40088" y2="7.01" gradientUnits="userSpaceOnUse">
<stop/>
<stop offset="0.1736" stop-color="#111112"/>
<stop offset="0.3562" stop-color="#313132"/>
<stop offset="0.5429" stop-color="#4C4D4F"/>
<stop offset="0.7326" stop-color="#666769"/>
<stop offset="0.9225" stop-color="#828487"/>
<stop offset="1" stop-color="#8F9194"/>
</linearGradient>
<linearGradient id="paint43_linear" x1="4.96563" y1="6.90424" x2="5.13262" y2="6.64357" gradientUnits="userSpaceOnUse">
<stop offset="0.0121212" stop-color="#9A2119"/>
<stop offset="0.4545" stop-color="#ED1C24"/>
<stop offset="1" stop-color="#BE1E2D"/>
</linearGradient>
<linearGradient id="paint44_linear" x1="3.59743" y1="7.22873" x2="3.60594" y2="7.07913" gradientUnits="userSpaceOnUse">
<stop/>
<stop offset="0.1736" stop-color="#111112"/>
<stop offset="0.3562" stop-color="#313132"/>
<stop offset="0.5429" stop-color="#4C4D4F"/>
<stop offset="0.7326" stop-color="#666769"/>
<stop offset="0.9225" stop-color="#828487"/>
<stop offset="1" stop-color="#8F9194"/>
</linearGradient>
<linearGradient id="paint45_linear" x1="3.99886" y1="6.99685" x2="4.07052" y2="7.36321" gradientUnits="userSpaceOnUse">
<stop offset="0.0121212" stop-color="#9A2119"/>
<stop offset="0.4545" stop-color="#ED1C24"/>
<stop offset="1" stop-color="#BE1E2D"/>
</linearGradient>
<linearGradient id="paint46_linear" x1="5.02388" y1="7.79398" x2="5.06293" y2="7.63447" gradientUnits="userSpaceOnUse">
<stop/>
<stop offset="0.1736" stop-color="#111112"/>
<stop offset="0.3562" stop-color="#313132"/>
<stop offset="0.5429" stop-color="#4C4D4F"/>
<stop offset="0.7326" stop-color="#666769"/>
<stop offset="0.9225" stop-color="#828487"/>
<stop offset="1" stop-color="#8F9194"/>
</linearGradient>
<linearGradient id="paint47_linear" x1="4.64167" y1="7.53567" x2="4.84093" y2="7.22463" gradientUnits="userSpaceOnUse">
<stop offset="0.0121212" stop-color="#9A2119"/>
<stop offset="0.4545" stop-color="#ED1C24"/>
<stop offset="1" stop-color="#BE1E2D"/>
</linearGradient>
<linearGradient id="paint48_linear" x1="3.24776" y1="7.76766" x2="3.25694" y2="7.6063" gradientUnits="userSpaceOnUse">
<stop/>
<stop offset="0.1736" stop-color="#111112"/>
<stop offset="0.3562" stop-color="#313132"/>
<stop offset="0.5429" stop-color="#4C4D4F"/>
<stop offset="0.7326" stop-color="#666769"/>
<stop offset="0.9225" stop-color="#828487"/>
<stop offset="1" stop-color="#8F9194"/>
</linearGradient>
<linearGradient id="paint49_linear" x1="3.64561" y1="7.53617" x2="3.72445" y2="7.93924" gradientUnits="userSpaceOnUse">
<stop offset="0.0121212" stop-color="#9A2119"/>
<stop offset="0.4545" stop-color="#ED1C24"/>
<stop offset="1" stop-color="#BE1E2D"/>
</linearGradient>
<linearGradient id="paint50_linear" x1="4.62355" y1="8.40722" x2="4.66503" y2="8.2378" gradientUnits="userSpaceOnUse">
<stop/>
<stop offset="0.1736" stop-color="#111112"/>
<stop offset="0.3562" stop-color="#313132"/>
<stop offset="0.5429" stop-color="#4C4D4F"/>
<stop offset="0.7326" stop-color="#666769"/>
<stop offset="0.9225" stop-color="#828487"/>
<stop offset="1" stop-color="#8F9194"/>
</linearGradient>
<linearGradient id="paint51_linear" x1="4.25852" y1="8.14904" x2="4.49079" y2="7.78647" gradientUnits="userSpaceOnUse">
<stop offset="0.0121212" stop-color="#9A2119"/>
<stop offset="0.4545" stop-color="#ED1C24"/>
<stop offset="1" stop-color="#BE1E2D"/>
</linearGradient>
<linearGradient id="paint52_linear" x1="2.8462" y1="8.28711" x2="2.85614" y2="8.11246" gradientUnits="userSpaceOnUse">
<stop/>
<stop offset="0.1736" stop-color="#111112"/>
<stop offset="0.3562" stop-color="#313132"/>
<stop offset="0.5429" stop-color="#4C4D4F"/>
<stop offset="0.7326" stop-color="#666769"/>
<stop offset="0.9225" stop-color="#828487"/>
<stop offset="1" stop-color="#8F9194"/>
</linearGradient>
<linearGradient id="paint53_linear" x1="3.23853" y1="8.05468" x2="3.32442" y2="8.49386" gradientUnits="userSpaceOnUse">
<stop offset="0.0121212" stop-color="#9A2119"/>
<stop offset="0.4545" stop-color="#ED1C24"/>
<stop offset="1" stop-color="#BE1E2D"/>
</linearGradient>
<linearGradient id="paint54_linear" x1="4.16436" y1="8.99835" x2="4.2086" y2="8.81765" gradientUnits="userSpaceOnUse">
<stop/>
<stop offset="0.1736" stop-color="#111112"/>
<stop offset="0.3562" stop-color="#313132"/>
<stop offset="0.5429" stop-color="#4C4D4F"/>
<stop offset="0.7326" stop-color="#666769"/>
<stop offset="0.9225" stop-color="#828487"/>
<stop offset="1" stop-color="#8F9194"/>
</linearGradient>
<linearGradient id="paint55_linear" x1="3.81612" y1="8.74158" x2="4.08233" y2="8.326" gradientUnits="userSpaceOnUse">
<stop offset="0.0121212" stop-color="#9A2119"/>
<stop offset="0.4545" stop-color="#ED1C24"/>
<stop offset="1" stop-color="#BE1E2D"/>
</linearGradient>
<linearGradient id="paint56_linear" x1="2.39301" y1="8.7843" x2="2.40372" y2="8.59592" gradientUnits="userSpaceOnUse">
<stop/>
<stop offset="0.1736" stop-color="#111112"/>
<stop offset="0.3562" stop-color="#313132"/>
<stop offset="0.5429" stop-color="#4C4D4F"/>
<stop offset="0.7326" stop-color="#666769"/>
<stop offset="0.9225" stop-color="#828487"/>
<stop offset="1" stop-color="#8F9194"/>
</linearGradient>
<linearGradient id="paint57_linear" x1="2.77812" y1="8.5498" x2="2.8712" y2="9.0257" gradientUnits="userSpaceOnUse">
<stop offset="0.0121212" stop-color="#9A2119"/>
<stop offset="0.4545" stop-color="#ED1C24"/>
<stop offset="1" stop-color="#BE1E2D"/>
</linearGradient>
<linearGradient id="paint58_linear" x1="3.64565" y1="9.56452" x2="3.69301" y2="9.37108" gradientUnits="userSpaceOnUse">
<stop/>
<stop offset="0.1736" stop-color="#111112"/>
<stop offset="0.3562" stop-color="#313132"/>
<stop offset="0.5429" stop-color="#4C4D4F"/>
<stop offset="0.7326" stop-color="#666769"/>
<stop offset="0.9225" stop-color="#828487"/>
<stop offset="1" stop-color="#8F9194"/>
</linearGradient>
<linearGradient id="paint59_linear" x1="3.31552" y1="9.31019" x2="3.61563" y2="8.8417" gradientUnits="userSpaceOnUse">
<stop offset="0.0121212" stop-color="#9A2119"/>
<stop offset="0.4545" stop-color="#ED1C24"/>
<stop offset="1" stop-color="#BE1E2D"/>
</linearGradient>
<linearGradient id="paint60_linear" x1="1.88884" y1="9.25695" x2="1.90036" y2="9.05452" gradientUnits="userSpaceOnUse">
<stop/>
<stop offset="0.1736" stop-color="#111112"/>
<stop offset="0.3562" stop-color="#313132"/>
<stop offset="0.5429" stop-color="#4C4D4F"/>
<stop offset="0.7326" stop-color="#666769"/>
<stop offset="0.9225" stop-color="#828487"/>
<stop offset="1" stop-color="#8F9194"/>
</linearGradient>
<linearGradient id="paint61_linear" x1="2.26493" y1="9.01778" x2="2.36531" y2="9.53097" gradientUnits="userSpaceOnUse">
<stop offset="0.0121212" stop-color="#9A2119"/>
<stop offset="0.4545" stop-color="#ED1C24"/>
<stop offset="1" stop-color="#BE1E2D"/>
</linearGradient>
<linearGradient id="paint62_linear" x1="3.06931" y1="10.1023" x2="3.11987" y2="9.89575" gradientUnits="userSpaceOnUse">
<stop/>
<stop offset="0.1736" stop-color="#111112"/>
<stop offset="0.3562" stop-color="#313132"/>
<stop offset="0.5429" stop-color="#4C4D4F"/>
<stop offset="0.7326" stop-color="#666769"/>
<stop offset="0.9225" stop-color="#828487"/>
<stop offset="1" stop-color="#8F9194"/>
</linearGradient>
<linearGradient id="paint63_linear" x1="2.75771" y1="9.85269" x2="3.09176" y2="9.3312" gradientUnits="userSpaceOnUse">
<stop offset="0.0121212" stop-color="#9A2119"/>
<stop offset="0.4545" stop-color="#ED1C24"/>
<stop offset="1" stop-color="#BE1E2D"/>
</linearGradient>
<linearGradient id="paint64_linear" x1="1.95884" y1="9.51841" x2="2.07346" y2="9.96731" gradientUnits="userSpaceOnUse">
<stop offset="0.0121212" stop-color="#9A2119"/>
<stop offset="0.4545" stop-color="#ED1C24"/>
<stop offset="1" stop-color="#BE1E2D"/>
</linearGradient>
<linearGradient id="paint65_linear" x1="2.43496" y1="10.6096" x2="2.48887" y2="10.3894" gradientUnits="userSpaceOnUse">
<stop/>
<stop offset="0.1736" stop-color="#111112"/>
<stop offset="0.3562" stop-color="#313132"/>
<stop offset="0.5429" stop-color="#4C4D4F"/>
<stop offset="0.7326" stop-color="#666769"/>
<stop offset="0.9225" stop-color="#828487"/>
<stop offset="1" stop-color="#8F9194"/>
</linearGradient>
<linearGradient id="paint66_linear" x1="2.14419" y1="10.3664" x2="2.51201" y2="9.79222" gradientUnits="userSpaceOnUse">
<stop offset="0.0121212" stop-color="#9A2119"/>
<stop offset="0.4545" stop-color="#ED1C24"/>
<stop offset="1" stop-color="#BE1E2D"/>
</linearGradient>
<linearGradient id="paint67_linear" x1="10.4158" y1="11.8836" x2="10.3681" y2="12.089" gradientUnits="userSpaceOnUse">
<stop/>
<stop offset="0.1736" stop-color="#111112"/>
<stop offset="0.3562" stop-color="#313132"/>
<stop offset="0.5429" stop-color="#4C4D4F"/>
<stop offset="0.7326" stop-color="#666769"/>
<stop offset="0.9225" stop-color="#828487"/>
<stop offset="1" stop-color="#8F9194"/>
</linearGradient>
<linearGradient id="paint68_linear" x1="10.0636" y1="12.4912" x2="10.0514" y2="11.9351" gradientUnits="userSpaceOnUse">
<stop offset="0.0121212" stop-color="#9A2119"/>
<stop offset="0.4545" stop-color="#ED1C24"/>
<stop offset="1" stop-color="#BE1E2D"/>
</linearGradient>
<linearGradient id="paint69_linear" x1="9.08423" y1="12.0237" x2="8.99872" y2="12.2197" gradientUnits="userSpaceOnUse">
<stop/>
<stop offset="0.1736" stop-color="#111112"/>
<stop offset="0.3562" stop-color="#313132"/>
<stop offset="0.5429" stop-color="#4C4D4F"/>
<stop offset="0.7326" stop-color="#666769"/>
<stop offset="0.9225" stop-color="#828487"/>
<stop offset="1" stop-color="#8F9194"/>
</linearGradient>
<linearGradient id="paint70_linear" x1="9.60808" y1="12.1329" x2="9.30057" y2="12.469" gradientUnits="userSpaceOnUse">
<stop offset="0.0121212" stop-color="#9A2119"/>
<stop offset="0.4545" stop-color="#ED1C24"/>
<stop offset="1" stop-color="#BE1E2D"/>
</linearGradient>
<linearGradient id="paint71_linear" x1="10.3665" y1="11.2047" x2="10.3225" y2="11.3942" gradientUnits="userSpaceOnUse">
<stop/>
<stop offset="0.1736" stop-color="#111112"/>
<stop offset="0.3562" stop-color="#313132"/>
<stop offset="0.5429" stop-color="#4C4D4F"/>
<stop offset="0.7326" stop-color="#666769"/>
<stop offset="0.9225" stop-color="#828487"/>
<stop offset="1" stop-color="#8F9194"/>
</linearGradient>
<linearGradient id="paint72_linear" x1="10.0057" y1="11.7497" x2="9.99474" y2="11.2473" gradientUnits="userSpaceOnUse">
<stop offset="0.0121212" stop-color="#9A2119"/>
<stop offset="0.4545" stop-color="#ED1C24"/>
<stop offset="1" stop-color="#BE1E2D"/>
</linearGradient>
<linearGradient id="paint73_linear" x1="9.02715" y1="11.2433" x2="8.94711" y2="11.4268" gradientUnits="userSpaceOnUse">
<stop/>
<stop offset="0.1736" stop-color="#111112"/>
<stop offset="0.3562" stop-color="#313132"/>
<stop offset="0.5429" stop-color="#4C4D4F"/>
<stop offset="0.7326" stop-color="#666769"/>
<stop offset="0.9225" stop-color="#828487"/>
<stop offset="1" stop-color="#8F9194"/>
</linearGradient>
<linearGradient id="paint74_linear" x1="9.52512" y1="11.3882" x2="9.24486" y2="11.6946" gradientUnits="userSpaceOnUse">
<stop offset="0.0121212" stop-color="#9A2119"/>
<stop offset="0.4545" stop-color="#ED1C24"/>
<stop offset="1" stop-color="#BE1E2D"/>
</linearGradient>
<linearGradient id="paint75_linear" x1="10.3688" y1="10.5282" x2="10.3283" y2="10.7026" gradientUnits="userSpaceOnUse">
<stop/>
<stop offset="0.1736" stop-color="#111112"/>
<stop offset="0.3562" stop-color="#313132"/>
<stop offset="0.5429" stop-color="#4C4D4F"/>
<stop offset="0.7326" stop-color="#666769"/>
<stop offset="0.9225" stop-color="#828487"/>
<stop offset="1" stop-color="#8F9194"/>
</linearGradient>
<linearGradient id="paint76_linear" x1="10.0013" y1="11.0099" x2="9.99148" y2="10.5599" gradientUnits="userSpaceOnUse">
<stop offset="0.0121212" stop-color="#9A2119"/>
<stop offset="0.4545" stop-color="#ED1C24"/>
<stop offset="1" stop-color="#BE1E2D"/>
</linearGradient>
<linearGradient id="paint77_linear" x1="9.02919" y1="10.4652" x2="8.95405" y2="10.6374" gradientUnits="userSpaceOnUse">
<stop/>
<stop offset="0.1736" stop-color="#111112"/>
<stop offset="0.3562" stop-color="#313132"/>
<stop offset="0.5429" stop-color="#4C4D4F"/>
<stop offset="0.7326" stop-color="#666769"/>
<stop offset="0.9225" stop-color="#828487"/>
<stop offset="1" stop-color="#8F9194"/>
</linearGradient>
<linearGradient id="paint78_linear" x1="9.49896" y1="10.646" x2="9.24533" y2="10.9232" gradientUnits="userSpaceOnUse">
<stop offset="0.0121212" stop-color="#9A2119"/>
<stop offset="0.4545" stop-color="#ED1C24"/>
<stop offset="1" stop-color="#BE1E2D"/>
</linearGradient>
<linearGradient id="paint79_linear" x1="10.422" y1="9.85573" x2="10.3844" y2="10.0174" gradientUnits="userSpaceOnUse">
<stop/>
<stop offset="0.1736" stop-color="#111112"/>
<stop offset="0.3562" stop-color="#313132"/>
<stop offset="0.5429" stop-color="#4C4D4F"/>
<stop offset="0.7326" stop-color="#666769"/>
<stop offset="0.9225" stop-color="#828487"/>
<stop offset="1" stop-color="#8F9194"/>
</linearGradient>
<linearGradient id="paint80_linear" x1="10.0491" y1="10.2752" x2="10.0403" y2="9.87612" gradientUnits="userSpaceOnUse">
<stop offset="0.0121212" stop-color="#9A2119"/>
<stop offset="0.4545" stop-color="#ED1C24"/>
<stop offset="1" stop-color="#BE1E2D"/>
</linearGradient>
<linearGradient id="paint81_linear" x1="9.08982" y1="9.69234" x2="9.01872" y2="9.85528" gradientUnits="userSpaceOnUse">
<stop/>
<stop offset="0.1736" stop-color="#111112"/>
<stop offset="0.3562" stop-color="#313132"/>
<stop offset="0.5429" stop-color="#4C4D4F"/>
<stop offset="0.7326" stop-color="#666769"/>
<stop offset="0.9225" stop-color="#828487"/>
<stop offset="1" stop-color="#8F9194"/>
</linearGradient>
<linearGradient id="paint82_linear" x1="9.5288" y1="9.90917" x2="9.30028" y2="10.1589" gradientUnits="userSpaceOnUse">
<stop offset="0.0121212" stop-color="#9A2119"/>
<stop offset="0.4545" stop-color="#ED1C24"/>
<stop offset="1" stop-color="#BE1E2D"/>
</linearGradient>
<linearGradient id="paint83_linear" x1="10.5244" y1="9.19066" x2="10.4894" y2="9.34145" gradientUnits="userSpaceOnUse">
<stop/>
<stop offset="0.1736" stop-color="#111112"/>
<stop offset="0.3562" stop-color="#313132"/>
<stop offset="0.5429" stop-color="#4C4D4F"/>
<stop offset="0.7326" stop-color="#666769"/>
<stop offset="0.9225" stop-color="#828487"/>
<stop offset="1" stop-color="#8F9194"/>
</linearGradient>
<linearGradient id="paint84_linear" x1="10.1479" y1="9.54854" x2="10.1402" y2="9.19883" gradientUnits="userSpaceOnUse">
<stop offset="0.0121212" stop-color="#9A2119"/>
<stop offset="0.4545" stop-color="#ED1C24"/>
<stop offset="1" stop-color="#BE1E2D"/>
</linearGradient>
<linearGradient id="paint85_linear" x1="9.20736" y1="8.92782" x2="9.13937" y2="9.08365" gradientUnits="userSpaceOnUse">
<stop/>
<stop offset="0.1736" stop-color="#111112"/>
<stop offset="0.3562" stop-color="#313132"/>
<stop offset="0.5429" stop-color="#4C4D4F"/>
<stop offset="0.7326" stop-color="#666769"/>
<stop offset="0.9225" stop-color="#828487"/>
<stop offset="1" stop-color="#8F9194"/>
</linearGradient>
<linearGradient id="paint86_linear" x1="9.61333" y1="9.18103" x2="9.40834" y2="9.40504" gradientUnits="userSpaceOnUse">
<stop offset="0.0121212" stop-color="#9A2119"/>
<stop offset="0.4545" stop-color="#ED1C24"/>
<stop offset="1" stop-color="#BE1E2D"/>
</linearGradient>
<linearGradient id="paint87_linear" x1="10.6762" y1="8.53472" x2="10.6429" y2="8.67831" gradientUnits="userSpaceOnUse">
<stop/>
<stop offset="0.1736" stop-color="#111112"/>
<stop offset="0.3562" stop-color="#313132"/>
<stop offset="0.5429" stop-color="#4C4D4F"/>
<stop offset="0.7326" stop-color="#666769"/>
<stop offset="0.9225" stop-color="#828487"/>
<stop offset="1" stop-color="#8F9194"/>
</linearGradient>
<linearGradient id="paint88_linear" x1="10.2957" y1="8.83282" x2="10.2891" y2="8.53017" gradientUnits="userSpaceOnUse">
<stop offset="0.0121212" stop-color="#9A2119"/>
<stop offset="0.4545" stop-color="#ED1C24"/>
<stop offset="1" stop-color="#BE1E2D"/>
</linearGradient>
<linearGradient id="paint89_linear" x1="9.38122" y1="8.17477" x2="9.31525" y2="8.32597" gradientUnits="userSpaceOnUse">
<stop/>
<stop offset="0.1736" stop-color="#111112"/>
<stop offset="0.3562" stop-color="#313132"/>
<stop offset="0.5429" stop-color="#4C4D4F"/>
<stop offset="0.7326" stop-color="#666769"/>
<stop offset="0.9225" stop-color="#828487"/>
<stop offset="1" stop-color="#8F9194"/>
</linearGradient>
<linearGradient id="paint90_linear" x1="9.75163" y1="8.46429" x2="9.5691" y2="8.66371" gradientUnits="userSpaceOnUse">
<stop offset="0.0121212" stop-color="#9A2119"/>
<stop offset="0.4545" stop-color="#ED1C24"/>
<stop offset="1" stop-color="#BE1E2D"/>
</linearGradient>
<linearGradient id="paint91_linear" x1="10.8757" y1="7.89052" x2="10.8433" y2="8.03006" gradientUnits="userSpaceOnUse">
<stop/>
<stop offset="0.1736" stop-color="#111112"/>
<stop offset="0.3562" stop-color="#313132"/>
<stop offset="0.5429" stop-color="#4C4D4F"/>
<stop offset="0.7326" stop-color="#666769"/>
<stop offset="0.9225" stop-color="#828487"/>
<stop offset="1" stop-color="#8F9194"/>
</linearGradient>
<linearGradient id="paint92_linear" x1="10.4922" y1="8.13422" x2="10.4865" y2="7.87406" gradientUnits="userSpaceOnUse">
<stop offset="0.0121212" stop-color="#9A2119"/>
<stop offset="0.4545" stop-color="#ED1C24"/>
<stop offset="1" stop-color="#BE1E2D"/>
</linearGradient>
<linearGradient id="paint93_linear" x1="9.6103" y1="7.43522" x2="9.54466" y2="7.58565" gradientUnits="userSpaceOnUse">
<stop/>
<stop offset="0.1736" stop-color="#111112"/>
<stop offset="0.3562" stop-color="#313132"/>
<stop offset="0.5429" stop-color="#4C4D4F"/>
<stop offset="0.7326" stop-color="#666769"/>
<stop offset="0.9225" stop-color="#828487"/>
<stop offset="1" stop-color="#8F9194"/>
</linearGradient>
<linearGradient id="paint94_linear" x1="9.9588" y1="7.74374" x2="9.7761" y2="7.94335" gradientUnits="userSpaceOnUse">
<stop offset="0.0121212" stop-color="#9A2119"/>
<stop offset="0.4545" stop-color="#ED1C24"/>
<stop offset="1" stop-color="#BE1E2D"/>
</linearGradient>
<linearGradient id="paint95_linear" x1="11.1223" y1="7.26083" x2="11.0898" y2="7.40075" gradientUnits="userSpaceOnUse">
<stop/>
<stop offset="0.1736" stop-color="#111112"/>
<stop offset="0.3562" stop-color="#313132"/>
<stop offset="0.5429" stop-color="#4C4D4F"/>
<stop offset="0.7326" stop-color="#666769"/>
<stop offset="0.9225" stop-color="#828487"/>
<stop offset="1" stop-color="#8F9194"/>
</linearGradient>
<linearGradient id="paint96_linear" x1="10.7379" y1="7.47585" x2="10.7323" y2="7.21929" gradientUnits="userSpaceOnUse">
<stop offset="0.0121212" stop-color="#9A2119"/>
<stop offset="0.4545" stop-color="#ED1C24"/>
<stop offset="1" stop-color="#BE1E2D"/>
</linearGradient>
<linearGradient id="paint97_linear" x1="9.89341" y1="6.71321" x2="9.82699" y2="6.86544" gradientUnits="userSpaceOnUse">
<stop/>
<stop offset="0.1736" stop-color="#111112"/>
<stop offset="0.3562" stop-color="#313132"/>
<stop offset="0.5429" stop-color="#4C4D4F"/>
<stop offset="0.7326" stop-color="#666769"/>
<stop offset="0.9225" stop-color="#828487"/>
<stop offset="1" stop-color="#8F9194"/>
</linearGradient>
<linearGradient id="paint98_linear" x1="10.2325" y1="7.02502" x2="10.0241" y2="7.25279" gradientUnits="userSpaceOnUse">
<stop offset="0.0121212" stop-color="#9A2119"/>
<stop offset="0.4545" stop-color="#ED1C24"/>
<stop offset="1" stop-color="#BE1E2D"/>
</linearGradient>
<linearGradient id="paint99_linear" x1="11.4149" y1="6.64845" x2="11.3814" y2="6.79254" gradientUnits="userSpaceOnUse">
<stop/>
<stop offset="0.1736" stop-color="#111112"/>
<stop offset="0.3562" stop-color="#313132"/>
<stop offset="0.5429" stop-color="#4C4D4F"/>
<stop offset="0.7326" stop-color="#666769"/>
<stop offset="0.9225" stop-color="#828487"/>
<stop offset="1" stop-color="#8F9194"/>
</linearGradient>
<linearGradient id="paint100_linear" x1="11.0308" y1="6.84618" x2="11.0245" y2="6.55778" gradientUnits="userSpaceOnUse">
<stop offset="0.0121212" stop-color="#9A2119"/>
<stop offset="0.4545" stop-color="#ED1C24"/>
<stop offset="1" stop-color="#BE1E2D"/>
</linearGradient>
<linearGradient id="paint101_linear" x1="10.2289" y1="6.01147" x2="10.1603" y2="6.16881" gradientUnits="userSpaceOnUse">
<stop/>
<stop offset="0.1736" stop-color="#111112"/>
<stop offset="0.3562" stop-color="#313132"/>
<stop offset="0.5429" stop-color="#4C4D4F"/>
<stop offset="0.7326" stop-color="#666769"/>
<stop offset="0.9225" stop-color="#828487"/>
<stop offset="1" stop-color="#8F9194"/>
</linearGradient>
<linearGradient id="paint102_linear" x1="10.5574" y1="6.32599" x2="10.3091" y2="6.59738" gradientUnits="userSpaceOnUse">
<stop offset="0.0121212" stop-color="#9A2119"/>
<stop offset="0.4545" stop-color="#ED1C24"/>
<stop offset="1" stop-color="#BE1E2D"/>
</linearGradient>
<linearGradient id="paint103_linear" x1="11.7524" y1="6.05627" x2="11.7171" y2="6.20808" gradientUnits="userSpaceOnUse">
<stop/>
<stop offset="0.1736" stop-color="#111112"/>
<stop offset="0.3562" stop-color="#313132"/>
<stop offset="0.5429" stop-color="#4C4D4F"/>
<stop offset="0.7326" stop-color="#666769"/>
<stop offset="0.9225" stop-color="#828487"/>
<stop offset="1" stop-color="#8F9194"/>
</linearGradient>
<linearGradient id="paint104_linear" x1="11.3702" y1="6.24364" x2="11.3632" y2="5.91899" gradientUnits="userSpaceOnUse">
<stop offset="0.0121212" stop-color="#9A2119"/>
<stop offset="0.4545" stop-color="#ED1C24"/>
<stop offset="1" stop-color="#BE1E2D"/>
</linearGradient>
<linearGradient id="paint105_linear" x1="10.6163" y1="5.33384" x2="10.5443" y2="5.49886" gradientUnits="userSpaceOnUse">
<stop/>
<stop offset="0.1736" stop-color="#111112"/>
<stop offset="0.3562" stop-color="#313132"/>
<stop offset="0.5429" stop-color="#4C4D4F"/>
<stop offset="0.7326" stop-color="#666769"/>
<stop offset="0.9225" stop-color="#828487"/>
<stop offset="1" stop-color="#8F9194"/>
</linearGradient>
<linearGradient id="paint106_linear" x1="10.9323" y1="5.64926" x2="10.6404" y2="5.96832" gradientUnits="userSpaceOnUse">
<stop offset="0.0121212" stop-color="#9A2119"/>
<stop offset="0.4545" stop-color="#ED1C24"/>
<stop offset="1" stop-color="#BE1E2D"/>
</linearGradient>
<linearGradient id="paint107_linear" x1="12.1336" y1="5.48705" x2="12.0957" y2="5.6501" gradientUnits="userSpaceOnUse">
<stop/>
<stop offset="0.1736" stop-color="#111112"/>
<stop offset="0.3562" stop-color="#313132"/>
<stop offset="0.5429" stop-color="#4C4D4F"/>
<stop offset="0.7326" stop-color="#666769"/>
<stop offset="0.9225" stop-color="#828487"/>
<stop offset="1" stop-color="#8F9194"/>
</linearGradient>
<linearGradient id="paint108_linear" x1="11.7544" y1="5.66948" x2="11.7465" y2="5.30539" gradientUnits="userSpaceOnUse">
<stop offset="0.0121212" stop-color="#9A2119"/>
<stop offset="0.4545" stop-color="#ED1C24"/>
<stop offset="1" stop-color="#BE1E2D"/>
</linearGradient>
<linearGradient id="paint109_linear" x1="11.0538" y1="4.68325" x2="10.9776" y2="4.85801" gradientUnits="userSpaceOnUse">
<stop/>
<stop offset="0.1736" stop-color="#111112"/>
<stop offset="0.3562" stop-color="#313132"/>
<stop offset="0.5429" stop-color="#4C4D4F"/>
<stop offset="0.7326" stop-color="#666769"/>
<stop offset="0.9225" stop-color="#828487"/>
<stop offset="1" stop-color="#8F9194"/>
</linearGradient>
<linearGradient id="paint110_linear" x1="11.3568" y1="4.99761" x2="11.0203" y2="5.36531" gradientUnits="userSpaceOnUse">
<stop offset="0.0121212" stop-color="#9A2119"/>
<stop offset="0.4545" stop-color="#ED1C24"/>
<stop offset="1" stop-color="#BE1E2D"/>
</linearGradient>
<linearGradient id="paint111_linear" x1="12.5576" y1="4.94426" x2="12.5167" y2="5.12023" gradientUnits="userSpaceOnUse">
<stop/>
<stop offset="0.1736" stop-color="#111112"/>
<stop offset="0.3562" stop-color="#313132"/>
<stop offset="0.5429" stop-color="#4C4D4F"/>
<stop offset="0.7326" stop-color="#666769"/>
<stop offset="0.9225" stop-color="#828487"/>
<stop offset="1" stop-color="#8F9194"/>
</linearGradient>
<linearGradient id="paint112_linear" x1="12.1832" y1="5.12533" x2="12.1744" y2="4.71985" gradientUnits="userSpaceOnUse">
<stop offset="0.0121212" stop-color="#9A2119"/>
<stop offset="0.4545" stop-color="#ED1C24"/>
<stop offset="1" stop-color="#BE1E2D"/>
</linearGradient>
<linearGradient id="paint113_linear" x1="11.5404" y1="4.06286" x2="11.459" y2="4.24942" gradientUnits="userSpaceOnUse">
<stop/>
<stop offset="0.1736" stop-color="#111112"/>
<stop offset="0.3562" stop-color="#313132"/>
<stop offset="0.5429" stop-color="#4C4D4F"/>
<stop offset="0.7326" stop-color="#666769"/>
<stop offset="0.9225" stop-color="#828487"/>
<stop offset="1" stop-color="#8F9194"/>
</linearGradient>
<linearGradient id="paint114_linear" x1="11.8295" y1="4.37549" x2="11.4486" y2="4.79164" gradientUnits="userSpaceOnUse">
<stop offset="0.0121212" stop-color="#9A2119"/>
<stop offset="0.4545" stop-color="#ED1C24"/>
<stop offset="1" stop-color="#BE1E2D"/>
</linearGradient>
<linearGradient id="paint115_linear" x1="13.0233" y1="4.43097" x2="12.9792" y2="4.62126" gradientUnits="userSpaceOnUse">
<stop/>
<stop offset="0.1736" stop-color="#111112"/>
<stop offset="0.3562" stop-color="#313132"/>
<stop offset="0.5429" stop-color="#4C4D4F"/>
<stop offset="0.7326" stop-color="#666769"/>
<stop offset="0.9225" stop-color="#828487"/>
<stop offset="1" stop-color="#8F9194"/>
</linearGradient>
<linearGradient id="paint116_linear" x1="12.6549" y1="4.61292" x2="12.6451" y2="4.16572" gradientUnits="userSpaceOnUse">
<stop offset="0.0121212" stop-color="#9A2119"/>
<stop offset="0.4545" stop-color="#ED1C24"/>
<stop offset="1" stop-color="#BE1E2D"/>
</linearGradient>
<linearGradient id="paint117_linear" x1="12.0752" y1="3.47662" x2="11.9881" y2="3.67626" gradientUnits="userSpaceOnUse">
<stop/>
<stop offset="0.1736" stop-color="#111112"/>
<stop offset="0.3562" stop-color="#313132"/>
<stop offset="0.5429" stop-color="#4C4D4F"/>
<stop offset="0.7326" stop-color="#666769"/>
<stop offset="0.9225" stop-color="#828487"/>
<stop offset="1" stop-color="#8F9194"/>
</linearGradient>
<linearGradient id="paint118_linear" x1="12.35" y1="3.78565" x2="11.9246" y2="4.25053" gradientUnits="userSpaceOnUse">
<stop offset="0.0121212" stop-color="#9A2119"/>
<stop offset="0.4545" stop-color="#ED1C24"/>
<stop offset="1" stop-color="#BE1E2D"/>
</linearGradient>
<linearGradient id="paint119_linear" x1="13.5296" y1="3.9499" x2="13.4818" y2="4.15598" gradientUnits="userSpaceOnUse">
<stop/>
<stop offset="0.1736" stop-color="#111112"/>
<stop offset="0.3562" stop-color="#313132"/>
<stop offset="0.5429" stop-color="#4C4D4F"/>
<stop offset="0.7326" stop-color="#666769"/>
<stop offset="0.9225" stop-color="#828487"/>
<stop offset="1" stop-color="#8F9194"/>
</linearGradient>
<linearGradient id="paint120_linear" x1="13.1686" y1="4.13382" x2="13.158" y2="3.64539" gradientUnits="userSpaceOnUse">
<stop offset="0.0121212" stop-color="#9A2119"/>
<stop offset="0.4545" stop-color="#ED1C24"/>
<stop offset="1" stop-color="#BE1E2D"/>
</linearGradient>
<linearGradient id="paint121_linear" x1="12.656" y1="2.92749" x2="12.563" y2="3.14073" gradientUnits="userSpaceOnUse">
<stop/>
<stop offset="0.1736" stop-color="#111112"/>
<stop offset="0.3562" stop-color="#313132"/>
<stop offset="0.5429" stop-color="#4C4D4F"/>
<stop offset="0.7326" stop-color="#666769"/>
<stop offset="0.9225" stop-color="#828487"/>
<stop offset="1" stop-color="#8F9194"/>
</linearGradient>
<linearGradient id="paint122_linear" x1="12.9163" y1="3.23196" x2="12.4473" y2="3.74452" gradientUnits="userSpaceOnUse">
<stop offset="0.0121212" stop-color="#9A2119"/>
<stop offset="0.4545" stop-color="#ED1C24"/>
<stop offset="1" stop-color="#BE1E2D"/>
</linearGradient>
</defs>
</svg>
