<svg width="16" height="16" viewBox="0 0 16 16" fill="none" xmlns="http://www.w3.org/2000/svg">
<ellipse cx="8.00006" cy="15.2" rx="8" ry="0.8" fill="url(#paint0_radial)"/>
<path d="M4.85854 1.73535C4.46984 1.3885 4.11183 1.16407 3.76404 1.05185C4.88923 0.388755 6.20876 0.00109863 7.63058 0.00109863C7.6715 0.00109863 7.70218 0.00109863 7.7431 0.00109863V0.0215016C7.95791 0.0419046 8.17272 0.072509 8.36707 0.113315V6.04038C6.69975 3.75524 5.68708 2.48006 4.85854 1.73535Z" fill="url(#paint1_radial)"/>
<path d="M0.287179 5.5499C0.440613 6.59045 1.09527 7.21274 1.50443 7.60039H0.000768185C0.000768185 6.88629 0.103058 6.20279 0.287179 5.5499Z" fill="url(#paint2_radial)"/>
<path d="M2.04571 7.59921C1.99456 7.5584 1.94342 7.5074 1.9025 7.47679C1.86159 7.43599 1.81044 7.38498 1.7593 7.33397C1.23762 6.8341 0.398848 6.02818 0.675029 4.46736V4.47756V4.46736C1.24785 3.20237 2.15823 2.13122 3.28341 1.3457C4.35745 1.37631 5.56446 2.82492 8.35696 6.67088V7.59921H2.04571Z" fill="url(#paint3_radial)"/>
<path d="M1.75943 7.33414C1.81057 7.38514 1.86172 7.43615 1.90263 7.47696C1.94355 7.51776 1.98446 7.55857 2.04584 7.59938H1.5037C1.09455 7.20152 0.439894 6.58943 0.286459 5.54888C0.388749 5.18162 0.521726 4.82457 0.67516 4.47772C0.398978 6.02835 1.23775 6.83426 1.75943 7.33414Z" fill="url(#paint4_linear)"/>
<path d="M7.72909 0.020403V0C7.9439 0 8.14848 0.0102015 8.35306 0.0306044V0.102015C8.15871 0.0714104 7.95413 0.0408059 7.72909 0.020403Z" fill="url(#paint5_linear)"/>
<path d="M8.35696 6.03842V6.67091C5.56446 2.82495 4.34722 1.37634 3.29364 1.34574C3.44707 1.24372 3.60051 1.14171 3.75394 1.0499C4.10173 1.16211 4.45974 1.38655 4.84844 1.7334C5.68721 2.4781 6.69988 3.75329 8.35696 6.03842Z" fill="url(#paint6_linear)"/>
<path d="M4.85958 1.7334C5.69835 2.4781 6.70079 3.75329 8.3681 6.02822C6.70079 3.75329 5.68812 2.4781 4.85958 1.7334C4.46065 1.38655 4.10263 1.16211 3.76508 1.0499C4.10263 1.16211 4.46065 1.38655 4.85958 1.7334Z" fill="url(#paint7_radial)"/>
<path d="M4.85958 1.7334C5.69835 2.4781 6.70079 3.75329 8.3681 6.02822C6.70079 3.75329 5.68812 2.4781 4.85958 1.7334C4.46065 1.38655 4.10263 1.16211 3.76508 1.0499C4.10263 1.16211 4.46065 1.38655 4.85958 1.7334Z" fill="url(#paint8_linear)"/>
<path d="M1.75943 7.33479C1.81057 7.38579 1.86172 7.4368 1.90263 7.47761C1.94355 7.51841 1.98446 7.55922 2.04584 7.60003C1.99469 7.55922 1.94355 7.50821 1.90263 7.47761C1.86172 7.4266 1.81057 7.38579 1.75943 7.33479C1.23775 6.83491 0.398978 6.0392 0.67516 4.47837V4.46817C0.398978 6.029 1.23775 6.83491 1.75943 7.33479Z" fill="url(#paint9_radial)"/>
<path d="M1.75943 7.33479C1.81057 7.38579 1.86172 7.4368 1.90263 7.47761C1.94355 7.51841 1.98446 7.55922 2.04584 7.60003C1.99469 7.55922 1.94355 7.50821 1.90263 7.47761C1.86172 7.4266 1.81057 7.38579 1.75943 7.33479C1.23775 6.83491 0.398978 6.0392 0.67516 4.47837V4.46817C0.398978 6.029 1.23775 6.83491 1.75943 7.33479Z" fill="url(#paint10_linear)"/>
<path d="M11.5174 2.84649C12.1005 4.2849 12.1516 5.94775 12.1823 6.93729C12.1926 7.16172 12.1926 7.36575 12.2028 7.51877C12.2028 7.54938 12.2028 7.57998 12.213 7.61059H9.44097C9.30799 7.41676 9.17502 7.23313 9.03181 7.0291C8.77609 6.68225 8.54082 6.3558 8.31579 6.04976V0.102295C9.81944 0.418541 10.9037 1.33667 11.5174 2.84649Z" fill="url(#paint11_radial)"/>
<path d="M12.5813 7.47762C12.5711 7.3348 12.5608 7.14098 12.5608 6.91654C12.5302 5.9066 12.479 4.20295 11.8653 2.70333C11.4459 1.68318 10.8424 0.918072 10.0445 0.397797C12.1619 1.1221 13.8702 2.75434 14.6782 4.83544C14.7396 5.2231 14.7908 5.82498 14.6578 6.55949C14.5964 6.86554 14.5043 7.21239 14.3611 7.58984H12.5915C12.5813 7.55924 12.5813 7.51843 12.5813 7.47762Z" fill="url(#paint12_radial)"/>
<path d="M8.97025 7.58901H8.30536V6.66068C8.43834 6.8443 8.57132 7.02793 8.71452 7.22176C8.80658 7.35438 8.88841 7.47679 8.97025 7.58901Z" fill="url(#paint13_radial)"/>
<path d="M15.0262 6.60055C15.0467 6.47813 15.0672 6.35572 15.0774 6.2435C15.1592 6.68216 15.2001 7.13103 15.2001 7.5901H14.7603C14.8933 7.23304 14.9751 6.9066 15.0262 6.60055Z" fill="url(#paint14_radial)"/>
<path d="M11.8541 2.70318C12.4679 4.2028 12.519 5.90645 12.5497 6.9164C12.5599 7.14083 12.5599 7.33466 12.5702 7.47748C12.5702 7.51828 12.5804 7.54889 12.5804 7.58969H12.2121C12.2121 7.55909 12.2121 7.52848 12.2019 7.49788C12.1917 7.34486 12.1815 7.15103 12.1815 6.9164C12.1508 5.92685 12.0996 4.27421 11.5166 2.8256C10.9028 1.33619 9.81857 0.418052 8.30469 0.101806V0.0303955C8.90819 0.0916044 9.48101 0.214022 10.0334 0.397649C10.0334 0.397649 10.0334 0.397649 10.0231 0.397649C10.8312 0.917924 11.445 1.68304 11.8541 2.70318Z" fill="url(#paint15_linear)"/>
<path d="M15.0259 6.60034C14.9748 6.89618 14.8827 7.23283 14.76 7.58988H14.3611C14.5043 7.21243 14.5963 6.86557 14.6577 6.55953C14.7907 5.82502 14.7498 5.22314 14.6782 4.83548C14.8521 5.28434 14.985 5.75361 15.0771 6.24328V6.25349V6.24328C15.0669 6.3555 15.0464 6.47792 15.0259 6.60034Z" fill="url(#paint16_linear)"/>
<path d="M9.02123 7.00773C9.16444 7.20156 9.29741 7.39539 9.43039 7.58922H8.98032C8.89848 7.4668 8.81665 7.35458 8.72459 7.22196C8.58139 7.02814 8.44841 6.83431 8.31543 6.65068V6.01819C8.53024 6.34464 8.76551 6.67108 9.02123 7.00773Z" fill="url(#paint17_linear)"/>
<path d="M8.30521 6.02795C8.53024 6.334 8.76551 6.66045 9.02123 7.0073C9.16444 7.20113 9.29741 7.39495 9.43039 7.58878C9.29741 7.39495 9.16444 7.21133 9.02123 7.0073C8.76551 6.67065 8.53024 6.3442 8.30521 6.02795Z" fill="url(#paint18_radial)"/>
<path d="M8.30521 6.02795C8.53024 6.334 8.76551 6.66045 9.02123 7.0073C9.16444 7.20113 9.29741 7.39495 9.43039 7.58878C9.29741 7.39495 9.16444 7.21133 9.02123 7.0073C8.76551 6.67065 8.53024 6.3442 8.30521 6.02795Z" fill="url(#paint19_linear)"/>
<path d="M11.8653 2.70333C12.479 4.20295 12.5301 5.9066 12.5608 6.91654C12.5711 7.14098 12.5711 7.3348 12.5813 7.47762C12.5813 7.51843 12.5915 7.54903 12.5915 7.58984C12.5915 7.54903 12.5813 7.51843 12.5813 7.47762C12.5711 7.3348 12.5608 7.14098 12.5608 6.91654C12.5199 5.9066 12.4688 4.20295 11.8653 2.70333C11.4459 1.68318 10.8424 0.918072 10.0445 0.397797C10.0445 0.397797 10.0445 0.397797 10.0547 0.397797C10.8424 0.918072 11.4459 1.68318 11.8653 2.70333Z" fill="url(#paint20_radial)"/>
<path d="M11.8653 2.70333C12.479 4.20295 12.5301 5.9066 12.5608 6.91654C12.5711 7.14098 12.5711 7.3348 12.5813 7.47762C12.5813 7.51843 12.5915 7.54903 12.5915 7.58984C12.5915 7.54903 12.5813 7.51843 12.5813 7.47762C12.5711 7.3348 12.5608 7.14098 12.5608 6.91654C12.5199 5.9066 12.4688 4.20295 11.8653 2.70333C11.4459 1.68318 10.8424 0.918072 10.0445 0.397797C10.0445 0.397797 10.0445 0.397797 10.0547 0.397797C10.8424 0.918072 11.4459 1.68318 11.8653 2.70333Z" fill="url(#paint21_linear)"/>
<path d="M14.76 7.58916C14.8827 7.23211 14.9748 6.89546 15.0259 6.59961C15.0464 6.4772 15.0669 6.35478 15.0771 6.23236V6.24256C15.0669 6.35478 15.0464 6.4772 15.0259 6.59961C14.9748 6.90566 14.893 7.23211 14.76 7.58916Z" fill="url(#paint22_radial)"/>
<path d="M14.76 7.58916C14.8827 7.23211 14.9748 6.89546 15.0259 6.59961C15.0464 6.4772 15.0669 6.35478 15.0771 6.23236V6.24256C15.0669 6.35478 15.0464 6.4772 15.0259 6.59961C14.9748 6.90566 14.893 7.23211 14.76 7.58916Z" fill="url(#paint23_linear)"/>
<path d="M1.50293 7.58961C1.55407 7.64062 1.60522 7.68142 1.64613 7.72223C2.15758 8.2323 4.32611 9.64011 7.0061 10.5582C7.56869 10.7521 8.01876 10.9765 8.36655 11.2111V12.7414C7.40503 13.0372 6.41282 13.18 5.44107 13.1494C5.00122 13.1392 4.56138 13.0882 4.12154 13.0066C3.05773 12.8026 2.0962 12.4047 1.30858 11.8436C1.30858 11.8436 1.30858 11.8436 1.29835 11.8436C0.480033 10.6297 -0.000728607 9.17084 -0.000728607 7.58961C-0.000728607 7.58961 -0.000728607 7.58961 -0.000728607 7.57941H1.50293V7.58961Z" fill="url(#paint24_radial)"/>
<path d="M7.1152 10.2288C4.79323 9.43306 2.74744 8.19868 2.04165 7.60699H8.35291V10.7899C8.00512 10.5756 7.59596 10.392 7.1152 10.2288Z" fill="url(#paint25_radial)"/>
<path d="M7.78399 13.2923C7.97834 13.2515 8.17269 13.2005 8.35681 13.1393V14.7919C7.82491 14.9246 7.17025 14.9756 6.56675 14.9654C6.16782 14.9654 5.79957 14.9348 5.50294 14.9144C4.1118 14.5165 2.88432 13.7208 1.94326 12.6802C2.57746 13.0067 3.29348 13.2515 4.05043 13.3943C4.58233 13.4964 5.12446 13.5474 5.68706 13.5474C6.38262 13.527 7.08842 13.4555 7.78399 13.2923Z" fill="url(#paint26_radial)"/>
<path d="M7.11658 10.2254C7.59734 10.3886 8.00649 10.5825 8.35428 10.7865V11.2252C8.00649 10.9905 7.55642 10.7763 6.99383 10.5825C4.32408 9.66433 2.15554 8.25652 1.63387 7.74645C1.59295 7.70564 1.54181 7.65464 1.49066 7.61383H2.0328C2.74882 8.18511 4.79461 9.42969 7.11658 10.2254Z" fill="url(#paint27_linear)"/>
<path d="M6.56675 14.9663C7.17025 14.9765 7.82491 14.9255 8.35681 14.7928V15.1703C8.11132 15.1907 7.87605 15.2009 7.62033 15.2009C6.88384 15.2009 6.17805 15.0989 5.50294 14.9051C5.8098 14.9357 6.17805 14.9561 6.56675 14.9663Z" fill="url(#paint28_linear)"/>
<path d="M5.43133 13.1605C6.41331 13.1911 7.39529 13.0483 8.35681 12.7524V13.1401C8.16246 13.2013 7.96811 13.2523 7.77376 13.2931C7.07819 13.4563 6.3724 13.5277 5.6666 13.5277C5.11424 13.5277 4.56187 13.4767 4.0402 13.3747C3.28326 13.2319 2.57746 12.9871 1.93304 12.6606C1.69777 12.4056 1.49319 12.1301 1.29884 11.8445C2.08647 12.4056 3.04799 12.8034 4.10157 13.0075C4.55164 13.0993 4.99149 13.1503 5.43133 13.1605Z" fill="url(#paint29_linear)"/>
<path d="M4.12224 13.0157C4.56208 13.0973 4.9917 13.1483 5.44177 13.1585C4.9917 13.1483 4.55185 13.0973 4.12224 13.0157C3.05843 12.8116 2.09691 12.4138 1.30928 11.8527C2.09691 12.4036 3.05843 12.8116 4.12224 13.0157Z" fill="url(#paint30_radial)"/>
<path d="M4.12224 13.0157C4.56208 13.0973 4.9917 13.1483 5.44177 13.1585C4.9917 13.1483 4.55185 13.0973 4.12224 13.0157C3.05843 12.8116 2.09691 12.4138 1.30928 11.8527C2.09691 12.4036 3.05843 12.8116 4.12224 13.0157Z" fill="url(#paint31_linear)"/>
<path d="M2.04165 7.59283C2.74744 8.18452 4.80346 9.4189 7.1152 10.2146C7.59596 10.3778 8.00512 10.5615 8.35291 10.7757C8.00512 10.5615 7.58573 10.3778 7.1152 10.2146C4.79323 9.4291 2.74744 8.18452 2.04165 7.59283Z" fill="url(#paint32_radial)"/>
<path d="M2.04165 7.59283C2.74744 8.18452 4.80346 9.4189 7.1152 10.2146C7.59596 10.3778 8.00512 10.5615 8.35291 10.7757C8.00512 10.5615 7.58573 10.3778 7.1152 10.2146C4.79323 9.4291 2.74744 8.18452 2.04165 7.59283Z" fill="url(#paint33_linear)"/>
<path d="M6.56775 14.9652C6.16882 14.9652 5.80058 14.9346 5.51417 14.9142C5.80058 14.9346 6.17905 14.955 6.56775 14.9652Z" fill="url(#paint34_radial)"/>
<path d="M6.56775 14.9652C6.16882 14.9652 5.80058 14.9346 5.51417 14.9142C5.80058 14.9346 6.17905 14.955 6.56775 14.9652Z" fill="url(#paint35_linear)"/>
<path d="M8.35681 13.1391C8.16246 13.2003 7.97834 13.2513 7.78399 13.2922C7.08842 13.4554 6.38263 13.5268 5.67683 13.5268C6.3724 13.5268 7.08842 13.4452 7.78399 13.2922C7.97834 13.2513 8.17269 13.1901 8.35681 13.1391Z" fill="url(#paint36_radial)"/>
<path d="M8.35681 13.1391C8.16246 13.2003 7.97834 13.2513 7.78399 13.2922C7.08842 13.4554 6.38263 13.5268 5.67683 13.5268C6.3724 13.5268 7.08842 13.4452 7.78399 13.2922C7.97834 13.2513 8.17269 13.1901 8.35681 13.1391Z" fill="url(#paint37_linear)"/>
<path d="M12.2136 7.59048C12.2954 8.68204 12.4079 9.43695 12.6841 10.0898C12.3466 10.4367 11.9374 10.7835 11.4771 11.1304C11.0679 10.2021 10.4337 9.02889 9.43131 7.60069H12.2136V7.59048Z" fill="url(#paint38_radial)"/>
<path d="M12.5816 7.59048H14.3615C14.0955 8.26378 13.6659 9.01869 12.9601 9.794C12.7453 9.23292 12.6532 8.55963 12.5816 7.59048Z" fill="url(#paint39_radial)"/>
<path d="M9.31866 12.3843C8.99134 12.5271 8.65378 12.6496 8.31623 12.7516V11.2213C8.84813 11.5784 9.155 11.9865 9.31866 12.3843Z" fill="url(#paint40_radial)"/>
<path d="M12.8587 10.4352C12.9303 10.5474 13.0019 10.6698 13.0837 10.7821C13.2781 11.0473 13.5236 11.1901 13.81 11.1901H13.8202C14.0043 11.1901 14.1885 11.1289 14.3726 11.0371C13.8407 12.0776 13.0735 12.9856 12.1325 13.6793C12.1325 13.2202 12.0302 12.5061 11.621 11.4656C12.1018 11.1391 12.5007 10.7923 12.8587 10.4352Z" fill="url(#paint41_radial)"/>
<path d="M8.3064 10.7835V7.59048H8.97128C10.076 9.15131 10.7511 10.3857 11.1603 11.3446C10.6693 11.6813 10.1681 11.9771 9.64639 12.222C9.43159 11.6609 8.98151 11.1814 8.3064 10.7835Z" fill="url(#paint42_radial)"/>
<path d="M13.3896 10.571C13.2976 10.4384 13.2055 10.3058 13.1339 10.1629C13.9829 9.255 14.4739 8.36748 14.7603 7.59216H15.2001C15.2001 7.59216 15.2001 7.59216 15.2001 7.60236C15.2001 8.58171 15.016 9.52024 14.6785 10.3874C14.4227 10.6118 14.1056 10.8362 13.8295 10.8362C13.8295 10.8362 13.8295 10.8362 13.8192 10.8362C13.6453 10.826 13.5124 10.7444 13.3896 10.571Z" fill="url(#paint43_radial)"/>
<path d="M9.67702 14.1795C9.84068 13.598 9.87137 13.0676 9.76908 12.5881C10.301 12.3433 10.8124 12.0474 11.3136 11.7006C11.7842 12.9145 11.7944 13.6286 11.7433 13.9653C10.7408 14.6182 9.57473 15.0466 8.31657 15.1691C9.08374 14.9854 9.53381 14.659 9.67702 14.1795Z" fill="url(#paint44_radial)"/>
<path d="M9.30768 14.0774C9.20539 14.4344 8.81669 14.6588 8.30524 14.7915V13.1388C8.68371 13.0266 9.05195 12.894 9.40997 12.741C9.50203 13.2204 9.42019 13.6795 9.30768 14.0774Z" fill="url(#paint45_radial)"/>
<path d="M9.76758 12.5883C9.86987 13.0575 9.83919 13.588 9.67552 14.1797C9.54255 14.6592 9.08224 14.9958 8.31507 15.1692V14.7918C8.82652 14.6592 9.21522 14.4347 9.31751 14.0777C9.43003 13.6798 9.51186 13.2208 9.4198 12.7515C9.05156 12.9045 8.68331 13.0371 8.31507 13.1494V12.7515C8.65263 12.6495 8.99018 12.5271 9.32774 12.3842C9.1743 11.9762 8.86744 11.5783 8.31507 11.2111V10.7724C8.99018 11.1703 9.44026 11.6497 9.66529 12.221C10.1767 11.9762 10.6882 11.6803 11.1792 11.3437C10.77 10.3848 10.0847 9.15037 8.99018 7.58955H9.44026C10.4325 9.02796 11.0769 10.1909 11.486 11.1193C11.9463 10.7724 12.3453 10.4256 12.6931 10.0787C12.4067 9.42581 12.3044 8.6709 12.2225 7.57935H12.5908C12.6624 8.53828 12.7544 9.21158 12.9692 9.78287C13.6648 9.01775 14.0944 8.26284 14.3604 7.58955H14.7593C14.4831 8.36486 13.9819 9.25239 13.1329 10.1603C13.2045 10.3031 13.2863 10.4358 13.3886 10.5684C13.5114 10.7418 13.6546 10.8234 13.8182 10.8234C13.8182 10.8234 13.8182 10.8234 13.8285 10.8234C14.1047 10.8234 14.432 10.599 14.6775 10.3746C14.5854 10.599 14.4831 10.8234 14.3808 11.0376C14.2069 11.1295 14.0126 11.1907 13.8285 11.1907H13.8182C13.5318 11.1805 13.2863 11.0478 13.092 10.7826C13.0102 10.6704 12.9386 10.5582 12.867 10.4358C12.5089 10.7826 12.0998 11.1295 11.6293 11.4763C12.0384 12.5169 12.1407 13.231 12.1407 13.69C12.018 13.7818 11.885 13.8737 11.752 13.9655C11.8031 13.6288 11.7929 12.9147 11.3224 11.7007C10.8109 12.0476 10.2893 12.3434 9.76758 12.5883Z" fill="url(#paint46_linear)"/>
<path d="M11.4767 11.1298C11.0675 10.2014 10.4231 9.03848 9.4309 7.60007C10.4333 9.02827 11.0675 10.1912 11.4767 11.1298Z" fill="url(#paint47_radial)"/>
<path d="M11.4767 11.1298C11.0675 10.2014 10.4231 9.03848 9.4309 7.60007C10.4333 9.02827 11.0675 10.1912 11.4767 11.1298Z" fill="url(#paint48_linear)"/>
<path d="M12.9605 9.79339C12.7457 9.23231 12.6536 8.55901 12.582 7.60007C12.6536 8.55901 12.7457 9.23231 12.9605 9.79339Z" fill="url(#paint49_radial)"/>
<path d="M12.9605 9.79339C12.7457 9.23231 12.6536 8.55901 12.582 7.60007C12.6536 8.55901 12.7457 9.23231 12.9605 9.79339Z" fill="url(#paint50_linear)"/>
<path d="M11.6206 11.4869C12.0912 11.1401 12.5003 10.7932 12.8583 10.4464C12.5003 10.7932 12.1014 11.1401 11.6206 11.4869C12.0298 12.5173 12.1321 13.2416 12.1321 13.7006C12.1423 13.2314 12.04 12.5173 11.6206 11.4869Z" fill="url(#paint51_radial)"/>
<path d="M11.6206 11.4869C12.0912 11.1401 12.5003 10.7932 12.8583 10.4464C12.5003 10.7932 12.1014 11.1401 11.6206 11.4869C12.0298 12.5173 12.1321 13.2416 12.1321 13.7006C12.1423 13.2314 12.04 12.5173 11.6206 11.4869Z" fill="url(#paint52_linear)"/>
<path d="M13.8202 11.2003C14.0043 11.2003 14.1987 11.1391 14.3726 11.0472C14.1987 11.1391 14.0146 11.2003 13.8202 11.2003Z" fill="url(#paint53_radial)"/>
<path d="M13.8202 11.2003C14.0043 11.2003 14.1987 11.1391 14.3726 11.0472C14.1987 11.1391 14.0146 11.2003 13.8202 11.2003Z" fill="url(#paint54_linear)"/>
<path d="M9.65717 12.2318C9.43213 11.6605 8.98206 11.181 8.30695 10.7832C8.98206 11.181 9.43213 11.6605 9.65717 12.2318Z" fill="url(#paint55_radial)"/>
<path d="M13.1329 10.1613C13.2045 10.3041 13.2863 10.4367 13.3886 10.5693C13.5114 10.7427 13.6546 10.8244 13.8182 10.8244C13.6546 10.8244 13.5114 10.7325 13.3886 10.5693C13.2863 10.4367 13.2045 10.3041 13.1329 10.1613C13.9819 9.25333 14.4729 8.3658 14.7593 7.59048C14.4729 8.3658 13.9819 9.25333 13.1329 10.1613Z" fill="url(#paint56_radial)"/>
<path d="M13.1329 10.1613C13.2045 10.3041 13.2863 10.4367 13.3886 10.5693C13.5114 10.7427 13.6546 10.8244 13.8182 10.8244C13.6546 10.8244 13.5114 10.7325 13.3886 10.5693C13.2863 10.4367 13.2045 10.3041 13.1329 10.1613C13.9819 9.25333 14.4729 8.3658 14.7593 7.59048C14.4729 8.3658 13.9819 9.25333 13.1329 10.1613Z" fill="url(#paint57_linear)"/>
<path d="M9.66604 14.1795C9.82971 13.598 9.86039 13.0676 9.7581 12.5881C10.29 12.3433 10.8015 12.0474 11.3027 11.7006C10.8015 12.0372 10.29 12.3331 9.7581 12.5881C9.87062 13.0676 9.83993 13.5878 9.66604 14.1795C9.53307 14.659 9.07276 14.9854 8.30559 15.1691C9.07276 14.9854 9.53307 14.659 9.66604 14.1795Z" fill="url(#paint58_radial)"/>
<path d="M9.66604 14.1795C9.82971 13.598 9.86039 13.0676 9.7581 12.5881C10.29 12.3433 10.8015 12.0474 11.3027 11.7006C10.8015 12.0372 10.29 12.3331 9.7581 12.5881C9.87062 13.0676 9.83993 13.5878 9.66604 14.1795C9.53307 14.659 9.07276 14.9854 8.30559 15.1691C9.07276 14.9854 9.53307 14.659 9.66604 14.1795Z" fill="url(#paint59_linear)"/>
<path d="M9.42102 12.741C9.05278 12.894 8.68454 13.0266 8.31629 13.1388C8.68454 13.0266 9.05278 12.894 9.42102 12.741Z" fill="url(#paint60_radial)"/>
<path d="M9.42102 12.741C9.05278 12.894 8.68454 13.0266 8.31629 13.1388C8.68454 13.0266 9.05278 12.894 9.42102 12.741Z" fill="url(#paint61_linear)"/>
<defs>
<radialGradient id="paint0_radial" cx="0" cy="0" r="1" gradientUnits="userSpaceOnUse" gradientTransform="translate(8.00006 15.2) rotate(90) scale(0.8 8)">
<stop stop-color="#4A4A4A"/>
<stop offset="1" stop-color="#C4C4C4" stop-opacity="0"/>
</radialGradient>
<radialGradient id="paint1_radial" cx="0" cy="0" r="1" gradientUnits="userSpaceOnUse" gradientTransform="translate(8.29551 4.5174) rotate(180) scale(10.2513 10.2238)">
<stop stop-color="#FFCD03"/>
<stop offset="0.3065" stop-color="#FBAD1C"/>
<stop offset="1" stop-color="#F15A29"/>
</radialGradient>
<radialGradient id="paint2_radial" cx="0" cy="0" r="1" gradientUnits="userSpaceOnUse" gradientTransform="translate(8.29627 4.51639) rotate(180) scale(10.2512 10.2236)">
<stop stop-color="#FFCD03"/>
<stop offset="0.3065" stop-color="#FBAD1C"/>
<stop offset="1" stop-color="#F15A29"/>
</radialGradient>
<radialGradient id="paint3_radial" cx="0" cy="0" r="1" gradientUnits="userSpaceOnUse" gradientTransform="translate(8.29552 4.51531) rotate(180) scale(10.2513 10.2238)">
<stop stop-color="#FFCD03"/>
<stop offset="0.3065" stop-color="#FBAD1C"/>
<stop offset="1" stop-color="#F15A29"/>
</radialGradient>
<linearGradient id="paint4_linear" x1="7.88535" y1="17.0053" x2="-0.594461" y2="3.45424" gradientUnits="userSpaceOnUse">
<stop/>
<stop offset="0.1077" stop-color="#030303"/>
<stop offset="0.1887" stop-color="#0D0D0D"/>
<stop offset="0.261" stop-color="#1D1D1D"/>
<stop offset="0.3282" stop-color="#343434"/>
<stop offset="0.3919" stop-color="#515151"/>
<stop offset="0.4522" stop-color="#757575"/>
<stop offset="0.5091" stop-color="#9E9E9E"/>
<stop offset="0.5276" stop-color="#939393"/>
<stop offset="0.6066" stop-color="#666666"/>
<stop offset="0.6864" stop-color="#414141"/>
<stop offset="0.7658" stop-color="#252525"/>
<stop offset="0.8448" stop-color="#101010"/>
<stop offset="0.9231" stop-color="#040404"/>
<stop offset="1"/>
</linearGradient>
<linearGradient id="paint5_linear" x1="15.665" y1="12.1371" x2="7.1844" y2="-1.41528" gradientUnits="userSpaceOnUse">
<stop/>
<stop offset="0.1077" stop-color="#030303"/>
<stop offset="0.1887" stop-color="#0D0D0D"/>
<stop offset="0.261" stop-color="#1D1D1D"/>
<stop offset="0.3282" stop-color="#343434"/>
<stop offset="0.3919" stop-color="#515151"/>
<stop offset="0.4522" stop-color="#757575"/>
<stop offset="0.5091" stop-color="#9E9E9E"/>
<stop offset="0.5276" stop-color="#939393"/>
<stop offset="0.6066" stop-color="#666666"/>
<stop offset="0.6864" stop-color="#414141"/>
<stop offset="0.7658" stop-color="#252525"/>
<stop offset="0.8448" stop-color="#101010"/>
<stop offset="0.9231" stop-color="#040404"/>
<stop offset="1"/>
</linearGradient>
<linearGradient id="paint6_linear" x1="12.419" y1="14.1676" x2="3.93955" y2="0.617102" gradientUnits="userSpaceOnUse">
<stop/>
<stop offset="0.1077" stop-color="#030303"/>
<stop offset="0.1887" stop-color="#0D0D0D"/>
<stop offset="0.261" stop-color="#1D1D1D"/>
<stop offset="0.3282" stop-color="#343434"/>
<stop offset="0.3919" stop-color="#515151"/>
<stop offset="0.4522" stop-color="#757575"/>
<stop offset="0.5091" stop-color="#9E9E9E"/>
<stop offset="0.5276" stop-color="#939393"/>
<stop offset="0.6066" stop-color="#666666"/>
<stop offset="0.6864" stop-color="#414141"/>
<stop offset="0.7658" stop-color="#252525"/>
<stop offset="0.8448" stop-color="#101010"/>
<stop offset="0.9231" stop-color="#040404"/>
<stop offset="1"/>
</linearGradient>
<radialGradient id="paint7_radial" cx="0" cy="0" r="1" gradientUnits="userSpaceOnUse" gradientTransform="translate(6.52974 2.97693) rotate(180) scale(3.69039 3.68048)">
<stop stop-color="#FFCD03"/>
<stop offset="0.3065" stop-color="#FBAD1C"/>
<stop offset="1" stop-color="#F15A29"/>
</radialGradient>
<linearGradient id="paint8_linear" x1="12.6521" y1="14.0222" x2="4.1727" y2="0.471821" gradientUnits="userSpaceOnUse">
<stop/>
<stop offset="0.1077" stop-color="#030303"/>
<stop offset="0.1887" stop-color="#0D0D0D"/>
<stop offset="0.261" stop-color="#1D1D1D"/>
<stop offset="0.3282" stop-color="#343434"/>
<stop offset="0.3919" stop-color="#515151"/>
<stop offset="0.4522" stop-color="#757575"/>
<stop offset="0.5091" stop-color="#9E9E9E"/>
<stop offset="0.5276" stop-color="#939393"/>
<stop offset="0.6066" stop-color="#666666"/>
<stop offset="0.6864" stop-color="#414141"/>
<stop offset="0.7658" stop-color="#252525"/>
<stop offset="0.8448" stop-color="#101010"/>
<stop offset="0.9231" stop-color="#040404"/>
<stop offset="1"/>
</linearGradient>
<radialGradient id="paint9_radial" cx="0" cy="0" r="1" gradientUnits="userSpaceOnUse" gradientTransform="translate(1.77272 5.31425) rotate(180) scale(1.71004 1.70545)">
<stop stop-color="#FFCD03"/>
<stop offset="0.3065" stop-color="#FBAD1C"/>
<stop offset="1" stop-color="#F15A29"/>
</radialGradient>
<linearGradient id="paint10_linear" x1="8.04535" y1="16.9049" x2="-0.433924" y2="3.35475" gradientUnits="userSpaceOnUse">
<stop/>
<stop offset="0.1077" stop-color="#030303"/>
<stop offset="0.1887" stop-color="#0D0D0D"/>
<stop offset="0.261" stop-color="#1D1D1D"/>
<stop offset="0.3282" stop-color="#343434"/>
<stop offset="0.3919" stop-color="#515151"/>
<stop offset="0.4522" stop-color="#757575"/>
<stop offset="0.5091" stop-color="#9E9E9E"/>
<stop offset="0.5276" stop-color="#939393"/>
<stop offset="0.6066" stop-color="#666666"/>
<stop offset="0.6864" stop-color="#414141"/>
<stop offset="0.7658" stop-color="#252525"/>
<stop offset="0.8448" stop-color="#101010"/>
<stop offset="0.9231" stop-color="#040404"/>
<stop offset="1"/>
</linearGradient>
<radialGradient id="paint11_radial" cx="0" cy="0" r="1" gradientUnits="userSpaceOnUse" gradientTransform="translate(8.24231 4.51082) rotate(180) scale(10.2509 10.2234)">
<stop stop-color="#FFCD03"/>
<stop offset="0.3065" stop-color="#FBAD1C"/>
<stop offset="1" stop-color="#F15A29"/>
</radialGradient>
<radialGradient id="paint12_radial" cx="0" cy="0" r="1" gradientUnits="userSpaceOnUse" gradientTransform="translate(8.24251 4.51046) rotate(180) scale(10.251 10.2235)">
<stop stop-color="#FFCD03"/>
<stop offset="0.3065" stop-color="#FBAD1C"/>
<stop offset="1" stop-color="#F15A29"/>
</radialGradient>
<radialGradient id="paint13_radial" cx="0" cy="0" r="1" gradientUnits="userSpaceOnUse" gradientTransform="translate(8.24213 4.50899) rotate(180) scale(10.2531 10.2256)">
<stop stop-color="#FFCD03"/>
<stop offset="0.3065" stop-color="#FBAD1C"/>
<stop offset="1" stop-color="#F15A29"/>
</radialGradient>
<radialGradient id="paint14_radial" cx="0" cy="0" r="1" gradientUnits="userSpaceOnUse" gradientTransform="translate(8.24043 4.51066) rotate(180) scale(10.2541 10.2265)">
<stop stop-color="#FFCD03"/>
<stop offset="0.3065" stop-color="#FBAD1C"/>
<stop offset="1" stop-color="#F15A29"/>
</radialGradient>
<linearGradient id="paint15_linear" x1="16.2363" y1="11.7399" x2="7.7568" y2="-1.81068" gradientUnits="userSpaceOnUse">
<stop/>
<stop offset="0.1077" stop-color="#030303"/>
<stop offset="0.1887" stop-color="#0D0D0D"/>
<stop offset="0.261" stop-color="#1D1D1D"/>
<stop offset="0.3282" stop-color="#343434"/>
<stop offset="0.3919" stop-color="#515151"/>
<stop offset="0.4522" stop-color="#757575"/>
<stop offset="0.5091" stop-color="#9E9E9E"/>
<stop offset="0.5276" stop-color="#939393"/>
<stop offset="0.6066" stop-color="#666666"/>
<stop offset="0.6864" stop-color="#414141"/>
<stop offset="0.7658" stop-color="#252525"/>
<stop offset="0.8448" stop-color="#101010"/>
<stop offset="0.9231" stop-color="#040404"/>
<stop offset="1"/>
</linearGradient>
<linearGradient id="paint16_linear" x1="17.5009" y1="10.9495" x2="9.02096" y2="-2.60168" gradientUnits="userSpaceOnUse">
<stop/>
<stop offset="0.1077" stop-color="#030303"/>
<stop offset="0.1887" stop-color="#0D0D0D"/>
<stop offset="0.261" stop-color="#1D1D1D"/>
<stop offset="0.3282" stop-color="#343434"/>
<stop offset="0.3919" stop-color="#515151"/>
<stop offset="0.4522" stop-color="#757575"/>
<stop offset="0.5091" stop-color="#9E9E9E"/>
<stop offset="0.5276" stop-color="#939393"/>
<stop offset="0.6066" stop-color="#666666"/>
<stop offset="0.6864" stop-color="#414141"/>
<stop offset="0.7658" stop-color="#252525"/>
<stop offset="0.8448" stop-color="#101010"/>
<stop offset="0.9231" stop-color="#040404"/>
<stop offset="1"/>
</linearGradient>
<linearGradient id="paint17_linear" x1="13.0322" y1="13.7441" x2="4.55317" y2="0.194367" gradientUnits="userSpaceOnUse">
<stop/>
<stop offset="0.1077" stop-color="#030303"/>
<stop offset="0.1887" stop-color="#0D0D0D"/>
<stop offset="0.261" stop-color="#1D1D1D"/>
<stop offset="0.3282" stop-color="#343434"/>
<stop offset="0.3919" stop-color="#515151"/>
<stop offset="0.4522" stop-color="#757575"/>
<stop offset="0.5091" stop-color="#9E9E9E"/>
<stop offset="0.5276" stop-color="#939393"/>
<stop offset="0.6066" stop-color="#666666"/>
<stop offset="0.6864" stop-color="#414141"/>
<stop offset="0.7658" stop-color="#252525"/>
<stop offset="0.8448" stop-color="#101010"/>
<stop offset="0.9231" stop-color="#040404"/>
<stop offset="1"/>
</linearGradient>
<radialGradient id="paint18_radial" cx="0" cy="0" r="1" gradientUnits="userSpaceOnUse" gradientTransform="translate(8.98543 6.63281) rotate(180) scale(1.04989 1.04707)">
<stop stop-color="#FFCD03"/>
<stop offset="0.3065" stop-color="#FBAD1C"/>
<stop offset="1" stop-color="#F15A29"/>
</radialGradient>
<linearGradient id="paint19_linear" x1="13.1752" y1="13.6547" x2="4.69582" y2="0.104424" gradientUnits="userSpaceOnUse">
<stop/>
<stop offset="0.1077" stop-color="#030303"/>
<stop offset="0.1887" stop-color="#0D0D0D"/>
<stop offset="0.261" stop-color="#1D1D1D"/>
<stop offset="0.3282" stop-color="#343434"/>
<stop offset="0.3919" stop-color="#515151"/>
<stop offset="0.4522" stop-color="#757575"/>
<stop offset="0.5091" stop-color="#9E9E9E"/>
<stop offset="0.5276" stop-color="#939393"/>
<stop offset="0.6066" stop-color="#666666"/>
<stop offset="0.6864" stop-color="#414141"/>
<stop offset="0.7658" stop-color="#252525"/>
<stop offset="0.8448" stop-color="#101010"/>
<stop offset="0.9231" stop-color="#040404"/>
<stop offset="1"/>
</linearGradient>
<radialGradient id="paint20_radial" cx="0" cy="0" r="1" gradientUnits="userSpaceOnUse" gradientTransform="translate(9.53374 3.38019) rotate(180) scale(5.92292 5.90702)">
<stop stop-color="#FFCD03"/>
<stop offset="0.3065" stop-color="#FBAD1C"/>
<stop offset="1" stop-color="#F15A29"/>
</radialGradient>
<linearGradient id="paint21_linear" x1="16.3712" y1="11.6562" x2="7.89177" y2="-1.89432" gradientUnits="userSpaceOnUse">
<stop/>
<stop offset="0.1077" stop-color="#030303"/>
<stop offset="0.1887" stop-color="#0D0D0D"/>
<stop offset="0.261" stop-color="#1D1D1D"/>
<stop offset="0.3282" stop-color="#343434"/>
<stop offset="0.3919" stop-color="#515151"/>
<stop offset="0.4522" stop-color="#757575"/>
<stop offset="0.5091" stop-color="#9E9E9E"/>
<stop offset="0.5276" stop-color="#939393"/>
<stop offset="0.6066" stop-color="#666666"/>
<stop offset="0.6864" stop-color="#414141"/>
<stop offset="0.7658" stop-color="#252525"/>
<stop offset="0.8448" stop-color="#101010"/>
<stop offset="0.9231" stop-color="#040404"/>
<stop offset="1"/>
</linearGradient>
<radialGradient id="paint22_radial" cx="0" cy="0" r="1" gradientUnits="userSpaceOnUse" gradientTransform="translate(9.16295 4.15828) rotate(180) scale(8.84202 8.81829)">
<stop stop-color="#FFCD03"/>
<stop offset="0.3065" stop-color="#FBAD1C"/>
<stop offset="1" stop-color="#F15A29"/>
</radialGradient>
<linearGradient id="paint23_linear" x1="17.4678" y1="10.9691" x2="8.98844" y2="-2.58127" gradientUnits="userSpaceOnUse">
<stop/>
<stop offset="0.1077" stop-color="#030303"/>
<stop offset="0.1887" stop-color="#0D0D0D"/>
<stop offset="0.261" stop-color="#1D1D1D"/>
<stop offset="0.3282" stop-color="#343434"/>
<stop offset="0.3919" stop-color="#515151"/>
<stop offset="0.4522" stop-color="#757575"/>
<stop offset="0.5091" stop-color="#9E9E9E"/>
<stop offset="0.5276" stop-color="#939393"/>
<stop offset="0.6066" stop-color="#666666"/>
<stop offset="0.6864" stop-color="#414141"/>
<stop offset="0.7658" stop-color="#252525"/>
<stop offset="0.8448" stop-color="#101010"/>
<stop offset="0.9231" stop-color="#040404"/>
<stop offset="1"/>
</linearGradient>
<radialGradient id="paint24_radial" cx="0" cy="0" r="1" gradientUnits="userSpaceOnUse" gradientTransform="translate(8.29419 4.51015) rotate(180) scale(10.2514 10.2239)">
<stop stop-color="#FFCD03"/>
<stop offset="0.3065" stop-color="#FBAD1C"/>
<stop offset="1" stop-color="#F15A29"/>
</radialGradient>
<radialGradient id="paint25_radial" cx="0" cy="0" r="1" gradientUnits="userSpaceOnUse" gradientTransform="translate(8.29084 4.51732) rotate(180) scale(10.2515 10.2239)">
<stop stop-color="#FFCD03"/>
<stop offset="0.3065" stop-color="#FBAD1C"/>
<stop offset="1" stop-color="#F15A29"/>
</radialGradient>
<radialGradient id="paint26_radial" cx="0" cy="0" r="1" gradientUnits="userSpaceOnUse" gradientTransform="translate(8.2948 4.50987) rotate(180) scale(10.2519 10.2243)">
<stop stop-color="#FFCD03"/>
<stop offset="0.3065" stop-color="#FBAD1C"/>
<stop offset="1" stop-color="#F15A29"/>
</radialGradient>
<linearGradient id="paint27_linear" x1="9.29057" y1="16.1218" x2="0.811106" y2="2.57133" gradientUnits="userSpaceOnUse">
<stop/>
<stop offset="0.1077" stop-color="#030303"/>
<stop offset="0.1887" stop-color="#0D0D0D"/>
<stop offset="0.261" stop-color="#1D1D1D"/>
<stop offset="0.3282" stop-color="#343434"/>
<stop offset="0.3919" stop-color="#515151"/>
<stop offset="0.4522" stop-color="#757575"/>
<stop offset="0.5091" stop-color="#9E9E9E"/>
<stop offset="0.5276" stop-color="#939393"/>
<stop offset="0.6066" stop-color="#666666"/>
<stop offset="0.6864" stop-color="#414141"/>
<stop offset="0.7658" stop-color="#252525"/>
<stop offset="0.8448" stop-color="#101010"/>
<stop offset="0.9231" stop-color="#040404"/>
<stop offset="1"/>
</linearGradient>
<linearGradient id="paint28_linear" x1="8.17542" y1="16.8185" x2="-0.304489" y2="3.26731" gradientUnits="userSpaceOnUse">
<stop/>
<stop offset="0.1077" stop-color="#030303"/>
<stop offset="0.1887" stop-color="#0D0D0D"/>
<stop offset="0.261" stop-color="#1D1D1D"/>
<stop offset="0.3282" stop-color="#343434"/>
<stop offset="0.3919" stop-color="#515151"/>
<stop offset="0.4522" stop-color="#757575"/>
<stop offset="0.5091" stop-color="#9E9E9E"/>
<stop offset="0.5276" stop-color="#939393"/>
<stop offset="0.6066" stop-color="#666666"/>
<stop offset="0.6864" stop-color="#414141"/>
<stop offset="0.7658" stop-color="#252525"/>
<stop offset="0.8448" stop-color="#101010"/>
<stop offset="0.9231" stop-color="#040404"/>
<stop offset="1"/>
</linearGradient>
<linearGradient id="paint29_linear" x1="7.81627" y1="17.0431" x2="-0.663235" y2="3.49255" gradientUnits="userSpaceOnUse">
<stop/>
<stop offset="0.1077" stop-color="#030303"/>
<stop offset="0.1887" stop-color="#0D0D0D"/>
<stop offset="0.261" stop-color="#1D1D1D"/>
<stop offset="0.3282" stop-color="#343434"/>
<stop offset="0.3919" stop-color="#515151"/>
<stop offset="0.4522" stop-color="#757575"/>
<stop offset="0.5091" stop-color="#9E9E9E"/>
<stop offset="0.5276" stop-color="#939393"/>
<stop offset="0.6066" stop-color="#666666"/>
<stop offset="0.6864" stop-color="#414141"/>
<stop offset="0.7658" stop-color="#252525"/>
<stop offset="0.8448" stop-color="#101010"/>
<stop offset="0.9231" stop-color="#040404"/>
<stop offset="1"/>
</linearGradient>
<radialGradient id="paint30_radial" cx="0" cy="0" r="1" gradientUnits="userSpaceOnUse" gradientTransform="translate(5.34236 11.6326) rotate(180) scale(2.63351 2.62644)">
<stop stop-color="#FFCD03"/>
<stop offset="0.3065" stop-color="#FBAD1C"/>
<stop offset="1" stop-color="#F15A29"/>
</radialGradient>
<linearGradient id="paint31_linear" x1="6.67354" y1="17.7561" x2="-1.80583" y2="4.20574" gradientUnits="userSpaceOnUse">
<stop/>
<stop offset="0.1077" stop-color="#030303"/>
<stop offset="0.1887" stop-color="#0D0D0D"/>
<stop offset="0.261" stop-color="#1D1D1D"/>
<stop offset="0.3282" stop-color="#343434"/>
<stop offset="0.3919" stop-color="#515151"/>
<stop offset="0.4522" stop-color="#757575"/>
<stop offset="0.5091" stop-color="#9E9E9E"/>
<stop offset="0.5276" stop-color="#939393"/>
<stop offset="0.6066" stop-color="#666666"/>
<stop offset="0.6864" stop-color="#414141"/>
<stop offset="0.7658" stop-color="#252525"/>
<stop offset="0.8448" stop-color="#101010"/>
<stop offset="0.9231" stop-color="#040404"/>
<stop offset="1"/>
</linearGradient>
<radialGradient id="paint32_radial" cx="0" cy="0" r="1" gradientUnits="userSpaceOnUse" gradientTransform="translate(7.13056 8.46) rotate(180) scale(3.73349 3.72347)">
<stop stop-color="#FFCD03"/>
<stop offset="0.3065" stop-color="#FBAD1C"/>
<stop offset="1" stop-color="#F15A29"/>
</radialGradient>
<linearGradient id="paint33_linear" x1="9.48398" y1="15.9994" x2="1.00446" y2="2.44882" gradientUnits="userSpaceOnUse">
<stop/>
<stop offset="0.1077" stop-color="#030303"/>
<stop offset="0.1887" stop-color="#0D0D0D"/>
<stop offset="0.261" stop-color="#1D1D1D"/>
<stop offset="0.3282" stop-color="#343434"/>
<stop offset="0.3919" stop-color="#515151"/>
<stop offset="0.4522" stop-color="#757575"/>
<stop offset="0.5091" stop-color="#9E9E9E"/>
<stop offset="0.5276" stop-color="#939393"/>
<stop offset="0.6066" stop-color="#666666"/>
<stop offset="0.6864" stop-color="#414141"/>
<stop offset="0.7658" stop-color="#252525"/>
<stop offset="0.8448" stop-color="#101010"/>
<stop offset="0.9231" stop-color="#040404"/>
<stop offset="1"/>
</linearGradient>
<radialGradient id="paint34_radial" cx="0" cy="0" r="1" gradientUnits="userSpaceOnUse" gradientTransform="translate(6.52171 14.7058) rotate(180) scale(0.629439 0.627734)">
<stop stop-color="#FFCD03"/>
<stop offset="0.3065" stop-color="#FBAD1C"/>
<stop offset="1" stop-color="#F15A29"/>
</radialGradient>
<linearGradient id="paint35_linear" x1="7.49421" y1="17.2445" x2="-0.985772" y2="3.69288" gradientUnits="userSpaceOnUse">
<stop/>
<stop offset="0.1077" stop-color="#030303"/>
<stop offset="0.1887" stop-color="#0D0D0D"/>
<stop offset="0.261" stop-color="#1D1D1D"/>
<stop offset="0.3282" stop-color="#343434"/>
<stop offset="0.3919" stop-color="#515151"/>
<stop offset="0.4522" stop-color="#757575"/>
<stop offset="0.5091" stop-color="#9E9E9E"/>
<stop offset="0.5276" stop-color="#939393"/>
<stop offset="0.6066" stop-color="#666666"/>
<stop offset="0.6864" stop-color="#414141"/>
<stop offset="0.7658" stop-color="#252525"/>
<stop offset="0.8448" stop-color="#101010"/>
<stop offset="0.9231" stop-color="#040404"/>
<stop offset="1"/>
</linearGradient>
<radialGradient id="paint36_radial" cx="0" cy="0" r="1" gradientUnits="userSpaceOnUse" gradientTransform="translate(8.23804 11.7019) rotate(180) scale(1.90034 1.89524)">
<stop stop-color="#FFCD03"/>
<stop offset="0.3065" stop-color="#FBAD1C"/>
<stop offset="1" stop-color="#F15A29"/>
</radialGradient>
<linearGradient id="paint37_linear" x1="8.91794" y1="16.3523" x2="0.439212" y2="2.80299" gradientUnits="userSpaceOnUse">
<stop/>
<stop offset="0.1077" stop-color="#030303"/>
<stop offset="0.1887" stop-color="#0D0D0D"/>
<stop offset="0.261" stop-color="#1D1D1D"/>
<stop offset="0.3282" stop-color="#343434"/>
<stop offset="0.3919" stop-color="#515151"/>
<stop offset="0.4522" stop-color="#757575"/>
<stop offset="0.5091" stop-color="#9E9E9E"/>
<stop offset="0.5276" stop-color="#939393"/>
<stop offset="0.6066" stop-color="#666666"/>
<stop offset="0.6864" stop-color="#414141"/>
<stop offset="0.7658" stop-color="#252525"/>
<stop offset="0.8448" stop-color="#101010"/>
<stop offset="0.9231" stop-color="#040404"/>
<stop offset="1"/>
</linearGradient>
<radialGradient id="paint38_radial" cx="0" cy="0" r="1" gradientUnits="userSpaceOnUse" gradientTransform="translate(8.24301 4.51121) rotate(180) scale(10.2512 10.2237)">
<stop stop-color="#FFCD03"/>
<stop offset="0.3065" stop-color="#FBAD1C"/>
<stop offset="1" stop-color="#F15A29"/>
</radialGradient>
<radialGradient id="paint39_radial" cx="0" cy="0" r="1" gradientUnits="userSpaceOnUse" gradientTransform="translate(8.24307 4.51122) rotate(180) scale(10.2509 10.2234)">
<stop stop-color="#FFCD03"/>
<stop offset="0.3065" stop-color="#FBAD1C"/>
<stop offset="1" stop-color="#F15A29"/>
</radialGradient>
<radialGradient id="paint40_radial" cx="0" cy="0" r="1" gradientUnits="userSpaceOnUse" gradientTransform="translate(8.24275 4.50998) rotate(180) scale(10.2518 10.2242)">
<stop stop-color="#FFCD03"/>
<stop offset="0.3065" stop-color="#FBAD1C"/>
<stop offset="1" stop-color="#F15A29"/>
</radialGradient>
<radialGradient id="paint41_radial" cx="0" cy="0" r="1" gradientUnits="userSpaceOnUse" gradientTransform="translate(8.2436 4.50967) rotate(180) scale(10.2513 10.2238)">
<stop stop-color="#FFCD03"/>
<stop offset="0.3065" stop-color="#FBAD1C"/>
<stop offset="1" stop-color="#F15A29"/>
</radialGradient>
<radialGradient id="paint42_radial" cx="0" cy="0" r="1" gradientUnits="userSpaceOnUse" gradientTransform="translate(8.24323 4.51122) rotate(180) scale(10.2513 10.2237)">
<stop stop-color="#FFCD03"/>
<stop offset="0.3065" stop-color="#FBAD1C"/>
<stop offset="1" stop-color="#F15A29"/>
</radialGradient>
<radialGradient id="paint43_radial" cx="0" cy="0" r="1" gradientUnits="userSpaceOnUse" gradientTransform="translate(8.2425 4.51268) rotate(180) scale(10.2515 10.224)">
<stop stop-color="#FFCD03"/>
<stop offset="0.3065" stop-color="#FBAD1C"/>
<stop offset="1" stop-color="#F15A29"/>
</radialGradient>
<radialGradient id="paint44_radial" cx="0" cy="0" r="1" gradientUnits="userSpaceOnUse" gradientTransform="translate(8.24323 4.50998) rotate(180) scale(10.2514 10.2239)">
<stop stop-color="#FFCD03"/>
<stop offset="0.3065" stop-color="#FBAD1C"/>
<stop offset="1" stop-color="#F15A29"/>
</radialGradient>
<radialGradient id="paint45_radial" cx="0" cy="0" r="1" gradientUnits="userSpaceOnUse" gradientTransform="translate(8.24213 4.5101) rotate(180) scale(10.251 10.2235)">
<stop stop-color="#FFCD03"/>
<stop offset="0.3065" stop-color="#FBAD1C"/>
<stop offset="1" stop-color="#F15A29"/>
</radialGradient>
<linearGradient id="paint46_linear" x1="13.0224" y1="13.7511" x2="4.54285" y2="0.200521" gradientUnits="userSpaceOnUse">
<stop/>
<stop offset="0.1077" stop-color="#030303"/>
<stop offset="0.1887" stop-color="#0D0D0D"/>
<stop offset="0.261" stop-color="#1D1D1D"/>
<stop offset="0.3282" stop-color="#343434"/>
<stop offset="0.3919" stop-color="#515151"/>
<stop offset="0.4522" stop-color="#757575"/>
<stop offset="0.5091" stop-color="#9E9E9E"/>
<stop offset="0.5276" stop-color="#939393"/>
<stop offset="0.6066" stop-color="#666666"/>
<stop offset="0.6864" stop-color="#414141"/>
<stop offset="0.7658" stop-color="#252525"/>
<stop offset="0.8448" stop-color="#101010"/>
<stop offset="0.9231" stop-color="#040404"/>
<stop offset="1"/>
</linearGradient>
<radialGradient id="paint47_radial" cx="0" cy="0" r="1" gradientUnits="userSpaceOnUse" gradientTransform="translate(10.6631 8.95805) rotate(180) scale(2.23054 2.22456)">
<stop stop-color="#FFCD03"/>
<stop offset="0.3065" stop-color="#FBAD1C"/>
<stop offset="1" stop-color="#F15A29"/>
</radialGradient>
<linearGradient id="paint48_linear" x1="13.1754" y1="13.6563" x2="4.69566" y2="0.105316" gradientUnits="userSpaceOnUse">
<stop/>
<stop offset="0.1077" stop-color="#030303"/>
<stop offset="0.1887" stop-color="#0D0D0D"/>
<stop offset="0.261" stop-color="#1D1D1D"/>
<stop offset="0.3282" stop-color="#343434"/>
<stop offset="0.3919" stop-color="#515151"/>
<stop offset="0.4522" stop-color="#757575"/>
<stop offset="0.5091" stop-color="#9E9E9E"/>
<stop offset="0.5276" stop-color="#939393"/>
<stop offset="0.6066" stop-color="#666666"/>
<stop offset="0.6864" stop-color="#414141"/>
<stop offset="0.7658" stop-color="#252525"/>
<stop offset="0.8448" stop-color="#101010"/>
<stop offset="0.9231" stop-color="#040404"/>
<stop offset="1"/>
</linearGradient>
<radialGradient id="paint49_radial" cx="0" cy="0" r="1" gradientUnits="userSpaceOnUse" gradientTransform="translate(12.5094 8.50542) rotate(180) scale(1.80181 1.79697)">
<stop stop-color="#FFCD03"/>
<stop offset="0.3065" stop-color="#FBAD1C"/>
<stop offset="1" stop-color="#F15A29"/>
</radialGradient>
<linearGradient id="paint50_linear" x1="15.1283" y1="12.4345" x2="6.64892" y2="-1.11592" gradientUnits="userSpaceOnUse">
<stop/>
<stop offset="0.1077" stop-color="#030303"/>
<stop offset="0.1887" stop-color="#0D0D0D"/>
<stop offset="0.261" stop-color="#1D1D1D"/>
<stop offset="0.3282" stop-color="#343434"/>
<stop offset="0.3919" stop-color="#515151"/>
<stop offset="0.4522" stop-color="#757575"/>
<stop offset="0.5091" stop-color="#9E9E9E"/>
<stop offset="0.5276" stop-color="#939393"/>
<stop offset="0.6066" stop-color="#666666"/>
<stop offset="0.6864" stop-color="#414141"/>
<stop offset="0.7658" stop-color="#252525"/>
<stop offset="0.8448" stop-color="#101010"/>
<stop offset="0.9231" stop-color="#040404"/>
<stop offset="1"/>
</linearGradient>
<radialGradient id="paint51_radial" cx="0" cy="0" r="1" gradientUnits="userSpaceOnUse" gradientTransform="translate(10.4943 4.29186) rotate(180) scale(7.57911 7.55876)">
<stop stop-color="#FFCD03"/>
<stop offset="0.3065" stop-color="#FBAD1C"/>
<stop offset="1" stop-color="#F15A29"/>
</radialGradient>
<linearGradient id="paint52_linear" x1="13.4056" y1="13.5126" x2="4.92629" y2="-0.0376614" gradientUnits="userSpaceOnUse">
<stop/>
<stop offset="0.1077" stop-color="#030303"/>
<stop offset="0.1887" stop-color="#0D0D0D"/>
<stop offset="0.261" stop-color="#1D1D1D"/>
<stop offset="0.3282" stop-color="#343434"/>
<stop offset="0.3919" stop-color="#515151"/>
<stop offset="0.4522" stop-color="#757575"/>
<stop offset="0.5091" stop-color="#9E9E9E"/>
<stop offset="0.5276" stop-color="#939393"/>
<stop offset="0.6066" stop-color="#666666"/>
<stop offset="0.6864" stop-color="#414141"/>
<stop offset="0.7658" stop-color="#252525"/>
<stop offset="0.8448" stop-color="#101010"/>
<stop offset="0.9231" stop-color="#040404"/>
<stop offset="1"/>
</linearGradient>
<radialGradient id="paint53_radial" cx="0" cy="0" r="1" gradientUnits="userSpaceOnUse" gradientTransform="translate(13.3181 10.7617) rotate(180) scale(0.531874 0.530448)">
<stop stop-color="#FFCD03"/>
<stop offset="0.3065" stop-color="#FBAD1C"/>
<stop offset="1" stop-color="#F15A29"/>
</radialGradient>
<linearGradient id="paint54_linear" x1="14.9827" y1="12.5264" x2="6.49658" y2="-1.03468" gradientUnits="userSpaceOnUse">
<stop/>
<stop offset="0.1077" stop-color="#030303"/>
<stop offset="0.1887" stop-color="#0D0D0D"/>
<stop offset="0.261" stop-color="#1D1D1D"/>
<stop offset="0.3282" stop-color="#343434"/>
<stop offset="0.3919" stop-color="#515151"/>
<stop offset="0.4522" stop-color="#757575"/>
<stop offset="0.5091" stop-color="#9E9E9E"/>
<stop offset="0.5276" stop-color="#939393"/>
<stop offset="0.6066" stop-color="#666666"/>
<stop offset="0.6864" stop-color="#414141"/>
<stop offset="0.7658" stop-color="#252525"/>
<stop offset="0.8448" stop-color="#101010"/>
<stop offset="0.9231" stop-color="#040404"/>
<stop offset="1"/>
</linearGradient>
<radialGradient id="paint55_radial" cx="0" cy="0" r="1" gradientUnits="userSpaceOnUse" gradientTransform="translate(9.3959 11.1726) rotate(180) scale(1.01333 1.01061)">
<stop stop-color="#FFCD03"/>
<stop offset="0.3065" stop-color="#FBAD1C"/>
<stop offset="1" stop-color="#F15A29"/>
</radialGradient>
<radialGradient id="paint56_radial" cx="0" cy="0" r="1" gradientUnits="userSpaceOnUse" gradientTransform="translate(9.16123 4.15972) rotate(180) scale(8.84307 8.81932)">
<stop stop-color="#FFCD03"/>
<stop offset="0.3065" stop-color="#FBAD1C"/>
<stop offset="1" stop-color="#F15A29"/>
</radialGradient>
<linearGradient id="paint57_linear" x1="15.879" y1="11.9642" x2="7.3999" y2="-1.58568" gradientUnits="userSpaceOnUse">
<stop/>
<stop offset="0.1077" stop-color="#030303"/>
<stop offset="0.1887" stop-color="#0D0D0D"/>
<stop offset="0.261" stop-color="#1D1D1D"/>
<stop offset="0.3282" stop-color="#343434"/>
<stop offset="0.3919" stop-color="#515151"/>
<stop offset="0.4522" stop-color="#757575"/>
<stop offset="0.5091" stop-color="#9E9E9E"/>
<stop offset="0.5276" stop-color="#939393"/>
<stop offset="0.6066" stop-color="#666666"/>
<stop offset="0.6864" stop-color="#414141"/>
<stop offset="0.7658" stop-color="#252525"/>
<stop offset="0.8448" stop-color="#101010"/>
<stop offset="0.9231" stop-color="#040404"/>
<stop offset="1"/>
</linearGradient>
<radialGradient id="paint58_radial" cx="0" cy="0" r="1" gradientUnits="userSpaceOnUse" gradientTransform="translate(9.00389 4.29113) rotate(180) scale(7.78327 7.76238)">
<stop stop-color="#FFCD03"/>
<stop offset="0.3065" stop-color="#FBAD1C"/>
<stop offset="1" stop-color="#F15A29"/>
</radialGradient>
<linearGradient id="paint59_linear" x1="10.8591" y1="15.1051" x2="2.37957" y2="1.55451" gradientUnits="userSpaceOnUse">
<stop/>
<stop offset="0.1077" stop-color="#030303"/>
<stop offset="0.1887" stop-color="#0D0D0D"/>
<stop offset="0.261" stop-color="#1D1D1D"/>
<stop offset="0.3282" stop-color="#343434"/>
<stop offset="0.3919" stop-color="#515151"/>
<stop offset="0.4522" stop-color="#757575"/>
<stop offset="0.5091" stop-color="#9E9E9E"/>
<stop offset="0.5276" stop-color="#939393"/>
<stop offset="0.6066" stop-color="#666666"/>
<stop offset="0.6864" stop-color="#414141"/>
<stop offset="0.7658" stop-color="#252525"/>
<stop offset="0.8448" stop-color="#101010"/>
<stop offset="0.9231" stop-color="#040404"/>
<stop offset="1"/>
</linearGradient>
<radialGradient id="paint60_radial" cx="0" cy="0" r="1" gradientUnits="userSpaceOnUse" gradientTransform="translate(9.36626 11.2976) rotate(180) scale(1.28379 1.28034)">
<stop stop-color="#FFCD03"/>
<stop offset="0.3065" stop-color="#FBAD1C"/>
<stop offset="1" stop-color="#F15A29"/>
</radialGradient>
<linearGradient id="paint61_linear" x1="10.4033" y1="15.3893" x2="1.92664" y2="1.84322" gradientUnits="userSpaceOnUse">
<stop/>
<stop offset="0.1077" stop-color="#030303"/>
<stop offset="0.1887" stop-color="#0D0D0D"/>
<stop offset="0.261" stop-color="#1D1D1D"/>
<stop offset="0.3282" stop-color="#343434"/>
<stop offset="0.3919" stop-color="#515151"/>
<stop offset="0.4522" stop-color="#757575"/>
<stop offset="0.5091" stop-color="#9E9E9E"/>
<stop offset="0.5276" stop-color="#939393"/>
<stop offset="0.6066" stop-color="#666666"/>
<stop offset="0.6864" stop-color="#414141"/>
<stop offset="0.7658" stop-color="#252525"/>
<stop offset="0.8448" stop-color="#101010"/>
<stop offset="0.9231" stop-color="#040404"/>
<stop offset="1"/>
</linearGradient>
</defs>
</svg>
