<svg width="16" height="15" viewBox="0 0 16 15" fill="none" xmlns="http://www.w3.org/2000/svg">
<ellipse cx="8.325" cy="13.7986" rx="7.67501" ry="0.75" fill="url(#paint0_radial)"/>
<path d="M11.5903 13.9557C11.5903 13.6719 10.0765 13.4827 8.2315 13.4827C6.38651 13.4827 4.87267 13.7192 4.87267 13.9557C4.87267 14.2396 6.38651 14.4288 8.2315 14.4288" fill="url(#paint1_radial)"/>
<path d="M0.425766 13.0096C0.425766 13.2934 1.93961 13.4826 3.7846 13.4826C5.6296 13.4826 7.14344 13.2461 7.14344 13.0096C7.14344 12.7257 5.6296 12.5365 3.7846 12.5365C1.93961 12.5365 0.425766 12.7257 0.425766 13.0096Z" fill="url(#paint2_radial)"/>
<path d="M4.02071 12.9623C6.76455 13.0569 8.18378 10.2184 8.18378 8.1842C8.18378 7.28536 7.80532 6.10267 6.81186 5.39306C6.81186 5.39306 5.06148 4.63614 5.01417 3.54807L5.06148 0.614998C5.06148 0.283845 4.77763 0.0473075 4.39917 0H3.9261C3.54764 0 3.26379 0.283845 3.26379 0.56769L3.21649 3.54807C3.12187 4.58883 1.4188 5.29844 1.4188 5.29844C0.378033 6.00806 -0.000427499 7.19075 -0.000427499 8.04228C-0.047735 10.4077 1.18226 12.8677 4.02071 12.9623Z" fill="#BF9251"/>
<path d="M1.70305 5.29844C1.70305 5.29844 3.35882 4.58883 3.50074 3.59537L3.54805 0.614998C3.50074 0.236538 3.83189 0 4.16305 0H4.63612C5.01458 0 5.29843 0.283845 5.29843 0.614998L5.25112 3.50076C5.25112 4.58883 7.04881 5.39306 7.04881 5.39306L7.19073 5.91344C7.19073 5.91344 5.91343 6.67036 5.86612 6.67036C5.81881 6.67036 4.82535 6.57575 4.21035 6.48113C3.54805 6.57575 2.88574 6.62305 2.83844 6.62305C2.74382 6.62305 1.51382 5.81883 1.51382 5.81883L1.70305 5.29844Z" fill="url(#paint3_linear)"/>
<path d="M7.09614 5.39308L1.70309 5.29846C0.662319 6.00807 0.283859 7.19076 0.283859 8.0423C0.236552 10.4077 1.46655 12.8677 4.25769 12.9623C7.00153 13.0569 8.42076 10.2184 8.42076 8.18422C8.46806 7.28538 8.04229 6.10269 7.09614 5.39308Z" fill="url(#paint4_linear)"/>
<path d="M5.29845 3.21693L3.50076 3.16962V3.59539L5.29845 3.64269V3.21693ZM3.50076 1.51385V1.93962L5.29845 1.98693V1.56116L3.50076 1.51385ZM3.50076 2.27078V2.69654L5.29845 2.74385V2.31808L3.50076 2.27078Z" fill="url(#paint5_linear)"/>
<path d="M3.075 10.1238C2.98038 7.37998 5.81884 5.96075 7.85306 5.96075C8.7519 5.96075 9.93459 6.33921 10.6442 7.33267C10.6442 7.33267 11.4011 9.08305 12.4892 9.13036L15.4223 9.08305C15.7534 9.08305 16.0373 9.3669 16.0373 9.74536V10.2184C16.0373 10.5969 15.8007 10.8807 15.4696 10.8807L12.4892 10.928C11.4484 11.0227 10.7388 12.7257 10.7388 12.7257C10.0292 13.7665 8.84652 14.145 7.99498 14.145C5.6296 14.1923 3.16961 12.9623 3.075 10.1238Z" fill="#BF9251"/>
<path d="M9.3669 8.27877C9.3669 8.18416 10.1238 6.95416 10.1238 6.95416L10.6442 7.09609C10.6442 7.09609 11.4484 8.89377 12.5365 8.89377L15.4223 8.84646C15.7534 8.84646 16.0373 9.13031 16.0373 9.50877V9.98185C16.0373 10.3603 15.8007 10.6442 15.4696 10.6442L12.4892 10.6915C11.4484 10.8334 10.7861 12.4891 10.7861 12.4891L10.2657 12.6311C10.2657 12.6311 9.46151 11.4011 9.46151 11.3065C9.46151 11.2591 9.50882 10.5968 9.60344 9.93454C9.46151 9.27223 9.3669 8.27877 9.3669 8.27877Z" fill="url(#paint6_linear)"/>
<path d="M10.6442 7.0488L10.7388 12.4419C10.0292 13.4826 8.84652 13.8611 7.99498 13.8611C5.6296 13.9084 3.16961 12.6784 3.075 9.83994C2.98038 7.09611 5.81884 5.67688 7.85306 5.67688C8.7519 5.67688 9.93459 6.10265 10.6442 7.0488Z" fill="url(#paint7_linear)"/>
<path d="M12.3946 8.8465L12.4419 10.6442H12.8676L12.8203 8.8465H12.3946ZM14.4761 8.8465H14.0503L14.0976 10.6442H14.5234L14.4761 8.8465ZM13.7192 8.8465H13.2934L13.3407 10.6442H13.7665L13.7192 8.8465Z" fill="url(#paint8_linear)"/>
<defs>
<radialGradient id="paint0_radial" cx="0" cy="0" r="1" gradientUnits="userSpaceOnUse" gradientTransform="translate(8.325 13.7986) rotate(90) scale(0.75 7.67501)">
<stop stop-color="#4A4A4A"/>
<stop offset="1" stop-color="#C4C4C4" stop-opacity="0"/>
</radialGradient>
<radialGradient id="paint1_radial" cx="0" cy="0" r="1" gradientUnits="userSpaceOnUse" gradientTransform="translate(8.23106 13.9702) rotate(180) scale(3.35616 0.484532)">
<stop stop-color="#2B2B2B"/>
<stop offset="0.142" stop-color="#5F5F5F" stop-opacity="0.858"/>
<stop offset="0.295" stop-color="#8F8F8F" stop-opacity="0.705"/>
<stop offset="0.4474" stop-color="#B7B7B7" stop-opacity="0.5526"/>
<stop offset="0.5961" stop-color="#D7D7D7" stop-opacity="0.4039"/>
<stop offset="0.74" stop-color="#EDEDED" stop-opacity="0.26"/>
<stop offset="0.877" stop-color="#FAFAFA" stop-opacity="0.123"/>
<stop offset="1" stop-color="white" stop-opacity="0"/>
</radialGradient>
<radialGradient id="paint2_radial" cx="0" cy="0" r="1" gradientUnits="userSpaceOnUse" gradientTransform="translate(3.79228 13.0002) rotate(180) scale(3.35693 0.484643)">
<stop stop-color="#2B2B2B"/>
<stop offset="0.142" stop-color="#5F5F5F" stop-opacity="0.858"/>
<stop offset="0.295" stop-color="#8F8F8F" stop-opacity="0.705"/>
<stop offset="0.4474" stop-color="#B7B7B7" stop-opacity="0.5526"/>
<stop offset="0.5961" stop-color="#D7D7D7" stop-opacity="0.4039"/>
<stop offset="0.74" stop-color="#EDEDED" stop-opacity="0.26"/>
<stop offset="0.877" stop-color="#FAFAFA" stop-opacity="0.123"/>
<stop offset="1" stop-color="white" stop-opacity="0"/>
</radialGradient>
<linearGradient id="paint3_linear" x1="6.5991" y1="3.34034" x2="0.965294" y2="3.34034" gradientUnits="userSpaceOnUse">
<stop stop-color="#F2D67B"/>
<stop offset="0.2681" stop-color="#EFD078"/>
<stop offset="0.6225" stop-color="#E6BF6E"/>
<stop offset="1" stop-color="#D8A660"/>
</linearGradient>
<linearGradient id="paint4_linear" x1="9.21401" y1="9.1228" x2="1.06883" y2="9.1228" gradientUnits="userSpaceOnUse">
<stop stop-color="#EB574F"/>
<stop offset="0.1849" stop-color="#E34F47"/>
<stop offset="0.4787" stop-color="#CD3833"/>
<stop offset="0.8426" stop-color="#AA1211"/>
<stop offset="1" stop-color="#990000"/>
</linearGradient>
<linearGradient id="paint5_linear" x1="5.61465" y1="2.57075" x2="3.33878" y2="2.57075" gradientUnits="userSpaceOnUse">
<stop stop-color="#7A7A7A"/>
<stop offset="0.4128" stop-color="#5E5E5E"/>
<stop offset="1" stop-color="#303030"/>
</linearGradient>
<linearGradient id="paint6_linear" x1="12.6856" y1="8.23289" x2="12.6856" y2="12.7491" gradientUnits="userSpaceOnUse">
<stop stop-color="#F2D67B"/>
<stop offset="0.2681" stop-color="#EFD078"/>
<stop offset="0.6225" stop-color="#E6BF6E"/>
<stop offset="1" stop-color="#D8A660"/>
</linearGradient>
<linearGradient id="paint7_linear" x1="6.90322" y1="5.71534" x2="6.90322" y2="13.8608" gradientUnits="userSpaceOnUse">
<stop stop-color="#EB3838"/>
<stop offset="0.1876" stop-color="#E63535"/>
<stop offset="0.4089" stop-color="#D82C2C"/>
<stop offset="0.6471" stop-color="#C01E1E"/>
<stop offset="0.8957" stop-color="#9F0A0A"/>
<stop offset="1" stop-color="#8F0000"/>
</linearGradient>
<linearGradient id="paint8_linear" x1="13.4552" y1="8.53138" x2="13.4552" y2="10.8073" gradientUnits="userSpaceOnUse">
<stop stop-color="#7A7A7A"/>
<stop offset="0.4128" stop-color="#5E5E5E"/>
<stop offset="1" stop-color="#303030"/>
</linearGradient>
</defs>
</svg>
