<svg width="16" height="16" viewBox="0 0 16 16" fill="none" xmlns="http://www.w3.org/2000/svg">
<path d="M6.22321 10.9454C6.56765 10.8561 6.88658 10.7923 7.16723 10.7541C7.43513 10.703 7.70303 10.6648 7.95817 10.6265L8.0985 10.601C8.3664 10.5627 8.68532 10.5117 9.00425 10.4479C9.70588 10.3203 10.2544 10.18 10.7264 9.98865C10.8668 9.93762 10.9943 9.87384 11.1219 9.82281C11.1857 9.78454 11.2495 9.75902 11.3133 9.73351C11.3771 9.69524 11.4281 9.66972 11.4919 9.63145C11.7343 9.47837 11.9511 9.31253 12.1297 9.12117C12.3083 8.92982 12.4614 8.71295 12.5762 8.47056C12.6783 8.24094 12.7548 7.99855 12.7931 7.73065C12.8569 7.24589 12.7931 6.69733 12.6145 6.13602C12.4486 5.6385 12.2063 5.12822 11.8746 4.61794C11.696 4.35004 11.5301 4.12041 11.3643 3.9163C11.275 3.80149 11.1857 3.69943 11.0836 3.58462L11.0581 3.5591C11.0199 3.50807 10.9816 3.4698 10.9433 3.43153C10.905 3.3805 10.854 3.34223 10.803 3.2912C10.7009 3.20191 10.6116 3.12536 10.5096 3.04882C10.3948 2.97228 10.2927 2.90849 10.1907 2.85747C9.97378 2.74265 9.7314 2.66611 9.50177 2.6406C9.38696 2.62784 9.25939 2.61508 9.13182 2.61508C8.76186 2.61508 8.3664 2.69162 7.95817 2.84471C7.70303 2.93401 7.44789 3.06158 7.19275 3.20191C6.95036 3.34223 6.70798 3.50807 6.47835 3.68667C6.33803 3.78873 6.24873 3.87803 6.15943 3.96733C6.05737 4.05663 5.96807 4.15868 5.85326 4.2735C5.6619 4.49037 5.47055 4.71999 5.29195 4.96238C5.03681 5.29406 4.80718 5.6385 4.5648 6.00845C4.46274 6.16154 4.34793 6.32738 4.24587 6.48046C4.09279 6.69733 3.90143 6.97799 3.65905 7.25864C3.53148 7.41173 3.41667 7.52654 3.30185 7.6286L3.25082 7.66687L3.1998 7.70514C3.16152 7.74341 3.1105 7.76892 3.07223 7.79444C2.98293 7.85822 2.88087 7.8965 2.79157 7.93477C2.61297 8.01131 2.43437 8.03682 2.25578 8.03682C2.23026 8.03682 2.20475 8.03682 2.17923 8.03682C2.00063 8.02407 1.82204 7.98579 1.61792 7.92201C1.59241 7.90925 1.5669 7.90925 1.55414 7.8965C1.86031 9.72075 2.90638 11.3026 4.37344 12.3104C4.39896 12.2339 4.42447 12.1701 4.44999 12.1063C4.53928 11.9277 4.6541 11.7619 4.80718 11.6216C4.93475 11.5067 5.08784 11.3919 5.26644 11.2899C5.53433 11.1623 5.8405 11.0475 6.22321 10.9454Z" fill="url(#paint0_radial)"/>
<path d="M8.2132 -3.05176e-05C4.47538 -3.05176e-05 1.45197 3.02339 1.45197 6.7612C1.45197 6.86326 1.45197 6.97807 1.46472 7.08013C1.60505 7.14391 1.71986 7.19494 1.83468 7.23321C1.96225 7.27148 2.07706 7.28424 2.19187 7.28424C2.30669 7.28424 2.40874 7.25872 2.49804 7.22045C2.54907 7.19494 2.58734 7.18218 2.62561 7.14391C2.65113 7.13115 2.66388 7.1184 2.6894 7.09288L2.72767 7.05461L2.76594 7.0291C2.85524 6.9398 2.94454 6.8505 3.0466 6.72293C3.22519 6.50606 3.37828 6.26367 3.55688 5.99578C3.65893 5.84269 3.77375 5.67685 3.8758 5.51101C4.10543 5.15381 4.34781 4.78386 4.60296 4.42666C5.06221 3.77605 5.45768 3.32956 5.89142 2.94685C6.43997 2.47483 6.98852 2.11764 7.56259 1.84974C7.89427 1.69666 8.22596 1.58184 8.55764 1.51806C8.82554 1.46703 9.09343 1.42876 9.33582 1.42876C9.43787 1.42876 9.55269 1.42876 9.65475 1.44151C9.8461 1.45427 10.0247 1.49254 10.2161 1.54357C10.3947 1.5946 10.5733 1.65838 10.7519 1.73493C10.9177 1.81147 11.0835 1.91353 11.2366 2.01558C11.3769 2.11764 11.53 2.23245 11.6704 2.36002C11.9383 2.60241 12.1551 2.85755 12.3592 3.12544C12.5761 3.4061 12.7675 3.674 12.9333 3.95465C13.3033 4.56699 13.5712 5.19208 13.7242 5.81718C13.9156 6.55709 13.9411 7.25872 13.8135 7.89658C13.737 8.25377 13.6222 8.58546 13.4436 8.90438C13.2777 9.21055 13.0609 9.49121 12.793 9.74635C12.5506 9.97597 12.2699 10.1801 11.951 10.3587C11.8872 10.397 11.8107 10.4352 11.7341 10.4735C11.6576 10.5118 11.5938 10.55 11.5045 10.5883C11.3642 10.6521 11.2111 10.7159 11.0453 10.7669C10.114 11.0858 9.15722 11.2262 8.22596 11.3537C7.93254 11.392 7.61362 11.443 7.32021 11.4813C7.07782 11.5196 6.7589 11.5834 6.43997 11.6599C6.09553 11.7492 5.85315 11.8385 5.66179 11.9406C5.41941 12.0681 5.25356 12.234 5.16427 12.4126C5.12599 12.5019 5.10048 12.5912 5.07497 12.6932C6.01899 13.1907 7.09058 13.4714 8.23871 13.4714C11.9638 13.4714 14.9999 10.448 14.9999 6.71017C14.9617 3.02339 11.9383 -3.05176e-05 8.2132 -3.05176e-05Z" fill="url(#paint1_radial)"/>
<path d="M1.6689 7.76904C1.83474 7.82007 2.00058 7.8711 2.17918 7.8711C2.20469 7.8711 2.23021 7.8711 2.25572 7.8711C2.4088 7.8711 2.57465 7.84558 2.72773 7.79455C2.81703 7.75628 2.90633 7.71801 2.98287 7.66698C3.02114 7.64147 3.05941 7.61596 3.09768 7.59044L3.14871 7.55217L3.19974 7.5139C3.32731 7.39909 3.44212 7.28427 3.54418 7.1567C3.76105 6.91432 3.93965 6.64642 4.11825 6.39128C4.47544 5.86824 4.80713 5.35796 5.17708 4.87319C5.35568 4.63081 5.54704 4.38843 5.75115 4.17156C5.8532 4.05674 5.95526 3.95469 6.05732 3.85263C6.15937 3.75057 6.27419 3.66127 6.389 3.55922C6.61863 3.38062 6.86101 3.20202 7.11615 3.06169C7.37129 2.90861 7.63919 2.7938 7.90709 2.69174C8.31531 2.53866 8.73629 2.44936 9.13176 2.44936C9.27209 2.44936 9.39966 2.46211 9.52723 2.47487C9.78237 2.51314 10.0375 2.58968 10.2671 2.71725C10.382 2.78104 10.4968 2.84482 10.5988 2.92137C10.7136 2.99791 10.8157 3.08721 10.9177 3.17651C10.9688 3.22754 11.0198 3.26581 11.0581 3.31683C11.1091 3.36786 11.1474 3.41889 11.1984 3.46992C11.3005 3.57198 11.3898 3.68679 11.4791 3.8016C11.6577 4.03123 11.8363 4.27361 11.9893 4.516C12.3083 5.01352 12.5762 5.53656 12.7548 6.08511C12.9334 6.63366 13.0227 7.20773 12.9461 7.75628C12.9334 8.03694 12.8568 8.30484 12.7292 8.54722C12.6144 8.80236 12.4486 9.03199 12.2572 9.2361C12.0659 9.44021 11.8363 9.61881 11.5811 9.7719C11.5173 9.81017 11.4535 9.84844 11.3898 9.88671C11.326 9.92498 11.2622 9.95049 11.1984 9.98877C11.0708 10.0526 10.9305 10.1163 10.7902 10.1674C10.2289 10.3842 9.64204 10.5246 9.02971 10.6266C8.72354 10.6776 8.41737 10.7287 8.1112 10.7797C7.80503 10.8307 7.49886 10.869 7.19269 10.92C6.88652 10.9711 6.5676 11.0348 6.26143 11.1114C5.95526 11.1879 5.63633 11.29 5.34292 11.4558C5.18984 11.5324 5.04951 11.6344 4.92194 11.762C4.79437 11.8768 4.67956 12.0299 4.60302 12.1957C4.56474 12.2723 4.53923 12.3488 4.51372 12.4254C4.64129 12.5147 4.76886 12.5912 4.90918 12.6677C4.92194 12.5784 4.96021 12.4764 4.99848 12.3998C5.1133 12.1702 5.31741 11.9916 5.55979 11.8513C5.80218 11.711 6.09559 11.6217 6.37624 11.5451C6.66965 11.4686 6.96307 11.4176 7.26924 11.3665C8.48115 11.1624 9.7441 11.0731 10.9688 10.6521C11.1219 10.6011 11.2749 10.5373 11.4153 10.4735C11.4918 10.4353 11.5684 10.4097 11.6321 10.3715C11.7087 10.3332 11.7725 10.2949 11.849 10.2567C12.1424 10.0908 12.4103 9.89947 12.6527 9.66984C12.8951 9.44021 13.112 9.17231 13.2778 8.86615C13.4436 8.55998 13.5585 8.24105 13.635 7.89661C13.7753 7.22049 13.7115 6.53161 13.5457 5.881C13.3799 5.23039 13.112 4.63081 12.7675 4.0695C12.6017 3.78884 12.4103 3.52095 12.2062 3.26581C12.0021 3.01067 11.798 2.75552 11.5301 2.51314C11.4025 2.39833 11.2622 2.28351 11.1219 2.18146C10.9688 2.0794 10.8157 1.9901 10.6498 1.91356C10.484 1.83702 10.3182 1.77323 10.1396 1.7222C9.96097 1.67118 9.78237 1.64566 9.60377 1.62015C9.50172 1.60739 9.39966 1.60739 9.2976 1.60739C9.04246 1.60739 8.78732 1.63291 8.54494 1.68393C8.21326 1.76048 7.88157 1.86253 7.58816 2.00286C6.97582 2.28351 6.44003 2.65347 5.95526 3.07445C5.45774 3.50819 5.04951 4.01847 4.69231 4.52875C4.32236 5.03903 4.00343 5.57483 3.65899 6.08511C3.49315 6.34025 3.31455 6.59539 3.13596 6.82502C3.04666 6.93983 2.9446 7.05465 2.84254 7.14395L2.80427 7.18222L2.766 7.22049C2.74049 7.246 2.71497 7.25876 2.68946 7.28427C2.63843 7.32254 2.5874 7.34806 2.52362 7.37357C2.4088 7.4246 2.28123 7.45011 2.15366 7.45011C2.02609 7.45011 1.88577 7.4246 1.7582 7.38633C1.64338 7.36082 1.54133 7.30979 1.43927 7.27152C1.45203 7.4246 1.46478 7.56493 1.4903 7.71801C1.56684 7.73077 1.61787 7.74353 1.6689 7.76904Z" fill="url(#paint2_radial)"/>
<path d="M1.6689 7.76904C1.83474 7.82007 2.00058 7.8711 2.17918 7.8711C2.20469 7.8711 2.23021 7.8711 2.25572 7.8711C2.4088 7.8711 2.57465 7.84558 2.72773 7.79455C2.81703 7.75628 2.90633 7.71801 2.98287 7.66698C3.02114 7.64147 3.05941 7.61596 3.09768 7.59044L3.14871 7.55217L3.19974 7.5139C3.32731 7.39909 3.44212 7.28427 3.54418 7.1567C3.76105 6.91432 3.93965 6.64642 4.11825 6.39128C4.47544 5.86824 4.80713 5.35796 5.17708 4.87319C5.35568 4.63081 5.54704 4.38843 5.75115 4.17156C5.8532 4.05674 5.95526 3.95469 6.05732 3.85263C6.15937 3.75057 6.27419 3.66127 6.389 3.55922C6.61863 3.38062 6.86101 3.20202 7.11615 3.06169C7.37129 2.90861 7.63919 2.7938 7.90709 2.69174C8.31531 2.53866 8.73629 2.44936 9.13176 2.44936C9.27209 2.44936 9.39966 2.46211 9.52723 2.47487C9.78237 2.51314 10.0375 2.58968 10.2671 2.71725C10.382 2.78104 10.4968 2.84482 10.5988 2.92137C10.7136 2.99791 10.8157 3.08721 10.9177 3.17651C10.9688 3.22754 11.0198 3.26581 11.0581 3.31683C11.1091 3.36786 11.1474 3.41889 11.1984 3.46992C11.3005 3.57198 11.3898 3.68679 11.4791 3.8016C11.6577 4.03123 11.8363 4.27361 11.9893 4.516C12.3083 5.01352 12.5762 5.53656 12.7548 6.08511C12.9334 6.63366 13.0227 7.20773 12.9461 7.75628C12.9334 8.03694 12.8568 8.30484 12.7292 8.54722C12.6144 8.80236 12.4486 9.03199 12.2572 9.2361C12.0659 9.44021 11.8363 9.61881 11.5811 9.7719C11.5173 9.81017 11.4535 9.84844 11.3898 9.88671C11.326 9.92498 11.2622 9.95049 11.1984 9.98877C11.0708 10.0526 10.9305 10.1163 10.7902 10.1674C10.2289 10.3842 9.64204 10.5246 9.02971 10.6266C8.72354 10.6776 8.41737 10.7287 8.1112 10.7797C7.80503 10.8307 7.49886 10.869 7.19269 10.92C6.88652 10.9711 6.5676 11.0348 6.26143 11.1114C5.95526 11.1879 5.63633 11.29 5.34292 11.4558C5.18984 11.5324 5.04951 11.6344 4.92194 11.762C4.79437 11.8768 4.67956 12.0299 4.60302 12.1957C4.56474 12.2723 4.53923 12.3488 4.51372 12.4254C4.64129 12.5147 4.76886 12.5912 4.90918 12.6677C4.92194 12.5784 4.96021 12.4764 4.99848 12.3998C5.1133 12.1702 5.31741 11.9916 5.55979 11.8513C5.80218 11.711 6.09559 11.6217 6.37624 11.5451C6.66965 11.4686 6.96307 11.4176 7.26924 11.3665C8.48115 11.1624 9.7441 11.0731 10.9688 10.6521C11.1219 10.6011 11.2749 10.5373 11.4153 10.4735C11.4918 10.4353 11.5684 10.4097 11.6321 10.3715C11.7087 10.3332 11.7725 10.2949 11.849 10.2567C12.1424 10.0908 12.4103 9.89947 12.6527 9.66984C12.8951 9.44021 13.112 9.17231 13.2778 8.86615C13.4436 8.55998 13.5585 8.24105 13.635 7.89661C13.7753 7.22049 13.7115 6.53161 13.5457 5.881C13.3799 5.23039 13.112 4.63081 12.7675 4.0695C12.6017 3.78884 12.4103 3.52095 12.2062 3.26581C12.0021 3.01067 11.798 2.75552 11.5301 2.51314C11.4025 2.39833 11.2622 2.28351 11.1219 2.18146C10.9688 2.0794 10.8157 1.9901 10.6498 1.91356C10.484 1.83702 10.3182 1.77323 10.1396 1.7222C9.96097 1.67118 9.78237 1.64566 9.60377 1.62015C9.50172 1.60739 9.39966 1.60739 9.2976 1.60739C9.04246 1.60739 8.78732 1.63291 8.54494 1.68393C8.21326 1.76048 7.88157 1.86253 7.58816 2.00286C6.97582 2.28351 6.44003 2.65347 5.95526 3.07445C5.45774 3.50819 5.04951 4.01847 4.69231 4.52875C4.32236 5.03903 4.00343 5.57483 3.65899 6.08511C3.49315 6.34025 3.31455 6.59539 3.13596 6.82502C3.04666 6.93983 2.9446 7.05465 2.84254 7.14395L2.80427 7.18222L2.766 7.22049C2.74049 7.246 2.71497 7.25876 2.68946 7.28427C2.63843 7.32254 2.5874 7.34806 2.52362 7.37357C2.4088 7.4246 2.28123 7.45011 2.15366 7.45011C2.02609 7.45011 1.88577 7.4246 1.7582 7.38633C1.64338 7.36082 1.54133 7.30979 1.43927 7.27152C1.45203 7.4246 1.46478 7.56493 1.4903 7.71801C1.56684 7.73077 1.61787 7.74353 1.6689 7.76904Z" fill="url(#paint3_radial)"/>
<path d="M5.62376 11.966C5.82787 11.8512 6.07026 11.7619 6.40194 11.6854C6.70811 11.6088 7.03979 11.545 7.28218 11.5068C7.57559 11.4557 7.89451 11.4175 8.18792 11.3792C9.11919 11.2516 10.076 11.1113 11.0072 10.7924C11.1731 10.7286 11.3262 10.6776 11.4665 10.6138C11.5558 10.5755 11.6196 10.5372 11.6961 10.499C11.7854 10.4607 11.8492 10.4224 11.913 10.3841C12.2319 10.2056 12.5126 10.0014 12.7549 9.77181C13.0228 9.51667 13.2397 9.23602 13.4056 8.92985C13.5842 8.61092 13.699 8.26648 13.7755 7.92204C13.9031 7.28419 13.8776 6.58255 13.6862 5.84264C13.5204 5.21755 13.2525 4.59246 12.8953 3.98012C12.7294 3.71222 12.5508 3.44432 12.3212 3.15091C12.1043 2.88301 11.9002 2.62787 11.6323 2.38549C11.492 2.25792 11.3517 2.1431 11.1986 2.04105C11.0455 1.93899 10.8797 1.83693 10.7138 1.76039C10.5352 1.67109 10.3566 1.60731 10.178 1.56904C9.99942 1.51801 9.80807 1.49249 9.61671 1.46698C9.51466 1.45422 9.4126 1.45422 9.29779 1.45422C9.04265 1.45422 8.78751 1.47974 8.51961 1.54352C8.18792 1.60731 7.85624 1.72212 7.52456 1.87521C6.93774 2.1431 6.38918 2.5003 5.85339 2.97231C5.41965 3.35502 5.02418 3.81428 4.56493 4.45213C4.30979 4.80932 4.0674 5.17928 3.83777 5.53648C3.73572 5.70232 3.63366 5.8554 3.51885 6.02124C3.34025 6.28914 3.17441 6.53152 3.00857 6.74839C2.90651 6.87596 2.81721 6.96526 2.72791 7.05456V7.06732L2.68964 7.10559C2.67688 7.11835 2.65137 7.14386 2.62586 7.15662C2.58759 7.18213 2.53656 7.20765 2.49829 7.23316C2.40899 7.27143 2.30693 7.29695 2.19212 7.29695C2.0773 7.29695 1.96249 7.28419 1.83492 7.24592C1.72011 7.20765 1.60529 7.16938 1.46497 7.09283C1.46497 7.15662 1.47772 7.2204 1.47772 7.28419C1.57978 7.33522 1.69459 7.37349 1.79665 7.399C1.93698 7.43727 2.06455 7.46279 2.19212 7.46279C2.31969 7.46279 2.44726 7.43727 2.56207 7.38625C2.6131 7.36073 2.67688 7.33522 2.72791 7.29695C2.75343 7.28419 2.77894 7.25868 2.80445 7.23316L2.84273 7.19489L2.881 7.15662C2.98305 7.05456 3.07235 6.95251 3.17441 6.83769C3.36576 6.60807 3.53161 6.35293 3.69745 6.09779C4.04189 5.5875 4.36081 5.05171 4.73077 4.54143C5.10072 4.03115 5.49619 3.52086 5.99371 3.08712C6.49124 2.66614 7.02703 2.28343 7.62662 2.01553C7.93278 1.87521 8.25171 1.76039 8.58339 1.69661C8.82578 1.64558 9.08092 1.62007 9.33606 1.62007C9.43811 1.62007 9.54017 1.62007 9.64223 1.63282C9.82083 1.64558 9.99942 1.68385 10.178 1.73488C10.3566 1.78591 10.5225 1.84969 10.6883 1.92623C10.8541 2.00278 11.0072 2.09208 11.1603 2.19413C11.3006 2.29619 11.441 2.411 11.5685 2.52581C11.8364 2.7682 12.0406 3.01058 12.2447 3.27848C12.4488 3.53362 12.6401 3.80152 12.806 4.08217C13.1504 4.64348 13.4183 5.25582 13.5842 5.89367C13.75 6.54428 13.801 7.23316 13.6735 7.90928C13.6097 8.24097 13.4821 8.57265 13.3163 8.87882C13.1504 9.18499 12.9335 9.45289 12.6912 9.68251C12.4488 9.91214 12.1681 10.1163 11.8875 10.2693C11.8109 10.3076 11.7471 10.3459 11.6706 10.3841C11.5941 10.4224 11.5175 10.4607 11.4537 10.4862C11.3006 10.55 11.1603 10.6138 11.0072 10.6648C9.78255 11.0858 8.51961 11.1878 7.30769 11.3792C7.00152 11.4302 6.70811 11.4813 6.4147 11.5578C6.12128 11.6343 5.84063 11.7236 5.59825 11.864C5.35586 12.0043 5.15175 12.1829 5.03694 12.4125C4.99867 12.5018 4.96039 12.5911 4.94764 12.6804C4.99867 12.7059 5.04969 12.7314 5.10072 12.7697C5.11348 12.6677 5.13899 12.5656 5.19002 12.4891C5.22829 12.2594 5.39413 12.1063 5.62376 11.966Z" fill="url(#paint4_radial)"/>
<path d="M5.62376 11.966C5.82787 11.8512 6.07026 11.7619 6.40194 11.6854C6.70811 11.6088 7.03979 11.545 7.28218 11.5068C7.57559 11.4557 7.89451 11.4175 8.18792 11.3792C9.11919 11.2516 10.076 11.1113 11.0072 10.7924C11.1731 10.7286 11.3262 10.6776 11.4665 10.6138C11.5558 10.5755 11.6196 10.5372 11.6961 10.499C11.7854 10.4607 11.8492 10.4224 11.913 10.3841C12.2319 10.2056 12.5126 10.0014 12.7549 9.77181C13.0228 9.51667 13.2397 9.23602 13.4056 8.92985C13.5842 8.61092 13.699 8.26648 13.7755 7.92204C13.9031 7.28419 13.8776 6.58255 13.6862 5.84264C13.5204 5.21755 13.2525 4.59246 12.8953 3.98012C12.7294 3.71222 12.5508 3.44432 12.3212 3.15091C12.1043 2.88301 11.9002 2.62787 11.6323 2.38549C11.492 2.25792 11.3517 2.1431 11.1986 2.04105C11.0455 1.93899 10.8797 1.83693 10.7138 1.76039C10.5352 1.67109 10.3566 1.60731 10.178 1.56904C9.99942 1.51801 9.80807 1.49249 9.61671 1.46698C9.51466 1.45422 9.4126 1.45422 9.29779 1.45422C9.04265 1.45422 8.78751 1.47974 8.51961 1.54352C8.18792 1.60731 7.85624 1.72212 7.52456 1.87521C6.93774 2.1431 6.38918 2.5003 5.85339 2.97231C5.41965 3.35502 5.02418 3.81428 4.56493 4.45213C4.30979 4.80932 4.0674 5.17928 3.83777 5.53648C3.73572 5.70232 3.63366 5.8554 3.51885 6.02124C3.34025 6.28914 3.17441 6.53152 3.00857 6.74839C2.90651 6.87596 2.81721 6.96526 2.72791 7.05456V7.06732L2.68964 7.10559C2.67688 7.11835 2.65137 7.14386 2.62586 7.15662C2.58759 7.18213 2.53656 7.20765 2.49829 7.23316C2.40899 7.27143 2.30693 7.29695 2.19212 7.29695C2.0773 7.29695 1.96249 7.28419 1.83492 7.24592C1.72011 7.20765 1.60529 7.16938 1.46497 7.09283C1.46497 7.15662 1.47772 7.2204 1.47772 7.28419C1.57978 7.33522 1.69459 7.37349 1.79665 7.399C1.93698 7.43727 2.06455 7.46279 2.19212 7.46279C2.31969 7.46279 2.44726 7.43727 2.56207 7.38625C2.6131 7.36073 2.67688 7.33522 2.72791 7.29695C2.75343 7.28419 2.77894 7.25868 2.80445 7.23316L2.84273 7.19489L2.881 7.15662C2.98305 7.05456 3.07235 6.95251 3.17441 6.83769C3.36576 6.60807 3.53161 6.35293 3.69745 6.09779C4.04189 5.5875 4.36081 5.05171 4.73077 4.54143C5.10072 4.03115 5.49619 3.52086 5.99371 3.08712C6.49124 2.66614 7.02703 2.28343 7.62662 2.01553C7.93278 1.87521 8.25171 1.76039 8.58339 1.69661C8.82578 1.64558 9.08092 1.62007 9.33606 1.62007C9.43811 1.62007 9.54017 1.62007 9.64223 1.63282C9.82083 1.64558 9.99942 1.68385 10.178 1.73488C10.3566 1.78591 10.5225 1.84969 10.6883 1.92623C10.8541 2.00278 11.0072 2.09208 11.1603 2.19413C11.3006 2.29619 11.441 2.411 11.5685 2.52581C11.8364 2.7682 12.0406 3.01058 12.2447 3.27848C12.4488 3.53362 12.6401 3.80152 12.806 4.08217C13.1504 4.64348 13.4183 5.25582 13.5842 5.89367C13.75 6.54428 13.801 7.23316 13.6735 7.90928C13.6097 8.24097 13.4821 8.57265 13.3163 8.87882C13.1504 9.18499 12.9335 9.45289 12.6912 9.68251C12.4488 9.91214 12.1681 10.1163 11.8875 10.2693C11.8109 10.3076 11.7471 10.3459 11.6706 10.3841C11.5941 10.4224 11.5175 10.4607 11.4537 10.4862C11.3006 10.55 11.1603 10.6138 11.0072 10.6648C9.78255 11.0858 8.51961 11.1878 7.30769 11.3792C7.00152 11.4302 6.70811 11.4813 6.4147 11.5578C6.12128 11.6343 5.84063 11.7236 5.59825 11.864C5.35586 12.0043 5.15175 12.1829 5.03694 12.4125C4.99867 12.5018 4.96039 12.5911 4.94764 12.6804C4.99867 12.7059 5.04969 12.7314 5.10072 12.7697C5.11348 12.6677 5.13899 12.5656 5.19002 12.4891C5.22829 12.2594 5.39413 12.1063 5.62376 11.966Z" fill="url(#paint5_radial)"/>
<path d="M4.59016 12.1831C4.6667 12.0173 4.78152 11.8769 4.90909 11.7494C5.03666 11.6218 5.18974 11.5325 5.33007 11.4432C5.62348 11.2901 5.94241 11.1753 6.24858 11.0988C6.55475 11.0222 6.87367 10.9584 7.17984 10.9074C7.48601 10.8564 7.79218 10.8054 8.09835 10.7671C8.40452 10.7161 8.71069 10.665 9.01685 10.614C9.61644 10.4992 10.216 10.3716 10.7773 10.1547C10.9177 10.1037 11.058 10.0399 11.1856 9.97615C11.2493 9.95063 11.3131 9.91236 11.3769 9.87409C11.4407 9.83582 11.5045 9.79755 11.5683 9.75928C11.8106 9.60619 12.0403 9.42759 12.2444 9.22348C12.4357 9.01937 12.6016 8.78974 12.7164 8.5346C12.8312 8.27946 12.9078 8.01156 12.946 7.74366C13.0226 7.19511 12.9333 6.62105 12.7547 6.07249C12.5761 5.52394 12.3082 5.0009 11.9892 4.50338C11.8234 4.26099 11.6576 4.01861 11.479 3.78898C11.3897 3.67417 11.2876 3.55936 11.1983 3.4573C11.1473 3.39351 11.109 3.35524 11.058 3.30422C11.007 3.25319 10.9559 3.20216 10.9177 3.16389C10.8156 3.07459 10.7135 2.98529 10.5987 2.90875C10.4967 2.83221 10.3819 2.76842 10.267 2.70463C10.0374 2.58982 9.78228 2.50052 9.52714 2.46225C9.39957 2.43674 9.25924 2.43674 9.13167 2.43674C8.72344 2.43674 8.30246 2.52604 7.90699 2.67912C7.63909 2.78118 7.3712 2.90875 7.11606 3.04907C6.86092 3.1894 6.61853 3.368 6.38891 3.5466C6.27409 3.6359 6.15928 3.73795 6.05722 3.84001C5.95517 3.94207 5.85311 4.04412 5.75105 4.15894C5.54694 4.37581 5.35558 4.61819 5.17699 4.86057C4.80703 5.34534 4.47535 5.86838 4.11815 6.37866C3.93955 6.6338 3.7482 6.88894 3.54409 7.14408C3.44203 7.27165 3.32722 7.38647 3.19965 7.50128L3.14862 7.53955L3.09759 7.57782C3.05932 7.60334 3.02105 7.62885 2.98278 7.65437C2.90623 7.70539 2.81693 7.74366 2.72764 7.78194C2.57455 7.83296 2.40871 7.85848 2.25562 7.85848C2.23011 7.85848 2.2046 7.85848 2.17908 7.85848C2.00048 7.84572 1.82189 7.80745 1.6688 7.75642C1.61777 7.74366 1.56674 7.71815 1.51572 7.69264C1.52847 7.75642 1.52847 7.82021 1.54123 7.88399C1.56674 7.90951 1.59226 7.90951 1.61777 7.92226C1.82189 7.99881 2.00048 8.02432 2.17908 8.03708C2.2046 8.03708 2.23011 8.03708 2.25562 8.03708C2.44698 8.03708 2.62558 8.01156 2.77866 7.94778C2.88072 7.90951 2.97002 7.85848 3.05932 7.80745C3.09759 7.78194 3.14862 7.74366 3.18689 7.71815L3.23792 7.67988L3.28894 7.64161C3.40376 7.53955 3.51857 7.41198 3.64614 7.27165C3.87577 6.991 4.07988 6.71034 4.23297 6.49347C4.34778 6.34039 4.44984 6.17455 4.55189 6.02146C4.79428 5.65151 5.03666 5.30707 5.27904 4.97539C5.45764 4.733 5.649 4.50338 5.84035 4.28651C5.94241 4.17169 6.04446 4.06964 6.14652 3.98034C6.23582 3.89104 6.33788 3.8145 6.46545 3.69968C6.69507 3.52109 6.93746 3.35524 7.17984 3.21492C7.43498 3.07459 7.69012 2.94702 7.94526 2.85772C8.35349 2.70463 8.74896 2.62809 9.11891 2.62809C9.24648 2.62809 9.37405 2.64085 9.48886 2.65361C9.73125 2.69188 9.96088 2.76842 10.1777 2.87048C10.2798 2.9215 10.3819 2.98529 10.4967 3.06183C10.5987 3.12562 10.7008 3.21492 10.7901 3.30422C10.8411 3.35524 10.8921 3.39351 10.9304 3.44454C10.9687 3.48281 11.007 3.52109 11.0452 3.57211L11.0707 3.59763C11.1728 3.71244 11.2621 3.8145 11.3514 3.92931C11.5172 4.13342 11.6831 4.36305 11.8617 4.63095C12.1934 5.14123 12.4485 5.65151 12.6016 6.14903C12.7929 6.7231 12.844 7.2589 12.7802 7.74366C12.7419 8.01156 12.6654 8.2667 12.5633 8.48357C12.4485 8.7132 12.2954 8.93007 12.1168 9.13418C11.9382 9.32554 11.7213 9.49138 11.479 9.64446C11.4152 9.68273 11.3514 9.72101 11.3004 9.74652C11.2493 9.77203 11.1728 9.8103 11.109 9.83582C10.9814 9.8996 10.8539 9.95063 10.7135 10.0017C10.2415 10.1803 9.69298 10.3206 8.99134 10.4609C8.67241 10.5247 8.35349 10.5757 8.08559 10.614L7.95802 10.6268C7.70288 10.665 7.43498 10.7033 7.16708 10.7543C6.88643 10.8054 6.5675 10.8564 6.22306 10.9457C5.84035 11.0477 5.53418 11.1626 5.26629 11.3029C5.08769 11.4049 4.9346 11.507 4.80703 11.6346C4.65395 11.7749 4.53913 11.9407 4.44984 12.1193C4.41156 12.1831 4.38605 12.2469 4.37329 12.3234C4.42432 12.3617 4.46259 12.3872 4.51362 12.4127C4.52638 12.3362 4.55189 12.2597 4.59016 12.1831Z" fill="url(#paint6_radial)"/>
<path d="M4.59016 12.1831C4.6667 12.0173 4.78152 11.8769 4.90909 11.7494C5.03666 11.6218 5.18974 11.5325 5.33007 11.4432C5.62348 11.2901 5.94241 11.1753 6.24858 11.0988C6.55475 11.0222 6.87367 10.9584 7.17984 10.9074C7.48601 10.8564 7.79218 10.8054 8.09835 10.7671C8.40452 10.7161 8.71069 10.665 9.01685 10.614C9.61644 10.4992 10.216 10.3716 10.7773 10.1547C10.9177 10.1037 11.058 10.0399 11.1856 9.97615C11.2493 9.95063 11.3131 9.91236 11.3769 9.87409C11.4407 9.83582 11.5045 9.79755 11.5683 9.75928C11.8106 9.60619 12.0403 9.42759 12.2444 9.22348C12.4357 9.01937 12.6016 8.78974 12.7164 8.5346C12.8312 8.27946 12.9078 8.01156 12.946 7.74366C13.0226 7.19511 12.9333 6.62105 12.7547 6.07249C12.5761 5.52394 12.3082 5.0009 11.9892 4.50338C11.8234 4.26099 11.6576 4.01861 11.479 3.78898C11.3897 3.67417 11.2876 3.55936 11.1983 3.4573C11.1473 3.39351 11.109 3.35524 11.058 3.30422C11.007 3.25319 10.9559 3.20216 10.9177 3.16389C10.8156 3.07459 10.7135 2.98529 10.5987 2.90875C10.4967 2.83221 10.3819 2.76842 10.267 2.70463C10.0374 2.58982 9.78228 2.50052 9.52714 2.46225C9.39957 2.43674 9.25924 2.43674 9.13167 2.43674C8.72344 2.43674 8.30246 2.52604 7.90699 2.67912C7.63909 2.78118 7.3712 2.90875 7.11606 3.04907C6.86092 3.1894 6.61853 3.368 6.38891 3.5466C6.27409 3.6359 6.15928 3.73795 6.05722 3.84001C5.95517 3.94207 5.85311 4.04412 5.75105 4.15894C5.54694 4.37581 5.35558 4.61819 5.17699 4.86057C4.80703 5.34534 4.47535 5.86838 4.11815 6.37866C3.93955 6.6338 3.7482 6.88894 3.54409 7.14408C3.44203 7.27165 3.32722 7.38647 3.19965 7.50128L3.14862 7.53955L3.09759 7.57782C3.05932 7.60334 3.02105 7.62885 2.98278 7.65437C2.90623 7.70539 2.81693 7.74366 2.72764 7.78194C2.57455 7.83296 2.40871 7.85848 2.25562 7.85848C2.23011 7.85848 2.2046 7.85848 2.17908 7.85848C2.00048 7.84572 1.82189 7.80745 1.6688 7.75642C1.61777 7.74366 1.56674 7.71815 1.51572 7.69264C1.52847 7.75642 1.52847 7.82021 1.54123 7.88399C1.56674 7.90951 1.59226 7.90951 1.61777 7.92226C1.82189 7.99881 2.00048 8.02432 2.17908 8.03708C2.2046 8.03708 2.23011 8.03708 2.25562 8.03708C2.44698 8.03708 2.62558 8.01156 2.77866 7.94778C2.88072 7.90951 2.97002 7.85848 3.05932 7.80745C3.09759 7.78194 3.14862 7.74366 3.18689 7.71815L3.23792 7.67988L3.28894 7.64161C3.40376 7.53955 3.51857 7.41198 3.64614 7.27165C3.87577 6.991 4.07988 6.71034 4.23297 6.49347C4.34778 6.34039 4.44984 6.17455 4.55189 6.02146C4.79428 5.65151 5.03666 5.30707 5.27904 4.97539C5.45764 4.733 5.649 4.50338 5.84035 4.28651C5.94241 4.17169 6.04446 4.06964 6.14652 3.98034C6.23582 3.89104 6.33788 3.8145 6.46545 3.69968C6.69507 3.52109 6.93746 3.35524 7.17984 3.21492C7.43498 3.07459 7.69012 2.94702 7.94526 2.85772C8.35349 2.70463 8.74896 2.62809 9.11891 2.62809C9.24648 2.62809 9.37405 2.64085 9.48886 2.65361C9.73125 2.69188 9.96088 2.76842 10.1777 2.87048C10.2798 2.9215 10.3819 2.98529 10.4967 3.06183C10.5987 3.12562 10.7008 3.21492 10.7901 3.30422C10.8411 3.35524 10.8921 3.39351 10.9304 3.44454C10.9687 3.48281 11.007 3.52109 11.0452 3.57211L11.0707 3.59763C11.1728 3.71244 11.2621 3.8145 11.3514 3.92931C11.5172 4.13342 11.6831 4.36305 11.8617 4.63095C12.1934 5.14123 12.4485 5.65151 12.6016 6.14903C12.7929 6.7231 12.844 7.2589 12.7802 7.74366C12.7419 8.01156 12.6654 8.2667 12.5633 8.48357C12.4485 8.7132 12.2954 8.93007 12.1168 9.13418C11.9382 9.32554 11.7213 9.49138 11.479 9.64446C11.4152 9.68273 11.3514 9.72101 11.3004 9.74652C11.2493 9.77203 11.1728 9.8103 11.109 9.83582C10.9814 9.8996 10.8539 9.95063 10.7135 10.0017C10.2415 10.1803 9.69298 10.3206 8.99134 10.4609C8.67241 10.5247 8.35349 10.5757 8.08559 10.614L7.95802 10.6268C7.70288 10.665 7.43498 10.7033 7.16708 10.7543C6.88643 10.8054 6.5675 10.8564 6.22306 10.9457C5.84035 11.0477 5.53418 11.1626 5.26629 11.3029C5.08769 11.4049 4.9346 11.507 4.80703 11.6346C4.65395 11.7749 4.53913 11.9407 4.44984 12.1193C4.41156 12.1831 4.38605 12.2469 4.37329 12.3234C4.42432 12.3617 4.46259 12.3872 4.51362 12.4127C4.52638 12.3362 4.55189 12.2597 4.59016 12.1831Z" fill="url(#paint7_radial)"/>
<ellipse cx="8" cy="14.4" rx="8" ry="0.8" fill="url(#paint8_radial)"/>
<defs>
<radialGradient id="paint0_radial" cx="0" cy="0" r="1" gradientUnits="userSpaceOnUse" gradientTransform="translate(5.54821 3.60503) scale(12.9301)">
<stop stop-color="#EEE809"/>
<stop offset="0.4485" stop-color="#A4CD39"/>
<stop offset="0.6242" stop-color="#71A73E"/>
<stop offset="0.6955" stop-color="#7AB03E"/>
<stop offset="0.8527" stop-color="#87BF3F"/>
<stop offset="1" stop-color="#8DC63F"/>
</radialGradient>
<radialGradient id="paint1_radial" cx="0" cy="0" r="1" gradientUnits="userSpaceOnUse" gradientTransform="translate(5.54815 3.6053) scale(12.9296)">
<stop stop-color="#EEE809"/>
<stop offset="0.4485" stop-color="#A4CD39"/>
<stop offset="0.6242" stop-color="#71A73E"/>
<stop offset="0.6955" stop-color="#7AB03E"/>
<stop offset="0.8527" stop-color="#87BF3F"/>
<stop offset="1" stop-color="#8DC63F"/>
</radialGradient>
<radialGradient id="paint2_radial" cx="0" cy="0" r="1" gradientUnits="userSpaceOnUse" gradientTransform="translate(6.29599 4.95291) scale(11.4855)">
<stop stop-color="#EEE809"/>
<stop offset="0.4485" stop-color="#A4CD39"/>
<stop offset="0.6242" stop-color="#71A73E"/>
<stop offset="0.6955" stop-color="#7AB03E"/>
<stop offset="0.8527" stop-color="#87BF3F"/>
<stop offset="1" stop-color="#8DC63F"/>
</radialGradient>
<radialGradient id="paint3_radial" cx="0" cy="0" r="1" gradientUnits="userSpaceOnUse" gradientTransform="translate(7.69709 4.87081) scale(10.1798)">
<stop offset="0.1879" stop-color="white"/>
<stop offset="0.2827" stop-color="#F7F7F7"/>
<stop offset="0.4182" stop-color="#E3E3E3"/>
<stop offset="0.4665" stop-color="#D1D1D1"/>
<stop offset="0.5394" stop-color="#ADADAD"/>
<stop offset="0.6296" stop-color="#C4C4C4"/>
<stop offset="0.7834" stop-color="#E4E4E4"/>
<stop offset="0.9124" stop-color="#F8F8F8"/>
<stop offset="1" stop-color="white"/>
</radialGradient>
<radialGradient id="paint4_radial" cx="0" cy="0" r="1" gradientUnits="userSpaceOnUse" gradientTransform="translate(6.29622 4.95299) scale(11.4854)">
<stop stop-color="#EEE809"/>
<stop offset="0.4485" stop-color="#A4CD39"/>
<stop offset="0.6242" stop-color="#71A73E"/>
<stop offset="0.6955" stop-color="#7AB03E"/>
<stop offset="0.8527" stop-color="#87BF3F"/>
<stop offset="1" stop-color="#8DC63F"/>
</radialGradient>
<radialGradient id="paint5_radial" cx="0" cy="0" r="1" gradientUnits="userSpaceOnUse" gradientTransform="translate(8.71705 1.96638) scale(7.70405)">
<stop stop-color="#EEE809"/>
<stop offset="0.4485" stop-color="#A4CD39"/>
<stop offset="0.7576" stop-color="#71A73E"/>
<stop offset="0.901" stop-color="#73A93E"/>
<stop offset="0.9527" stop-color="#7AB03E"/>
<stop offset="0.9894" stop-color="#87BE3F"/>
<stop offset="1" stop-color="#8DC63F"/>
</radialGradient>
<radialGradient id="paint6_radial" cx="0" cy="0" r="1" gradientUnits="userSpaceOnUse" gradientTransform="translate(6.29584 4.95333) scale(11.4855)">
<stop stop-color="#EEE809"/>
<stop offset="0.4485" stop-color="#A4CD39"/>
<stop offset="0.6242" stop-color="#71A73E"/>
<stop offset="0.6955" stop-color="#7AB03E"/>
<stop offset="0.8527" stop-color="#87BF3F"/>
<stop offset="1" stop-color="#8DC63F"/>
</radialGradient>
<radialGradient id="paint7_radial" cx="0" cy="0" r="1" gradientUnits="userSpaceOnUse" gradientTransform="translate(9.263 9.0323) scale(5.32065)">
<stop stop-color="#EEE809"/>
<stop offset="0.4485" stop-color="#A4CD39"/>
<stop offset="0.6788" stop-color="#71A73E"/>
<stop offset="0.8689" stop-color="#73A93E"/>
<stop offset="0.9373" stop-color="#7AB03E"/>
<stop offset="0.9859" stop-color="#87BE3F"/>
<stop offset="1" stop-color="#8DC63F"/>
</radialGradient>
<radialGradient id="paint8_radial" cx="0" cy="0" r="1" gradientUnits="userSpaceOnUse" gradientTransform="translate(8 14.4) rotate(90) scale(0.8 8)">
<stop stop-color="#4A4A4A"/>
<stop offset="1" stop-color="#C4C4C4" stop-opacity="0"/>
</radialGradient>
</defs>
</svg>
