<svg width="30" height="29" viewBox="0 0 30 29" fill="none" xmlns="http://www.w3.org/2000/svg">
<path d="M30 15.9739C30 7.42843 23.2838 0.5 15 0.5C6.71625 0.5 0 7.42843 0 15.9739C0 21.1318 2.45625 25.6889 6.2175 28.5C6.44 28.2834 6.6875 28.0887 6.96375 27.9339L11.005 25.6605C11.535 25.3627 11.865 24.7888 11.865 24.166V22.4574C11.865 22.4574 10.6788 20.9939 10.2262 18.9616C9.85125 18.7115 9.6 18.2782 9.6 17.7856V15.9171C9.6 15.5058 9.7775 15.1383 10.0525 14.8817V12.1789C10.0525 12.1789 9.515 7.97389 15.035 7.97389C20.555 7.97389 20.0175 12.1789 20.0175 12.1789V14.8817C20.2938 15.1383 20.47 15.5058 20.47 15.9171V17.7856C20.47 18.4136 20.0612 18.9423 19.5062 19.119C19.1975 20.1106 18.7512 21.0558 18.1612 21.9146C18.0125 22.1312 17.8737 22.3143 17.7525 22.4574V24.2086C17.7525 24.8533 18.1062 25.4426 18.665 25.7315L22.9913 27.9636C23.2675 28.1067 23.5162 28.2885 23.7425 28.491C27.5187 25.6825 30 21.1422 30 15.9739Z" fill="#109CF1"/>
</svg>
