<svg width="24" height="23" viewBox="0 0 24 23" fill="none" xmlns="http://www.w3.org/2000/svg">
<path d="M22.7961 13.1379C22.7949 13.2533 22.7006 13.3458 22.5853 13.345H6.90761C6.40962 12.7755 5.9802 12.1496 5.6281 11.48L5.51765 11.2787C5.42959 11.1196 5.47173 10.92 5.6166 10.8101L6.97164 9.75609C7.44029 9.38899 7.54827 8.72344 7.21972 8.22698L6.3087 6.85966V1.27773C6.30807 1.22161 6.33009 1.1676 6.36976 1.12792C6.40944 1.08825 6.46345 1.06623 6.51957 1.06686H22.5852C22.6413 1.06623 22.6954 1.08825 22.735 1.12792C22.7747 1.1676 22.7967 1.22161 22.7961 1.27773L22.7961 13.1379Z" fill="#109CF1"/>
<path d="M10.8669 17.7587L11.0617 17.8656C11.5513 18.1394 12.1676 18.0124 12.5091 17.5673L13.5628 16.2127C13.6826 16.0601 13.8993 16.0249 14.0612 16.1318L17.6804 18.5443C17.8448 18.6539 17.8942 18.8733 17.7927 19.0427L16.8852 20.5558C16.6956 20.8808 16.3877 21.1198 16.0259 21.2229C14.2134 21.7214 11.0414 21.2996 6.22701 16.4849C1.41267 11.6702 0.992498 8.49846 1.48977 6.68753C1.5928 6.32577 1.83171 6.01789 2.15653 5.82827L3.66956 4.92031C3.83909 4.81903 4.05832 4.86841 4.168 5.03264L6.58167 8.65182C6.6887 8.81367 6.65352 9.0306 6.50074 9.15026L5.1457 10.2043C4.70073 10.5457 4.57366 11.1619 4.84739 11.6514L4.95473 11.8461L4.95542 11.8474C5.33871 12.5504 5.81578 13.4254 7.55209 15.1613C9.28946 16.8982 10.1641 17.3752 10.8669 17.7587Z" fill="#109CF1"/>
<path d="M21.2647 2.07529L14.8565 6.93524C14.6752 7.06698 14.4297 7.06698 14.2484 6.93524L7.8425 2.07529C7.67373 1.94727 7.43311 1.98034 7.30514 2.14911C7.17713 2.31788 7.2102 2.5585 7.37897 2.68647L13.7856 7.54601C14.2414 7.88274 14.8635 7.88274 15.3193 7.54601L21.728 2.68647C21.8091 2.625 21.8624 2.53378 21.8762 2.43295C21.89 2.33212 21.8632 2.22995 21.8016 2.14893C21.6736 1.98048 21.4334 1.94754 21.2647 2.07529Z" fill="white"/>
<path d="M11.2802 7.5781L7.35238 11.7843C7.20797 11.9392 7.21646 12.1819 7.37134 12.3263C7.52623 12.4707 7.76891 12.4622 7.91332 12.3073L11.8412 8.09924C11.971 7.94269 11.9559 7.71205 11.8069 7.57361C11.658 7.43517 11.4268 7.43715 11.2802 7.5781Z" fill="white"/>
<path d="M17.85 7.57815C17.7056 7.42326 17.4629 7.41473 17.308 7.55919C17.1531 7.7036 17.1446 7.94624 17.289 8.10117L21.2157 12.3074C21.3602 12.4623 21.6028 12.4708 21.7577 12.3264C21.9126 12.1819 21.9211 11.9393 21.7767 11.7844L17.85 7.57815Z" fill="white"/>
</svg>
