<svg width="24" height="18" viewBox="0 0 24 18" fill="none" xmlns="http://www.w3.org/2000/svg">
<g clip-path="url(#clip0)">
<rect width="24" height="18" fill="white"/>
<rect width="24" height="18" fill="url(#paint0_linear)"/>
<path d="M21.8906 -0.140625H2.10939C1.78469 -0.140625 1.4807 -0.0607969 1.20569 0.070781L11.9531 10.8182L14.362 8.5032C14.362 8.5032 14.3622 8.50297 14.3622 8.50288C14.3623 8.50278 14.3624 8.50269 14.3624 8.50269L22.7946 0.0709684C22.5196 -0.0607033 22.2154 -0.140625 21.8906 -0.140625Z" fill="#109CF1"/>
<path d="M23.7889 0.900024L15.8538 8.83473L23.7886 16.7696C23.9202 16.4946 24 16.1906 24 15.8659V1.8034C24 1.47888 23.9204 1.17495 23.7889 0.900024Z" fill="#109CF1"/>
<path d="M0.211406 1.06506C0.079828 1.34008 0 1.64406 0 1.96876V16.0312C0 16.3558 0.0797342 16.6598 0.211218 16.9347L8.14634 9L0.211406 1.06506Z" fill="#109CF1"/>
<path d="M14.8594 9.99436L12.4502 12.3096C12.3129 12.447 12.133 12.5157 11.9531 12.5157C11.7733 12.5157 11.5933 12.447 11.456 12.3096L9.14059 9.99426L1.20532 17.929C1.48038 18.0607 1.78456 18.1406 2.10935 18.1406H21.8906C22.2153 18.1406 22.5193 18.0608 22.7943 17.9292L14.8594 9.99436Z" fill="#109CF1"/>
</g>
<defs>
<linearGradient id="paint0_linear" x1="12" y1="0" x2="12" y2="18" gradientUnits="userSpaceOnUse">
<stop stop-color="white"/>
<stop offset="1" stop-color="white" stop-opacity="0"/>
</linearGradient>
<clipPath id="clip0">
<rect width="24" height="18" fill="white"/>
</clipPath>
</defs>
</svg>
