<svg width="189" height="33" viewBox="0 0 189 33" fill="none" xmlns="http://www.w3.org/2000/svg">
<g clip-path="url(#clip0)">
<path fill-rule="evenodd" clip-rule="evenodd" d="M22.0105 3.16089L32.9078 11.7231L20.0645 16.9122L22.0105 3.16089ZM5.05933 22.3608L7.00527 8.43653L19.1134 3.55004L5.05933 22.3608ZM20.4537 4.11218L6.87536 22.1879L18.551 17.4743L20.4537 4.11218ZM5.92397 24.6095L16.3888 32.7825L17.3402 26.2095L5.92397 24.6095ZM7.48098 23.442L17.5134 24.869L18.335 19.0744L7.48098 23.442ZM19.8052 18.469L18.8971 25.042L31.4809 26.815L33.4268 12.9771L19.8052 18.469ZM30.0971 28.0258L17.7728 32.9988L18.6809 26.4258L30.0971 28.0258Z" fill="url(#paint0_linear)"/>
<path d="M147.036 6.15533C150.96 6.15533 153.659 7.10021 155.13 8.98996C156.602 10.8797 157.052 14.0019 156.438 18.3976C155.866 22.7112 154.64 25.7512 152.759 27.5588C150.879 29.3664 148.058 30.2702 144.215 30.2702C140.331 30.2702 137.633 29.3253 136.12 27.4355C134.608 25.5458 134.158 22.4236 134.73 18.11C135.303 13.7965 136.529 10.7565 138.369 8.94888C140.29 7.05913 143.152 6.15533 147.036 6.15533ZM147.036 9.97591C144.624 9.97591 142.907 10.5511 141.803 11.7013C140.699 12.8516 139.922 15.07 139.432 18.3565C138.982 21.5198 139.105 23.656 139.8 24.7652C140.454 25.8744 141.966 26.4085 144.256 26.4085C146.668 26.4085 148.426 25.7923 149.529 24.6009C150.633 23.4096 151.369 21.1912 151.819 18.0279C152.269 14.8646 152.187 12.7284 151.533 11.6192C150.838 10.5511 149.325 9.97591 147.036 9.97591Z" fill="#828383"/>
<path d="M164.398 6.77156L164.153 11.7013C168.241 8.004 171.838 6.15533 174.905 6.15533C176.826 6.15533 178.298 6.73048 179.279 7.79859C180.26 8.9078 180.628 10.51 180.301 12.564L177.889 29.6129H173.433L175.64 13.6733C175.845 12.2354 175.763 11.2494 175.477 10.7565C175.191 10.2224 174.537 9.97591 173.555 9.97591C172.288 9.97591 170.939 10.3867 169.59 11.1673C168.2 11.9478 166.401 13.2214 164.153 14.9879L162.149 29.6129H157.612L160.841 6.77156H164.398Z" fill="#828383"/>
<path d="M77.4554 7.22348C77.0875 6.89482 76.6378 6.7305 76.1063 6.7305H70.4238C69.3608 6.7305 68.625 7.22348 68.2161 8.20943L59.0586 29.6129H65.5179L67.6029 24.2723H74.5528L75.0843 29.6129H81.2983L78.0687 8.45592C78.0278 7.96294 77.8234 7.55213 77.4554 7.22348ZM69.4426 19.5479L71.7729 13.6733C72.0181 12.9338 72.2634 12.1533 72.4678 11.3316H73.4081C73.4081 12.3997 73.449 13.1803 73.4899 13.7144L74.1031 19.5479H69.4426Z" fill="#4F4F4F"/>
<path d="M112.082 6.7305H106.4C105.051 6.7305 104.233 7.34672 103.906 8.57917L100.431 19.0139C100.022 20.3285 99.695 21.4377 99.4906 22.3004H99.0818C99.1227 20.7804 99.1227 19.6712 99.0409 18.9317L98.2233 8.78457C98.1824 8.12727 97.978 7.63429 97.61 7.26456C97.2421 6.89482 96.7106 6.7305 96.0565 6.7305H90.5784C89.8834 6.7305 89.3519 6.89482 88.984 7.22348C88.616 7.55213 88.3707 8.08619 88.2481 8.82566L84.5278 29.6129H90.2104L93.3583 11.4549H93.8898L94.9936 24.108C95.0345 24.7653 95.2389 25.2583 95.6477 25.628C96.0156 25.9977 96.5471 26.1621 97.2421 26.1621H100.717C102.025 26.1621 102.884 25.5458 103.252 24.3545L107.79 11.4549H108.28L106.4 29.6129H112.082L114.126 9.03106C114.208 8.33268 114.085 7.75754 113.717 7.34672C113.35 6.93591 112.818 6.7305 112.082 6.7305Z" fill="#4F4F4F"/>
<path d="M123.938 24.8474C123.407 24.8474 122.998 24.7242 122.793 24.5188C122.589 24.3134 122.507 23.9025 122.63 23.4096L123.079 19.9587H130.561C130.602 19.3014 130.683 18.6852 130.806 17.9868C130.929 17.2063 131.051 16.4257 131.174 15.7273H123.652L124.02 13.0159C124.102 12.4408 124.265 12.03 124.51 11.8246C124.756 11.6192 125.205 11.4959 125.778 11.4959H132.278C132.891 9.77051 133.586 8.25049 134.445 7.01805C132.36 6.77156 128.803 6.64832 123.693 6.64832C122.057 6.64832 120.749 7.05913 119.809 7.92184C118.828 8.78455 118.255 9.93484 118.01 11.4549L116.293 23.8615C116.048 25.6691 116.375 27.0658 117.233 28.1339C118.133 29.2021 119.482 29.7361 121.362 29.7361C126.35 29.7361 129.825 29.6129 131.706 29.4075C131.092 28.1339 130.683 26.6139 130.52 24.8885H123.938V24.8474Z" fill="#4F4F4F"/>
<path d="M49.1651 16.3847H57.9548L56.1151 29.5718H51.5772L51.3319 26.8604C49.2878 28.9967 47.0802 30.0648 44.5864 30.0648C39.5988 30.0648 37.6773 25.9977 38.7403 17.9047C39.0673 15.5219 39.517 13.55 40.1302 12.03C40.7435 10.51 41.5202 9.31864 42.5423 8.45592C43.5643 7.59321 44.709 7.01807 46.0172 6.68942C47.2846 6.36077 48.9199 6.19644 50.8004 6.19644C53.5395 6.19644 55.9924 6.52509 58.1183 7.14132L57.3824 11.6192C55.0521 11.537 52.7628 11.537 50.5551 11.537C48.7972 11.537 47.5708 11.9889 46.8349 12.9338C46.099 13.8376 45.5675 15.6863 45.1587 18.3976C44.8317 20.9036 44.7908 22.588 45.077 23.4507C45.3631 24.3134 46.099 24.7242 47.3255 24.7242C47.8978 24.7242 48.4293 24.642 48.9199 24.4777C49.4104 24.3134 49.7784 24.108 50.0237 23.9436C50.269 23.7793 50.596 23.4918 51.0457 23.1631L51.6998 18.6441L49.1651 16.3847Z" fill="#4F4F4F"/>
</g>
<defs>
<linearGradient id="paint0_linear" x1="4.98109" y1="24.2304" x2="33.8506" y2="15.044" gradientUnits="userSpaceOnUse">
<stop stop-color="#109CF1"/>
<stop offset="1" stop-color="#0B70AD"/>
</linearGradient>
<clipPath id="clip0">
<rect width="188.453" height="32.3774" fill="white" transform="translate(0 0.570007)"/>
</clipPath>
</defs>
</svg>
