<svg width="23" height="21" viewBox="0 0 23 21" fill="none" xmlns="http://www.w3.org/2000/svg">
<path d="M22.4106 10.1072C22.3628 9.99288 22.2944 9.88889 22.2073 9.80177L19.3978 6.99228C19.0315 6.62692 18.4395 6.62692 18.0732 6.99228C17.7069 7.35855 17.7069 7.95155 18.0732 8.3169L19.2845 9.52819H10.4386C9.92059 9.52819 9.50184 9.94787 9.50184 10.465C9.50184 10.9821 9.92059 11.4018 10.4386 11.4018H19.2844L18.0732 12.6131C17.7069 12.9793 17.7069 13.5723 18.0732 13.9377C18.2558 14.1213 18.4956 14.2122 18.7355 14.2122C18.9753 14.2122 19.2151 14.1213 19.3978 13.9377L22.2073 11.1282C22.2944 11.042 22.3628 10.938 22.4106 10.8228C22.5052 10.5943 22.5052 10.3357 22.4106 10.1072Z" fill="#828282"/>
<path d="M15.9256 13.2756C15.4076 13.2756 14.9889 13.6953 14.9889 14.2124V18.8964H1.60595V2.03396H14.9889V6.718C14.9889 7.23512 15.4076 7.65479 15.9256 7.65479C16.4437 7.65479 16.8624 7.23512 16.8624 6.718V1.09717C16.8624 0.580013 16.4437 0.160339 15.9256 0.160339H0.93679C0.903065 0.160339 0.873073 0.174391 0.840314 0.178124C0.796269 0.182823 0.756001 0.190288 0.713845 0.200607C0.615481 0.225901 0.52647 0.264325 0.443123 0.316756C0.422528 0.329886 0.397234 0.330809 0.377562 0.345783C0.370009 0.351447 0.367198 0.361767 0.359689 0.367388C0.257592 0.447924 0.172357 0.546288 0.110528 0.663403C0.0973984 0.688697 0.094588 0.715879 0.0843124 0.742095C0.05432 0.813278 0.0215611 0.882616 0.0103195 0.961307C0.00562083 0.989411 0.0140521 1.01563 0.0131299 1.04281C0.0122077 1.06156 0 1.07842 0 1.09713V19.8332C0 20.2801 0.315689 20.6642 0.753191 20.7513C0.802975 20.9384 15.9256 20.7701 15.9256 20.7701C16.4437 20.7701 16.8624 20.3504 16.8624 19.8333V14.2124C16.8624 13.6953 16.4437 13.2756 15.9256 13.2756Z" fill="#828282"/>
</svg>
