<svg width="21" height="14" viewBox="0 0 21 14" fill="none" xmlns="http://www.w3.org/2000/svg">
<rect x="1.37085" y="1.37085" width="19" height="12" rx="0.5" fill="white" stroke="#109CF1"/>
<path d="M8.29028 9.87085H7.63062L5.12524 6.03589V9.87085H4.46558V4.89429H5.12524L7.63745 8.74634V4.89429H8.29028V9.87085ZM10.8914 9.93921C10.3901 9.93921 9.98218 9.77515 9.66772 9.44702C9.35327 9.11662 9.19604 8.6757 9.19604 8.12427V8.00806C9.19604 7.64119 9.26554 7.31421 9.40454 7.0271C9.54582 6.73771 9.74178 6.51213 9.99243 6.35034C10.2454 6.18628 10.5188 6.10425 10.8127 6.10425C11.2935 6.10425 11.6672 6.26261 11.9338 6.57935C12.2004 6.89608 12.3337 7.34953 12.3337 7.9397V8.20288H9.82837C9.83748 8.56746 9.94344 8.86255 10.1462 9.08813C10.3513 9.31144 10.6111 9.4231 10.9255 9.4231C11.1488 9.4231 11.338 9.37752 11.4929 9.28638C11.6479 9.19523 11.7834 9.07446 11.8997 8.92407L12.2859 9.22485C11.976 9.70109 11.5111 9.93921 10.8914 9.93921ZM10.8127 6.62378C10.5575 6.62378 10.3433 6.7172 10.1702 6.90405C9.99699 7.08862 9.88989 7.34839 9.84888 7.68335H11.7014V7.6355C11.6832 7.31421 11.5966 7.06584 11.4417 6.89038C11.2867 6.71265 11.0771 6.62378 10.8127 6.62378ZM16.343 8.99927L17.054 6.17261H17.6863L16.6096 9.87085H16.0969L15.198 7.06812L14.323 9.87085H13.8103L12.7371 6.17261H13.366L14.094 8.94116L14.9553 6.17261H15.4646L16.343 8.99927Z" fill="#109CF1"/>
</svg>
