<svg width="14" height="14" viewBox="0 0 14 14" fill="none" xmlns="http://www.w3.org/2000/svg">
<path d="M13.3653 12.8952L13.3587 12.8887L12.1738 11.7128L11.8303 11.3719L11.4784 11.7041C10.8739 12.2747 10.1842 12.7164 9.40602 13.0305L13.3653 12.8952ZM13.3653 12.8952L13.3716 12.902M13.3653 12.8952L13.3716 12.902M13.3716 12.902C13.3843 12.9156 13.3933 12.9226 13.3979 12.9258M13.3716 12.902L13.3979 12.9258M4.48131 1.0155L4.48133 1.01549C5.28124 0.671848 6.1194 0.5 7.00005 0.5C7.97231 0.5 8.89369 0.704347 9.76866 1.11372L9.76875 1.11376C10.5863 1.49606 11.2887 2.02384 11.8794 2.69967L10.9297 3.6565C10.4682 3.10763 9.9145 2.67373 9.27133 2.35799L9.27117 2.35791C8.55803 2.00814 7.79906 1.8331 7.0003 1.8331C6.3016 1.8331 5.63144 1.96956 4.99426 2.24267C4.36466 2.51238 3.81387 2.88005 3.34728 3.34675L3.34725 3.34678C2.88081 3.81341 2.51317 4.36393 2.24333 4.99361L2.70291 5.19056L2.24333 4.99361C1.97029 5.63078 1.83377 6.30081 1.83377 6.99974C1.83377 7.69863 1.97039 8.36893 2.24332 9.00594L2.24333 9.00597C2.51304 9.63539 2.88065 10.1862 3.34734 10.6528L4.48131 1.0155ZM4.48131 1.0155C3.67314 1.36266 2.98269 1.82615 2.40441 2.40429M4.48131 1.0155L2.40441 2.40429M4.99417 11.7569L4.99418 11.7569C5.63124 12.0299 6.30154 12.1665 7.0003 12.1665C8.34808 12.1665 9.52964 11.7023 10.521 10.7846L10.9025 10.4315L10.5349 10.0641L9.27678 8.80645L9.27101 8.80068L9.27096 8.80072C9.25413 8.78444 9.24558 8.77292 9.24169 8.76691C9.24299 8.76056 9.2462 8.74864 9.25404 8.73064L9.25564 8.72696L9.25563 8.72695C9.27132 8.69007 9.28385 8.67575 9.28794 8.67185L4.99417 11.7569ZM4.99417 11.7569C4.36461 11.487 3.81402 11.1194 3.34736 10.6528L4.99417 11.7569ZM13.3979 12.9258C13.4058 12.9249 13.4221 12.9218 13.4488 12.9111C13.4785 12.8977 13.4904 12.8872 13.4939 12.8836C13.4942 12.8828 13.4948 12.8813 13.4954 12.8789C13.4971 12.8727 13.5 12.8584 13.5 12.8333C13.5 12.8332 13.5 12.8332 13.5 12.8331V8.74984C13.5 8.73323 13.4973 8.72611 13.4961 8.72318C13.4947 8.71992 13.49 8.70979 13.4733 8.69311L13.3979 12.9258ZM2.40441 2.40429C1.82611 2.98257 1.36272 3.67298 1.01548 4.48124L2.40441 2.40429ZM13.3922 12.926C13.3922 12.926 13.3926 12.9261 13.3936 12.926C13.3927 12.9259 13.3922 12.9259 13.3922 12.926ZM7.00001 13.5C7.82853 13.5 8.62943 13.3439 9.406 13.0305L2.40441 11.5957C2.98264 12.174 3.67307 12.6374 4.48127 12.9846C5.2812 13.3282 6.11936 13.5 7.00001 13.5ZM0.500046 7C0.500046 7.88079 0.671859 8.71885 1.01544 9.51885L1.01546 4.48127C0.67186 5.28123 0.500046 6.11949 0.500046 7ZM1.01545 9.51888C1.36257 10.327 1.82607 11.0173 2.4044 11.5957L1.01545 9.51888ZM13.4951 12.8822C13.495 12.8822 13.4947 12.8825 13.4942 12.8833L13.4951 12.8822Z" fill="white" stroke="#109CF1"/>
</svg>
