<svg width="31" height="31" viewBox="0 0 31 31" fill="none" xmlns="http://www.w3.org/2000/svg">
<path d="M30 15.4739C30 6.92843 23.2838 0 15 0C6.71625 0 0 6.92843 0 15.4739C0 20.6318 2.45625 25.1889 6.2175 28C6.44 27.7834 6.6875 27.5887 6.96375 27.4339L11.005 25.1605C11.535 24.8627 11.865 24.2888 11.865 23.666V21.9574C11.865 21.9574 10.6788 20.4939 10.2262 18.4616C9.85125 18.2115 9.6 17.7782 9.6 17.2856V15.4171C9.6 15.0058 9.7775 14.6383 10.0525 14.3817V11.6789C10.0525 11.6789 9.515 7.47389 15.035 7.47389C20.555 7.47389 20.0175 11.6789 20.0175 11.6789V14.3817C20.2938 14.6383 20.47 15.0058 20.47 15.4171V17.2856C20.47 17.9136 20.0612 18.4423 19.5062 18.619C19.1975 19.6106 18.7512 20.5558 18.1612 21.4146C18.0125 21.6312 17.8737 21.8143 17.7525 21.9574V23.7086C17.7525 24.3533 18.1062 24.9426 18.665 25.2315L22.9913 27.4636C23.2675 27.6067 23.5162 27.7885 23.7425 27.991C27.5187 25.1825 30 20.6422 30 15.4739Z" fill="#109CF1"/>
<circle cx="15.5" cy="15.5" r="15.5" fill="#109CF1"/>
<g clip-path="url(#clip0)">
<path d="M23.8154 13.5495L22.4524 13.2532C22.3339 12.8903 22.1871 12.5363 22.0137 12.1954L22.7683 11.0217C22.9031 10.8119 22.8734 10.5366 22.6973 10.3604L20.5739 8.23704C20.3977 8.06088 20.1224 8.03125 19.9127 8.16601L18.7389 8.92058C18.398 8.74726 18.044 8.60046 17.6812 8.48194L17.3849 7.11893C17.3319 6.87539 17.1163 6.70166 16.8671 6.70166L13.8642 6.70166C13.615 6.70166 13.3993 6.87539 13.3464 7.11893L13.0501 8.48194C12.6872 8.60046 12.3333 8.74726 11.9923 8.92058L10.8186 8.16601C10.6089 8.03125 10.3336 8.06088 10.1574 8.23704L8.034 10.3604C7.85784 10.5366 7.8282 10.8119 7.96296 11.0217L8.71753 12.1954C8.54421 12.5363 8.39741 12.8903 8.27889 13.2532L6.91588 13.5495C6.67234 13.6025 6.49861 13.818 6.49861 14.0673L6.49861 17.0701C6.49861 17.3193 6.67234 17.5349 6.91588 17.5879L8.27889 17.8842C8.39741 18.2471 8.54421 18.601 8.71753 18.942L7.96296 20.1157C7.8282 20.3254 7.85784 20.6008 8.034 20.7769L10.1574 22.9003C10.3336 23.0765 10.6089 23.1061 10.8186 22.9714L11.9923 22.2168C12.3333 22.3901 12.6872 22.5369 13.0501 22.6554L13.3464 24.0184C13.3993 24.262 13.615 24.4357 13.8642 24.4357H16.8671C17.1163 24.4357 17.3319 24.262 17.3849 24.0184L17.6812 22.6554C18.044 22.5369 18.398 22.3901 18.7389 22.2168L19.9127 22.9714C20.1224 23.1061 20.3977 23.0766 20.5739 22.9003L22.6973 20.7769C22.8734 20.6008 22.9031 20.3254 22.7683 20.1157L22.0137 18.942C22.1871 18.601 22.3339 18.2471 22.4524 17.8842L23.8154 17.5879C24.0589 17.5349 24.2327 17.3193 24.2327 17.0701V14.0673C24.2327 13.818 24.0589 13.6025 23.8154 13.5495ZM18.545 15.5687C18.545 17.3218 17.1187 18.7481 15.3656 18.7481C13.6126 18.7481 12.1862 17.3218 12.1862 15.5687C12.1862 13.8156 13.6126 12.3893 15.3656 12.3893C17.1187 12.3893 18.545 13.8156 18.545 15.5687Z" fill="white"/>
<circle cx="15.3657" cy="15.5687" r="4.72908" fill="white"/>
<circle cx="15.3656" cy="15.5687" r="3.54681" fill="#109CF1"/>
</g>
<defs>
<clipPath id="clip0">
<rect x="6" y="6" width="18.7312" height="18.7312" fill="white"/>
</clipPath>
</defs>
</svg>
