<svg width="20" height="20" viewBox="0 0 20 20" fill="none" xmlns="http://www.w3.org/2000/svg">
<path d="M19.2927 12.1232C19.4349 11.4729 19.5106 10.7978 19.5106 10.105C19.5106 4.91055 15.2995 0.699414 10.1048 0.699414C9.55633 0.699414 9.01914 0.746797 8.49633 0.837031C7.65571 0.307383 6.66118 0 5.59438 0C2.58192 0 0.139847 2.44234 0.139847 5.45441C0.139847 6.46133 0.413792 7.40375 0.889573 8.2134C0.764847 8.82445 0.699222 9.45691 0.699222 10.1049C0.699222 15.2994 4.91028 19.5105 10.1048 19.5105C10.6932 19.5105 11.2688 19.4561 11.8271 19.3527C12.5949 19.7654 13.4729 20 14.4056 20C17.4182 20 19.8601 17.5579 19.8601 14.5455C19.8601 13.6751 19.6553 12.8531 19.2927 12.1232ZM14.9288 14.5999C14.4936 15.2156 13.8507 15.7036 13.0178 16.0498C12.1929 16.3927 11.2041 16.5665 10.0786 16.5665C8.72766 16.5665 7.595 16.3289 6.71098 15.86C6.07907 15.5186 5.55797 15.0562 5.16239 14.4858C4.76278 13.9095 4.5602 13.3376 4.5602 12.7862C4.5602 12.4415 4.69227 12.1427 4.95254 11.8982C5.2102 11.6558 5.54039 11.533 5.93422 11.533C6.25743 11.533 6.53618 11.63 6.76274 11.8215C6.97926 12.005 7.16508 12.2764 7.31426 12.627C7.48094 13.0088 7.66274 13.3311 7.85461 13.585C8.03903 13.8292 8.3045 14.0344 8.6434 14.1946C8.98442 14.3561 9.44407 14.4379 10.0094 14.4379C10.787 14.4379 11.4245 14.2719 11.9041 13.9444C12.3724 13.6246 12.6001 13.2407 12.6001 12.7708C12.6001 12.3995 12.4813 12.1077 12.2368 11.8787C11.9808 11.6393 11.6432 11.4529 11.2332 11.3252C10.8057 11.1919 10.2254 11.0482 9.5075 10.8979C8.53512 10.6896 7.70856 10.4425 7.05024 10.1633C7.04762 10.1623 7.04504 10.1612 7.04258 10.1601C6.36813 9.8732 5.8245 9.47543 5.42684 8.9777C5.02289 8.47223 4.81825 7.83809 4.81825 7.0927C4.81825 6.38215 5.03313 5.74168 5.45692 5.18922C5.8775 4.64062 6.4918 4.2143 7.28258 3.92176C8.06317 3.63309 8.99172 3.48684 10.0424 3.48684C10.8824 3.48684 11.6209 3.58383 12.2373 3.77551C12.8572 3.96859 13.3799 4.2293 13.7906 4.55012C14.2043 4.87332 14.5119 5.2191 14.7052 5.57824C14.9004 5.94098 14.9993 6.30199 14.9993 6.65117C14.9993 6.98723 14.8695 7.29266 14.6136 7.55883C14.356 7.82656 14.031 7.9625 13.6475 7.9625C13.2992 7.9625 13.0266 7.8775 12.8374 7.70988C12.6614 7.5543 12.4788 7.31168 12.2761 6.96262C12.0416 6.51703 11.7578 6.16574 11.4321 5.9182C11.1161 5.67781 10.5877 5.55574 9.86176 5.55574C9.18754 5.55574 8.63922 5.69109 8.23211 5.95801C7.83977 6.2152 7.64918 6.51016 7.64918 6.85953C7.64918 7.07387 7.71051 7.25293 7.83672 7.40707C7.97047 7.57035 8.15899 7.71375 8.39727 7.83293C8.64454 7.95719 8.89922 8.05594 9.15442 8.12641C9.41575 8.19895 9.85442 8.30641 10.4558 8.44535C11.0896 8.58141 11.6798 8.73129 12.217 8.89168C12.325 8.92387 12.4316 8.95648 12.5351 8.98953C13.1614 9.19 13.7027 9.43727 14.1441 9.72434C14.5946 10.0177 14.9513 10.3945 15.2045 10.8443C15.4582 11.2957 15.5868 11.8531 15.5868 12.5006C15.5868 13.2757 15.3653 13.9818 14.9288 14.5999Z" fill="#00B8ED"/>
</svg>
