<svg width="20" height="20" viewBox="0 0 20 20" fill="none" xmlns="http://www.w3.org/2000/svg">
<path d="M10 20C15.5228 20 20 15.5228 20 10C20 4.47715 15.5228 0 10 0C4.47715 0 0 4.47715 0 10C0 15.5228 4.47715 20 10 20Z" fill="#039BE5"/>
<path d="M4.57585 9.78332L14.2175 6.06582C14.665 5.90416 15.0558 6.17499 14.9108 6.85166L14.9117 6.85082L13.27 14.585C13.1483 15.1333 12.8225 15.2667 12.3667 15.0083L9.86668 13.1658L8.66084 14.3275C8.52751 14.4608 8.41501 14.5733 8.15668 14.5733L8.33418 12.0292L12.9675 7.84332C13.1692 7.66582 12.9225 7.56582 12.6567 7.74249L6.93085 11.3475L4.46251 10.5775C3.92668 10.4075 3.91501 10.0417 4.57585 9.78332Z" fill="white"/>
</svg>
