<svg width="21" height="20" viewBox="0 0 21 20" fill="none" xmlns="http://www.w3.org/2000/svg">
<g clip-path="url(#clip0)">
<path d="M10.6692 0H10.6642C5.15041 0 0.666664 4.485 0.666664 10C0.666664 12.1875 1.37166 14.215 2.57041 15.8612L1.32416 19.5763L5.16791 18.3475C6.74916 19.395 8.63541 20 10.6692 20C16.1829 20 20.6667 15.5138 20.6667 10C20.6667 4.48625 16.1829 0 10.6692 0Z" fill="#4CAF50"/>
<path d="M16.4879 14.1212C16.2467 14.8025 15.2892 15.3675 14.5254 15.5325C14.0029 15.6437 13.3204 15.7325 11.0229 14.78C8.08417 13.5625 6.19167 10.5762 6.04417 10.3825C5.90292 10.1887 4.85667 8.80123 4.85667 7.36623C4.85667 5.93123 5.58542 5.23248 5.87917 4.93248C6.12042 4.68623 6.51917 4.57373 6.90167 4.57373C7.02542 4.57373 7.13667 4.57998 7.23667 4.58498C7.53042 4.59748 7.67792 4.61498 7.87167 5.07873C8.11292 5.65998 8.70042 7.09498 8.77042 7.24248C8.84167 7.38998 8.91292 7.58998 8.81292 7.78373C8.71917 7.98373 8.63667 8.07248 8.48917 8.24248C8.34167 8.41248 8.20167 8.54248 8.05417 8.72498C7.91917 8.88373 7.76667 9.05373 7.93667 9.34748C8.10667 9.63498 8.69417 10.5937 9.55917 11.3637C10.6754 12.3575 11.5804 12.675 11.9042 12.81C12.1454 12.91 12.4329 12.8862 12.6092 12.6987C12.8329 12.4575 13.1092 12.0575 13.3904 11.6637C13.5904 11.3812 13.8429 11.3462 14.1079 11.4462C14.3779 11.54 15.8067 12.2462 16.1004 12.3925C16.3942 12.54 16.5879 12.61 16.6592 12.7337C16.7292 12.8575 16.7292 13.4387 16.4879 14.1212Z" fill="#FAFAFA"/>
</g>
<defs>
<clipPath id="clip0">
<rect x="0.666664" width="20" height="20" fill="white"/>
</clipPath>
</defs>
</svg>
