<svg width="363" height="363" viewBox="0 0 363 363" fill="none" xmlns="http://www.w3.org/2000/svg">
<g filter="url(#filter0_d)">
<path d="M181.4 325.3C260.874 325.3 325.3 260.874 325.3 181.4C325.3 101.926 260.874 37.5 181.4 37.5C101.926 37.5 37.5 101.926 37.5 181.4C37.5 260.874 101.926 325.3 181.4 325.3Z" fill="url(#paint0_radial)"/>
<path d="M325.3 180.5C234.9 220.4 140.3 214.7 85.1001 205.7C84.5001 193.2 85.1001 181.5 86.3001 171.1C107.6 170.1 130.4 154.8 154.5 138.8C169.4 128.8 184.8 118.5 200.4 111.4C208.6 107.6 215.6 104.2 221.8 101.2C247 88.9 257.3 83.1 287 83.5C285.2 81.6 283.4 79.7001 281.5 77.9001C256.8 77.7001 244 84 219.3 96C213.1 99 206.1 102.4 198 106.2C182 113.6 166.4 124 151.4 134.1C128.4 149.5 106.6 164 87.1001 165.4C88.3001 156.8 89.8001 149.5 91.2001 143.9C104.8 90.7 136.3 44.7 171.3 37.8C163.6 38.3 156 39.5 148.6 41.2C122.3 57.1 97.2001 96.3 85.4001 142.5C83.4001 150.1 81.9001 157.8 80.8001 165.4C73.0001 164.8 66.9001 162.1 62.6001 157.2C53.1001 146.3 53.8001 120.6 54.8001 112.9C52.7001 116.7 50.9001 120.6 49.1001 124.6C48.3001 135.4 49.3001 150.7 58.2001 161C63.5001 167 70.8001 170.4 80.0001 171.2C78.6001 182.5 78.1001 193.8 78.5001 204.8C57.1001 201.1 42.7001 197.1 38.1001 195.8C38.3001 198 38.6001 200.1 38.9001 202.2C44.5001 203.7 58.7001 207.4 78.8001 210.8C79.4001 218.8 80.4001 226.7 81.9001 234.3C82.6001 238 83.5001 241.6 84.5001 245.1C73.3001 244.4 64.4001 247.1 56.4001 252.9L59.8001 257.6C66.7001 252.5 74.5001 249.7 86.2001 251C93.9001 275.4 106.9 296.6 125.2 314C129.6 315.8 134.1 317.5 138.6 318.9C114.4 300.1 100.3 276.3 92.7001 252C107.4 255.1 127.5 263.8 157 280.9C183.6 296.2 212.8 304.3 241.2 304.3C246.7 304.3 252.2 304 257.7 303.4C260.8 301.5 263.8 299.4 266.8 297.2C247.8 299.8 202.6 300.5 160 275.9C129.8 258.5 107.9 248.7 91.0001 245.9C87.9001 234.4 86.1001 222.9 85.3001 211.9C107.8 215.5 136.6 218.6 168.4 218.6C217.1 218.6 273.1 211.3 325 187L325.1 186.7C325.2 184.9 325.2 183.2 325.2 181.4C325.3 181.1 325.3 180.8 325.3 180.5Z" fill="url(#paint1_radial)"/>
<path d="M133.2 315.8C130.8 314.9 128.4 314 126.1 313C108.1 295.8 95.1 274.8 87.5 250.6L87.3 249.9L86.5 249.8C84.6 249.6 82.8 249.5 81 249.5C73.2 249.5 66.5 251.6 60.2 256L58.1 253.2C65 248.4 72.3 246.1 81.1 246.1C82.2 246.1 83.4 246.1 84.6 246.2L86.2 246.3L85.8 244.7C84.8 240.9 83.9 237.4 83.2 234C81.7 226.6 80.6 218.7 80.1 210.6L80 209.7L79.1 209.5C59.7 206.2 45.8 202.6 40 201.1C39.8 199.8 39.6 198.4 39.5 197.2C54.2 201.2 68.7 204.1 78.4 205.8L79.8 206L79.7 204.6C79.3 193.7 79.8 182.4 81.2 171.2L81.3 170L80.1 169.9C71.2 169.2 64.1 165.9 59.1 160.1C50.5 150.2 49.5 135.5 50.2 124.8C51.1 122.7 52.1 120.5 53.1 118.5C52.6 129.1 53.4 148.5 61.7 157.9C66.2 163 72.6 165.9 80.7 166.5L81.8 166.6L82 165.5C83.1 157.9 84.7 150.2 86.6 142.7C98.1 97.8 122.5 58.4 149 42.3C152.5 41.5 156.1 40.8 159.7 40.3C130.1 53.1 102.9 92.7 89.9 143.6C88.7 148.1 87.1 155.5 85.8 165.2L85.6 166.6L87 166.5C106.8 165.1 128.7 150.5 151.8 135C166.9 124.9 182.4 114.5 198.3 107.2C206.4 103.4 213.4 100.1 219.6 97.1C244.3 85.1 256.7 79.1 280.5 79.1H280.9C282 80.2 283.1 81.3001 284.2 82.4001C257.7 82.4001 246.7 87.8001 224.9 98.4001L221.2 100.2C215 103.2 208 106.6 199.8 110.4C184.2 117.6 168.7 128 153.8 137.9C129.8 153.9 107.2 169 86.2 170.1H85.2L85.1 171.1C83.8 182.8 83.4 194.5 83.9 205.8V206.7L84.8 206.9C111.5 211.2 138.5 213.4 165 213.4C223.2 213.4 276.7 202.9 324.1 182.3C324.1 183.5 324.1 184.8 324 186.2C279.5 206.9 227.1 217.4 168.5 217.4C141.4 217.4 113.4 215.1 85.5 210.7L84.1 210.5L84.2 212C85.1 223.9 87 235.5 89.9 246.2L90.1 246.9L90.8 247C107.2 249.8 128.3 259 159.4 276.9C191.8 295.6 224.9 299.5 247 299.5C253.3 299.5 258.5 299.2 262.4 298.8C260.7 300 259 301.1 257.3 302.2C251.9 302.8 246.5 303.1 241.2 303.1C212.8 303.1 183.9 295.1 157.6 279.9C129 263.4 108.5 254.2 93 250.9L91.1 250.5L91.7 252.4C99.9 277.9 113.8 299.2 133.2 315.8Z" fill="url(#paint2_radial)"/>
</g>
<defs>
<filter id="filter0_d" x="3.5" y="0.5" width="349.8" height="349.8" filterUnits="userSpaceOnUse" color-interpolation-filters="sRGB">
<feFlood flood-opacity="0" result="BackgroundImageFix"/>
<feColorMatrix in="SourceAlpha" type="matrix" values="0 0 0 0 0 0 0 0 0 0 0 0 0 0 0 0 0 0 127 0"/>
<feOffset dx="-3" dy="-6"/>
<feGaussianBlur stdDeviation="15.5"/>
<feColorMatrix type="matrix" values="0 0 0 0 0 0 0 0 0 0 0 0 0 0 0 0 0 0 0.25 0"/>
<feBlend mode="normal" in2="BackgroundImageFix" result="effect1_dropShadow"/>
<feBlend mode="normal" in="SourceGraphic" in2="effect1_dropShadow" result="shape"/>
</filter>
<radialGradient id="paint0_radial" cx="0" cy="0" r="1" gradientUnits="userSpaceOnUse" gradientTransform="translate(130.742 137.313) scale(205.184 200.834)">
<stop stop-color="#F6921E"/>
<stop offset="0.224" stop-color="#F37922"/>
<stop offset="0.4682" stop-color="#F05A28"/>
<stop offset="0.5512" stop-color="#EB5727"/>
<stop offset="0.6467" stop-color="#DD4D25"/>
<stop offset="0.7484" stop-color="#C63D21"/>
<stop offset="0.8545" stop-color="#A6271C"/>
<stop offset="0.9629" stop-color="#7D0B15"/>
<stop offset="1" stop-color="#6D0012"/>
</radialGradient>
<radialGradient id="paint1_radial" cx="0" cy="0" r="1" gradientUnits="userSpaceOnUse" gradientTransform="translate(101.804 112.802) scale(246.665)">
<stop stop-color="#494949"/>
<stop offset="0.2889" stop-color="#333131"/>
<stop offset="0.4682" stop-color="#231F20"/>
<stop offset="0.6479" stop-color="#1E1B1C"/>
<stop offset="0.8543" stop-color="#100F0F"/>
<stop offset="1" stop-color="#020202"/>
</radialGradient>
<radialGradient id="paint2_radial" cx="0" cy="0" r="1" gradientUnits="userSpaceOnUse" gradientTransform="translate(102.582 113.761) scale(243.273)">
<stop stop-color="#929497"/>
<stop offset="0.2092" stop-color="#7B7C7E"/>
<stop offset="0.5879" stop-color="#494949"/>
<stop offset="0.6785" stop-color="#444444"/>
<stop offset="0.7828" stop-color="#363636"/>
<stop offset="0.8934" stop-color="#1F1F1F"/>
<stop offset="1" stop-color="#020202"/>
</radialGradient>
</defs>
</svg>
