<svg width="48" height="48" viewBox="0 0 48 48" fill="none" xmlns="http://www.w3.org/2000/svg">
<rect x="0.244873" y="0.5" width="47.7552" height="47" rx="23.5" fill="white"/>
<path d="M39.9916 32.9487C40.112 32.6233 26.2878 22.185 26.2878 22.185C24.5572 20.9079 23.6469 20.8878 21.9355 22.185C21.9355 22.185 8.13148 32.6149 8.24766 32.9358L8.24487 32.9381C8.2463 32.9409 8.24859 32.9428 8.25052 32.9454C8.36757 33.2645 8.53786 33.5614 8.75415 33.8236C8.84552 33.9343 8.95563 34.0271 9.06152 34.1236L9.05637 34.1276C9.0648 34.1351 9.07603 34.1386 9.08447 34.1461C9.53327 34.5464 10.0992 34.8057 10.728 34.8797C10.7379 34.8809 10.7458 34.886 10.7557 34.8872H10.7936C10.8892 34.8963 10.9801 34.9193 11.078 34.9193H37.1759C38.461 34.9193 39.5498 34.1111 39.9823 32.9783C39.9874 32.9698 39.9954 32.9637 40.0001 32.9551L39.9916 32.9487Z" fill="#DCE2E2"/>
<path d="M24.1305 20.9872L8.31763 32.8469V16.0457C8.31763 14.4081 9.64491 13.0808 11.2825 13.0808H36.9785C38.6161 13.0808 39.9434 14.4081 39.9434 16.0457V32.8469L24.1305 20.9872Z" fill="#D6D6D6"/>
<path d="M8.50195 15.0147L22.0028 25.619C23.7068 26.8764 24.603 26.8962 26.2881 25.619L39.7677 15.0316C39.5339 14.6076 39.1838 14.2727 38.7834 14.0057L38.9688 13.8604C38.5162 13.4485 37.9378 13.1814 37.2957 13.1124L10.9662 13.1134C10.3259 13.1814 9.74649 13.4494 9.2949 13.8604L9.47895 14.0039C9.08319 14.2672 8.73631 14.5963 8.50195 15.0147Z" fill="#EDECE6"/>
<path d="M8.49781 15.037C8.37927 15.3574 21.9904 25.6347 21.9904 25.6347C23.6944 26.8922 24.5906 26.912 26.2757 25.6347C26.2757 25.6347 39.867 15.3657 39.7525 15.0497L39.7553 15.0474C39.754 15.0446 39.7517 15.0428 39.7498 15.0402C39.6346 14.7261 39.4669 14.4337 39.2539 14.1756C39.164 14.0665 39.0556 13.9752 38.9513 13.8801L38.9564 13.8762C38.9481 13.8688 38.9371 13.8654 38.9288 13.858C38.4869 13.4638 37.9296 13.2085 37.3106 13.1356C37.3009 13.1345 37.2931 13.1294 37.2834 13.1283H37.246C37.1519 13.1193 37.0624 13.0967 36.966 13.0967H11.2701C10.0048 13.0967 8.93278 13.8924 8.50706 15.0078C8.50197 15.0161 8.49415 15.0221 8.4895 15.0306L8.49781 15.037Z" fill="#BCBCBC"/>
</svg>
