<svg width="320" height="319" viewBox="0 0 320 319" fill="none" xmlns="http://www.w3.org/2000/svg">
<g filter="url(#filter0_d)">
<path d="M40.1002 227.4C48.2002 238.5 78.3002 257 129.6 255.6C187.7 254.1 250 208.1 267.4 175.2C284.9 142.1 289.3 118.4 281.2 96.0999C270.2 65.4999 201.1 59.3999 174.3 64.1999C153.4 68.0999 93.8002 79.4999 57.7002 140C31.4002 184 32.5002 217.1 40.1002 227.4Z" fill="#571202"/>
<path d="M40.4002 226.9C48.5002 237.9 78.2002 256.2 129 254.8C186.5 253.3 248.1 207.8 265.4 175.2C282.7 142.4 287 119 279 96.8998C268.1 66.5998 199.7 60.5998 173.2 65.3998C152.5 69.1998 93.5002 80.3998 57.8002 140.4C31.8002 184 32.9002 216.7 40.4002 226.9Z" fill="#581303"/>
<path d="M40.7003 226.4C48.7003 237.2 78.2003 255.3 128.4 254C185.4 252.5 246.3 207.4 263.3 175.1C280.4 142.7 284.7 119.5 276.8 97.5998C266 67.5998 198.3 61.6998 172.1 66.3998C151.6 70.0998 93.2003 81.2998 57.9003 140.6C32.2003 183.9 33.3003 216.3 40.7003 226.4Z" fill="#591404"/>
<path d="M41.1 226C49 236.7 78.2 254.6 127.9 253.3C184.3 251.8 244.5 207.2 261.4 175.2C278.3 143.1 282.5 120.2 274.7 98.4999C264 68.7999 197 62.9999 171 67.6999C150.8 71.3999 93 82.4999 58 141.2C32.6 183.9 33.7 216 41.1 226Z" fill="#5A1504"/>
<path d="M41.3999 225.5C49.1999 236.1 78.0999 253.8 127.3 252.5C183.1 251 242.7 206.8 259.4 175.2C276.2 143.5 280.3 120.7 272.6 99.2998C261.9 69.8998 195.6 64.1998 170 68.7998C150 72.4998 92.7999 83.3998 58.2 141.6C33 183.8 34.0999 215.6 41.3999 225.5Z" fill="#5B1605"/>
<path d="M41.7 225C49.4 235.5 78 253 126.7 251.7C181.9 250.2 240.8 206.5 257.4 175.2C274 143.8 278.1 121.3 270.4 100.2C259.9 71.1998 194.3 65.4998 168.9 70.0998C149.1 73.6998 92.5 84.5998 58.3 142.1C33.4 183.8 34.5 215.2 41.7 225Z" fill="#5C1706"/>
<path d="M42.0002 224.5C49.7002 234.9 77.9002 252.2 126.1 250.9C180.7 249.4 239 206.2 255.3 175.2C271.7 144.1 275.7 121.9 268.1 101C257.7 72.2999 192.8 66.5999 167.7 71.2999C148.1 74.8999 92.2002 85.6999 58.3002 142.6C33.8002 183.8 34.9002 214.8 42.0002 224.5Z" fill="#5D1707"/>
<path d="M42.4004 224C50.0004 234.3 77.9004 251.4 125.6 250C179.6 248.5 237.3 205.7 253.4 175.1C269.6 144.3 273.6 122.4 266.1 101.7C255.8 73.3 191.6 67.7 166.8 72.3C147.3 75.8 92.0004 86.5 58.6004 142.8C34.3004 183.7 35.3004 214.4 42.4004 224Z" fill="#5E1808"/>
<path d="M42.7003 223.5C50.2003 233.6 77.9003 250.6 125 249.2C178.4 247.7 235.4 205.4 251.4 175C267.4 144.6 271.3 122.8 263.9 102.4C253.7 74.2999 190.2 68.7999 165.7 73.3999C146.5 76.8999 91.8003 87.4999 58.8003 143.2C34.7003 183.7 35.7003 214.1 42.7003 223.5Z" fill="#5F1909"/>
<path d="M43 223C50.4 233 77.8 249.8 124.4 248.4C177.2 246.9 233.6 205 249.3 175C265.1 144.9 269 123.4 261.7 103.2C251.6 75.4 188.9 70 164.5 74.5C145.5 78 91.4 88.5 58.8 143.5C35.1 183.6 36.1 213.7 43 223Z" fill="#601A09"/>
<path d="M43.4004 222.5C50.7004 232.4 77.8004 248.9 123.9 247.6C176.1 246.1 231.8 204.7 247.4 175C263 145.2 266.9 124 259.6 104C249.6 76.4999 187.6 71.1999 163.5 75.6999C144.7 79.1999 91.2004 89.4999 58.9004 144C35.5004 183.6 36.5004 213.3 43.4004 222.5Z" fill="#611B0A"/>
<path d="M43.7002 222.1C51.0002 231.9 77.7002 248.2 123.3 246.9C174.9 245.4 230 204.4 245.4 175.1C260.8 145.7 264.6 124.7 257.4 104.9C247.5 77.7998 186.2 72.4998 162.4 76.8998C143.9 80.2998 91.0002 90.5998 59.1002 144.5C35.9002 183.6 36.9002 212.9 43.7002 222.1Z" fill="#621C0B"/>
<path d="M44.0003 221.6C51.2003 231.3 77.6003 247.4 122.7 246.1C173.7 244.6 228.2 204.1 243.4 175.1C258.7 146 262.4 125.2 255.3 105.7C245.5 78.8999 184.9 73.6999 161.4 78.0999C143 81.3999 90.7003 91.5999 59.2003 144.8C36.3003 183.5 37.3003 212.5 44.0003 221.6Z" fill="#631D0C"/>
<path d="M44.3001 221.1C51.4001 230.7 77.5001 246.6 122 245.3C172.4 243.8 226.2 203.7 241.2 175.1C256.3 146.3 260 125.8 252.9 106.5C243.2 80 183.3 74.9 160.1 79.2C142 82.6 90.3001 92.6 59.2001 145.3C36.7001 183.5 37.7001 212.2 44.3001 221.1Z" fill="#641E0D"/>
<path d="M44.7004 220.6C51.7004 230.1 77.6004 245.8 121.5 244.5C171.3 243 224.5 203.4 239.3 175.1C254.2 146.7 257.8 126.4 250.8 107.3C241.3 80.9998 182 75.9998 159.1 80.2998C141.2 83.5998 90.2004 93.5998 59.4004 145.6C37.1004 183.4 38.1004 211.8 44.7004 220.6Z" fill="#651F0E"/>
<path d="M45 220.1C51.9 229.4 77.5 245 120.9 243.7C170.1 242.2 222.6 203 237.3 175C252 146.9 255.6 126.9 248.7 108C239.2 82.0999 180.7 77.1999 158 81.3999C140.3 84.6999 89.9 94.5999 59.5 146C37.5 183.4 38.5 211.4 45 220.1Z" fill="#66200E"/>
<path d="M45.3003 219.6C52.2003 228.8 77.4003 244.2 120.3 242.8C168.9 241.3 220.8 202.6 235.2 174.9C249.7 147.1 253.2 127.3 246.4 108.7C237 83.1 179.2 78.3 156.8 82.5C139.3 85.8 89.5003 95.5 59.5003 146.3C37.9003 183.3 38.9003 211 45.3003 219.6Z" fill="#67210F"/>
<path d="M45.6004 219.1C52.4004 228.2 77.3004 243.4 119.7 242C167.7 240.5 218.9 202.2 233.2 174.9C247.5 147.5 251 127.9 244.3 109.5C235 84.1999 177.9 79.4999 155.8 83.5999C138.6 86.7999 89.3004 96.4999 59.8004 146.7C38.3004 183.3 39.3004 210.6 45.6004 219.1Z" fill="#682110"/>
<path d="M46.0003 218.6C52.7003 227.6 77.3003 242.6 119.2 241.2C166.6 239.7 217.2 201.9 231.3 174.9C245.4 147.8 248.9 128.5 242.2 110.3C233 85.3999 176.6 80.6999 154.8 84.7999C137.8 87.9999 89.2003 97.5999 60.0003 147.2C38.7003 183.3 39.7003 210.3 46.0003 218.6Z" fill="#692211"/>
<path d="M46.3004 218.2C52.9004 227.1 77.2003 241.8 118.6 240.5C165.5 239 215.4 201.6 229.3 175C243.2 148.2 246.6 129.1 240 111.2C231 86.4998 175.2 81.9998 153.7 85.9998C136.9 89.1998 88.9004 98.5998 60.1004 147.6C39.1004 183.2 40.1004 209.9 46.3004 218.2Z" fill="#6A2312"/>
<path d="M46.5999 217.7C53.0999 226.5 77.1999 241 118 239.7C164.3 238.2 213.5 201.3 227.2 175C241 148.6 244.3 129.7 237.8 112C228.9 87.6998 173.8 83.1998 152.6 87.1998C136 90.2998 88.5999 99.6998 60.1999 148.1C39.4999 183.2 40.4999 209.5 46.5999 217.7Z" fill="#6B2413"/>
<path d="M47.0003 217.2C53.5003 225.9 77.2003 240.2 117.5 238.9C163.2 237.4 211.8 200.9 225.3 175C238.9 148.9 242.2 130.3 235.7 112.8C226.9 88.8 172.6 84.4 151.5 88.4C135.1 91.5 88.3003 100.8 60.3003 148.5C39.9003 183.1 40.9003 209.1 47.0003 217.2Z" fill="#6C2513"/>
<path d="M47.3001 216.7C53.7001 225.2 77.1001 239.4 116.9 238.1C162 236.6 209.9 200.6 223.3 174.9C236.7 149.1 239.9 130.8 233.6 113.5C224.9 89.7999 171.3 85.4999 150.5 89.3999C134.3 92.4999 88.2001 101.6 60.5001 148.8C40.3001 183.1 41.3001 208.7 47.3001 216.7Z" fill="#6D2614"/>
<path d="M47.6 216.2C53.9 224.6 77 238.6 116.3 237.3C160.8 235.8 208.1 200.3 221.2 174.9C234.4 149.5 237.6 131.3 231.3 114.3C222.7 90.9 169.8 86.7 149.3 90.6C133.3 93.6 87.8 102.7 60.5 149.2C40.7 183.1 41.7 208.4 47.6 216.2Z" fill="#6E2715"/>
<path d="M47.9001 215.7C54.1001 224 76.9001 237.8 115.7 236.4C159.6 234.9 206.3 199.8 219.2 174.8C232.2 149.7 235.3 131.8 229.1 115C220.6 91.9999 168.4 87.7999 148.2 91.5999C132.5 94.5999 87.5001 103.6 60.6001 149.5C41.1001 183 42.1001 208 47.9001 215.7Z" fill="#6F2816"/>
<path d="M48.3004 215.2C54.4004 223.4 77.0004 237 115.2 235.6C158.5 234.1 204.5 199.5 217.3 174.8C230.1 150 233.2 132.4 227.1 115.8C218.7 93.0998 167.2 88.9998 147.3 92.7998C131.8 95.7998 87.4004 104.6 60.9004 150C41.5004 183 42.5004 207.6 48.3004 215.2Z" fill="#702917"/>
<path d="M48.6001 214.7C54.7001 222.8 76.9001 236.2 114.6 234.8C157.3 233.3 202.7 199.1 215.3 174.8C227.9 150.4 231 133 224.9 116.6C216.6 94.2 165.8 90.2 146.2 93.9C130.9 96.8 87.2001 105.6 61.1001 150.3C41.9001 182.9 43.0001 207.2 48.6001 214.7Z" fill="#712A18"/>
<path d="M48.9001 214.3C54.9001 222.3 76.8001 235.4 113.9 234.1C156 232.6 200.7 198.9 213.1 174.9C225.5 150.8 228.5 133.6 222.5 117.5C214.3 95.3999 164.2 91.4999 144.8 95.1999C129.9 97.9999 86.8001 106.7 61.1001 150.8C42.4001 182.9 43.4001 206.8 48.9001 214.3Z" fill="#722B18"/>
<path d="M49.3003 213.8C55.2003 221.6 76.8003 234.6 113.4 233.3C154.9 231.8 199 198.5 211.2 174.9C223.5 151.1 226.4 134.2 220.5 118.3C212.4 96.5 163 92.7 143.9 96.3C129 99.2 86.5003 107.7 61.2003 151.2C42.8003 182.8 43.8003 206.5 49.3003 213.8Z" fill="#732B19"/>
<path d="M49.6004 213.3C55.4004 221 76.7004 233.8 112.8 232.5C153.7 231 197.2 198.2 209.2 174.8C221.3 151.4 224.1 134.7 218.3 119C210.3 97.4999 161.6 93.7999 142.8 97.3999C128.1 100.2 86.3004 108.7 61.3004 151.6C43.2004 182.8 44.2004 206.1 49.6004 213.3Z" fill="#742C1A"/>
<path d="M49.9 212.8C55.6 220.4 76.6 233 112.2 231.7C152.5 230.2 195.3 197.8 207.1 174.8C219 151.7 221.8 135.3 216.1 119.8C208.2 98.6998 160.2 94.9998 141.7 98.4998C127.3 101.4 86 109.7 61.4 152C43.6 182.8 44.6 205.7 49.9 212.8Z" fill="#752D1B"/>
<path d="M50.2001 212.3C55.9001 219.8 76.6001 232.2 111.6 230.9C151.3 229.4 193.5 197.5 205.1 174.8C216.8 152 219.6 135.8 213.9 120.7C206.1 99.9 158.8 96.3 140.6 99.8C126.4 102.6 85.7001 110.8 61.5001 152.5C44.0001 182.7 45.0001 205.3 50.2001 212.3Z" fill="#762E1C"/>
<path d="M50.6001 211.8C56.2001 219.2 76.6001 231.4 111.1 230.1C150.2 228.6 191.7 197.1 203.2 174.8C214.7 152.4 217.4 136.4 211.8 121.5C204.1 101 157.6 97.3999 139.6 100.9C125.6 103.6 85.5001 111.8 61.7001 152.9C44.4001 182.7 45.4001 204.9 50.6001 211.8Z" fill="#772F1C"/>
<path d="M50.9002 211.3C56.4002 218.6 76.5002 230.6 110.5 229.2C149 227.7 189.9 196.7 201.2 174.7C212.5 152.6 215.2 136.9 209.7 122.2C202.1 102 156.2 98.5998 138.5 102C124.7 104.7 85.3002 112.8 61.8002 153.2C44.8002 182.6 45.8002 204.6 50.9002 211.3Z" fill="#78301D"/>
<path d="M51.2003 210.9C56.6003 218.1 76.4003 229.9 109.9 228.5C147.8 227 188 196.4 199.1 174.8C210.2 153 212.9 137.6 207.4 123.1C199.9 103.2 154.8 99.7998 137.3 103.2C123.8 105.8 85.0003 113.8 61.9003 153.6C45.2003 182.6 46.2003 204.2 51.2003 210.9Z" fill="#79311E"/>
<path d="M51.4999 210.4C56.7999 217.4 76.2999 229 109.3 227.7C146.6 226.2 186.2 196.1 197.1 174.8C208 153.4 210.6 138.1 205.2 123.9C197.8 104.3 153.4 101 136.2 104.4C122.9 106.9 84.6999 114.8 62.0999 154C45.5999 182.6 46.5999 203.8 51.4999 210.4Z" fill="#7A321F"/>
<path d="M51.9 209.9C57.2 216.8 76.3 228.2 108.8 226.9C145.6 225.4 184.5 195.7 195.2 174.7C206 153.6 208.5 138.6 203.2 124.6C195.9 105.3 152.2 102.1 135.3 105.5C122.1 108.1 84.5 115.9 62.3 154.5C46 182.5 47 203.4 51.9 209.9Z" fill="#7B3320"/>
<path d="M52.2002 209.4C57.4002 216.2 76.3002 227.4 108.2 226.1C144.4 224.6 182.6 195.4 193.2 174.7C203.8 153.9 206.2 139.2 201 125.4C193.8 106.5 150.8 103.3 134.2 106.6C121.2 109.2 84.3002 116.8 62.4002 154.8C46.4002 182.5 47.4002 203 52.2002 209.4Z" fill="#7C3421"/>
<path d="M52.5003 208.9C57.6003 215.6 76.2003 226.6 107.6 225.3C143.2 223.8 180.8 195.1 191.1 174.7C201.5 154.3 203.9 139.8 198.8 126.2C191.7 107.6 149.4 104.5 133.1 107.8C120.4 110.3 84.0003 117.9 62.5003 155.3C46.8003 182.4 47.8003 202.7 52.5003 208.9Z" fill="#7D3521"/>
<path d="M52.9003 208.4C57.9003 215 76.2003 225.8 107.1 224.5C142.1 223 179 194.7 189.2 174.7C199.4 154.6 201.8 140.3 196.7 127C189.7 108.7 148.1 105.7 132 108.9C119.5 111.4 83.7003 118.9 62.6003 155.7C47.2003 182.4 48.2003 202.3 52.9003 208.4Z" fill="#7E3522"/>
<path d="M53.2001 207.9C58.1001 214.4 76.1001 225 106.5 223.7C140.9 222.2 177.2 194.4 187.2 174.7C197.2 154.9 199.5 140.9 194.5 127.8C187.7 109.8 146.7 106.9 130.9 110.1C118.6 112.6 83.4001 119.9 62.7001 156.1C47.6001 182.3 48.6001 201.9 53.2001 207.9Z" fill="#7F3623"/>
<path d="M53.5001 207.4C58.4001 213.7 76.0001 224.2 105.8 222.8C139.6 221.3 175.3 193.9 185 174.6C194.8 155.2 197.1 141.4 192.2 128.5C185.5 110.8 145.2 108 129.7 111.1C117.6 113.5 83.1001 120.8 62.7001 156.4C48.0001 182.3 49.0001 201.5 53.5001 207.4Z" fill="#803724"/>
<path d="M53.8003 207C58.6003 213.2 75.9003 223.5 105.2 222.1C138.4 220.6 173.4 193.7 183 174.7C192.6 155.6 194.9 142 190 129.4C183.4 112 143.8 109.3 128.6 112.4C116.7 114.8 82.8003 122 62.8003 156.9C48.4003 182.3 49.4003 201.1 53.8003 207Z" fill="#813825"/>
<path d="M54.2001 206.5C58.9001 212.6 76.0001 222.7 104.7 221.3C137.3 219.8 171.7 193.3 181.1 174.6C190.5 155.8 192.7 142.5 188 130.1C181.5 113.1 142.6 110.4 127.7 113.4C116 115.8 82.7001 122.8 63.1001 157.2C48.8001 182.2 49.8001 200.8 54.2001 206.5Z" fill="#823926"/>
<path d="M54.5 206C59.1 212 75.9 221.8 104.1 220.5C136.1 219 169.8 193 179.1 174.6C188.4 156.2 190.5 143.1 185.8 130.9C179.4 114.2 141.3 111.6 126.6 114.6C115.1 116.9 82.4 123.9 63.3 157.6C49.2 182.2 50.2 200.4 54.5 206Z" fill="#823A26"/>
<path d="M54.8002 205.5C59.3002 211.4 75.8002 221 103.5 219.7C134.9 218.2 168 192.6 177 174.6C186.1 156.5 188.1 143.7 183.5 131.7C177.2 115.3 139.8 112.8 125.3 115.7C114.2 118 82.1002 124.9 63.3002 158C49.6002 182.1 50.6002 200 54.8002 205.5Z" fill="#833B27"/>
<path d="M55.2001 205C59.6001 210.8 75.8001 220.2 103 218.9C133.8 217.4 166.2 192.3 175.1 174.6C184 156.8 186 144.2 181.5 132.5C175.3 116.4 138.6 114 124.4 116.9C113.4 119.2 81.9001 125.9 63.5001 158.5C50.0001 182.1 51.0001 199.6 55.2001 205Z" fill="#843C28"/>
<path d="M55.5004 204.5C59.9004 210.2 75.7004 219.4 102.4 218.1C132.6 216.6 164.4 191.9 173.1 174.6C181.8 157.2 183.8 144.8 179.3 133.3C173.2 117.5 137.2 115.2 123.3 118C112.5 120.2 81.6004 126.9 63.6004 158.8C50.4004 182.1 51.4004 199.2 55.5004 204.5Z" fill="#853D29"/>
<path d="M55.8004 204C60.1004 209.5 75.7004 218.6 101.8 217.3C131.4 215.8 162.6 191.6 171 174.6C179.5 157.5 181.4 145.4 177 134.1C171 118.6 135.7 116.4 122.1 119.2C111.5 121.4 81.2004 128 63.6004 159.3C50.9004 182 51.8004 198.9 55.8004 204Z" fill="#863E2A"/>
<path d="M56.1002 203.5C60.3002 208.9 75.6002 217.8 101.2 216.5C130.2 215 160.7 191.2 169 174.5C177.3 157.7 179.2 145.9 174.9 134.8C169 119.6 134.4 117.5 121.1 120.2C110.7 122.4 81.1002 128.8 63.8002 159.5C51.3002 182 52.2002 198.5 56.1002 203.5Z" fill="#873E2B"/>
<path d="M56.5003 203.1C60.6003 208.4 75.6003 217.1 100.7 215.7C129.1 214.2 159 190.9 167.1 174.5C175.2 158.1 177.1 146.4 172.8 135.6C167 120.8 133.1 118.7 120 121.5C109.8 123.6 80.8003 130 63.9003 160.1C51.7003 181.9 52.6003 198.1 56.5003 203.1Z" fill="#883F2B"/>
<path d="M56.8001 202.6C60.8001 207.8 75.5001 216.3 100.1 214.9C127.9 213.4 157.1 190.5 165.1 174.5C173 158.4 174.8 147 170.7 136.4C165 121.9 131.8 119.9 119 122.6C109 124.7 80.6001 130.9 64.1001 160.4C52.1001 181.9 53.0001 197.7 56.8001 202.6Z" fill="#89402C"/>
<path d="M57.1002 202.1C61.1002 207.2 75.4002 215.4 99.5002 214.1C126.7 212.6 155.3 190.2 163 174.5C170.8 158.7 172.5 147.6 168.4 137.2C162.8 123 130.3 121.1 117.8 123.7C108.1 125.8 80.3002 131.9 64.1002 160.8C52.5002 181.8 53.4002 197.3 57.1002 202.1Z" fill="#8A412D"/>
<path d="M57.3999 201.6C61.2999 206.6 75.2999 214.6 98.8999 213.3C125.6 211.8 153.5 189.9 161 174.5C168.6 159.1 170.2 148.2 166.2 138C160.8 124.1 129 122.3 116.8 124.9C107.3 126.9 80.0999 133 64.2999 161.3C52.8999 181.8 53.7999 197 57.3999 201.6Z" fill="#8B422E"/>
<path d="M57.8003 201.1C61.6003 206 75.4003 213.8 98.4003 212.5C124.5 211 151.7 189.5 159.1 174.5C166.5 159.4 168.1 148.7 164.2 138.8C158.7 125.2 127.6 123.5 115.7 126C106.4 128 79.8003 133.9 64.5003 161.6C53.3003 181.8 54.2003 196.6 57.8003 201.1Z" fill="#8C432F"/>
<path d="M58.1003 200.6C61.8003 205.3 75.3003 213 97.8003 211.7C123.3 210.2 149.9 189.2 157 174.5C164.2 159.7 165.8 149.3 161.9 139.6C156.6 126.3 126.3 124.7 114.6 127.2C105.5 129.2 79.5003 135 64.6003 162.1C53.7003 181.7 54.6003 196.2 58.1003 200.6Z" fill="#8D4430"/>
<path d="M58.4004 200.1C62.0004 204.7 75.2004 212.2 97.1004 210.9C122 209.4 147.9 188.8 154.9 174.4C161.9 160 163.4 149.8 159.7 140.3C154.5 127.4 124.9 125.8 113.5 128.2C104.6 130.1 79.3004 135.9 64.7004 162.3C54.1004 181.7 55.0004 195.8 58.4004 200.1Z" fill="#8E4530"/>
<path d="M58.8003 199.6C62.4003 204.1 75.2003 211.4 96.6003 210.1C120.9 208.6 146.2 188.5 153 174.4C159.8 160.3 161.3 150.4 157.6 141.2C152.5 128.6 123.6 127 112.4 129.5C103.7 131.4 79.0003 137 64.8003 162.9C54.5003 181.6 55.4003 195.4 58.8003 199.6Z" fill="#8F4631"/>
<path d="M59.1 199.2C62.6 203.6 75.1 210.7 96 209.3C119.7 207.8 144.3 188.1 151 174.4C157.6 160.6 159 150.9 155.4 142C150.4 129.7 122.2 128.2 111.3 130.6C102.8 132.5 78.7 138 64.9 163.2C54.9 181.6 55.8 195.1 59.1 199.2Z" fill="#904732"/>
<path d="M59.4002 198.7C62.8002 203 75.0002 209.9 95.4002 208.5C118.5 207 142.5 187.8 148.9 174.4C155.3 161 156.7 151.5 153.2 142.8C148.3 130.8 120.8 129.4 110.2 131.8C102 133.6 78.4002 139.1 65.0002 163.7C55.3002 181.6 56.2002 194.7 59.4002 198.7Z" fill="#914833"/>
<path d="M59.7001 198.2C63.0001 202.4 75.0001 209 94.8001 207.7C117.3 206.2 140.7 187.4 146.9 174.4C153.2 161.3 154.5 152.1 151 143.6C146.2 131.9 119.4 130.6 109.1 132.9C101.1 134.7 78.2001 140 65.1001 164.1C55.7001 181.5 56.6001 194.3 59.7001 198.2Z" fill="#924834"/>
<path d="M60.1001 197.7C63.3001 201.7 75.0001 208.2 94.3001 206.9C116.2 205.4 138.9 187.1 145 174.4C151.1 161.6 152.3 152.7 148.9 144.4C144.2 133 118.1 131.8 108.1 134.1C100.3 135.9 78.0001 141.1 65.3001 164.5C56.1001 181.5 57.0001 193.9 60.1001 197.7Z" fill="#934934"/>
<path d="M60.4001 197.2C63.6001 201.1 74.9001 207.4 93.7001 206.1C115 204.6 137.1 186.7 142.9 174.4C148.8 162 150 153.2 146.7 145.2C142.2 134.1 116.7 133 107 135.2C99.4001 136.9 77.7001 142.1 65.4001 164.9C56.5001 181.4 57.4001 193.6 60.4001 197.2Z" fill="#944A35"/>
<path d="M60.7002 196.7C63.8002 200.5 74.8002 206.6 93.1002 205.3C113.8 203.8 135.2 186.4 140.9 174.3C146.6 162.2 147.8 153.7 144.5 145.9C140.1 135.2 115.3 134.1 105.8 136.3C98.4002 138 77.3002 143 65.5002 165.2C56.9002 181.4 57.8002 193.2 60.7002 196.7Z" fill="#954B36"/>
<path d="M61.0999 196.2C64.0999 199.9 74.7999 205.8 92.5999 204.5C112.7 203 133.5 186 139 174.3C144.5 162.5 145.6 154.3 142.5 146.7C138.2 136.3 114.1 135.3 104.9 137.5C97.6999 139.2 77.2999 144.1 65.7999 165.7C57.2999 181.3 58.2999 192.8 61.0999 196.2Z" fill="#964C37"/>
<path d="M61.4002 195.8C64.3002 199.4 74.8002 205.1 92.0002 203.8C111.5 202.3 131.7 185.8 137 174.4C142.3 163 143.4 154.9 140.3 147.6C136.1 137.5 112.7 136.6 103.8 138.7C96.8002 140.3 77.0002 145.2 65.9002 166.1C57.7002 181.3 58.7002 192.4 61.4002 195.8Z" fill="#974D38"/>
<path d="M61.7001 195.3C64.5001 198.8 74.7001 204.3 91.4001 203C110.3 201.5 129.8 185.4 134.9 174.4C140 163.3 141 155.5 138 148.4C133.9 138.6 111.2 137.8 102.6 139.9C95.9001 141.5 76.6001 146.2 65.9001 166.6C58.1001 181.3 59.1001 192 61.7001 195.3Z" fill="#984E39"/>
<path d="M62.0001 194.8C64.8001 198.2 74.6001 203.5 90.8001 202.1C109.1 200.6 128 185 132.9 174.3C137.8 163.5 138.8 156 135.9 149.1C131.9 139.6 110 138.9 101.6 140.9C95.1001 142.5 76.4001 147.1 66.1001 166.9C58.5001 181.2 59.5001 191.7 62.0001 194.8Z" fill="#994F39"/>
<path d="M62.4003 194.3C65.1003 197.5 74.6003 202.7 90.3003 201.3C108 199.8 126.2 184.7 131 174.3C135.8 163.9 136.7 156.6 133.8 149.9C129.9 140.7 108.7 140.1 100.6 142.1C94.3003 143.6 76.3003 148.2 66.3003 167.3C58.9003 181.2 59.9003 191.3 62.4003 194.3Z" fill="#9A503A"/>
<path d="M62.7 193.8C65.3 196.9 74.5 201.8 89.7 200.5C106.8 199 124.4 184.3 128.9 174.3C133.5 164.2 134.3 157.1 131.5 150.7C127.7 141.9 107.2 141.3 99.3 143.2C93.2 144.7 75.8 149.1 66.2 167.7C59.4 181.1 60.3 190.9 62.7 193.8Z" fill="#9B513B"/>
<path d="M63 193.3C65.5 196.3 74.4 201 89 199.7C105.6 198.2 122.4 184 126.8 174.2C131.2 164.4 132 157.6 129.3 151.4C125.6 142.9 105.8 142.4 98.2 144.3C92.3 145.8 75.5 150.1 66.3 168C59.8 181.1 60.7 190.5 63 193.3Z" fill="#9C523C"/>
<path d="M63.3003 192.8C65.7003 195.7 74.4003 200.2 88.4003 198.9C104.4 197.4 120.6 183.6 124.8 174.2C129 164.8 129.8 158.2 127.1 152.2C123.5 144 104.4 143.6 97.1003 145.4C91.4003 146.8 75.2003 151.1 66.4003 168.4C60.2003 181.1 61.1003 190.1 63.3003 192.8Z" fill="#9D523D"/>
<path d="M63.7002 192.3C66.1002 195.1 74.4002 199.4 87.9002 198.1C103.3 196.6 118.9 183.3 122.9 174.2C126.9 165.1 127.6 158.8 125.1 153C121.6 145.1 103.2 144.8 96.2002 146.6C90.7002 148 75.2002 152.1 66.8002 168.8C60.6002 181 61.5002 189.8 63.7002 192.3Z" fill="#9E533E"/>
<path d="M64.0002 191.9C66.3002 194.6 74.3002 198.7 87.3002 197.4C102.1 195.9 117 183 120.8 174.3C124.6 165.5 125.3 159.4 122.8 153.9C119.4 146.3 101.7 146.1 95.0002 147.8C89.8002 149.2 74.8002 153.2 66.8002 169.3C61.0002 181 61.9002 189.4 64.0002 191.9Z" fill="#9F543E"/>
<path d="M64.3001 191.4C66.5001 193.9 74.2001 197.9 86.7001 196.6C100.9 195.1 115.2 182.7 118.8 174.3C122.4 165.9 123 160 120.6 154.7C117.3 147.4 100.3 147.3 93.9001 149C88.9001 150.3 74.5001 154.3 66.9001 169.8C61.4001 180.9 62.3001 189 64.3001 191.4Z" fill="#A0553F"/>
<path d="M64.6999 190.9C66.7999 193.3 74.1999 197.1 86.1999 195.7C99.7999 194.2 113.4 182.2 116.9 174.2C120.3 166.1 120.9 160.5 118.6 155.4C115.4 148.5 99.0999 148.4 92.8999 150C88.0999 151.3 74.3999 155.1 67.0999 170C61.7999 180.9 62.6999 188.6 64.6999 190.9Z" fill="#A15640"/>
<path d="M65.0003 190.4C67.0003 192.7 74.1003 196.3 85.6003 194.9C98.6003 193.4 111.6 181.9 114.8 174.2C118.1 166.4 118.6 161.1 116.3 156.2C113.2 149.6 97.6003 149.6 91.7003 151.2C87.1003 152.5 74.0003 156.2 67.1003 170.5C62.2003 180.8 63.1003 188.2 65.0003 190.4Z" fill="#A25741"/>
<path d="M65.3001 189.9C67.3001 192.1 74.1001 195.4 85.0001 194.1C97.4001 192.6 109.8 181.5 112.8 174.1C115.9 166.7 116.3 161.5 114.2 156.9C111.2 150.6 96.3001 150.7 90.7001 152.2C86.3001 153.4 73.8001 157.1 67.3001 170.7C62.6001 180.8 63.5001 187.9 65.3001 189.9Z" fill="#A35842"/>
<path d="M65.6004 189.4C67.5004 191.5 74.0004 194.6 84.4004 193.3C96.2004 191.8 107.9 181.2 110.8 174.1C113.7 167 114.1 162.1 112 157.7C109.1 151.7 94.9004 151.9 89.6004 153.4C85.4004 154.6 73.5004 158.1 67.4004 171.2C63.0004 180.8 63.9004 187.5 65.6004 189.4Z" fill="#A45943"/>
<path d="M66 188.9C67.8 190.9 74 193.8 83.9 192.5C95.1 191 106.2 180.8 108.9 174.1C111.6 167.3 111.9 162.7 109.9 158.5C107.1 152.8 93.7 153.1 88.6 154.6C84.6 155.8 73.4 159.2 67.6 171.6C63.4 180.7 64.3 187.1 66 188.9Z" fill="#A55A43"/>
<path d="M66.2999 188.4C67.9999 190.3 73.8999 193 83.2999 191.7C93.8999 190.2 104.3 180.5 106.8 174.1C109.3 167.7 109.6 163.3 107.7 159.3C105 153.9 92.2999 154.3 87.4999 155.7C83.7999 156.8 73.0999 160.2 67.6999 172C63.7999 180.7 64.6999 186.7 66.2999 188.4Z" fill="#A65B44"/>
<path d="M66.6003 188C68.2003 189.7 73.8003 192.3 82.7003 191C92.7003 189.5 102.5 180.2 104.8 174.2C107.1 168.1 107.4 163.9 105.5 160.2C102.9 155.1 90.9003 155.6 86.3003 157C82.8003 158.1 72.7003 161.3 67.8003 172.6C64.2003 180.6 65.1003 186.3 66.6003 188Z" fill="#A75C45"/>
<path d="M67.0003 187.5C68.6003 189.1 73.8003 191.5 82.2003 190.2C91.6003 188.7 100.8 179.9 102.9 174.2C105 168.4 105.2 164.5 103.4 161C100.9 156.3 89.6003 156.8 85.3003 158.1C82.0003 159.2 72.5003 162.3 68.0003 172.9C64.6003 180.6 65.5003 186 67.0003 187.5Z" fill="#A85C46"/>
<path d="M67.3004 187C68.8004 188.5 73.8004 190.7 81.6004 189.4C90.4004 187.9 98.9004 179.6 100.9 174.1C102.8 168.7 103 165 101.3 161.8C99.0004 157.4 88.3004 157.9 84.3004 159.3C81.2004 160.3 72.4004 163.4 68.2004 173.4C65.0004 180.6 65.9004 185.6 67.3004 187Z" fill="#A95D47"/>
<path d="M67.6004 186.5C69.0004 187.9 73.7004 189.9 80.9004 188.5C89.1004 187 97.0004 179.1 98.7004 174C100.5 168.9 100.6 165.5 98.9004 162.5C96.7004 158.4 86.7004 159 83.0004 160.3C80.1004 161.3 71.9004 164.2 68.1004 173.6C65.4004 180.5 66.3004 185.2 67.6004 186.5Z" fill="#AA5E48"/>
<path d="M67.9003 186C69.2003 187.3 73.6003 189 80.3003 187.7C87.9003 186.2 95.1003 178.8 96.7003 174C98.3003 169.2 98.3003 166 96.8003 163.3C94.7003 159.5 85.4003 160.2 82.0003 161.5C79.3003 162.5 71.7003 165.3 68.3003 174.1C65.8003 180.5 66.7003 184.8 67.9003 186Z" fill="#AB5F48"/>
<path d="M68.3 185.5C69.5 186.7 73.6 188.2 79.8 186.9C86.8 185.4 93.4 178.4 94.8 174C96.2 169.6 96.2 166.6 94.7 164.1C92.7 160.6 84.1 161.4 81 162.6C78.5 163.5 71.5 166.3 68.5 174.4C66.2 180.4 67.1 184.4 68.3 185.5Z" fill="#AC6049"/>
<path d="M68.6004 185C69.8004 186 73.5004 187.4 79.2004 186.1C85.7004 184.6 91.5004 178.1 92.7004 174C93.9004 169.9 93.8004 167.2 92.4004 164.9C90.5004 161.7 82.6004 162.6 79.8004 163.8C77.6004 164.7 71.2004 167.3 68.5004 174.9C66.6004 180.4 67.5004 184.1 68.6004 185Z" fill="#AD614A"/>
<path d="M285 115.5C277.8 148.8 252.7 179.5 212.6 203.5C173.5 227 122.3 242.1 82.3001 242.1C70.6001 242.1 60.5001 240.8 52.6001 238.2C55.7001 240.2 59.4001 242.1 63.5001 244C69.1001 244.9 75.4001 245.3 82.3001 245.3C122.8 245.3 174.6 230 214.2 206.2C237 192.5 255.1 176.8 268 159.4C274.9 150 280.3 140.3 284 130.3C284.9 125.2 285.2 120.3 285 115.5Z" fill="#571202"/>
<path d="M217.2 77.7999C223.1 77.7999 228.6 77.9999 233.4 78.2999C235.6 78.3999 237.7 78.4999 239.6 78.5999C254.4 79.0999 264.6 80.8999 271.6 83.1999C269.4 81.2999 266.9 79.5999 264.1 77.9999C257.2 76.5999 249.1 75.7999 239.7 75.3999C237.7 75.2999 235.7 75.1999 233.5 75.0999C228.6 74.8999 223.1 74.5999 217.2 74.5999C201.9 74.5999 178.4 76.0999 150.3 88.8999C120.3 102.6 90.0004 126.9 60.2004 161.4C49.3004 174 40.7004 187.4 35.8004 199.5C35.4004 203.6 35.3004 207.4 35.5004 210.8C38.5004 198.2 47.4004 181.2 62.7004 163.5C128.4 87.4999 179.8 77.7999 217.2 77.7999Z" fill="#571202"/>
<path d="M82.4002 244.5C75.7002 244.5 69.5002 244.1 63.9002 243.2C62.3002 242.5 60.7002 241.7 59.2002 240.9C65.9002 242.3 73.7002 243.1 82.4002 243.1C122.6 243.1 173.9 227.9 213.1 204.3C250.5 182 274.8 154 284 123.2C283.8 125.5 283.6 127.8 283.2 130.2C279.5 140.1 274.2 149.8 267.4 159C254.6 176.3 236.5 192 213.9 205.6C174.4 229.2 122.8 244.5 82.4002 244.5Z" fill="#3B2314"/>
<path d="M36.4004 204.5C36.5004 202.9 36.6004 201.3 36.7004 199.7C41.6004 187.8 50.2004 174.4 60.9004 162C90.6004 127.7 120.8 103.3 150.7 89.7C178.6 77 202 75.5 217.2 75.5C223.1 75.5 228.6 75.7 233.5 76C235.7 76.1 237.8 76.2 239.7 76.3C248.9 76.6 257 77.5 263.8 78.8C265 79.5 266.1 80.2 267.2 81C259.8 79.2 250.5 78.1 239.6 77.7C237.6 77.6 235.4 77.5 233.4 77.4C228.5 77.2 223 76.9 217.2 76.9C179.6 76.9 127.9 86.7 61.9004 162.9C49.9004 176.8 40.8004 191.7 36.4004 204.5Z" fill="#3B2314"/>
<path d="M97.0004 141.8C97.0004 144.7 94.6004 147.1 91.7004 147.1C88.8004 147.1 86.4004 144.7 86.4004 141.8C86.4004 138.9 88.8004 136.5 91.7004 136.5C94.6004 136.5 97.0004 138.8 97.0004 141.8Z" fill="#571202"/>
<path d="M121.1 124.5C121.1 127.4 118.7 129.8 115.8 129.8C112.9 129.8 110.5 127.4 110.5 124.5C110.5 121.6 112.9 119.2 115.8 119.2C118.8 119.2 121.1 121.6 121.1 124.5Z" fill="#571202"/>
<path d="M141.2 113.9C144.127 113.9 146.5 111.527 146.5 108.6C146.5 105.673 144.127 103.3 141.2 103.3C138.273 103.3 135.9 105.673 135.9 108.6C135.9 111.527 138.273 113.9 141.2 113.9Z" fill="#571202"/>
<path d="M174.1 96.3999C174.1 99.2999 171.7 101.7 168.8 101.7C165.9 101.7 163.5 99.2999 163.5 96.3999C163.5 93.4999 165.9 91.0999 168.8 91.0999C171.7 91.0999 174.1 93.3999 174.1 96.3999Z" fill="#571202"/>
<path d="M202.1 89.5C202.1 92.4 199.7 94.7999 196.8 94.7999C193.9 94.7999 191.5 92.4 191.5 89.5C191.5 86.6 193.9 84.2 196.8 84.2C199.7 84.2 202.1 86.6 202.1 89.5Z" fill="#571202"/>
<path d="M85.6003 125.9C85.6003 128.6 83.4003 130.8 80.7003 130.8C78.0003 130.8 75.8003 128.6 75.8003 125.9C75.8003 123.2 78.0003 121 80.7003 121C83.4003 121 85.6003 123.2 85.6003 125.9Z" fill="#571202"/>
<path d="M104.9 112.4C107.606 112.4 109.8 110.206 109.8 107.5C109.8 104.794 107.606 102.6 104.9 102.6C102.194 102.6 100 104.794 100 107.5C100 110.206 102.194 112.4 104.9 112.4Z" fill="#571202"/>
<path d="M137.6 91.9C137.6 94.6 135.4 96.8 132.7 96.8C130 96.8 127.8 94.6 127.8 91.9C127.8 89.2 130 87 132.7 87C135.4 87 137.6 89.2 137.6 91.9Z" fill="#571202"/>
<path d="M164.6 79.2999C164.6 81.9999 162.4 84.1999 159.7 84.1999C157 84.1999 154.8 81.9999 154.8 79.2999C154.8 76.5999 157 74.3999 159.7 74.3999C162.4 74.3999 164.6 76.5999 164.6 79.2999Z" fill="#571202"/>
<path d="M191.3 71.2999C191.3 73.9999 189.1 76.1999 186.4 76.1999C183.7 76.1999 181.5 73.9999 181.5 71.2999C181.5 68.5999 183.7 66.3999 186.4 66.3999C189.1 66.3999 191.3 68.5999 191.3 71.2999Z" fill="#3B2314"/>
<path d="M231.9 66.5C225.7 65.2 219.4 64.3 213.2 63.7C219.7 68.9 225.4 75 233.3 82.9C255.9 105.5 266.2 143.6 270.1 169.9C270.5 169.1 270.9 168.3 271.3 167.5C271.4 167.4 271.4 167.3 271.5 167.2C271.9 166.4 272.2 165.7 272.6 164.9C272.6 164.8 272.7 164.7 272.7 164.6C275 159.6 277 154.9 278.7 150.3C276.1 116 258.2 85.7999 231.9 66.5Z" fill="url(#paint0_linear)"/>
<path d="M132.9 255.5C133.7 255.5 134.6 255.4 135.4 255.3C135.5 255.3 135.5 255.3 135.6 255.3C137.5 255.2 139.4 255 141.2 254.7C121 248 108.4 241.7 95.4002 228.7C70.4002 203.7 59.7002 169 57.6002 140.1C57.6002 140.2 57.5002 140.3 57.5002 140.3C56.5002 142 55.5002 143.8 54.5002 145.5L54.4002 145.6C54.1002 146.1 53.8002 146.7 53.5002 147.2C53.5002 147.3 53.4002 147.4 53.4002 147.5C53.1002 148 52.8002 148.6 52.5002 149.1C52.5002 149.2 52.4002 149.3 52.4002 149.3C52.1002 149.8 51.8002 150.4 51.6002 150.9C51.6002 151 51.5002 151 51.5002 151.1C51.2002 151.7 50.9002 152.2 50.7002 152.8V152.9C50.4002 153.5 50.1002 154.1 49.8002 154.6C49.7002 156.1 49.7002 157.6 49.7002 159.1C49.7002 198.5 69.6002 233.2 99.8002 253.9C102.1 254.2 104.4 254.5 106.7 254.7C107.8 254.8 109 254.9 110.2 255C110.3 255 110.4 255 110.5 255C111.7 255.1 112.8 255.2 114 255.2H114.1C115.3 255.3 116.5 255.3 117.7 255.4C117.8 255.4 117.8 255.4 117.9 255.4C119.1 255.4 120.2 255.5 121.4 255.5C121.6 255.5 121.8 255.5 122 255.5C123.2 255.5 124.3 255.5 125.5 255.5C125.7 255.5 125.9 255.5 126.1 255.5C127.3 255.5 128.6 255.5 129.8 255.4C130.7 255.4 131.7 255.3 132.6 255.3C132.6 255.5 132.7 255.5 132.9 255.5Z" fill="url(#paint1_linear)"/>
<path d="M50.5 173.7C53.5 169.6 56.7 165.4 60.3 161.4C60.4 161.3 60.5 161.2 60.6 161.1C60.9 162.4 61.2 163.7 61.5 165C57.7 169.5 54.3 174 51.3 178.3C50.9 176.8 50.7 175.3 50.5 173.7ZM228.4 78.0998C230.1 78.1998 231.8 78.1998 233.4 78.2998C235.6 78.3998 237.7 78.4998 239.6 78.5998C241.9 78.6998 244 78.7998 246 78.8998C244.9 77.6998 243.7 76.5998 242.5 75.4998C241.6 75.4998 240.6 75.3998 239.6 75.3998C237.6 75.2998 235.6 75.1998 233.4 75.0998C230.8 74.9998 228 74.8998 225 74.7998C226.2 75.7998 227.3 76.8998 228.4 78.0998ZM109.1 240.2C100.8 241.4 92.7 242 85 242.2C86.1 243.3 87.2 244.3 88.4 245.3C96.4 245 104.7 244.2 113.3 242.8C111.9 242 110.5 241.1 109.1 240.2ZM278 143.9C277.8 142 277.5 140.2 277.1 138.4C274.4 144 271.1 149.6 267.3 155C267.6 156.5 267.9 157.9 268.2 159.4C272 154.3 275.2 149.1 278 143.9Z" fill="#929497"/>
<path d="M239.7 76.2999C237.7 76.1999 235.7 76.1 233.5 76C231.2 75.9 228.7 75.8 226.1 75.7C226.6 76.2 227 76.5999 227.5 77.0999C229.6 77.1999 231.6 77.3 233.5 77.4C235.6 77.5 237.7 77.6 239.7 77.7C241.6 77.8 243.4 77.8 245.1 78C244.6 77.5 244.1 77 243.6 76.5C242.4 76.4 241.1 76.2999 239.7 76.2999Z" fill="#6D6E70"/>
<path d="M112.1 242.1C111.5 241.7 110.9 241.4 110.3 241C101.9 242.2 93.7 242.9 86 243.1C86.5 243.5 87 244 87.4 244.4C95.3 244.1 103.6 243.4 112.1 242.1Z" fill="#6D6E70"/>
<path d="M50.6001 175.1C50.7001 175.8 50.8001 176.4 50.9001 177C54.0001 172.6 57.4001 168.2 61.1001 163.9C61.0001 163.3 60.8001 162.8 60.7001 162.2C57.1001 166.4 53.7001 170.7 50.6001 175.1Z" fill="#6D6E70"/>
<path d="M268 158.1C271.7 153 275 147.7 277.8 142.4C277.7 141.6 277.5 140.8 277.4 140C274.6 145.5 271.4 151 267.6 156.3C267.7 156.8 267.9 157.4 268 158.1Z" fill="#6D6E70"/>
<path d="M82.7003 140.9C82.1003 140.9 81.5003 140.7 81.1003 140.2C80.2003 139.3 80.2003 137.9 81.1003 137C88.2003 129.9 106.7 114.5 128.4 101C146.9 89.5999 173.5 76.0999 196.2 76.0999C196.6 76.0999 196.9 76.0999 197.3 76.0999C198.6 76.0999 199.6 77.1999 199.5 78.3999C199.5 79.6999 198.4 80.6999 197.2 80.5999C175.4 80.3999 149 93.6999 130.8 105C109.4 118.2 91.3003 133.4 84.3003 140.3C83.9003 140.7 83.3003 140.9 82.7003 140.9Z" fill="white"/>
<path d="M198.9 76.8999C199.2 77.2999 199.4 77.7999 199.4 78.2999C199.4 79.5999 198.3 80.5999 197.1 80.4999C175.2 80.0999 148.9 93.3999 130.7 104.7C109.2 117.9 91.1004 133.1 84.1004 140C83.7004 140.4 83.1004 140.7 82.5004 140.7C81.9004 140.7 81.4004 140.5 80.9004 140.1C81.0004 140.2 81.0004 140.2 81.1004 140.3C81.5004 140.7 82.1004 141 82.7004 141C83.3004 141 83.9004 140.8 84.3004 140.3C91.2004 133.4 109.4 118.2 130.8 105C149 93.6999 175.4 80.3999 197.2 80.7999C198.5 80.7999 199.5 79.7999 199.5 78.5999C199.6 77.8999 199.3 77.2999 198.9 76.8999Z" fill="#A6A8AB"/>
<path d="M81.4001 137.9C88.5001 130.8 107 115.4 128.7 101.9C147.1 90.5 173.8 77 196.5 77C196.9 77 197.2 77 197.6 77C198.4 77 199.1 77.5 199.5 78.2C199.3 77.1 198.4 76.3 197.3 76.2C196.9 76.2 196.6 76.2 196.2 76.2C173.4 76.2 146.8 89.6999 128.4 101.1C106.6 114.5 88.2001 130 81.1001 137.1C80.4001 137.8 80.2001 139 80.7001 139.8C80.7001 139.1 80.9001 138.4 81.4001 137.9Z" fill="#D0D2D3"/>
<path d="M91.4002 145.2C90.2002 145.2 89.0002 144.6 88.2002 143.5C88.1002 143.4 87.9002 143.1 87.5002 142.6C81.2002 134.7 78.4002 130.7 77.7002 128.5C77.0002 126.3 78.1002 123.8 80.2002 123.1C82.3002 122.3 84.3002 123.6 85.3002 125.7C85.6002 126.3 86.9002 128.7 93.7002 137.2C94.4002 138 94.5002 138.2 94.7002 138.4C96.0002 140.3 95.7002 143 93.9002 144.4C93.0002 145 92.2002 145.2 91.4002 145.2Z" fill="white"/>
<path d="M91.4002 143C90.9002 143 90.4002 142.7 90.1002 142.3C90.0002 142.2 89.8002 141.9 89.6002 141.6L89.4002 141.3C85.2002 136 80.7002 130.3 79.9002 127.9C79.6002 126.8 80.1002 125.7 81.0002 125.3C81.2002 125.2 81.3002 125.2 81.5002 125.2C82.2002 125.2 82.9002 125.8 83.3002 126.7C84.0002 128.3 86.9002 132.3 92.0002 138.7C92.6002 139.5 92.8002 139.7 92.9002 139.8C93.5002 140.7 93.4002 142 92.5002 142.7C92.1002 142.8 91.7002 143 91.4002 143Z" fill="white"/>
<path d="M115.3 128C112.4 128 111.3 126.3 107.2 119.8C105.1 116.5 102.9 112.7 101.8 110.8C100.5 108.6 101.3 105.8 103.5 104.6C105.7 103.3 107.8 104.8 109 107C111.3 111 116.9 118.2 118.2 120C119.2 120.8 119.8 122.1 119.8 123.5C119.9 126 117.9 128 115.3 128Z" fill="white"/>
<path d="M140.7 111.5C138.8 111.5 137.1 110.4 136.4 108.5C134.4 103.2 131.8 97.4999 130.7 96.2999C128.8 94.8999 128.3 92.0999 129.6 90.0999C131 87.9999 133.3 87.5999 135.4 88.9999C138.7 91.1999 142.6 98.9999 144.9 105.3C145.8 107.7 144.6 110.3 142.2 111.1C141.7 111.4 141.2 111.5 140.7 111.5Z" fill="white"/>
<path d="M168.2 99.5C166.6 99.5 165 98.6 164.2 97.1L156.5 82.4C155.3 80.2 156.2 77.4 158.4 76.3C160.6 75.1 162.4 76.1 163.6 78.3L172.3 92.9C173.5 95.1 172.6 97.9 170.4 99C169.6 99.3 168.9 99.5 168.2 99.5Z" fill="white"/>
<path d="M196.5 93.0999C195.5 93.0999 194.4 92.6999 193.5 91.9999C192.4 91.0999 191.9 89.6999 191.9 88.3999C190.9 85.4999 185.9 77.0999 184.2 75.6999C182.2 74.0999 181.9 71.2999 183.5 69.2999C185.1 67.2999 187.5 67.3999 189.4 68.9999C191.6 70.6999 194.7 74.4999 196.6 77.6999C199.4 82.3999 200.8 85.7999 201 87.6999C201.2 89.6999 200.4 90.8999 199.9 91.4999C199.1 92.5999 197.8 93.0999 196.5 93.0999Z" fill="white"/>
<path d="M91.4 144.8C90.2 144.8 89.1 144.2 88.3 143.2C88.2 143.1 88 142.8 87.6 142.4C81.4 134.7 78.8 130.8 78 128.7C77.4 126.8 78.1 124.8 79.6 123.8C77.9 124.7 77.1 126.9 77.7 128.8C78.4 131 81.1 134.8 87.3 142.5C87.6 142.9 87.9 143.2 88 143.3C88.8 144.4 89.9 144.9 91.1 144.9C91.8 144.9 92.5 144.7 93.1 144.3C92.6 144.6 92 144.8 91.4 144.8Z" fill="#BBBDBF"/>
<path d="M115.2 127.3C112.4 127.3 111.3 125.6 107.4 119.3C105.4 116.1 103.2 112.4 102.1 110.6C101.7 110 101.5 109.3 101.5 108.6C101.5 109.4 101.6 110.3 102.1 111C103.2 112.8 105.4 116.5 107.4 119.7C111.3 126 112.4 127.7 115.2 127.7C117.6 127.7 119.6 125.7 119.6 123.3C119.6 123.2 119.6 123.2 119.6 123.1C119.5 125.5 117.6 127.3 115.2 127.3Z" fill="#BBBDBF"/>
<path d="M142.5 110.6C142 110.8 141.5 110.9 141 110.9C139.2 110.9 137.5 109.8 136.8 108C134.9 102.8 132.3 97.3 131.2 96.1C129.3 94.7 128.8 92 130.1 90.1C130.2 89.9 130.4 89.7 130.6 89.5C130.3 89.8 130 90.1 129.8 90.4C128.5 92.4 129 95 130.9 96.4C132 97.6 134.6 103.1 136.5 108.3C137.2 110.1 138.9 111.2 140.7 111.2C141.2 111.2 141.7 111.1 142.2 110.9C142.9 110.6 143.5 110.2 144 109.7C143.5 110.1 143 110.4 142.5 110.6Z" fill="#D0D2D3"/>
<path d="M170.3 98.2998C169.7 98.5998 169 98.7998 168.3 98.7998C166.7 98.7998 165.2 97.9998 164.4 96.4998L157 82.2998C156.1 80.5998 156.4 78.5998 157.6 77.2998C156.2 78.5998 155.7 80.7998 156.7 82.5998L164.1 96.6998C164.9 98.1998 166.4 98.9998 168 98.9998C168.7 98.9998 169.4 98.7998 170 98.4998C170.5 98.2998 170.9 97.8998 171.2 97.5998C170.9 97.8998 170.6 98.0998 170.3 98.2998Z" fill="#D0D2D3"/>
<path d="M196.6 92.4C195.6 92.4 194.6 92.1 193.8 91.4C192.8 90.5 192.2 89.2 192.3 87.9C191.3 85.1 186.5 77.2 184.9 75.8C183 74.3 182.7 71.6 184.2 69.7C184.3 69.6 184.3 69.5 184.4 69.5C184.2 69.6 184.1 69.8 183.9 70C182.4 71.9 182.7 74.6 184.6 76.1C186.2 77.5 191 85.4 192 88.2C192 89.5 192.5 90.8 193.5 91.7C194.3 92.4 195.3 92.7 196.3 92.7C197.5 92.7 198.6 92.2 199.5 91.3C198.7 92 197.7 92.4 196.6 92.4Z" fill="#D0D2D3"/>
<path d="M79.3003 124.2C81.4003 123.4 83.4003 124.7 84.4003 126.8C84.7003 127.4 86.0003 129.8 92.8003 138.3C93.5003 139.1 93.6003 139.3 93.8003 139.5C94.8003 140.9 94.8003 142.7 94.1003 144.1C95.6003 142.6 95.8003 140.2 94.5003 138.5C94.4003 138.3 94.2003 138.1 93.5003 137.3C86.7003 128.8 85.4003 126.5 85.1003 125.8C84.1003 123.7 82.1003 122.5 80.0003 123.2C79.0003 123.6 78.2003 124.3 77.8003 125.2C78.3003 124.7 78.8003 124.4 79.3003 124.2Z" fill="#D8D8D8"/>
<path d="M103.3 105.8C105.5 104.5 107.6 106 108.8 108.2C111.1 112.2 116.7 119.4 118 121.2C119 122 119.6 123.3 119.6 124.7C119.6 124.8 119.6 124.8 119.6 124.9C119.7 124.5 119.8 124 119.8 123.5C119.8 122.1 119.2 120.9 118.2 120C116.8 118.2 111.3 111 109 107C107.7 104.8 105.6 103.4 103.5 104.6C102.1 105.4 101.3 106.9 101.2 108.4C101.6 107.4 102.3 106.4 103.3 105.8Z" fill="#D0D2D3"/>
<path d="M145 105.4C142.7 99.0998 138.8 91.1998 135.5 89.0998C133.5 87.7998 131.3 88.0998 129.9 89.8998C131.3 88.7998 133 88.7998 134.7 89.8998C138 92.0998 141.9 99.8998 144.2 106.2C144.8 107.7 144.4 109.4 143.5 110.6C145 109.4 145.7 107.3 145 105.4Z" fill="#BBBDBF"/>
<path d="M172.2 92.7999L163.5 78.1999C162.3 75.9999 160.5 74.9999 158.3 76.1999C157.7 76.4999 157.2 76.8999 156.9 77.3999C157.1 77.1999 157.4 77.0999 157.6 76.8999C159.8 75.6999 161.6 76.6999 162.8 78.8999L171.5 93.4999C172.4 95.1999 172.1 97.0999 171 98.4999C172.7 97.1999 173.2 94.7999 172.2 92.7999Z" fill="#BBBDBF"/>
<path d="M201.1 87.6998C200.9 85.6998 199.4 82.3998 196.7 77.6998C194.8 74.4998 191.7 70.7998 189.5 68.9998C187.6 67.4998 185.2 67.3998 183.6 69.1998C185.1 67.8998 187.2 68.1998 188.9 69.5998C191.1 71.2998 194.2 75.0998 196.1 78.2998C198.9 82.9998 200.3 86.3998 200.5 88.2998C200.7 90.1998 199.9 91.4998 199.4 92.0998C199.6 91.8998 199.8 91.7998 199.9 91.5998C200.5 90.9998 201.3 89.6998 201.1 87.6998Z" fill="#BBBDBF"/>
</g>
<defs>
<filter id="filter0_d" x="1.72209" y="23.6042" width="314.644" height="257.859" filterUnits="userSpaceOnUse" color-interpolation-filters="sRGB">
<feFlood flood-opacity="0" result="BackgroundImageFix"/>
<feColorMatrix in="SourceAlpha" type="matrix" values="0 0 0 0 0 0 0 0 0 0 0 0 0 0 0 0 0 0 127 0"/>
<feOffset dx="-1.21" dy="-6.67188"/>
<feGaussianBlur stdDeviation="16.23"/>
<feColorMatrix type="matrix" values="0 0 0 0 0 0 0 0 0 0 0 0 0 0 0 0 0 0 0.25 0"/>
<feBlend mode="normal" in2="BackgroundImageFix" result="effect1_dropShadow"/>
<feBlend mode="normal" in="SourceGraphic" in2="effect1_dropShadow" result="shape"/>
</filter>
<linearGradient id="paint0_linear" x1="205.214" y1="31.1005" x2="291.716" y2="178.154" gradientUnits="userSpaceOnUse">
<stop offset="0.0181818" stop-color="#A6A8AB"/>
<stop offset="0.0230529" stop-color="#A7A9AC"/>
<stop offset="0.2398" stop-color="#D7D7D9"/>
<stop offset="0.4057" stop-color="#F4F4F5"/>
<stop offset="0.5" stop-color="white"/>
<stop offset="0.579" stop-color="#F6F6F7"/>
<stop offset="0.7064" stop-color="#DEDFE0"/>
<stop offset="0.8654" stop-color="#B8B9BB"/>
<stop offset="1" stop-color="#929497"/>
</linearGradient>
<linearGradient id="paint1_linear" x1="39.8937" y1="128.349" x2="126.395" y2="275.403" gradientUnits="userSpaceOnUse">
<stop offset="0.0181818" stop-color="#A6A8AB"/>
<stop offset="0.0230529" stop-color="#A7A9AC"/>
<stop offset="0.2398" stop-color="#D7D7D9"/>
<stop offset="0.4057" stop-color="#F4F4F5"/>
<stop offset="0.5" stop-color="white"/>
<stop offset="0.579" stop-color="#F6F6F7"/>
<stop offset="0.7064" stop-color="#DEDFE0"/>
<stop offset="0.8654" stop-color="#B8B9BB"/>
<stop offset="1" stop-color="#929497"/>
</linearGradient>
</defs>
</svg>
