<svg width="51" height="50" viewBox="0 0 51 50" fill="none" xmlns="http://www.w3.org/2000/svg">
<rect x="0.244873" y="0.0408936" width="50" height="49.9182" rx="24.9591" fill="white"/>
<path d="M41.0415 27.8313C41.0307 27.891 41.0231 27.9515 41.0118 28.0112L40.9537 27.6687C40.9855 27.7221 41.0118 27.7775 41.0415 27.8313C41.2185 26.8713 41.3081 25.8973 41.3091 24.9211C41.3091 22.7539 40.8847 20.6512 40.0464 18.6719C39.2376 16.7599 38.0805 15.0428 36.6053 13.5685C35.1321 12.0943 33.4138 10.9371 31.5029 10.1284C29.5241 9.29119 27.4215 8.86685 25.2543 8.86685C24.233 8.86685 23.2098 8.96275 22.2142 9.15386C22.2121 9.15439 22.2094 9.15439 22.2067 9.15492C22.2627 9.18454 22.3193 9.21097 22.3741 9.24165L22.0365 9.18879C22.0931 9.17817 22.1502 9.16621 22.2067 9.15492C20.8408 8.42871 19.3044 8.04089 17.7495 8.04089C15.2109 8.04089 12.8238 9.02942 11.0286 10.8252C9.23393 12.6204 8.24487 15.0073 8.24487 17.546C8.24573 19.1587 8.65728 20.7445 9.44072 22.1541C9.45094 22.0959 9.45798 22.0372 9.46927 21.979L9.52744 22.3156C9.49729 22.2629 9.47087 22.2079 9.44072 22.1541C9.28093 23.0678 9.20006 23.9935 9.199 24.9211C9.199 27.0889 9.62333 29.191 10.4616 31.1709C11.2693 33.0834 12.427 34.7993 13.9007 36.2735C15.376 37.7479 17.092 38.9067 19.0051 39.7132C20.984 40.5521 23.0871 40.9769 25.2543 40.9769C26.1977 40.9769 27.1432 40.8907 28.0659 40.7271C28.0122 40.697 27.9573 40.6695 27.9023 40.6377L28.2454 40.698C28.1861 40.7093 28.1262 40.7164 28.0659 40.7271C29.4921 41.5343 31.1031 41.9587 32.7419 41.9591C35.2801 41.9591 37.6659 40.972 39.4611 39.1759C41.2567 37.3817 42.2449 34.9943 42.2449 32.4556C42.244 30.8369 41.8298 29.2451 41.0415 27.8313ZM25.3183 34.7536C19.6147 34.7536 17.063 31.9494 17.063 29.8479C17.063 28.7699 17.8588 28.0144 18.9555 28.0144C21.3964 28.0144 20.7642 31.5192 25.3183 31.5192C27.6498 31.5192 28.9372 30.2533 28.9372 28.9578C28.9372 28.1787 28.5528 27.3149 27.0177 26.9364L21.9445 25.67C17.8588 24.6454 17.1173 22.4367 17.1173 20.3604C17.1173 16.0498 21.176 14.4312 24.9877 14.4312C28.4989 14.4312 32.638 16.3717 32.638 18.9578C32.638 20.066 31.6784 20.7104 30.5821 20.7104C28.4989 20.7104 28.8823 17.827 24.6863 17.827C22.604 17.827 21.4507 18.77 21.4507 20.1193C21.4507 21.466 23.0952 21.8962 24.523 22.2213L28.2782 23.0548C32.3914 23.9712 33.4344 26.3727 33.4344 28.6347C33.4344 32.1379 30.7453 34.7536 25.3183 34.7536ZM27.9023 40.6377C27.9573 40.6695 28.0122 40.697 28.0659 40.7271C28.1262 40.7164 28.1861 40.7093 28.2454 40.698L27.9023 40.6377ZM41.0118 28.0112C41.0231 27.9515 41.0307 27.891 41.0415 27.8313C41.0118 27.7775 40.9855 27.7221 40.9537 27.6687L41.0118 28.0112ZM9.46927 21.979C9.45798 22.0372 9.45094 22.0959 9.44072 22.1541C9.47087 22.2079 9.49729 22.2629 9.52744 22.3156L9.46927 21.979ZM22.3741 9.24165C22.3193 9.21097 22.2627 9.18454 22.2067 9.15492C22.1502 9.16621 22.0931 9.17817 22.0365 9.18879L22.3741 9.24165Z" fill="#00AFF0"/>
</svg>
