<svg width="357" height="356" viewBox="0 0 357 356" fill="none" xmlns="http://www.w3.org/2000/svg">
<g clip-path="url(#clip0)">
<g filter="url(#filter0_d)">
<path d="M208.8 284.6C207 284.8 173.7 288.9 152.3 286.2L127.5 242.5C129.2 242 151.3 207.4 153.5 202.2H208.8C209.8 205.5 230.3 237.4 234.6 241.5C234.8 241.7 234.9 241.8 235 241.8L208.8 284.6Z" fill="url(#paint0_linear)"/>
<path d="M130.4 244C132 243.5 153.5 209.8 155.7 204.8H209.5C210.4 208 229.9 238.3 234.4 242.8L235 241.8C234.9 241.8 234.8 241.7 234.6 241.5C230.3 237.5 209.8 205.6 208.8 202.2H153.5C151.2 207.4 129.1 242 127.5 242.5L152.3 286.2C153 286.3 153.7 286.4 154.5 286.4L130.4 244Z" fill="url(#paint1_linear)"/>
<path d="M283.9 229.7L235.2 241.8C235.5 240 211.4 203.9 209.1 202.1L227.6 150.2C229 150.7 261.6 141.7 261.7 141L292 175C291.9 177.1 290.1 209.1 283.9 229.7Z" fill="url(#paint2_linear)"/>
<path d="M225.9 66.8L179.7 78.5C180.6 81.8 182.2 118.7 181.2 117.9V118.5L227.6 149.9C227.7 149.8 227.8 149.8 227.9 149.7C231.6 147.8 261.6 140 261.7 140.8L263 92.3C251.2 81.7 227.2 67.6 225.9 66.8Z" fill="url(#paint3_linear)"/>
<path d="M181 117.6C179.7 113.2 178.8 82.1 179.5 78.7H179.4L132.9 66.7C115.1 74.2 93.0003 90.1 90.8003 91.7L95.4003 139.8C97.2003 139.5 133.4 148.5 134.2 149.7H134.6V149.6L181.1 118.4V117.7C181.1 117.8 181 117.7 181 117.6Z" fill="url(#paint4_linear)"/>
<path d="M90.7002 91.7C103.6 76.9 132.9 66.7 132.9 66.7L143.1 55.8C143.8 55.6 144.5 55.4 145.1 55.2C119.5 62.2 97.1002 77.1 80.7002 97L90.7002 91.7Z" fill="white"/>
<path d="M141.2 56.4L132.4 65.8C132.4 65.8 106.2 75.8 90.2001 90.8L82.4001 94.9001C81.8001 95.6001 81.2001 96.3 80.6001 97L90.6001 91.7001C103.5 76.9001 132.8 66.7 132.8 66.7L143 55.8C142.4 56 141.8 56.2 141.2 56.4Z" fill="#E6E7E8"/>
<path d="M143.1 55.8C143.8 55.6 144.5 55.4 145.1 55.2C144.4 55.4 143.7 55.6 143.1 55.8Z" fill="url(#paint5_linear)"/>
<path d="M304.4 159.3L292 174.9C291.9 177.2 292 174.9 292 174.9C295.9 198.1 283.8 229.7 283.8 229.7L285.5 246.3C298.2 226.5 305.6 203 305.6 177.7C305.7 171.5 305.3 165.3 304.4 159.3Z" fill="url(#paint6_linear)"/>
<path d="M225.9 66.8C227.2 67.6 251.2 81.7001 263 92.4001L278.1 98.6C262.4 78.9 240.9 63.9 216.2 56.3L225.9 66.8Z" fill="#E6E7E8"/>
<path d="M79.2002 228.9L79.0002 228.6C67.3002 212.6 63.4002 181.6 63.0002 178.1C63.0002 178 63.0002 177.9 62.9002 177.7L52.7002 161.8C52.0002 167 51.7002 172.3 51.7002 177.7C51.7002 205.6 60.7002 231.4 75.9002 252.3L79.2002 228.9Z" fill="url(#paint7_linear)"/>
<path d="M230.1 293.9L208.8 284.6C188.6 291.3 162.5 287.8 154.7 286.5C153.9 286.4 153.1 286.3 152.4 286.2L130.2 295.1C129.6 294.8 128.9 294.6 128.3 294.3C143.8 301 160.9 304.8 178.8 304.8C197.9 304.8 216 300.6 232.2 293C231.5 293.3 230.8 293.6 230.1 293.9Z" fill="url(#paint8_linear)"/>
<path d="M143.1 55.7999L132.9 66.6999L179.4 78.6999L225.9 66.8999L216.1 56.3999C204.3 52.7999 191.7 50.7999 178.7 50.7999C166.3 50.6999 154.4 52.4999 143.1 55.7999Z" fill="#020202"/>
<path d="M144.4 55.6L134.6 66.1L179.4 77.5999L224.2 66.2L214.8 56.1C203.4 52.6 191.3 50.7 178.8 50.7C166.8 50.7 155.3 52.5 144.4 55.6Z" fill="#020202"/>
<path d="M145.3 55.5001L135.9 65.6001L179.1 76.7001L222.3 65.7001L213.2 56.0001C202.2 52.6001 190.5 50.8001 178.5 50.8001C167 50.7001 155.9 52.4001 145.3 55.5001Z" fill="url(#paint9_linear)"/>
<path d="M179.4 76.6999L135.3 65.3999L134.6 66.0999L179.4 77.6999L224.2 66.1999L223.5 65.4999L179.4 76.6999Z" fill="url(#paint10_linear)"/>
<path d="M285.6 246.4L283.9 229.8L235.1 241.9L208.8 284.7L230.1 294C253 283.8 272.3 267.2 285.6 246.4Z" fill="#020202"/>
<path d="M285.6 246.4L283.9 229.8L235.1 241.9L208.8 284.7L230.1 294C253 283.8 272.3 267.2 285.6 246.4Z" fill="#020202"/>
<path d="M285.6 246.4L282 231.9L235.9 244.2L211.5 284L230.1 293.9C251.4 284.5 273.2 265.7 285.6 246.4Z" fill="url(#paint11_linear)"/>
<path d="M213.9 284.3L237.5 245.8L282.1 233.9L285.3 246.8C285.4 246.7 285.5 246.5 285.6 246.4L282 231.9L235.9 244.2L211.5 284L230.1 293.9C230.4 293.8 230.7 293.6 231.1 293.5L213.9 284.3Z" fill="url(#paint12_linear)"/>
<path d="M304.4 159.3C301.1 136.5 291.8 115.7 278.1 98.5999L263 92.3999L261.7 140.9L292 175L304.4 159.3Z" fill="#020202"/>
<path d="M304.4 157.8C301.3 136.4 292.5 116.8 279.6 100.7L265.4 94.8999L264.2 140.5L292.7 172.5L304.4 157.8Z" fill="url(#paint13_linear)"/>
<path d="M293.1 171.3L265.4 140.2L266.6 95.9999L280.4 101.7C281 102.5 281.7 103.3 282.3 104.1C281.4 102.9 280.6 101.8 279.7 100.7L265.5 94.8999L263.1 140.6L292.8 172.6L304.5 157.9C304.5 157.7 304.4 157.5 304.4 157.3L293.1 171.3Z" fill="url(#paint14_linear)"/>
<path d="M227.6 150L181.1 118.5L134.6 149.7L153.2 202.3H209L227.6 150Z" fill="url(#paint15_linear)"/>
<path d="M226.2 150.3L181.1 119.8L136 150L154 201H208.2L226.2 150.3Z" fill="url(#paint16_linear)"/>
<path d="M206.7 198.9L154 201H208.2L226.2 150.3L206.7 198.9Z" fill="#020202"/>
<path d="M138.3 152.5L182.5 122.8L224.9 151.6L225.3 150.5L181.1 120.6L136.9 150.2L154.6 200.2H155.1L138.3 152.5Z" fill="url(#paint17_linear)"/>
<path d="M130.1 295.1L152.3 286.2L127.4 242.5L79.1 228.8L76 252.3C89.6 271.2 108.4 286.1 130.1 295.1Z" fill="#020202"/>
<path d="M130.1 295.1L150.7 285.7L127.1 245.1L80.5 231.9L76 252.3C89 269.9 109.2 286.5 130.1 295.1Z" fill="url(#paint18_linear)"/>
<path d="M52.7002 161.8L62.9002 177.7L95.3002 139.9L90.7002 91.7L80.7002 97C65.8002 115.1 55.8002 137.4 52.7002 161.8Z" fill="#020202"/>
<path d="M52.7002 162.5L62.5002 176.1L93.7002 139.8L89.3002 93.3999L81.4002 95.9999C67.1002 113.4 55.7002 139 52.7002 162.5Z" fill="url(#paint19_linear)"/>
<path d="M89.3004 93.3999L81.4004 95.9999C81.1004 96.3999 80.7004 96.7999 80.4004 97.2999L87.9004 94.7999L91.3004 140.3L62.4004 175.9L62.5004 176L93.7004 139.7L89.3004 93.3999Z" fill="url(#paint20_linear)"/>
<path d="M181.1 120.6C181.1 120.6 136.6 149 136.9 150.2C137.2 151.4 178 126.1 181.1 120.6Z" fill="#DDDDDD"/>
<path d="M265.5 94.8999C265.5 94.8999 262.4 140.2 263.4 140.6C264.4 141 267.7 99.9999 265.5 94.8999Z" fill="#929497"/>
<path d="M133.8 149.9C139.1 150 95.9003 139.1 95.3003 139.9C94.7003 140.7 129 149.8 133.8 149.9Z" fill="#929497"/>
<path d="M127.6 242C125.5 248.2 154.4 202.7 153.8 201.7C153.1 200.6 129.5 236.3 127.6 242Z" fill="#808184"/>
<path d="M227.9 149.8C223.9 152 261.7 141.7 261.7 140.9C261.7 140.1 231.5 147.8 227.9 149.8Z" fill="#808184"/>
<path d="M132.9 66.7C132.9 66.7 103.4 77 90.6001 91.9C90.6001 91.9 114.1 74.6 132.9 66.7Z" fill="#BBBDBF"/>
<path d="M283.9 229.7C283.9 229.7 296 198.1 292.1 174.9C292 175 290.4 208.4 283.9 229.7Z" fill="#808184"/>
<path d="M89 94.3999C88.6 89.7999 89.9 142.7 93.7 139.8C93.7 139.7 89.2 96.1999 89 94.3999Z" fill="#BBBDBF"/>
<path d="M134.6 66.0999C135.1 65.1999 177.4 76.1999 179.4 77.5999L134.6 66.0999Z" fill="#E6E7E8"/>
<path d="M91.0003 91.7C87.0003 94.6 137.5 68.2 133.2 66.7C133.3 66.7 116.1 73.3 91.0003 91.7Z" fill="white"/>
<path d="M134.2 149.8C134.2 149.9 134.1 149.9 133.8 149.9C129.1 149.8 96.9 141.3 95.4 140L63 177.8C66.6 198.9 78.5 227.1 79.3 229L127.5 242.6C127.5 242.5 127.5 242.3 127.6 242C129.5 236.8 149.3 206.4 153.2 202.2L134.7 149.9H134.2V149.8Z" fill="url(#paint21_linear)"/>
<path d="M213.2 55.9C203 52.8 192.2 51 181 50.8C180.5 50.8 180.1 50.8 179.6 50.8C179.3 50.8 179 50.8 178.7 50.8C177.7 50.8 176.7 50.8 175.6 50.8C175.5 50.8 175.4 50.8 175.3 50.8C174.3 50.8 173.4 50.9 172.4 50.9C172.3 50.9 172.2 50.9 172.1 50.9C171.3 50.9 170.5 51 169.8 51C161.4 51.6 153.2 53.1 145.3 55.4L135.9 65.5L178.2 76.4C191 70.2 204.6 65.3 218.7 61.8L213.2 55.9Z" fill="url(#paint22_linear)"/>
<path d="M263.5 91C251.7 80.3 227.7 66.2 226.4 65.4L218.7 57.1C217.9 56.8 217 56.6 216.2 56.3L226 66.8C227.4 67.6 251.3 81.7001 263.1 92.4001L278.2 98.6C277.6 97.8 276.9 97.0001 276.2 96.2001L263.5 91Z" fill="url(#paint23_linear)"/>
<path d="M263 92.4001C263 92.4001 246.7 75.2 225.9 66.8C225.9 66.8 250.9 81.3001 263 92.4001Z" fill="#929497"/>
<path d="M181 117.6C179.7 113.2 178.8 82.0999 179.5 78.6999H179.4L176.3 77.8999C177.8 80.2999 178.8 118.6 178.8 118.6L132.9 148.2L95.3003 138.3L95.4003 140.1C96.8003 140.5 134.1 149.7 134.3 149.9H134.7V149.8L181.2 118.6V117.9C181.1 117.8 181 117.7 181 117.6Z" fill="url(#paint24_linear)"/>
<path d="M180.9 118.1C182.4 123.2 180.4 79.1999 179.5 78.8999C178.6 78.4999 179.6 113.4 180.9 118.1Z" fill="#A6A8AB"/>
<path d="M228.8 148.4C228.6 148.5 228.5 148.5 228.5 148.6L183.4 117.3C183.4 117.3 182.6 82.4999 181.7 79.1999L197.7 73.8999L179.8 78.4999C180.7 81.7999 182.3 118.7 181.3 117.9V118.5L227.7 149.9C227.8 149.8 227.9 149.8 228 149.7C231.7 147.8 261.7 140 261.8 140.8V139.4C256.7 140.2 232.1 146.7 228.8 148.4Z" fill="url(#paint25_linear)"/>
<path d="M134.6 149.8H134.2C134.2 149.9 134.1 149.9 133.8 149.9C129.1 149.8 96.9 141.3 95.4 140L63 177.8C63.1 178.2 63.1 178.5 63.2 178.9L94.5 142.4C96 143.7 128.3 152.2 132.9 152.3C133.2 152.3 133.3 152.3 133.3 152.2H133.7L150.7 203.3C146.9 207.6 128 237.1 126.2 242.3L127.4 242.7C127.4 242.6 127.4 242.4 127.5 242.1C129.4 236.9 149.2 206.5 153.1 202.3L134.6 149.8Z" fill="url(#paint26_linear)"/>
<path d="M78.9 228.6C67.2 212.6 63.3 181.6 62.9 178.1C62.9 178 62.9 177.9 62.8 177.7L52.7 161.8C52.6 162.4 52.6 163 52.5 163.6L61.5 177.7C61.5 177.8 61.5 177.9 61.6 178.1C62 181.6 65.9 212.6 77.6 228.6L77.8 228.9L74.8 250.7C75.2 251.2 75.6 251.8 76 252.3L79.2 228.8L78.9 228.6Z" fill="url(#paint27_linear)"/>
<path d="M62.9004 177.7C62.9004 177.7 66.5004 211.5 78.9004 228.5C78.9004 228.6 66.6004 199.6 62.9004 177.7Z" fill="#929497"/>
<path d="M212.3 202.3L230.6 150.9C231.8 151.3 257 144.5 263 142.3L261.7 140.8C261.6 141.6 228.9 150.6 227.6 150L209.1 201.9C211.5 203.7 235.5 239.9 235.2 241.6L238 240.9C236 236.3 214.5 204 212.3 202.3Z" fill="url(#paint28_linear)"/>
<path d="M234.7 241.5C239.7 246.2 210.4 202.3 209 202.2C207.6 202.2 230.1 237.3 234.7 241.5Z" fill="#808184"/>
<path d="M285.3 229.7C285.3 229.7 297.4 198.1 293.5 174.9L304.7 160.8C304.6 160.3 304.6 159.8 304.5 159.3L292 174.9C291.9 177.2 292 174.9 292 174.9C295.9 198.1 283.8 229.7 283.8 229.7L285.5 246.3C285.9 245.7 286.3 245 286.7 244.4L285.3 229.7Z" fill="url(#paint29_linear)"/>
<path d="M127.2 245.1L80.6 231.9L76 252.3C76.1 252.4 76.1 252.5 76.2 252.5L81.6 233.5L126 246.2L149 285.9L129.4 294.8C129.6 294.9 129.8 295 130.1 295.1L150.7 285.7L127.2 245.1Z" fill="url(#paint30_linear)"/>
<path d="M130.1 295.1C129.5 294.8 128.8 294.6 128.2 294.3C128.9 294.6 129.5 294.8 130.1 295.1Z" fill="url(#paint31_linear)"/>
<path d="M132.5 296L152.4 288.1C153.2 288.2 153.9 288.3 154.7 288.4C162.5 289.7 188.7 293.3 208.8 286.5L227.9 294.8C228.6 294.5 229.3 294.2 230 293.9L208.7 284.6C188.5 291.3 162.4 287.8 154.6 286.5C153.8 286.4 153 286.3 152.3 286.2L130.1 295C130.9 295.4 131.7 295.7 132.5 296Z" fill="url(#paint32_linear)"/>
<path d="M152.4 286.1C152.4 286.1 184.8 292.6 208.8 284.6C208.8 284.6 174.3 288.8 152.4 286.1Z" fill="#808184"/>
</g>
</g>
<defs>
<filter id="filter0_d" x="31.7002" y="16.7" width="329.915" height="330.1" filterUnits="userSpaceOnUse" color-interpolation-filters="sRGB">
<feFlood flood-opacity="0" result="BackgroundImageFix"/>
<feColorMatrix in="SourceAlpha" type="matrix" values="0 0 0 0 0 0 0 0 0 0 0 0 0 0 0 0 0 0 127 0"/>
<feOffset dx="18" dy="4"/>
<feGaussianBlur stdDeviation="19"/>
<feColorMatrix type="matrix" values="0 0 0 0 0 0 0 0 0 0 0 0 0 0 0 0 0 0 0.25 0"/>
<feBlend mode="normal" in2="BackgroundImageFix" result="effect1_dropShadow"/>
<feBlend mode="normal" in="SourceGraphic" in2="effect1_dropShadow" result="shape"/>
</filter>
<linearGradient id="paint0_linear" x1="208.859" y1="284.582" x2="151.99" y2="203.366" gradientUnits="userSpaceOnUse">
<stop stop-color="#A6A8AB"/>
<stop offset="0.4419" stop-color="#C4C5C8"/>
<stop offset="1" stop-color="#E6E7E8"/>
</linearGradient>
<linearGradient id="paint1_linear" x1="181.288" y1="286.489" x2="181.288" y2="202.265" gradientUnits="userSpaceOnUse">
<stop stop-color="#A6A8AB"/>
<stop offset="0.0563864" stop-color="#AEB0B2"/>
<stop offset="0.2995" stop-color="#CBCCCE"/>
<stop offset="0.5404" stop-color="#E0E1E2"/>
<stop offset="0.776" stop-color="#EDEDEE"/>
<stop offset="1" stop-color="#F1F1F2"/>
</linearGradient>
<linearGradient id="paint2_linear" x1="291.644" y1="216.283" x2="214.913" y2="171.982" gradientUnits="userSpaceOnUse">
<stop stop-color="#A6A8AB"/>
<stop offset="0.4419" stop-color="#C4C5C8"/>
<stop offset="1" stop-color="#E6E7E8"/>
</linearGradient>
<linearGradient id="paint3_linear" x1="251.727" y1="147.841" x2="195.484" y2="67.5168" gradientUnits="userSpaceOnUse">
<stop stop-color="#BBBDBF"/>
<stop offset="0.0282577" stop-color="#BFC1C3"/>
<stop offset="0.2201" stop-color="#D5D6D8"/>
<stop offset="0.4297" stop-color="#E5E5E6"/>
<stop offset="0.6685" stop-color="#EEEEEF"/>
<stop offset="1" stop-color="#F1F1F2"/>
</linearGradient>
<linearGradient id="paint4_linear" x1="111.479" y1="77.5941" x2="157.67" y2="134.015" gradientUnits="userSpaceOnUse">
<stop stop-color="white"/>
<stop offset="0.055527" stop-color="#FEFEFE"/>
<stop offset="1" stop-color="#F1F1F2"/>
</linearGradient>
<linearGradient id="paint5_linear" x1="143.045" y1="55.5448" x2="145.084" y2="55.5448" gradientUnits="userSpaceOnUse">
<stop stop-color="#E6E7E8"/>
<stop offset="0.1863" stop-color="#EEEFF0"/>
<stop offset="0.603" stop-color="#FBFBFB"/>
<stop offset="1" stop-color="white"/>
</linearGradient>
<linearGradient id="paint6_linear" x1="283.895" y1="202.848" x2="305.748" y2="202.848" gradientUnits="userSpaceOnUse">
<stop stop-color="#A6A8AB"/>
<stop offset="0.4419" stop-color="#C4C5C8"/>
<stop offset="1" stop-color="#E6E7E8"/>
</linearGradient>
<linearGradient id="paint7_linear" x1="65.4604" y1="252.345" x2="65.4604" y2="161.795" gradientUnits="userSpaceOnUse">
<stop stop-color="#BBBDBF"/>
<stop offset="0.2527" stop-color="#D0D1D2"/>
<stop offset="0.7376" stop-color="#F2F2F3"/>
<stop offset="1" stop-color="white"/>
</linearGradient>
<linearGradient id="paint8_linear" x1="180.196" y1="304.749" x2="180.196" y2="284.636" gradientUnits="userSpaceOnUse">
<stop offset="0.1939" stop-color="#929497"/>
<stop offset="0.2017" stop-color="#929497"/>
<stop offset="0.7105" stop-color="#B0B2B4"/>
<stop offset="1" stop-color="#BBBDBF"/>
</linearGradient>
<linearGradient id="paint9_linear" x1="200.904" y1="87.0865" x2="157.31" y2="43.4923" gradientUnits="userSpaceOnUse">
<stop stop-color="#020202"/>
<stop offset="0.1624" stop-color="#0C0C0C"/>
<stop offset="0.4415" stop-color="#272728"/>
<stop offset="0.8012" stop-color="#525354"/>
<stop offset="1" stop-color="#6D6E70"/>
</linearGradient>
<linearGradient id="paint10_linear" x1="179.388" y1="77.6509" x2="179.388" y2="65.3619" gradientUnits="userSpaceOnUse">
<stop stop-color="#6D6E70"/>
<stop offset="0.1988" stop-color="#525354"/>
<stop offset="0.5585" stop-color="#272728"/>
<stop offset="0.8376" stop-color="#0C0C0C"/>
<stop offset="1" stop-color="#020202"/>
</linearGradient>
<linearGradient id="paint11_linear" x1="260.566" y1="274.388" x2="235.498" y2="244.513" gradientUnits="userSpaceOnUse">
<stop stop-color="#333333"/>
<stop offset="0.1817" stop-color="#282828"/>
<stop offset="0.6983" stop-color="#0C0C0C"/>
<stop offset="1" stop-color="#020202"/>
</linearGradient>
<linearGradient id="paint12_linear" x1="257.783" y1="271.072" x2="235.498" y2="244.513" gradientUnits="userSpaceOnUse">
<stop stop-color="#191818"/>
<stop offset="0.2375" stop-color="#232222"/>
<stop offset="0.6438" stop-color="#3C3D3E"/>
<stop offset="1" stop-color="#58595B"/>
</linearGradient>
<linearGradient id="paint13_linear" x1="264.223" y1="133.675" x2="304.418" y2="133.675" gradientUnits="userSpaceOnUse">
<stop stop-color="#231F20"/>
<stop offset="0.3462" stop-color="#1F1B1C"/>
<stop offset="0.699" stop-color="#131111"/>
<stop offset="1" stop-color="#020202"/>
</linearGradient>
<linearGradient id="paint14_linear" x1="283.739" y1="172.499" x2="283.739" y2="94.8506" gradientUnits="userSpaceOnUse">
<stop stop-color="#020202"/>
<stop offset="0.00779831" stop-color="#050505"/>
<stop offset="0.0791368" stop-color="#1F1F20"/>
<stop offset="0.16" stop-color="#343436"/>
<stop offset="0.2556" stop-color="#444547"/>
<stop offset="0.3738" stop-color="#505152"/>
<stop offset="0.5396" stop-color="#565759"/>
<stop offset="1" stop-color="#58595B"/>
</linearGradient>
<linearGradient id="paint15_linear" x1="181.09" y1="202.267" x2="181.09" y2="118.498" gradientUnits="userSpaceOnUse">
<stop stop-color="#191818"/>
<stop offset="0.2375" stop-color="#232222"/>
<stop offset="0.6438" stop-color="#3C3D3E"/>
<stop offset="1" stop-color="#58595B"/>
</linearGradient>
<linearGradient id="paint16_linear" x1="207.956" y1="201.148" x2="160.234" y2="132.994" gradientUnits="userSpaceOnUse">
<stop stop-color="#191818"/>
<stop offset="0.2438" stop-color="#2B2B2C"/>
<stop offset="0.7345" stop-color="#4C4C4E"/>
<stop offset="1" stop-color="#58595B"/>
</linearGradient>
<linearGradient id="paint17_linear" x1="195.542" y1="180.967" x2="150.823" y2="136.249" gradientUnits="userSpaceOnUse">
<stop stop-color="#333333"/>
<stop offset="0.8597" stop-color="#95979A"/>
<stop offset="1" stop-color="#A6A8AB"/>
</linearGradient>
<linearGradient id="paint18_linear" x1="127.463" y1="245.061" x2="99.8351" y2="277.235" gradientUnits="userSpaceOnUse">
<stop stop-color="#191818"/>
<stop offset="0.2375" stop-color="#232222"/>
<stop offset="0.6438" stop-color="#3C3D3E"/>
<stop offset="1" stop-color="#58595B"/>
</linearGradient>
<linearGradient id="paint19_linear" x1="73.2113" y1="176.063" x2="73.2113" y2="93.3726" gradientUnits="userSpaceOnUse">
<stop stop-color="#191818"/>
<stop offset="0.1716" stop-color="#292929"/>
<stop offset="0.4955" stop-color="#434345"/>
<stop offset="0.7823" stop-color="#535355"/>
<stop offset="1" stop-color="#58595B"/>
</linearGradient>
<linearGradient id="paint20_linear" x1="62.4264" y1="134.718" x2="93.69" y2="134.718" gradientUnits="userSpaceOnUse">
<stop stop-color="#231F20"/>
<stop offset="0.2217" stop-color="#343132"/>
<stop offset="1" stop-color="#6D6E70"/>
</linearGradient>
<linearGradient id="paint21_linear" x1="138.643" y1="234.658" x2="79.9011" y2="150.766" gradientUnits="userSpaceOnUse">
<stop stop-color="#D0D2D3"/>
<stop offset="0.3539" stop-color="#DDDFDF"/>
<stop offset="1" stop-color="white"/>
</linearGradient>
<linearGradient id="paint22_linear" x1="190.046" y1="81.8904" x2="162.922" y2="43.153" gradientUnits="userSpaceOnUse">
<stop stop-color="#231F20"/>
<stop offset="0.1176" stop-color="#343132"/>
<stop offset="0.3316" stop-color="#4D4C4D"/>
<stop offset="0.5491" stop-color="#5F5F61"/>
<stop offset="0.7702" stop-color="#696A6C"/>
<stop offset="1" stop-color="#6D6E70"/>
</linearGradient>
<linearGradient id="paint23_linear" x1="216.133" y1="77.4721" x2="278.08" y2="77.4721" gradientUnits="userSpaceOnUse">
<stop stop-color="white"/>
<stop offset="0.267" stop-color="#FCFCFC"/>
<stop offset="0.466" stop-color="#F2F3F3"/>
<stop offset="0.6429" stop-color="#E2E3E4"/>
<stop offset="0.807" stop-color="#CCCDCF"/>
<stop offset="0.9609" stop-color="#AFB0B3"/>
<stop offset="1" stop-color="#A6A8AB"/>
</linearGradient>
<linearGradient id="paint24_linear" x1="138.135" y1="149.742" x2="138.135" y2="77.8467" gradientUnits="userSpaceOnUse">
<stop stop-color="#A6A8AB"/>
<stop offset="0.1368" stop-color="#BCBDC0"/>
<stop offset="0.3592" stop-color="#D9DADB"/>
<stop offset="0.5796" stop-color="#EEEFEF"/>
<stop offset="0.7951" stop-color="#FBFBFB"/>
<stop offset="1" stop-color="white"/>
</linearGradient>
<linearGradient id="paint25_linear" x1="179.702" y1="111.994" x2="261.706" y2="111.994" gradientUnits="userSpaceOnUse">
<stop stop-color="white"/>
<stop offset="0.2049" stop-color="#FBFBFB"/>
<stop offset="0.4204" stop-color="#EEEFEF"/>
<stop offset="0.6408" stop-color="#D9DADB"/>
<stop offset="0.8632" stop-color="#BCBDC0"/>
<stop offset="1" stop-color="#A6A8AB"/>
</linearGradient>
<linearGradient id="paint26_linear" x1="108.004" y1="242.509" x2="108.004" y2="139.976" gradientUnits="userSpaceOnUse">
<stop stop-color="#A6A8AB"/>
<stop offset="0.0563864" stop-color="#AEB0B2"/>
<stop offset="0.2995" stop-color="#CBCCCE"/>
<stop offset="0.5404" stop-color="#E0E1E2"/>
<stop offset="0.776" stop-color="#EDEDEE"/>
<stop offset="1" stop-color="#F1F1F2"/>
</linearGradient>
<linearGradient id="paint27_linear" x1="65.8488" y1="252.345" x2="65.8488" y2="161.795" gradientUnits="userSpaceOnUse">
<stop stop-color="#A6A8AB"/>
<stop offset="0.0454189" stop-color="#B0B2B5"/>
<stop offset="0.1943" stop-color="#CDCED0"/>
<stop offset="0.3541" stop-color="#E3E4E5"/>
<stop offset="0.5277" stop-color="#F3F3F3"/>
<stop offset="0.7255" stop-color="#FCFCFC"/>
<stop offset="1" stop-color="white"/>
</linearGradient>
<linearGradient id="paint28_linear" x1="268.099" y1="211" x2="217.378" y2="160.279" gradientUnits="userSpaceOnUse">
<stop stop-color="#A6A8AB"/>
<stop offset="0.0563864" stop-color="#AEB0B2"/>
<stop offset="0.2995" stop-color="#CBCCCE"/>
<stop offset="0.5404" stop-color="#E0E1E2"/>
<stop offset="0.776" stop-color="#EDEDEE"/>
<stop offset="1" stop-color="#F1F1F2"/>
</linearGradient>
<linearGradient id="paint29_linear" x1="312.085" y1="219.907" x2="277.969" y2="185.79" gradientUnits="userSpaceOnUse">
<stop stop-color="#A6A8AB"/>
<stop offset="0.0349335" stop-color="#ABADAF"/>
<stop offset="0.2255" stop-color="#C1C2C4"/>
<stop offset="0.4337" stop-color="#D1D1D2"/>
<stop offset="0.6708" stop-color="#DADADA"/>
<stop offset="1" stop-color="#DDDDDD"/>
</linearGradient>
<linearGradient id="paint30_linear" x1="113.344" y1="295.415" x2="113.344" y2="231.629" gradientUnits="userSpaceOnUse">
<stop stop-color="#191818"/>
<stop offset="0.2375" stop-color="#232222"/>
<stop offset="0.6438" stop-color="#3C3D3E"/>
<stop offset="1" stop-color="#58595B"/>
</linearGradient>
<linearGradient id="paint31_linear" x1="129.184" y1="295.104" x2="129.184" y2="294.292" gradientUnits="userSpaceOnUse">
<stop stop-color="#929497"/>
<stop offset="0.2831" stop-color="#A8AAAC"/>
<stop offset="0.7399" stop-color="#C5C7C8"/>
<stop offset="1" stop-color="#D0D2D3"/>
</linearGradient>
<linearGradient id="paint32_linear" x1="180.127" y1="296.036" x2="180.127" y2="284.636" gradientUnits="userSpaceOnUse">
<stop stop-color="#929497"/>
<stop offset="0.2831" stop-color="#A8AAAC"/>
<stop offset="0.7399" stop-color="#C5C7C8"/>
<stop offset="1" stop-color="#D0D2D3"/>
</linearGradient>
<clipPath id="clip0">
<rect width="357" height="356" fill="white"/>
</clipPath>
</defs>
</svg>
