<svg width="49" height="48" viewBox="0 0 49 48" fill="none" xmlns="http://www.w3.org/2000/svg">
<rect x="0.244873" width="48" height="48" rx="24" fill="white"/>
<path d="M24.2449 8C15.4082 8 8.24487 15.1634 8.24487 24C8.24487 32.8366 15.4082 40 24.2449 40C33.0815 40 40.2449 32.8366 40.2449 24C40.2449 15.1634 33.0815 8 24.2449 8Z" fill="#40B3E0"/>
<path d="M32.0302 17.2039L29.1723 31.6125C29.1723 31.6125 28.7727 32.6117 27.6736 32.1321L21.0788 27.0761L18.6808 25.9171L14.6441 24.5581C14.6441 24.5581 14.0246 24.3384 13.9646 23.8587C13.9046 23.3791 14.6641 23.1194 14.6641 23.1194L30.7111 16.8244C30.7111 16.8244 32.0301 16.2449 32.0301 17.2041" fill="white"/>
<path d="M20.5722 31.4505C20.5722 31.4505 20.3797 31.4325 20.1397 30.673C19.9 29.9136 18.6809 25.9168 18.6809 25.9168L28.3732 19.7618C28.3732 19.7618 28.9328 19.4221 28.9128 19.7618C28.9128 19.7618 29.0127 19.8218 28.7128 20.1016C28.4132 20.3815 21.099 26.9561 21.099 26.9561" fill="#D2E5F1"/>
<path d="M23.6074 29.0145L20.999 31.3927C20.999 31.3927 20.795 31.5475 20.572 31.4505L21.0715 27.033" fill="#B5CFE4"/>
</svg>
