<svg width="49" height="50" viewBox="0 0 49 50" fill="none" xmlns="http://www.w3.org/2000/svg">
<rect y="0.871338" width="48.2449" height="48.2574" rx="24.1225" fill="white"/>
<path d="M8.72803 40.2739L10.9022 32.3759C9.56153 30.0592 8.8563 27.4321 8.85725 24.7581C8.85725 16.3527 15.7295 9.51489 24.1599 9.51489C28.2574 9.51489 32.0965 11.1051 34.9852 13.9825C37.8739 16.8601 39.4628 20.6918 39.4628 24.7657C39.4628 33.171 32.5906 40.0088 24.16 40.0088H24.1525C21.5905 40.0088 19.0743 39.3652 16.8393 38.1536L8.72803 40.274V40.2739Z" fill="url(#paint0_linear)"/>
<path d="M8.17334 40.8269L10.4234 32.6488C9.03994 30.256 8.30243 27.5374 8.31014 24.7584C8.31014 16.0502 15.4256 8.96997 24.168 8.96997C28.4097 8.96997 32.393 10.6131 35.3808 13.5966C38.3758 16.5801 40.0255 20.5481 40.0179 24.7659C40.0179 33.4742 32.9025 40.5544 24.1601 40.5544H24.1527C21.5047 40.5534 18.8991 39.8921 16.5735 38.6309L8.17334 40.8269ZM16.9687 35.7686L17.4476 36.0563C19.4698 37.2528 21.7883 37.8813 24.1527 37.8889H24.1602C31.42 37.8889 37.3344 32.0052 37.3344 24.7659C37.3344 21.26 35.9661 17.9659 33.4802 15.4822C30.9944 12.9985 27.6799 11.6355 24.1602 11.6355C16.8927 11.6355 10.9785 17.5192 10.9785 24.7584C10.9785 27.2346 11.6702 29.6502 12.993 31.7401L13.3047 32.2399L11.9743 37.0786L16.9687 35.7686Z" fill="white"/>
<path d="M20.1993 18.1474C19.9028 17.4885 19.5911 17.4733 19.3099 17.4658C19.0819 17.4583 18.8158 17.4583 18.5497 17.4583C18.2836 17.4583 17.8579 17.5567 17.493 17.9504C17.128 18.3442 16.1094 19.2984 16.1094 21.2446C16.1094 23.183 17.531 25.0609 17.7286 25.3259C17.9263 25.591 20.4729 29.7027 24.4944 31.2854C27.8392 32.6031 28.5235 32.3379 29.2456 32.2698C29.9754 32.2017 31.5871 31.3157 31.9215 30.3919C32.2484 29.4681 32.2484 28.6805 32.1495 28.5139C32.0507 28.3472 31.7847 28.249 31.3893 28.052C30.9941 27.8551 29.048 26.901 28.6831 26.7647C28.3182 26.6285 28.0521 26.5679 27.7937 26.9616C27.5275 27.3553 26.7674 28.2413 26.5393 28.5064C26.3112 28.7714 26.0756 28.8017 25.6802 28.6048C25.285 28.408 24.0079 27.9914 22.4951 26.6435C21.3168 25.5985 20.5186 24.3036 20.2904 23.9099C20.0624 23.5162 20.2677 23.304 20.4654 23.1073C20.6401 22.933 20.8606 22.6453 21.0584 22.4181C21.256 22.191 21.3244 22.0244 21.4536 21.7593C21.5828 21.4943 21.522 21.2672 21.4232 21.0703C21.3244 20.8733 20.549 18.9273 20.1993 18.1474Z" fill="white"/>
<defs>
<linearGradient id="paint0_linear" x1="24.0948" y1="40.2719" x2="24.0948" y2="9.51305" gradientUnits="userSpaceOnUse">
<stop stop-color="#20B038"/>
<stop offset="1" stop-color="#60D66A"/>
</linearGradient>
</defs>
</svg>
