<svg width="30" height="15" viewBox="0 0 30 15" fill="none" xmlns="http://www.w3.org/2000/svg">
<path d="M11.6464 13.3536C11.8417 13.5488 12.1583 13.5488 12.3536 13.3536L15.5355 10.1716C15.7308 9.97631 15.7308 9.65973 15.5355 9.46447C15.3403 9.2692 15.0237 9.2692 14.8284 9.46447L12 12.2929L9.17157 9.46447C8.97631 9.2692 8.65973 9.2692 8.46447 9.46447C8.2692 9.65973 8.2692 9.97631 8.46447 10.1716L11.6464 13.3536ZM11.5 2L11.5 13L12.5 13L12.5 2L11.5 2Z" fill="#D8D8D8"/>
<path d="M18.3536 1.64645C18.1583 1.45118 17.8417 1.45118 17.6464 1.64645L14.4645 4.82843C14.2692 5.02369 14.2692 5.34027 14.4645 5.53553C14.6597 5.7308 14.9763 5.7308 15.1716 5.53553L18 2.70711L20.8284 5.53553C21.0237 5.7308 21.3403 5.7308 21.5355 5.53553C21.7308 5.34027 21.7308 5.02369 21.5355 4.82843L18.3536 1.64645ZM18.5 13L18.5 2L17.5 2L17.5 13L18.5 13Z" fill="#109CF1"/>
</svg>
