<svg width="18" height="20" viewBox="0 0 18 20" fill="none" xmlns="http://www.w3.org/2000/svg">
<path d="M16.5912 7.15401H16.111V4.83648C16.111 4.82204 16.1087 4.80748 16.1068 4.79286C16.106 4.70082 16.0767 4.61047 16.0137 4.53887L12.1577 0.134126C12.1565 0.132995 12.1553 0.132594 12.1546 0.131463C12.1316 0.105674 12.1048 0.0843348 12.0764 0.0659869C12.068 0.06026 12.0596 0.0555544 12.0508 0.0506301C12.0263 0.0372795 12.0002 0.026154 11.9734 0.0180926C11.9661 0.0160863 11.9596 0.0131317 11.9524 0.0112349C11.9232 0.00430428 11.893 0 11.8624 0H2.38549C1.95276 0 1.60119 0.352039 1.60119 0.784328V7.15368H1.12101C0.50196 7.15368 0 7.65546 0 8.27473V14.1042C0 14.7231 0.50196 15.2252 1.12101 15.2252H1.60119V19.2157C1.60119 19.6481 1.95276 20 2.38549 20H15.3266C15.759 20 16.1109 19.6481 16.1109 19.2157V15.2252H16.5912C17.2101 15.2252 17.7121 14.7231 17.7121 14.1042V8.27495C17.7121 7.6555 17.2101 7.15401 16.5912 7.15401ZM2.38549 0.784328H11.4702V4.79712C11.4702 5.01376 11.6459 5.18925 11.8624 5.18925H15.3267V7.15394H2.38549V0.784328ZM10.4491 11.0681C10.4491 12.8106 9.3922 13.8676 7.83883 13.8676C6.26179 13.8676 5.33903 12.6769 5.33903 11.1627C5.33903 9.56944 6.35626 8.37884 7.92546 8.37884C9.55803 8.37884 10.4491 9.60122 10.4491 11.0681ZM1.85278 13.7806V8.46576H3.05918V12.7715H5.1728V13.7804H1.85278V13.7806ZM15.3267 19.0031H2.38549V15.2252H15.3266V19.0031H15.3267ZM15.6784 13.5363C15.3077 13.6623 14.6059 13.8358 13.9041 13.8358C12.9342 13.8358 12.2323 13.5914 11.7432 13.1185C11.2546 12.6612 10.9863 11.967 10.9944 11.1864C11.0022 9.4196 12.2874 8.41021 14.0303 8.41021C14.7166 8.41021 15.2447 8.54473 15.5051 8.67062L15.2527 9.63251C14.9609 9.50641 14.5982 9.40388 14.0146 9.40388C13.0133 9.40388 12.2561 9.97171 12.2561 11.1232C12.2561 12.2193 12.9421 12.8657 13.9279 12.8657C14.2038 12.8657 14.4248 12.8346 14.5192 12.7872V11.6751H13.6992V10.7368H15.6784V13.5363Z" fill="#109CF1"/>
<path d="M6.60852 11.1392C6.60852 12.18 7.09757 12.9134 7.9017 12.9134C8.71397 12.9134 9.17916 12.1406 9.17916 11.1078C9.17916 10.1538 8.72178 9.33301 7.89382 9.33301C7.08166 9.33297 6.60852 10.106 6.60852 11.1392Z" fill="#109CF1"/>
</svg>
