<svg width="24" height="24" viewBox="0 0 24 24" fill="none" xmlns="http://www.w3.org/2000/svg">
<path d="M21.8906 2.85931H2.10939C1.78469 2.85931 1.4807 2.93914 1.20569 3.07072L11.9531 13.8182L14.362 11.5032C14.362 11.5032 14.3622 11.5029 14.3622 11.5028C14.3623 11.5027 14.3625 11.5026 14.3625 11.5026L22.7947 3.07091C22.5196 2.93924 22.2154 2.85931 21.8906 2.85931Z" fill="#828282"/>
<path d="M23.7888 4.06531L15.8536 12L23.7885 19.9349C23.9201 19.6599 23.9999 19.3559 23.9999 19.0312V4.96868C23.9999 4.64417 23.9203 4.34023 23.7888 4.06531Z" fill="#828282"/>
<path d="M0.211406 4.06506C0.0798281 4.34008 0 4.64406 0 4.96877V19.0313C0 19.3558 0.0797344 19.6598 0.211219 19.9347L8.14636 12L0.211406 4.06506Z" fill="#828282"/>
<path d="M14.8596 12.9944L12.4504 15.3097C12.313 15.447 12.1331 15.5157 11.9533 15.5157C11.7734 15.5157 11.5935 15.447 11.4562 15.3097L9.14072 12.9943L1.20544 20.929C1.48051 21.0607 1.78468 21.1406 2.10948 21.1406H21.8907C22.2154 21.1406 22.5194 21.0608 22.7944 20.9292L14.8596 12.9944Z" fill="#828282"/>
</svg>
