<svg width="24" height="24" viewBox="0 0 24 24" fill="none" xmlns="http://www.w3.org/2000/svg">
<g clip-path="url(#clip0)">
<path d="M23.1514 14.5478C23.322 13.7674 23.4128 12.9574 23.4128 12.126C23.4128 5.89266 18.3595 0.839297 12.1259 0.839297C11.4678 0.839297 10.8231 0.896156 10.1958 1.00444C9.187 0.368859 7.99356 0 6.71341 0C3.09845 0 0.167969 2.93081 0.167969 6.5453C0.167969 7.75359 0.496703 8.8845 1.06764 9.85608C0.917969 10.5893 0.839219 11.3483 0.839219 12.1259C0.839219 18.3593 5.89249 23.4126 12.1259 23.4126C12.832 23.4126 13.5227 23.3473 14.1926 23.2232C15.1141 23.7184 16.1677 24 17.2869 24C20.902 24 23.8323 21.0695 23.8323 17.4547C23.8323 16.4101 23.5865 15.4238 23.1514 14.5478ZM17.9147 17.5199C17.3925 18.2588 16.621 18.8443 15.6215 19.2598C14.6317 19.6712 13.4451 19.8798 12.0945 19.8798C10.4733 19.8798 9.11416 19.5947 8.05333 19.032C7.29503 18.6223 6.66972 18.0675 6.19502 17.3829C5.71549 16.6913 5.47239 16.0051 5.47239 15.3434C5.47239 14.9298 5.63088 14.5712 5.9432 14.2778C6.25239 13.9869 6.64863 13.8396 7.12122 13.8396C7.50906 13.8396 7.84356 13.956 8.11544 14.1858C8.37527 14.406 8.59825 14.7317 8.77727 15.1524C8.97728 15.6105 9.19544 15.9973 9.42569 16.302C9.64699 16.595 9.96555 16.8413 10.3722 17.0335C10.7815 17.2273 11.333 17.3255 12.0115 17.3255C12.9446 17.3255 13.7096 17.1263 14.285 16.7333C14.847 16.3495 15.1203 15.8889 15.1203 15.325C15.1203 14.8794 14.9777 14.5292 14.6844 14.2544C14.3771 13.9671 13.972 13.7435 13.48 13.5902C12.967 13.4303 12.2706 13.2578 11.4092 13.0775C10.2423 12.8275 9.25042 12.531 8.46044 12.1959C8.4573 12.1947 8.4542 12.1935 8.45125 12.1921C7.64191 11.8478 6.98955 11.3705 6.51236 10.7732C6.02763 10.1667 5.78205 9.4057 5.78205 8.51123C5.78205 7.65858 6.03991 6.89002 6.54845 6.22706C7.05316 5.56875 7.79031 5.05716 8.73925 4.70611C9.67595 4.3597 10.7902 4.1842 12.051 4.1842C13.059 4.1842 13.9452 4.30059 14.6849 4.53061C15.4288 4.76231 16.0561 5.07516 16.5489 5.46014C17.0453 5.84798 17.4145 6.26292 17.6464 6.69389C17.8806 7.12917 17.9994 7.56239 17.9994 7.98141C17.9994 8.38467 17.8436 8.75119 17.5364 9.07059C17.2274 9.39188 16.8374 9.555 16.3772 9.555C15.9592 9.555 15.6321 9.453 15.4051 9.25186C15.1938 9.06516 14.9748 8.77402 14.7315 8.35514C14.45 7.82044 14.1095 7.39889 13.7187 7.10184C13.3395 6.81338 12.7054 6.66689 11.8343 6.66689C11.0252 6.66689 10.3672 6.82931 9.87869 7.14961C9.40788 7.45823 9.17917 7.81219 9.17917 8.23144C9.17917 8.48864 9.25277 8.70352 9.40422 8.88848C9.56472 9.08442 9.79094 9.2565 10.0769 9.39952C10.3736 9.54863 10.6792 9.66713 10.9855 9.75169C11.299 9.83873 11.8255 9.96769 12.5471 10.1344C13.3076 10.2977 14.0159 10.4775 14.6606 10.67C14.7901 10.7086 14.9181 10.7478 15.0423 10.7874C15.7938 11.028 16.4434 11.3247 16.973 11.6692C17.5137 12.0213 17.9418 12.4734 18.2455 13.0132C18.5501 13.5549 18.7044 14.2238 18.7044 15.0007C18.7044 15.9308 18.4385 16.7782 17.9147 17.5199Z" fill="#109CF1"/>
</g>
<defs>
<clipPath id="clip0">
<rect width="24" height="24" fill="white"/>
</clipPath>
</defs>
</svg>
