<svg width="24" height="24" viewBox="0 0 24 24" fill="none" xmlns="http://www.w3.org/2000/svg">
<g clip-path="url(#clip0)">
<path d="M0.423891 11.5715L5.95398 13.6355L8.09448 20.5193C8.23145 20.9602 8.77056 21.1232 9.12841 20.8306L12.211 18.3177C12.5341 18.0544 12.9943 18.0412 13.332 18.2864L18.8919 22.3229C19.2747 22.6012 19.817 22.3914 19.913 21.9289L23.9859 2.33756C24.0907 1.8323 23.5942 1.41075 23.1131 1.59684L0.417422 10.3521C-0.142642 10.5681 -0.137767 11.361 0.423891 11.5715ZM7.74953 12.5368L18.5574 5.88024C18.7516 5.76094 18.9515 6.02359 18.7847 6.17832L9.86505 14.4695C9.55155 14.7614 9.34928 15.1519 9.292 15.5759L8.98816 17.8276C8.94794 18.1282 8.52559 18.1581 8.44263 17.8671L7.27408 13.7611C7.14025 13.2927 7.33529 12.7925 7.74953 12.5368Z" fill="#1087CF"/>
<path d="M7.74953 12.5368L18.5574 5.88024C18.7516 5.76094 18.9515 6.02359 18.7847 6.17832L9.86505 14.4695C9.55155 14.7614 9.34928 15.1519 9.292 15.5759L8.98816 17.8276C8.94794 18.1282 8.52559 18.1581 8.44263 17.8671L7.27408 13.7611C7.14025 13.2927 7.33529 12.7925 7.74953 12.5368Z" fill="#1087CF"/>
<path d="M7.74957 12.5368L18.5574 5.88026C18.7517 5.76097 18.9515 6.02361 18.7847 6.17834L9.86509 14.4696C9.55159 14.7614 9.34933 15.152 9.29204 15.5759L8.9882 17.8276C8.94798 18.1283 8.52564 18.1581 8.44267 17.8671L7.27412 13.7611C7.14029 13.2927 7.33534 12.7925 7.74957 12.5368Z" fill="white"/>
</g>
<defs>
<clipPath id="clip0">
<rect width="24" height="24" fill="white"/>
</clipPath>
</defs>
</svg>
