<svg width="40" height="40" viewBox="0 0 40 40" fill="none" xmlns="http://www.w3.org/2000/svg">
<mask id="mask0" mask-type="alpha" maskUnits="userSpaceOnUse" x="0" y="0" width="40" height="40">
<path fill-rule="evenodd" clip-rule="evenodd" d="M20 0C8.95431 0 0 8.95431 0 20C0 31.0457 8.95431 40 20 40C31.0457 40 40 31.0457 40 20C40 8.95431 31.0457 0 20 0ZM20 2C10.0589 2 2 10.0589 2 20C2 29.9411 10.0589 38 20 38C29.9411 38 38 29.9411 38 20C38 10.0589 29.9411 2 20 2Z" fill="white"/>
</mask>
<g mask="url(#mask0)">
<rect width="40" height="40" fill="#4F4F4F"/>
</g>
<mask id="mask1" mask-type="alpha" maskUnits="userSpaceOnUse" x="16" y="12" width="8" height="16">
<path fill-rule="evenodd" clip-rule="evenodd" d="M21.4733 27.2V20.6313H23.5985L23.9143 18.0728H21.4733V16.4375C21.4733 15.6978 21.6714 15.1916 22.6938 15.1916H24V12.9001C23.7752 12.8667 22.9989 12.8 22.0996 12.8C20.2153 12.8 18.9305 13.9958 18.9305 16.1872V18.0783H16.8V20.6368H18.9305V27.2H21.4733Z" fill="white"/>
</mask>
<g mask="url(#mask1)">
<rect x="10.4" y="10.4" width="19.2" height="19.2" fill="#4F4F4F"/>
</g>
</svg>
