<svg width="40" height="40" viewBox="0 0 40 40" fill="none" xmlns="http://www.w3.org/2000/svg">
<mask id="mask0" mask-type="alpha" maskUnits="userSpaceOnUse" x="0" y="0" width="40" height="40">
<path fill-rule="evenodd" clip-rule="evenodd" d="M20 0C8.95431 0 0 8.95431 0 20C0 31.0457 8.95431 40 20 40C31.0457 40 40 31.0457 40 20C40 8.95431 31.0457 0 20 0ZM20 2C10.0589 2 2 10.0589 2 20C2 29.9411 10.0589 38 20 38C29.9411 38 38 29.9411 38 20C38 10.0589 29.9411 2 20 2Z" fill="white"/>
</mask>
<g mask="url(#mask0)">
<rect width="40" height="40" fill="#4F4F4F"/>
</g>
<mask id="mask1" mask-type="alpha" maskUnits="userSpaceOnUse" x="12" y="12" width="16" height="16">
<path fill-rule="evenodd" clip-rule="evenodd" d="M27.5796 14.7573C27.3756 14.2318 27.1036 13.7867 26.6584 13.3416C26.2133 12.8964 25.7682 12.6244 25.2427 12.4204C24.7357 12.2226 24.1484 12.0866 23.3014 12.0495L23.287 12.0488C22.4451 12.0122 22.1639 12 20 12C17.8238 12 17.5518 12.0062 16.6986 12.0495C15.8454 12.0866 15.2643 12.2226 14.7573 12.4204C14.2318 12.6244 13.7867 12.8964 13.3416 13.3416C12.8964 13.7867 12.6244 14.2318 12.4204 14.7573C12.2226 15.2643 12.0866 15.8516 12.0495 16.6986L12.0488 16.713C12.0122 17.5549 12 17.8361 12 20C12 22.1762 12.0062 22.4482 12.0495 23.3014C12.0866 24.1546 12.2226 24.7357 12.4204 25.2427C12.6244 25.7682 12.8964 26.2133 13.3416 26.6584C13.7867 27.1036 14.2318 27.3756 14.7573 27.5796C15.2643 27.7774 15.8516 27.9134 16.6986 27.9505L16.7129 27.9512H16.713C17.5549 27.9878 17.8361 28 20 28C22.1762 28 22.4482 27.9938 23.3014 27.9505C24.1546 27.9134 24.7357 27.7774 25.2427 27.5796C25.7682 27.3756 26.2133 27.1036 26.6584 26.6584C27.1036 26.2133 27.3756 25.7682 27.5796 25.2427C27.7774 24.7357 27.9134 24.1484 27.9505 23.3014L27.9512 23.2871V23.287C27.9878 22.4451 28 22.1639 28 20C28 17.8238 27.9938 17.5518 27.9505 16.6986C27.9134 15.8454 27.7774 15.2643 27.5796 14.7573ZM25.9548 22.9548C25.9209 23.6667 25.8023 24.0565 25.7006 24.3107C25.5706 24.6497 25.4068 24.8983 25.1525 25.1525C24.8983 25.4068 24.6554 25.565 24.3107 25.7006C24.0508 25.8023 23.6667 25.9209 22.9548 25.9548L22.918 25.9564C22.1731 25.9891 21.9235 26 20 26C18.0452 26 17.8136 25.9944 17.0452 25.9548C16.3333 25.9209 15.9435 25.8023 15.6893 25.7006C15.3503 25.5706 15.1017 25.4068 14.8475 25.1525C14.5932 24.8983 14.435 24.6554 14.2994 24.3107C14.1977 24.0508 14.0791 23.6667 14.0452 22.9548L14.0439 22.9242C14.011 22.1743 14 21.9233 14 20C14 18.0508 14.0056 17.8136 14.0452 17.0452C14.0791 16.3333 14.1977 15.9435 14.2994 15.6893C14.4294 15.3503 14.5932 15.1017 14.8475 14.8475C15.1017 14.5932 15.3446 14.435 15.6893 14.2994C15.9492 14.1977 16.3333 14.0791 17.0452 14.0452L17.0758 14.0439C17.8257 14.011 18.0767 14 20 14C21.9492 14 22.1864 14.0056 22.9548 14.0452C23.6667 14.0791 24.0565 14.1977 24.3107 14.2994C24.6497 14.4294 24.8983 14.5932 25.1525 14.8475C25.4068 15.1017 25.565 15.3446 25.7006 15.6893C25.8023 15.9492 25.9209 16.3333 25.9548 17.0452L25.9561 17.0758V17.0758C25.989 17.8257 26 18.0768 26 20C26 21.9306 25.9889 22.1818 25.9558 22.933L25.9548 22.9548ZM25 16C25 16.5523 24.5523 17 24 17C23.4477 17 23 16.5523 23 16C23 15.4477 23.4477 15 24 15C24.5523 15 25 15.4477 25 16ZM20 16C17.7925 16 16 17.7925 16 20C16 22.2075 17.7925 24 20 24C22.2075 24 24 22.2075 24 20C24 17.7925 22.2075 16 20 16ZM18 20C18 21.1065 18.8981 22 20 22C21.1019 22 22 21.1019 22 20C22 18.8935 21.1065 18 20 18C18.8935 18 18 18.8981 18 20Z" fill="white"/>
</mask>
<g mask="url(#mask1)">
<rect x="10.4" y="10.4" width="19.2" height="19.2" fill="#4F4F4F"/>
</g>
</svg>
