<svg width="40" height="40" viewBox="0 0 40 40" fill="none" xmlns="http://www.w3.org/2000/svg">
<mask id="mask0" mask-type="alpha" maskUnits="userSpaceOnUse" x="0" y="0" width="40" height="40">
<path fill-rule="evenodd" clip-rule="evenodd" d="M20 0C8.95431 0 0 8.95431 0 20C0 31.0457 8.95431 40 20 40C31.0457 40 40 31.0457 40 20C40 8.95431 31.0457 0 20 0ZM20 2C10.0589 2 2 10.0589 2 20C2 29.9411 10.0589 38 20 38C29.9411 38 38 29.9411 38 20C38 10.0589 29.9411 2 20 2Z" fill="white"/>
</mask>
<g mask="url(#mask0)">
<rect width="40" height="40" fill="#4F4F4F"/>
</g>
<mask id="mask1" mask-type="alpha" maskUnits="userSpaceOnUse" x="12" y="14" width="16" height="13">
<path fill-rule="evenodd" clip-rule="evenodd" d="M27.2 15.8201C26.6702 16.0615 26.1013 16.2245 25.5031 16.2969C26.113 15.9221 26.5815 15.3286 26.8025 14.6215C26.2313 14.9681 25.5994 15.2211 24.9265 15.3563C24.3872 14.7678 23.6193 14.4 22.7691 14.4C21.1374 14.4 19.8154 15.756 19.8154 17.4291C19.8154 17.6663 19.8411 17.898 19.8915 18.1195C17.4361 17.9931 15.2594 16.7871 13.8019 14.9543C13.5481 15.402 13.4022 15.9221 13.4022 16.4774C13.4022 17.5288 13.9239 18.4555 14.7161 18.9992C14.2322 18.9831 13.7767 18.8474 13.3784 18.6203C13.3779 18.6328 13.3779 18.6461 13.3779 18.6581C13.3779 20.1263 14.3961 21.3508 15.7478 21.6291C15.5002 21.6978 15.2391 21.7352 14.9695 21.7352C14.7787 21.7352 14.5941 21.7163 14.4141 21.6812C14.7895 22.884 15.881 23.76 17.1733 23.7849C16.1628 24.5972 14.889 25.0823 13.5049 25.0823C13.2663 25.0823 13.0309 25.068 12.8 25.0398C14.1071 25.8983 15.66 26.4 17.3286 26.4C22.7623 26.4 25.7344 21.7841 25.7344 17.7808C25.7344 17.6497 25.7308 17.5186 25.7254 17.3885C26.3029 16.9615 26.8034 16.4285 27.2 15.8201Z" fill="white"/>
</mask>
<g mask="url(#mask1)">
<rect x="10.4" y="10.4" width="19.2" height="19.2" fill="#4F4F4F"/>
</g>
</svg>
