<svg width="50" height="50" viewBox="0 0 50 50" fill="none" xmlns="http://www.w3.org/2000/svg">
<mask id="mask0" mask-type="alpha" maskUnits="userSpaceOnUse" x="0" y="0" width="50" height="50">
<path fill-rule="evenodd" clip-rule="evenodd" d="M25 0C11.1929 0 0 11.1929 0 25C0 38.8071 11.1929 50 25 50C38.8071 50 50 38.8071 50 25C50 11.1929 38.8071 0 25 0ZM25 2C12.2975 2 2 12.2975 2 25C2 37.7025 12.2975 48 25 48C37.7025 48 48 37.7025 48 25C48 12.2975 37.7025 2 25 2Z" fill="white"/>
</mask>
<g mask="url(#mask0)">
<rect width="50" height="50" fill="#EBEBEB"/>
</g>
<mask id="mask1" mask-type="alpha" maskUnits="userSpaceOnUse" x="15" y="15" width="20" height="20">
<path fill-rule="evenodd" clip-rule="evenodd" d="M33.8427 18.8839C33.6047 18.2708 33.2873 17.7515 32.768 17.2322C32.2487 16.7128 31.7294 16.3955 31.1163 16.1575C30.5248 15.9267 29.8396 15.768 28.8515 15.7247L28.8347 15.724C27.8524 15.6813 27.5244 15.667 24.9998 15.667C22.4609 15.667 22.1436 15.6742 21.1482 15.7247C20.1529 15.768 19.4748 15.9267 18.8834 16.1575C18.2703 16.3955 17.751 16.7128 17.2317 17.2322C16.7124 17.7515 16.395 18.2708 16.157 18.8839C15.9262 19.4753 15.7675 20.1606 15.7242 21.1487L15.7235 21.1655C15.6808 22.1477 15.6665 22.4757 15.6665 25.0003C15.6665 27.5392 15.6737 27.8566 15.7242 28.8519C15.7675 29.8473 15.9262 30.5253 16.157 31.1168C16.395 31.7298 16.7124 32.2492 17.2317 32.7685C17.751 33.2878 18.2703 33.6052 18.8834 33.8432C19.4748 34.074 20.1601 34.2327 21.1482 34.276L21.165 34.2767C22.1472 34.3194 22.4753 34.3337 24.9998 34.3337C27.5387 34.3337 27.8561 34.3264 28.8515 34.276C29.8468 34.2327 30.5248 34.074 31.1163 33.8432C31.7294 33.6052 32.2487 33.2878 32.768 32.7685C33.2873 32.2492 33.6047 31.7298 33.8427 31.1168C34.0735 30.5253 34.2322 29.8401 34.2755 28.8519L34.2762 28.8352C34.3189 27.8529 34.3332 27.5249 34.3332 25.0003C34.3332 22.4614 34.326 22.1441 34.2755 21.1487C34.2322 20.1533 34.0735 19.4753 33.8427 18.8839ZM31.9471 28.4476C31.9076 29.2781 31.7691 29.7329 31.6505 30.0295C31.4989 30.425 31.3077 30.715 31.0111 31.0116C30.7145 31.3082 30.4311 31.4928 30.029 31.651C29.7258 31.7696 29.2776 31.908 28.4471 31.9476L28.4042 31.9495C27.5351 31.9876 27.2439 32.0003 24.9998 32.0003C22.7192 32.0003 22.449 31.9937 21.5526 31.9476C20.7221 31.908 20.2673 31.7696 19.9706 31.651C19.5752 31.4994 19.2851 31.3082 18.9885 31.0116C18.6919 30.715 18.5074 30.4316 18.3492 30.0295C18.2305 29.7263 18.0921 29.2781 18.0526 28.4476L18.051 28.4119C18.0127 27.537 17.9998 27.2441 17.9998 25.0003C17.9998 22.7263 18.0064 22.4495 18.0526 21.5531C18.0921 20.7225 18.2305 20.2677 18.3492 19.9711C18.5008 19.5757 18.6919 19.2856 18.9885 18.989C19.2851 18.6924 19.5686 18.5079 19.9706 18.3497C20.2738 18.231 20.7221 18.0926 21.5526 18.0531L21.5882 18.0515C22.4631 18.0132 22.756 18.0003 24.9998 18.0003C27.2738 18.0003 27.5507 18.0069 28.4471 18.0531C29.2776 18.0926 29.7324 18.231 30.029 18.3497C30.4245 18.5013 30.7145 18.6924 31.0111 18.989C31.3077 19.2856 31.4923 19.5691 31.6505 19.9711C31.7691 20.2743 31.9076 20.7225 31.9471 21.5531L31.9487 21.5887C31.987 22.4636 31.9998 22.7565 31.9998 25.0003C31.9998 27.2526 31.9869 27.5457 31.9482 28.4221V28.4221L31.9471 28.4476ZM30.8332 20.3337C30.8332 20.978 30.3108 21.5003 29.6665 21.5003C29.0222 21.5003 28.4998 20.978 28.4998 20.3337C28.4998 19.6893 29.0222 19.167 29.6665 19.167C30.3108 19.167 30.8332 19.6893 30.8332 20.3337ZM24.9998 20.3337C22.4244 20.3337 20.3332 22.4249 20.3332 25.0003C20.3332 27.5758 22.4244 29.667 24.9998 29.667C27.5753 29.667 29.6665 27.5758 29.6665 25.0003C29.6665 22.4249 27.5753 20.3337 24.9998 20.3337ZM22.6665 25.0003C22.6665 26.2912 23.7143 27.3337 24.9998 27.3337C26.2853 27.3337 27.3332 26.2858 27.3332 25.0003C27.3332 23.7094 26.2907 22.667 24.9998 22.667C23.7089 22.667 22.6665 23.7148 22.6665 25.0003Z" fill="white"/>
</mask>
<g mask="url(#mask1)">
<rect x="13.7998" y="13.7998" width="22.4" height="22.4" fill="#D8D8D8"/>
</g>
</svg>
