<svg width="50" height="50" viewBox="0 0 50 50" fill="none" xmlns="http://www.w3.org/2000/svg">
<mask id="mask0" mask-type="alpha" maskUnits="userSpaceOnUse" x="0" y="0" width="50" height="50">
<path fill-rule="evenodd" clip-rule="evenodd" d="M25 0C11.1929 0 0 11.1929 0 25C0 38.8071 11.1929 50 25 50C38.8071 50 50 38.8071 50 25C50 11.1929 38.8071 0 25 0ZM25 2C12.2975 2 2 12.2975 2 25C2 37.7025 12.2975 48 25 48C37.7025 48 48 37.7025 48 25C48 12.2975 37.7025 2 25 2Z" fill="white"/>
</mask>
<g mask="url(#mask0)">
<rect width="50" height="50" fill="#EBEBEB"/>
</g>
<mask id="mask1" mask-type="alpha" maskUnits="userSpaceOnUse" x="16" y="18" width="18" height="15">
<path fill-rule="evenodd" clip-rule="evenodd" d="M33.4001 20.1236C32.782 20.4053 32.1183 20.5953 31.4204 20.6799C32.1319 20.2426 32.6786 19.5502 32.9364 18.7253C32.27 19.1296 31.5327 19.4247 30.7477 19.5825C30.1186 18.896 29.2227 18.4668 28.2307 18.4668C26.3271 18.4668 24.7848 20.0488 24.7848 22.0007C24.7848 22.2775 24.8147 22.5478 24.8735 22.8063C22.0089 22.6587 19.4694 21.2517 17.769 19.1135C17.4729 19.6358 17.3027 20.2426 17.3027 20.8904C17.3027 22.117 17.9114 23.1983 18.8356 23.8326C18.2711 23.8137 17.7396 23.6554 17.2749 23.3905C17.2744 23.405 17.2744 23.4206 17.2744 23.4346C17.2744 25.1475 18.4622 26.576 20.0392 26.9007C19.7504 26.981 19.4458 27.0246 19.1312 27.0246C18.9086 27.0246 18.6933 27.0025 18.4832 26.9616C18.9212 28.3648 20.1946 29.3868 21.7023 29.4159C20.5234 30.3636 19.0372 30.9295 17.4225 30.9295C17.1441 30.9295 16.8695 30.9128 16.6001 30.88C18.1251 31.8815 19.9368 32.4668 21.8834 32.4668C28.2228 32.4668 31.6903 27.0816 31.6903 22.411C31.6903 22.2581 31.6861 22.1052 31.6798 21.9533C32.3535 21.4553 32.9375 20.8333 33.4001 20.1236Z" fill="white"/>
</mask>
<g mask="url(#mask1)">
<rect x="13.7998" y="13.7998" width="22.4" height="22.4" fill="#D8D8D8"/>
</g>
</svg>
