<svg width="30" height="30" viewBox="0 0 30 30" fill="none" xmlns="http://www.w3.org/2000/svg">
<mask id="mask0" mask-type="alpha" maskUnits="userSpaceOnUse" x="10" y="6" width="11" height="18">
<path fill-rule="evenodd" clip-rule="evenodd" d="M15.48 13.9C13.21 13.31 12.48 12.7 12.48 11.75C12.48 10.66 13.49 9.9 15.18 9.9C16.96 9.9 17.62 10.75 17.68 12H19.89C19.82 10.28 18.77 8.7 16.68 8.19V6H13.68V8.16C11.74 8.58 10.18 9.84 10.18 11.77C10.18 14.08 12.09 15.23 14.88 15.9C17.38 16.5 17.88 17.38 17.88 18.31C17.88 19 17.39 20.1 15.18 20.1C13.12 20.1 12.31 19.18 12.2 18H10C10.12 20.19 11.76 21.42 13.68 21.83V24H16.68V21.85C18.63 21.48 20.18 20.35 20.18 18.3C20.18 15.46 17.75 14.49 15.48 13.9Z" fill="white"/>
</mask>
<g mask="url(#mask0)">
<rect x="2" y="2" width="26" height="26" fill="#D8D8D8"/>
</g>
</svg>
