<svg width="30" height="30" viewBox="0 0 30 30" fill="none" xmlns="http://www.w3.org/2000/svg">
<path d="M9 12H11V18H9V12ZM19 12H21V18H19V12ZM24 6C25.1 6 26 6.9 26 8V22C26 23.1 25.1 24 24 24H6C4.9 24 4 23.1 4 22V8C4 6.9 4.9 6 6 6H24ZM8 10C7.4 10 7 10.4 7 11V19C7 19.6 7.4 20 8 20H12C12.6 20 13 19.6 13 19V11C13 10.4 12.6 10 12 10H8ZM18 10C17.4 10 17 10.4 17 11V19C17 19.6 17.4 20 18 20H22C22.6 20 23 19.6 23 19V11C23 10.4 22.6 10 22 10H18ZM14 14C14.6 14 15 13.6 15 13C15 12.4 14.6 12 14 12C13.4 12 13 12.4 13 13C13 13.6 13.4 14 14 14ZM14 18C14.6 18 15 17.6 15 17C15 16.4 14.6 16 14 16C13.4 16 13 16.4 13 17C13 17.6 13.4 18 14 18Z" fill="#D8D8D8"/>
<path fill-rule="evenodd" clip-rule="evenodd" d="M8 10C7.4 10 7 10.4 7 11V19C7 19.6 7.4 20 8 20H12C12.6 20 13 19.6 13 19V11C13 10.4 12.6 10 12 10H8ZM11 12H9V18H11V12Z" fill="#D8D8D8"/>
<path fill-rule="evenodd" clip-rule="evenodd" d="M18 10C17.4 10 17 10.4 17 11V19C17 19.6 17.4 20 18 20H22C22.6 20 23 19.6 23 19V11C23 10.4 22.6 10 22 10H18ZM21 12H19V18H21V12Z" fill="#D8D8D8"/>
<path d="M11.3127 9.99999V20H9.80693V11.4296H8V9.99999H11.3127Z" fill="#F9F9F9"/>
<path d="M17.0305 9.99999H22.3033L23.0001 9.99997V15.7812L18.5363 15.7812V18.5704H22.4943H23.0001V20H17.0305V17.371V14.4458H21.5001V11.4296H18.5363H17.0305V9.99999Z" fill="#F9F9F9"/>
</svg>
