<svg width="20" height="34" viewBox="0 0 20 34" fill="none" xmlns="http://www.w3.org/2000/svg">
<mask id="path-1-outside-1" maskUnits="userSpaceOnUse" x="0" y="0" width="20" height="34" fill="black">
<rect fill="white" width="20" height="34"/>
<path d="M18.5204 29.4919H18.0856V17.3897C18.0856 16.4436 17.3158 15.6739 16.3698 15.6739H16.3615C16.0936 15.6739 15.836 15.7355 15.6052 15.8488V15.7557C15.6052 14.6711 14.5539 13.7887 13.4689 13.7887C11.9365 13.7887 11.8233 14.0482 11.5206 14.2311C11.5206 12.8844 9.74099 12.257 8.70696 12.257H8.58742C8.21645 12.257 7.86907 12.3598 7.57225 12.5385V9.86327H13.9439C14.5939 9.86327 15.1227 9.33446 15.1227 8.68445V2.17818C15.1227 1.52855 14.5939 1 13.9439 1L3.37292 1C2.72291 1 2.1941 1.52855 2.1941 2.17818V7.51549C2.1941 8.04839 2.54979 8.49927 3.03603 8.64464V10.834C3.03603 11.0988 3.25069 11.3134 3.51548 11.3134C3.78027 11.3134 3.99494 11.0988 3.99494 10.834V7.92846C3.99494 7.57871 4.13123 7.24987 4.37869 7.00234C4.62622 6.75488 4.95487 6.61859 5.30417 6.61859C6.02604 6.61859 6.6134 7.20621 6.6134 7.92846V14.2311C6.6134 14.4959 6.82807 14.7105 7.09286 14.7105C7.35765 14.7105 7.57232 14.4959 7.57232 14.2311C7.57232 13.6713 8.02774 13.2159 8.58748 13.2159H8.70703C9.26678 13.2159 10.5015 13.6713 10.5015 14.2311V15.7557C10.5015 16.0205 10.7162 16.2352 10.981 16.2352C11.5206 16.2352 11.9103 16.2664 11.9103 16.0016C11.9103 15.4172 11.9103 15.2223 12.1051 15.0275C12.2999 14.8327 12.521 14.7476 13.4689 14.7476C14.0251 14.7476 14.6463 15.1998 14.6463 15.7557V16.7805C14.6463 16.9928 14.786 17.1798 14.9895 17.2402L15.1276 17.2811C15.3481 17.3464 15.5837 17.2461 15.6895 17.0421C15.8203 16.7896 16.0779 16.6328 16.3615 16.6328H16.3698C16.7872 16.6328 17.1267 16.9724 17.1267 17.3897V29.4919H6.84099V29.2917C6.84099 29.2819 6.84067 29.272 6.84009 29.2621C6.77591 28.2254 5.97969 27.1276 4.47375 25.9995C2.89903 24.8186 1.95891 22.9242 1.95891 20.9319V19.803C1.95891 19.2623 2.3988 18.8223 2.93956 18.8223H3.03634V21.3143C3.03634 21.5791 3.25101 21.7938 3.5158 21.7938C3.78059 21.7938 3.99526 21.5791 3.99526 21.3143V18.343C3.99526 18.3412 3.995 18.3393 3.995 18.3374V9.80793C3.995 9.54314 3.78033 9.32847 3.51554 9.32847C3.25076 9.32847 3.03609 9.54314 3.03609 9.80793V17.8634H2.93956C1.87012 17.8634 1 18.7335 1 19.803V20.9319C1 23.2244 2.08357 25.4056 3.89866 26.7667C5.14378 27.6995 5.82921 28.5777 5.88208 29.3077V29.4918H5.54377C5.27898 29.4918 5.06431 29.7065 5.06431 29.9713V33.1594C5.06431 33.4241 5.27898 33.6388 5.54377 33.6388L17.1289 33.6309C17.2603 33.6309 17.3859 33.577 17.4764 33.4817C17.5669 33.3866 17.6144 33.2583 17.6078 33.1271C17.6074 33.1191 17.6068 33.1112 17.6061 33.1032C17.5846 32.8496 17.3679 32.6553 17.1101 32.6649C17.0879 32.6658 17.066 32.6681 17.0446 32.6719L6.02335 32.6798V30.4507H18.0411V32.6798H16.2594C16.2264 32.674 16.1922 32.6716 16.1572 32.6729C15.9001 32.6826 15.698 32.8932 15.696 33.1478C15.6958 33.1559 15.6958 33.1644 15.696 33.1714C15.7026 33.4314 15.9152 33.6387 16.1753 33.6387H18.5205C18.7853 33.6387 19 33.4241 19 33.1593V29.9712C18.9999 29.7066 18.7852 29.4919 18.5204 29.4919ZM5.30417 5.65967C4.69871 5.65967 4.12931 5.89569 3.70068 6.32433C3.44804 6.57697 3.26297 6.87883 3.15301 7.208V2.17818C3.15301 2.0573 3.25165 1.95891 3.37292 1.95891L13.944 1.95891C14.0652 1.95891 14.1639 2.0573 14.1639 2.17818V8.68445C14.1639 8.80572 14.0652 8.90436 13.944 8.90436H7.56349V7.7354C7.46517 6.57448 6.48977 5.65967 5.30417 5.65967Z"/>
</mask>
<path d="M18.5204 29.4919H18.0856V17.3897C18.0856 16.4436 17.3158 15.6739 16.3698 15.6739H16.3615C16.0936 15.6739 15.836 15.7355 15.6052 15.8488V15.7557C15.6052 14.6711 14.5539 13.7887 13.4689 13.7887C11.9365 13.7887 11.8233 14.0482 11.5206 14.2311C11.5206 12.8844 9.74099 12.257 8.70696 12.257H8.58742C8.21645 12.257 7.86907 12.3598 7.57225 12.5385V9.86327H13.9439C14.5939 9.86327 15.1227 9.33446 15.1227 8.68445V2.17818C15.1227 1.52855 14.5939 1 13.9439 1L3.37292 1C2.72291 1 2.1941 1.52855 2.1941 2.17818V7.51549C2.1941 8.04839 2.54979 8.49927 3.03603 8.64464V10.834C3.03603 11.0988 3.25069 11.3134 3.51548 11.3134C3.78027 11.3134 3.99494 11.0988 3.99494 10.834V7.92846C3.99494 7.57871 4.13123 7.24987 4.37869 7.00234C4.62622 6.75488 4.95487 6.61859 5.30417 6.61859C6.02604 6.61859 6.6134 7.20621 6.6134 7.92846V14.2311C6.6134 14.4959 6.82807 14.7105 7.09286 14.7105C7.35765 14.7105 7.57232 14.4959 7.57232 14.2311C7.57232 13.6713 8.02774 13.2159 8.58748 13.2159H8.70703C9.26678 13.2159 10.5015 13.6713 10.5015 14.2311V15.7557C10.5015 16.0205 10.7162 16.2352 10.981 16.2352C11.5206 16.2352 11.9103 16.2664 11.9103 16.0016C11.9103 15.4172 11.9103 15.2223 12.1051 15.0275C12.2999 14.8327 12.521 14.7476 13.4689 14.7476C14.0251 14.7476 14.6463 15.1998 14.6463 15.7557V16.7805C14.6463 16.9928 14.786 17.1798 14.9895 17.2402L15.1276 17.2811C15.3481 17.3464 15.5837 17.2461 15.6895 17.0421C15.8203 16.7896 16.0779 16.6328 16.3615 16.6328H16.3698C16.7872 16.6328 17.1267 16.9724 17.1267 17.3897V29.4919H6.84099V29.2917C6.84099 29.2819 6.84067 29.272 6.84009 29.2621C6.77591 28.2254 5.97969 27.1276 4.47375 25.9995C2.89903 24.8186 1.95891 22.9242 1.95891 20.9319V19.803C1.95891 19.2623 2.3988 18.8223 2.93956 18.8223H3.03634V21.3143C3.03634 21.5791 3.25101 21.7938 3.5158 21.7938C3.78059 21.7938 3.99526 21.5791 3.99526 21.3143V18.343C3.99526 18.3412 3.995 18.3393 3.995 18.3374V9.80793C3.995 9.54314 3.78033 9.32847 3.51554 9.32847C3.25076 9.32847 3.03609 9.54314 3.03609 9.80793V17.8634H2.93956C1.87012 17.8634 1 18.7335 1 19.803V20.9319C1 23.2244 2.08357 25.4056 3.89866 26.7667C5.14378 27.6995 5.82921 28.5777 5.88208 29.3077V29.4918H5.54377C5.27898 29.4918 5.06431 29.7065 5.06431 29.9713V33.1594C5.06431 33.4241 5.27898 33.6388 5.54377 33.6388L17.1289 33.6309C17.2603 33.6309 17.3859 33.577 17.4764 33.4817C17.5669 33.3866 17.6144 33.2583 17.6078 33.1271C17.6074 33.1191 17.6068 33.1112 17.6061 33.1032C17.5846 32.8496 17.3679 32.6553 17.1101 32.6649C17.0879 32.6658 17.066 32.6681 17.0446 32.6719L6.02335 32.6798V30.4507H18.0411V32.6798H16.2594C16.2264 32.674 16.1922 32.6716 16.1572 32.6729C15.9001 32.6826 15.698 32.8932 15.696 33.1478C15.6958 33.1559 15.6958 33.1644 15.696 33.1714C15.7026 33.4314 15.9152 33.6387 16.1753 33.6387H18.5205C18.7853 33.6387 19 33.4241 19 33.1593V29.9712C18.9999 29.7066 18.7852 29.4919 18.5204 29.4919ZM5.30417 5.65967C4.69871 5.65967 4.12931 5.89569 3.70068 6.32433C3.44804 6.57697 3.26297 6.87883 3.15301 7.208V2.17818C3.15301 2.0573 3.25165 1.95891 3.37292 1.95891L13.944 1.95891C14.0652 1.95891 14.1639 2.0573 14.1639 2.17818V8.68445C14.1639 8.80572 14.0652 8.90436 13.944 8.90436H7.56349V7.7354C7.46517 6.57448 6.48977 5.65967 5.30417 5.65967Z" fill="#808080"/>
<path d="M18.5204 29.4919H18.0856V17.3897C18.0856 16.4436 17.3158 15.6739 16.3698 15.6739H16.3615C16.0936 15.6739 15.836 15.7355 15.6052 15.8488V15.7557C15.6052 14.6711 14.5539 13.7887 13.4689 13.7887C11.9365 13.7887 11.8233 14.0482 11.5206 14.2311C11.5206 12.8844 9.74099 12.257 8.70696 12.257H8.58742C8.21645 12.257 7.86907 12.3598 7.57225 12.5385V9.86327H13.9439C14.5939 9.86327 15.1227 9.33446 15.1227 8.68445V2.17818C15.1227 1.52855 14.5939 1 13.9439 1L3.37292 1C2.72291 1 2.1941 1.52855 2.1941 2.17818V7.51549C2.1941 8.04839 2.54979 8.49927 3.03603 8.64464V10.834C3.03603 11.0988 3.25069 11.3134 3.51548 11.3134C3.78027 11.3134 3.99494 11.0988 3.99494 10.834V7.92846C3.99494 7.57871 4.13123 7.24987 4.37869 7.00234C4.62622 6.75488 4.95487 6.61859 5.30417 6.61859C6.02604 6.61859 6.6134 7.20621 6.6134 7.92846V14.2311C6.6134 14.4959 6.82807 14.7105 7.09286 14.7105C7.35765 14.7105 7.57232 14.4959 7.57232 14.2311C7.57232 13.6713 8.02774 13.2159 8.58748 13.2159H8.70703C9.26678 13.2159 10.5015 13.6713 10.5015 14.2311V15.7557C10.5015 16.0205 10.7162 16.2352 10.981 16.2352C11.5206 16.2352 11.9103 16.2664 11.9103 16.0016C11.9103 15.4172 11.9103 15.2223 12.1051 15.0275C12.2999 14.8327 12.521 14.7476 13.4689 14.7476C14.0251 14.7476 14.6463 15.1998 14.6463 15.7557V16.7805C14.6463 16.9928 14.786 17.1798 14.9895 17.2402L15.1276 17.2811C15.3481 17.3464 15.5837 17.2461 15.6895 17.0421C15.8203 16.7896 16.0779 16.6328 16.3615 16.6328H16.3698C16.7872 16.6328 17.1267 16.9724 17.1267 17.3897V29.4919H6.84099V29.2917C6.84099 29.2819 6.84067 29.272 6.84009 29.2621C6.77591 28.2254 5.97969 27.1276 4.47375 25.9995C2.89903 24.8186 1.95891 22.9242 1.95891 20.9319V19.803C1.95891 19.2623 2.3988 18.8223 2.93956 18.8223H3.03634V21.3143C3.03634 21.5791 3.25101 21.7938 3.5158 21.7938C3.78059 21.7938 3.99526 21.5791 3.99526 21.3143V18.343C3.99526 18.3412 3.995 18.3393 3.995 18.3374V9.80793C3.995 9.54314 3.78033 9.32847 3.51554 9.32847C3.25076 9.32847 3.03609 9.54314 3.03609 9.80793V17.8634H2.93956C1.87012 17.8634 1 18.7335 1 19.803V20.9319C1 23.2244 2.08357 25.4056 3.89866 26.7667C5.14378 27.6995 5.82921 28.5777 5.88208 29.3077V29.4918H5.54377C5.27898 29.4918 5.06431 29.7065 5.06431 29.9713V33.1594C5.06431 33.4241 5.27898 33.6388 5.54377 33.6388L17.1289 33.6309C17.2603 33.6309 17.3859 33.577 17.4764 33.4817C17.5669 33.3866 17.6144 33.2583 17.6078 33.1271C17.6074 33.1191 17.6068 33.1112 17.6061 33.1032C17.5846 32.8496 17.3679 32.6553 17.1101 32.6649C17.0879 32.6658 17.066 32.6681 17.0446 32.6719L6.02335 32.6798V30.4507H18.0411V32.6798H16.2594C16.2264 32.674 16.1922 32.6716 16.1572 32.6729C15.9001 32.6826 15.698 32.8932 15.696 33.1478C15.6958 33.1559 15.6958 33.1644 15.696 33.1714C15.7026 33.4314 15.9152 33.6387 16.1753 33.6387H18.5205C18.7853 33.6387 19 33.4241 19 33.1593V29.9712C18.9999 29.7066 18.7852 29.4919 18.5204 29.4919ZM5.30417 5.65967C4.69871 5.65967 4.12931 5.89569 3.70068 6.32433C3.44804 6.57697 3.26297 6.87883 3.15301 7.208V2.17818C3.15301 2.0573 3.25165 1.95891 3.37292 1.95891L13.944 1.95891C14.0652 1.95891 14.1639 2.0573 14.1639 2.17818V8.68445C14.1639 8.80572 14.0652 8.90436 13.944 8.90436H7.56349V7.7354C7.46517 6.57448 6.48977 5.65967 5.30417 5.65967Z" stroke="#808080" stroke-width="0.0779306" mask="url(#path-1-outside-1)"/>
<path d="M12.5745 3.87576L12.5745 3.87578C12.6856 3.98686 12.6856 4.16708 12.5745 4.27825L9.60798 7.24474L9.60793 7.24479C9.55239 7.30037 9.47988 7.32812 9.40674 7.32812C9.3337 7.32812 9.2612 7.30038 9.20549 7.24468L7.7677 5.80688L7.76767 5.80686C7.65656 5.69578 7.65653 5.51557 7.7677 5.40439L7.76772 5.40437C7.8788 5.29326 8.05901 5.29322 8.17018 5.40439C8.17018 5.40439 8.17019 5.40439 8.17019 5.40439L9.26897 6.50324L9.40673 6.64101L9.5445 6.50324L12.172 3.87576L12.172 3.87574C12.2831 3.76462 12.4633 3.76459 12.5745 3.87576Z" fill="#808080" stroke="#808080" stroke-width="0.389653"/>
</svg>
