<svg width="29" height="28" viewBox="0 0 29 28" fill="none" xmlns="http://www.w3.org/2000/svg">
<mask id="path-1-inside-1" fill="white">
<path d="M22.5064 19.8047L28.3376 13.9735C29.2208 13.0903 29.2208 11.6532 28.3376 10.77C28.0262 10.4586 27.6458 10.2575 27.2452 10.1658C27.3826 9.87043 27.4553 9.54632 27.4553 9.21091C27.4553 8.60584 27.2196 8.03701 26.7919 7.60923C26.4563 7.27364 26.0339 7.05693 25.5754 6.97886C25.8335 6.19241 25.6511 5.29172 25.0268 4.66754C24.6836 4.32438 24.2567 4.11523 23.8112 4.03879C23.8859 3.81228 23.9252 3.57309 23.9252 3.32764C23.9252 2.72257 23.6896 2.15374 23.2618 1.72596C22.834 1.29818 22.2651 1.06254 21.6601 1.06254C21.2759 1.06254 20.9065 1.15785 20.5783 1.33683L20.5203 1.27451C19.7665 0.4645 18.6996 0 17.5933 0H12.8732C12.5412 0 12.272 0.26918 12.272 0.601103V1.38935C12.272 1.70481 12.3254 2.01191 12.4275 2.30068C12.1556 2.18776 11.8614 2.12844 11.5581 2.12844C10.9531 2.12844 10.3842 2.36409 9.9564 2.79187C9.33186 3.41641 9.14958 4.31776 9.4083 5.10445C8.96243 5.18072 8.53495 5.38998 8.19143 5.73344C7.76365 6.16128 7.52801 6.73011 7.52801 7.33512C7.52801 7.58008 7.56725 7.81891 7.64159 8.04494C7.18364 8.12325 6.76163 8.33984 6.4264 8.67513C5.73666 9.36488 5.58563 10.3926 5.97332 11.2303C5.56279 11.3241 5.18573 11.5308 4.88055 11.8359C3.99741 12.7191 3.99741 14.1562 4.88055 15.0394L6.07976 16.2385L0.176058 22.1421C-0.058686 22.3768 -0.058686 22.7574 0.176058 22.9922C0.29343 23.1095 0.447282 23.1683 0.601073 23.1683C0.754865 23.1683 0.908717 23.1096 1.02609 22.9922L6.98676 17.0316C7.32421 17.2241 7.70716 17.3271 8.10627 17.3271C8.71128 17.3271 9.28011 17.0915 9.70795 16.6636C10.1728 16.1989 10.3926 15.5807 10.3681 14.9706C10.3986 14.9718 10.4291 14.9727 10.4595 14.9727C11.0395 14.9727 11.6197 14.7519 12.0612 14.3104C12.489 13.8825 12.7246 13.3137 12.7246 12.7087C12.7246 12.6781 12.7236 12.6477 12.7224 12.6173C12.7525 12.6185 12.7826 12.6194 12.8128 12.6194C13.3928 12.6194 13.9729 12.3986 14.4145 11.9571C14.8423 11.5293 15.0779 10.9604 15.0779 10.3554C15.0779 10.3248 15.0769 10.2944 15.0757 10.264C15.1058 10.2652 15.1359 10.2662 15.1661 10.2662C15.7462 10.2662 16.3262 10.0454 16.7678 9.60383C17.5976 8.77399 17.6475 7.45526 16.918 6.56634L20.9082 2.57617C21.109 2.37533 21.3758 2.26481 21.6598 2.26481C21.9437 2.26481 22.2106 2.37533 22.4114 2.57617C22.6122 2.77696 22.7227 3.0438 22.7227 3.32776C22.7227 3.61167 22.6122 3.87863 22.4114 4.07935L21.8231 4.66766L19.6885 6.80223C19.4537 7.03697 19.4537 7.41758 19.6885 7.65238C19.8059 7.76969 19.9597 7.82847 20.1135 7.82847C20.2673 7.82847 20.4211 7.76975 20.5385 7.65238L22.6731 5.51781C23.0875 5.10337 23.7618 5.10331 24.1763 5.51775C24.5908 5.93225 24.5908 6.60655 24.1763 7.02105L23.588 7.60941L22.0417 9.15562C21.807 9.39036 21.807 9.77097 22.0417 10.0058C22.1591 10.1231 22.313 10.1819 22.4668 10.1819C22.6206 10.1819 22.7744 10.1231 22.8918 10.0058L24.438 8.45956C24.6388 8.25871 24.9057 8.14819 25.1896 8.14819C25.4735 8.14819 25.7404 8.25871 25.9412 8.45956C26.142 8.66035 26.2525 8.92719 26.2525 9.21115C26.2525 9.49505 26.142 9.76201 25.9412 9.96274L25.1336 10.7703L24.395 11.5089C24.1602 11.7437 24.1602 12.1243 24.395 12.3591C24.5123 12.4764 24.6662 12.5352 24.82 12.5352C24.9738 12.5352 25.1276 12.4765 25.245 12.3591L25.9842 11.6199C26.3987 11.2061 27.0726 11.2062 27.4869 11.6204C27.9014 12.0349 27.9014 12.7092 27.4869 13.1237L21.6557 18.9549C20.1914 20.4192 18.2454 21.2669 16.176 21.342C16.0239 21.3475 15.8794 21.4106 15.772 21.5185L10.3853 26.9252C10.1509 27.1604 10.1516 27.541 10.3868 27.7753C10.5041 27.8921 10.6576 27.9506 10.8111 27.9506C10.9652 27.9506 11.1195 27.8916 11.2369 27.7737L15.199 23.797C16.2054 24.4426 17.3889 24.7496 18.5924 24.6701L21.6934 27.7711C21.8107 27.8884 21.9646 27.9472 22.1184 27.9472C22.2722 27.9472 22.426 27.8884 22.5434 27.7711C22.7781 27.5363 22.7781 27.1557 22.5434 26.9209L19.2464 23.6236C19.1216 23.4988 18.9481 23.435 18.7722 23.4495L18.5816 23.4651C17.702 23.5372 16.8325 23.3445 16.0733 22.9191L16.4596 22.5314C18.7443 22.3905 20.8834 21.4278 22.5064 19.8047ZM8.85792 15.8136C8.65713 16.0145 8.39018 16.125 8.10633 16.125C7.82237 16.125 7.55547 16.0145 7.35474 15.8136L5.73053 14.1895C5.31609 13.775 5.31609 13.1007 5.73053 12.6862C5.93131 12.4853 6.19827 12.3748 6.48217 12.3748C6.76608 12.3748 7.03304 12.4853 7.23376 12.6862L8.85798 14.3103C9.27236 14.7247 9.27236 15.3991 8.85792 15.8136ZM11.2113 13.4602C10.7968 13.8747 10.1223 13.8747 9.70801 13.4602L8.0838 11.836L7.27619 11.0284C6.86176 10.614 6.86176 9.9396 7.27619 9.52516C7.47698 9.32432 7.74394 9.21379 8.02778 9.21379C8.31175 9.21379 8.57864 9.32432 8.77937 9.52516L11.2111 11.9569C11.2111 11.9569 11.2111 11.9569 11.2112 11.9569C11.412 12.1578 11.5226 12.4247 11.5226 12.7086C11.5226 12.9925 11.412 13.2594 11.2113 13.4602ZM13.5646 11.1069C13.1501 11.5213 12.4757 11.5213 12.0613 11.1069L9.04116 8.08677C8.84037 7.88598 8.72985 7.61915 8.72985 7.33518C8.72985 7.05128 8.84037 6.78432 9.04122 6.58359C9.24844 6.37637 9.52069 6.27276 9.79281 6.27276C10.0648 6.27276 10.3368 6.37625 10.5439 6.58311L11.9204 7.9596L13.5645 9.60365H13.5645C13.7653 9.80444 13.8758 10.0713 13.8758 10.3552C13.8759 10.6392 13.7654 10.9062 13.5646 11.1069ZM15.9179 8.75356C15.5035 9.168 14.8291 9.168 14.4147 8.75356L11.3946 5.73344C11.3943 5.73314 11.3939 5.73284 11.3935 5.73248L10.8062 5.14514C10.3918 4.73064 10.3918 4.05634 10.8062 3.64184C11.0134 3.43456 11.2857 3.33095 11.5578 3.33095C11.83 3.33095 12.1023 3.43456 12.3094 3.64184L15.9178 7.2502C16.1186 7.45099 16.2292 7.71789 16.2292 8.00179C16.2292 8.28582 16.1188 8.55283 15.9179 8.75356ZM16.076 5.70826L14.4249 4.05724C14.6122 4.0972 14.8047 4.11842 15.0006 4.11836C15.005 4.11836 15.0094 4.11836 15.0139 4.11836L16.6634 4.11061C16.9954 4.10904 17.2633 3.83866 17.2617 3.50668C17.2601 3.17566 16.9913 2.9084 16.6607 2.9084C16.6597 2.9084 16.6587 2.9084 16.6578 2.9084L15.0082 2.91615C15.0057 2.91615 15.0033 2.91615 15.0008 2.91615C14.5943 2.91615 14.212 2.75839 13.9238 2.47154C13.6338 2.18283 13.4741 1.79856 13.4741 1.38929V1.20215H17.5931C18.3669 1.20215 19.113 1.52698 19.6402 2.09347L19.6646 2.11973L16.076 5.70826Z"/>
</mask>
<path d="M22.5064 19.8047L28.3376 13.9735C29.2208 13.0903 29.2208 11.6532 28.3376 10.77C28.0262 10.4586 27.6458 10.2575 27.2452 10.1658C27.3826 9.87043 27.4553 9.54632 27.4553 9.21091C27.4553 8.60584 27.2196 8.03701 26.7919 7.60923C26.4563 7.27364 26.0339 7.05693 25.5754 6.97886C25.8335 6.19241 25.6511 5.29172 25.0268 4.66754C24.6836 4.32438 24.2567 4.11523 23.8112 4.03879C23.8859 3.81228 23.9252 3.57309 23.9252 3.32764C23.9252 2.72257 23.6896 2.15374 23.2618 1.72596C22.834 1.29818 22.2651 1.06254 21.6601 1.06254C21.2759 1.06254 20.9065 1.15785 20.5783 1.33683L20.5203 1.27451C19.7665 0.4645 18.6996 0 17.5933 0H12.8732C12.5412 0 12.272 0.26918 12.272 0.601103V1.38935C12.272 1.70481 12.3254 2.01191 12.4275 2.30068C12.1556 2.18776 11.8614 2.12844 11.5581 2.12844C10.9531 2.12844 10.3842 2.36409 9.9564 2.79187C9.33186 3.41641 9.14958 4.31776 9.4083 5.10445C8.96243 5.18072 8.53495 5.38998 8.19143 5.73344C7.76365 6.16128 7.52801 6.73011 7.52801 7.33512C7.52801 7.58008 7.56725 7.81891 7.64159 8.04494C7.18364 8.12325 6.76163 8.33984 6.4264 8.67513C5.73666 9.36488 5.58563 10.3926 5.97332 11.2303C5.56279 11.3241 5.18573 11.5308 4.88055 11.8359C3.99741 12.7191 3.99741 14.1562 4.88055 15.0394L6.07976 16.2385L0.176058 22.1421C-0.058686 22.3768 -0.058686 22.7574 0.176058 22.9922C0.29343 23.1095 0.447282 23.1683 0.601073 23.1683C0.754865 23.1683 0.908717 23.1096 1.02609 22.9922L6.98676 17.0316C7.32421 17.2241 7.70716 17.3271 8.10627 17.3271C8.71128 17.3271 9.28011 17.0915 9.70795 16.6636C10.1728 16.1989 10.3926 15.5807 10.3681 14.9706C10.3986 14.9718 10.4291 14.9727 10.4595 14.9727C11.0395 14.9727 11.6197 14.7519 12.0612 14.3104C12.489 13.8825 12.7246 13.3137 12.7246 12.7087C12.7246 12.6781 12.7236 12.6477 12.7224 12.6173C12.7525 12.6185 12.7826 12.6194 12.8128 12.6194C13.3928 12.6194 13.9729 12.3986 14.4145 11.9571C14.8423 11.5293 15.0779 10.9604 15.0779 10.3554C15.0779 10.3248 15.0769 10.2944 15.0757 10.264C15.1058 10.2652 15.1359 10.2662 15.1661 10.2662C15.7462 10.2662 16.3262 10.0454 16.7678 9.60383C17.5976 8.77399 17.6475 7.45526 16.918 6.56634L20.9082 2.57617C21.109 2.37533 21.3758 2.26481 21.6598 2.26481C21.9437 2.26481 22.2106 2.37533 22.4114 2.57617C22.6122 2.77696 22.7227 3.0438 22.7227 3.32776C22.7227 3.61167 22.6122 3.87863 22.4114 4.07935L21.8231 4.66766L19.6885 6.80223C19.4537 7.03697 19.4537 7.41758 19.6885 7.65238C19.8059 7.76969 19.9597 7.82847 20.1135 7.82847C20.2673 7.82847 20.4211 7.76975 20.5385 7.65238L22.6731 5.51781C23.0875 5.10337 23.7618 5.10331 24.1763 5.51775C24.5908 5.93225 24.5908 6.60655 24.1763 7.02105L23.588 7.60941L22.0417 9.15562C21.807 9.39036 21.807 9.77097 22.0417 10.0058C22.1591 10.1231 22.313 10.1819 22.4668 10.1819C22.6206 10.1819 22.7744 10.1231 22.8918 10.0058L24.438 8.45956C24.6388 8.25871 24.9057 8.14819 25.1896 8.14819C25.4735 8.14819 25.7404 8.25871 25.9412 8.45956C26.142 8.66035 26.2525 8.92719 26.2525 9.21115C26.2525 9.49505 26.142 9.76201 25.9412 9.96274L25.1336 10.7703L24.395 11.5089C24.1602 11.7437 24.1602 12.1243 24.395 12.3591C24.5123 12.4764 24.6662 12.5352 24.82 12.5352C24.9738 12.5352 25.1276 12.4765 25.245 12.3591L25.9842 11.6199C26.3987 11.2061 27.0726 11.2062 27.4869 11.6204C27.9014 12.0349 27.9014 12.7092 27.4869 13.1237L21.6557 18.9549C20.1914 20.4192 18.2454 21.2669 16.176 21.342C16.0239 21.3475 15.8794 21.4106 15.772 21.5185L10.3853 26.9252C10.1509 27.1604 10.1516 27.541 10.3868 27.7753C10.5041 27.8921 10.6576 27.9506 10.8111 27.9506C10.9652 27.9506 11.1195 27.8916 11.2369 27.7737L15.199 23.797C16.2054 24.4426 17.3889 24.7496 18.5924 24.6701L21.6934 27.7711C21.8107 27.8884 21.9646 27.9472 22.1184 27.9472C22.2722 27.9472 22.426 27.8884 22.5434 27.7711C22.7781 27.5363 22.7781 27.1557 22.5434 26.9209L19.2464 23.6236C19.1216 23.4988 18.9481 23.435 18.7722 23.4495L18.5816 23.4651C17.702 23.5372 16.8325 23.3445 16.0733 22.9191L16.4596 22.5314C18.7443 22.3905 20.8834 21.4278 22.5064 19.8047ZM8.85792 15.8136C8.65713 16.0145 8.39018 16.125 8.10633 16.125C7.82237 16.125 7.55547 16.0145 7.35474 15.8136L5.73053 14.1895C5.31609 13.775 5.31609 13.1007 5.73053 12.6862C5.93131 12.4853 6.19827 12.3748 6.48217 12.3748C6.76608 12.3748 7.03304 12.4853 7.23376 12.6862L8.85798 14.3103C9.27236 14.7247 9.27236 15.3991 8.85792 15.8136ZM11.2113 13.4602C10.7968 13.8747 10.1223 13.8747 9.70801 13.4602L8.0838 11.836L7.27619 11.0284C6.86176 10.614 6.86176 9.9396 7.27619 9.52516C7.47698 9.32432 7.74394 9.21379 8.02778 9.21379C8.31175 9.21379 8.57864 9.32432 8.77937 9.52516L11.2111 11.9569C11.2111 11.9569 11.2111 11.9569 11.2112 11.9569C11.412 12.1578 11.5226 12.4247 11.5226 12.7086C11.5226 12.9925 11.412 13.2594 11.2113 13.4602ZM13.5646 11.1069C13.1501 11.5213 12.4757 11.5213 12.0613 11.1069L9.04116 8.08677C8.84037 7.88598 8.72985 7.61915 8.72985 7.33518C8.72985 7.05128 8.84037 6.78432 9.04122 6.58359C9.24844 6.37637 9.52069 6.27276 9.79281 6.27276C10.0648 6.27276 10.3368 6.37625 10.5439 6.58311L11.9204 7.9596L13.5645 9.60365H13.5645C13.7653 9.80444 13.8758 10.0713 13.8758 10.3552C13.8759 10.6392 13.7654 10.9062 13.5646 11.1069ZM15.9179 8.75356C15.5035 9.168 14.8291 9.168 14.4147 8.75356L11.3946 5.73344C11.3943 5.73314 11.3939 5.73284 11.3935 5.73248L10.8062 5.14514C10.3918 4.73064 10.3918 4.05634 10.8062 3.64184C11.0134 3.43456 11.2857 3.33095 11.5578 3.33095C11.83 3.33095 12.1023 3.43456 12.3094 3.64184L15.9178 7.2502C16.1186 7.45099 16.2292 7.71789 16.2292 8.00179C16.2292 8.28582 16.1188 8.55283 15.9179 8.75356ZM16.076 5.70826L14.4249 4.05724C14.6122 4.0972 14.8047 4.11842 15.0006 4.11836C15.005 4.11836 15.0094 4.11836 15.0139 4.11836L16.6634 4.11061C16.9954 4.10904 17.2633 3.83866 17.2617 3.50668C17.2601 3.17566 16.9913 2.9084 16.6607 2.9084C16.6597 2.9084 16.6587 2.9084 16.6578 2.9084L15.0082 2.91615C15.0057 2.91615 15.0033 2.91615 15.0008 2.91615C14.5943 2.91615 14.212 2.75839 13.9238 2.47154C13.6338 2.18283 13.4741 1.79856 13.4741 1.38929V1.20215H17.5931C18.3669 1.20215 19.113 1.52698 19.6402 2.09347L19.6646 2.11973L16.076 5.70826Z" fill="#808080" stroke="#808080" stroke-width="0.132368" mask="url(#path-1-inside-1)"/>
<path d="M28.1745 20.3892L28.1748 20.3895C28.3701 20.5832 28.3714 20.8985 28.1776 21.0938C28.1776 21.0938 28.1776 21.0938 28.1776 21.0938L28.1528 21.0691C28.0623 21.1604 27.9432 21.2061 27.824 21.2061C27.7062 21.2061 27.5883 21.1614 27.498 21.0718L28.1745 20.3892ZM28.1745 20.3892L25.8137 18.1094C25.8137 18.1094 25.8136 18.1093 25.8136 18.1093C25.6182 17.9157 25.3031 17.9171 25.1094 18.1123C24.9157 18.3076 24.9171 18.6229 25.1123 18.8166L25.1123 18.8166L25.1127 18.8169L27.4734 21.0966C27.4734 21.0967 27.4735 21.0968 27.4735 21.0968L28.1745 20.3892Z" fill="#828282" stroke="#828282" stroke-width="0.07"/>
</svg>
