<svg width="24" height="24" viewBox="0 0 24 24" fill="none" xmlns="http://www.w3.org/2000/svg">
<path d="M12 0C5.37001 0 0 5.37001 0 12C0 18.6299 5.37001 23.9999 12 23.9999C18.6299 23.9999 24 18.63 24 12C24 5.36996 18.63 0 12 0ZM2.40002 12C2.40002 6.69599 6.69599 2.39996 12 2.39996C14.22 2.39996 16.254 3.16198 17.88 4.42198L4.42198 17.88C3.16198 16.254 2.40002 14.22 2.40002 12ZM12 21.6C9.77995 21.6 7.74596 20.838 6.12 19.578L19.578 6.12C20.838 7.74601 21.6 9.78001 21.6 12C21.6 17.304 17.304 21.6 12 21.6Z" fill="#FF0E18"/>
</svg>
