<svg width="30" height="16" viewBox="0 0 30 16" fill="none" xmlns="http://www.w3.org/2000/svg">
<path d="M11.6464 13.8536C11.8417 14.0488 12.1583 14.0488 12.3536 13.8536L15.5355 10.6716C15.7308 10.4763 15.7308 10.1597 15.5355 9.96447C15.3403 9.7692 15.0237 9.7692 14.8284 9.96447L12 12.7929L9.17157 9.96447C8.97631 9.7692 8.65973 9.7692 8.46447 9.96447C8.2692 10.1597 8.2692 10.4763 8.46447 10.6716L11.6464 13.8536ZM11.5 2.5L11.5 13.5L12.5 13.5L12.5 2.5L11.5 2.5Z" fill="#50D166"/>
<path d="M18.3536 2.14645C18.1583 1.95118 17.8417 1.95118 17.6464 2.14645L14.4645 5.32843C14.2692 5.52369 14.2692 5.84027 14.4645 6.03553C14.6597 6.2308 14.9763 6.2308 15.1716 6.03553L18 3.20711L20.8284 6.03553C21.0237 6.2308 21.3403 6.2308 21.5355 6.03553C21.7308 5.84027 21.7308 5.52369 21.5355 5.32843L18.3536 2.14645ZM18.5 13.5L18.5 2.5L17.5 2.5L17.5 13.5L18.5 13.5Z" fill="#50D166"/>
</svg>
