<svg width="32" height="32" viewBox="0 0 32 32" fill="none" xmlns="http://www.w3.org/2000/svg">
<path d="M3.61539 0C1.95853 0 0.615387 1.34315 0.615387 3V24.6154V29C0.615387 30.6569 1.95853 32 3.61539 32H28.3846C30.0415 32 31.3846 30.6569 31.3846 29V24.6154V3C31.3846 1.34315 30.0415 0 28.3846 0H3.61539ZM1.84616 4.23077C1.84616 2.57391 3.1893 1.23077 4.84616 1.23077H27.1538C28.8107 1.23077 30.1538 2.57392 30.1538 4.23077V18.2418L23.1852 11.8535C23.0646 11.7434 22.9058 11.6886 22.7422 11.6923C22.5791 11.6997 22.4252 11.7717 22.3151 11.8923L17.1686 17.5286L19.512 19.872C19.7526 20.1126 19.7526 20.5015 19.512 20.7422C19.392 20.8628 19.2345 20.9231 19.0769 20.9231C18.9194 20.9231 18.7618 20.8628 18.6418 20.7428L16.2874 18.4942L13.3686 15.5754C13.1385 15.3458 12.7705 15.3342 12.5268 15.5483L2.22831 24.6154H1.84616V4.23077ZM30.1538 27.7692C30.1538 29.4261 28.8107 30.7692 27.1538 30.7692H4.84616C3.1893 30.7692 1.84616 29.4261 1.84616 27.7692V25.8462H30.1538V27.7692Z" fill="white"/>
</svg>
