<svg width="31" height="30" viewBox="0 0 31 30" fill="none" xmlns="http://www.w3.org/2000/svg">
<path d="M16.737 20.8184C16.4712 20.8432 16.2044 20.7832 15.9747 20.647C15.8069 20.4748 15.7265 20.2356 15.7561 19.997C15.7623 19.7983 15.786 19.6006 15.827 19.4061C15.8667 19.183 15.9179 18.9621 15.9806 18.7443L16.6779 16.3452C16.7498 16.1084 16.7973 15.8648 16.8197 15.6183C16.8197 15.3524 16.8552 15.1692 16.8552 15.0629C16.87 14.589 16.6676 14.1342 16.3056 13.8279C15.8603 13.486 15.3058 13.318 14.7456 13.3552C14.3442 13.3612 13.9459 13.4269 13.5638 13.5502C13.1462 13.6802 12.7069 13.8358 12.2461 14.017L12.0452 14.797C12.1811 14.7497 12.3466 14.6966 12.5356 14.6374C12.716 14.584 12.903 14.5561 13.0911 14.5547C13.3549 14.5261 13.6205 14.5909 13.8415 14.7379C13.9916 14.917 14.062 15.1497 14.0365 15.382C14.0358 15.5807 14.0141 15.7788 13.9715 15.9729C13.9301 16.1797 13.8769 16.3983 13.8119 16.6288L13.1088 19.0397C13.0521 19.2638 13.0068 19.4906 12.9729 19.7192C12.9453 19.915 12.9315 20.1124 12.9315 20.3101C12.9286 20.7873 13.1468 21.239 13.5224 21.5333C13.9745 21.8805 14.537 22.0526 15.106 22.0178C15.5067 22.0261 15.906 21.9682 16.2878 21.8465C16.6227 21.7322 17.0698 21.5687 17.6292 21.356L17.8183 20.6115C17.6668 20.6743 17.5108 20.7257 17.3515 20.7651C17.1501 20.8111 16.9433 20.829 16.737 20.8184Z" fill="#109CF1"/>
<path d="M17.476 9.44273C17.1544 9.14739 16.7307 8.9885 16.2942 8.99957C15.8579 8.98971 15.4346 9.14846 15.1123 9.44273C14.5217 9.95207 14.4557 10.8438 14.9651 11.4346C15.0105 11.4872 15.0597 11.5364 15.1123 11.5818C15.7853 12.1838 16.8031 12.1838 17.476 11.5818C18.0666 11.0675 18.1285 10.1717 17.6142 9.58101C17.5714 9.5318 17.5252 9.48559 17.476 9.44273Z" fill="#109CF1"/>
<path d="M15 2.25C7.68222 2.25 1.75 8.18222 1.75 15.5C1.75 22.8178 7.68222 28.75 15 28.75C22.3178 28.75 28.25 22.8178 28.25 15.5C28.25 8.18222 22.3178 2.25 15 2.25ZM15 27.0682C8.61106 27.0682 3.43183 21.8889 3.43183 15.5C3.43183 9.11106 8.61106 3.93183 15 3.93183C21.3889 3.93183 26.5682 9.11106 26.5682 15.5C26.5682 21.8889 21.3889 27.0682 15 27.0682Z" fill="#109CF1" stroke="#109CF1" stroke-width="0.5"/>
</svg>
