<svg width="30" height="31" viewBox="0 0 30 31" fill="none" xmlns="http://www.w3.org/2000/svg">
<mask id="mask0" mask-type="alpha" maskUnits="userSpaceOnUse" x="6" y="6" width="18" height="18">
<path fill-rule="evenodd" clip-rule="evenodd" d="M18.5 17.5H17.71L17.43 17.23C18.41 16.09 19 14.61 19 13C19 9.41 16.09 6.5 12.5 6.5C8.91 6.5 6 9.41 6 13C6 16.59 8.91 19.5 12.5 19.5C14.11 19.5 15.59 18.91 16.73 17.93L17 18.21V19L22 23.99L23.49 22.5L18.5 17.5ZM12.5 17.5C10.01 17.5 8 15.49 8 13C8 10.51 10.01 8.5 12.5 8.5C14.99 8.5 17 10.51 17 13C17 15.49 14.99 17.5 12.5 17.5Z" fill="white"/>
</mask>
<g mask="url(#mask0)">
<rect x="2.5" y="6.5" width="24" height="18" fill="#D8D8D8"/>
</g>
</svg>
