<svg width="25" height="18" viewBox="0 0 25 18" fill="none" xmlns="http://www.w3.org/2000/svg">
<path d="M25 0H0V18H25V0Z" fill="#D80027"/>
<path d="M7.96198 6.95654L8.54829 8.784H10.4457L8.91065 9.91344L9.497 11.741L7.96198 10.6115L6.42697 11.741L7.01327 9.91344L5.47826 8.784H7.37564L7.96198 6.95654Z" fill="#FFDA44"/>
<path d="M11.6575 13.0346L11.0818 12.611L10.5062 13.0346L10.726 12.3493L10.1504 11.9257H10.8619L11.0818 11.2404L11.3017 11.9257H12.0132L11.4376 12.3493L11.6575 13.0346Z" fill="#FFDA44"/>
<path d="M13.1592 10.9414H12.4477L12.2278 11.6267L12.008 10.9415L11.2964 10.9414L11.8721 10.5179L11.6522 9.83258L12.2278 10.2561L12.8035 9.83258L12.5836 10.5179L13.1592 10.9414Z" fill="#FFDA44"/>
<path d="M13.1592 8.35409L12.5836 8.77766L12.8034 9.46291L12.2278 9.03942L11.6522 9.46299L11.8721 8.77762L11.2964 8.35417L12.008 8.35409L12.2278 7.66876L12.4477 8.35409H13.1592Z" fill="#FFDA44"/>
<path d="M11.6574 6.26091L11.4376 6.94624L12.0132 7.36973L11.3017 7.36977L11.0818 8.05514L10.8619 7.36973L10.1504 7.36981L10.726 6.94619L10.5062 6.26086L11.0818 6.68444L11.6574 6.26091Z" fill="#FFDA44"/>
<rect x="0.25" y="0.25" width="24.5" height="17.5" stroke="#D8D8D8" stroke-width="0.5"/>
</svg>
