<svg width="25" height="18" viewBox="0 0 25 18" fill="none" xmlns="http://www.w3.org/2000/svg">
<rect x="0.25" y="0.25" width="24.5" height="17.5" fill="white"/>
<path d="M25 0.203125H0V16.8535H25V0.203125Z" fill="white"/>
<path d="M15.625 6.93745H13.5417L12.5 5L11.4584 6.9374H9.375L10.4167 8.87484L9.375 10.8122H11.4584L12.5 12.7496L13.5417 10.8122H15.625L14.5833 8.87479L15.625 6.93745ZM13.7797 8.87479L13.1399 10.065H11.8602L11.2203 8.87479L11.8602 7.68462H13.1399L13.7797 8.87479ZM12.5 6.49449L12.7381 6.93745H12.2619L12.5 6.49449ZM10.5803 7.68462H11.0566L10.8185 8.12757L10.5803 7.68462ZM10.5803 10.065L10.8185 9.62206L11.0566 10.065H10.5803ZM12.5 11.2551L12.2619 10.8122H12.7382L12.5 11.2551ZM14.4197 10.065H13.9434L14.1815 9.62206L14.4197 10.065ZM13.9434 7.68462H14.4197L14.1815 8.12757L13.9434 7.68462Z" fill="#2E52B2"/>
<path d="M25 0.300781H0V3.18164H25V0.300781Z" fill="#2E52B2"/>
<path d="M25 15H0V17.6855H25V15Z" fill="#2E52B2"/>
<rect x="0.25" y="0.25" width="24.5" height="17.5" stroke="#D8D8D8" stroke-width="0.5"/>
</svg>
