<svg width="25" height="18" viewBox="0 0 25 18" fill="none" xmlns="http://www.w3.org/2000/svg">
<path d="M25 0H0V18H25V0Z" fill="#6DA544"/>
<path d="M8.9624 10.2538C8.9624 10.8541 9.43755 11.3407 10.0237 11.3407H13.2077C13.2077 11.8409 13.6037 12.2466 14.0922 12.2466H15.1535C15.642 12.2466 16.038 11.841 16.038 11.3407V10.2538H8.9624Z" fill="#F0F0F0"/>
<path d="M16.1262 5.00018V7.53641C16.1262 7.93597 15.8088 8.26102 15.4186 8.26102V9.34799C16.394 9.34799 17.1874 8.53534 17.1874 7.53641V5.00018H16.1262Z" fill="#F0F0F0"/>
<path d="M8.52007 7.53641C8.52007 7.93597 8.20269 8.26102 7.8125 8.26102V9.34798C8.78789 9.34798 9.58135 8.53534 9.58135 7.53641V5.00018H8.52002V7.53641H8.52007Z" fill="#F0F0F0"/>
<path d="M15.5955 5H14.5342V7.53623H15.5955V5Z" fill="#F0F0F0"/>
<path d="M12.9422 6.4495C12.9422 6.5494 12.8629 6.63065 12.7653 6.63065C12.6678 6.63065 12.5884 6.5494 12.5884 6.4495V5.00018H11.5271V6.4495C11.5271 6.5494 11.4477 6.63065 11.3502 6.63065C11.2526 6.63065 11.1733 6.5494 11.1733 6.4495V5.00018H10.1119V6.4495C10.1119 7.14872 10.6674 7.71762 11.3501 7.71762C11.6131 7.71762 11.857 7.633 12.0577 7.48925C12.2584 7.633 12.5023 7.71762 12.7653 7.71762C12.8182 7.71762 12.8702 7.71381 12.9215 7.70712C12.8463 8.02445 12.5673 8.26107 12.2346 8.26107V9.34804C13.21 9.34804 14.0034 8.53539 14.0034 7.53646V6.4495V5.00018H12.9421L12.9422 6.4495Z" fill="#F0F0F0"/>
<path d="M11.7038 8.26086H10.1119V9.34782H11.7038V8.26086Z" fill="#F0F0F0"/>
<rect x="0.25" y="0.25" width="24.5" height="17.5" stroke="#D8D8D8" stroke-width="0.5"/>
</svg>
