<svg width="25" height="18" viewBox="0 0 25 18" fill="none" xmlns="http://www.w3.org/2000/svg">
<g clip-path="url(#clip0)">
<path d="M25 0H0V18H25V0Z" fill="#FFDA44"/>
<path d="M25.0001 -0.0352173H0.000244141V5.95294H25.0001V-0.0352173Z" fill="#D80027"/>
<path d="M24.9999 11.9412H0V17.9293H24.9999V11.9412Z" fill="#D80027"/>
</g>
<path d="M0 0V-0.5H-0.5V0H0ZM25 0H25.5V-0.5H25V0ZM25 18V18.5H25.5V18H25ZM0 18H-0.5V18.5H0V18ZM0 0.5H25V-0.5H0V0.5ZM24.5 0V18H25.5V0H24.5ZM25 17.5H0V18.5H25V17.5ZM0.5 18V0H-0.5V18H0.5Z" fill="#D8D8D8"/>
<defs>
<clipPath id="clip0">
<path d="M0 0H25V18H0V0Z" fill="white"/>
</clipPath>
</defs>
</svg>
