<svg width="25" height="18" viewBox="0 0 25 18" fill="none" xmlns="http://www.w3.org/2000/svg">
<path d="M25 0H0V18H25V0Z" fill="#D80027"/>
<path d="M12.0709 6.72723L12.93 7.91112L14.3213 7.46L13.4609 8.64281L14.3199 9.8266L12.9291 9.37377L12.0687 10.5566L12.0695 9.09398L10.6787 8.6411L12.07 8.18998L12.0709 6.72723Z" fill="#F0F0F0"/>
<path d="M9.72664 11.601C8.09241 11.601 6.76755 10.2762 6.76755 8.64194C6.76755 7.00771 8.09241 5.68286 9.72664 5.68286C10.2362 5.68286 10.7156 5.81172 11.1342 6.03853C10.4776 5.39634 9.57952 5 8.58855 5C6.57717 5 4.94666 6.63057 4.94666 8.64189C4.94666 10.6532 6.57722 12.2838 8.58855 12.2838C9.57952 12.2838 10.4776 11.8875 11.1342 11.2453C10.7157 11.4722 10.2362 11.601 9.72664 11.601Z" fill="#F0F0F0"/>
<rect x="0.25" y="0.25" width="24.5" height="17.5" stroke="#D8D8D8" stroke-width="0.5"/>
</svg>
