<svg width="25" height="19" viewBox="0 0 25 19" fill="none" xmlns="http://www.w3.org/2000/svg">
<g clip-path="url(#clip0)">
<rect y="0.5" width="25" height="18" fill="white"/>
<path d="M25.4032 -1.67389H-0.403229V17.1087H25.4032V-1.67389Z" fill="white"/>
<path d="M14.0767 -0.0916748H10.9235V7.20654H-0.112823V10.575H10.9235V17.8732H14.0767V10.575H25.113V7.20654H14.0767V-0.0916748Z" fill="#D80027"/>
<path d="M19.2887 12.0154L25.113 15.4721V12.0154H19.2887Z" fill="#0052B4"/>
<path d="M15.2426 12.0155L25.1136 17.8736V16.2171L18.034 12.0155H15.2426Z" fill="#0052B4"/>
<path d="M22.4837 17.8735L15.2421 13.5754V17.8735H22.4837Z" fill="#0052B4"/>
<path d="M15.2421 12.0154L25.113 17.8735V16.217L18.0334 12.0154H15.2421Z" fill="#F0F0F0"/>
<path d="M15.2421 12.0154L25.113 17.8735V16.217L18.0334 12.0154H15.2421Z" fill="#D80027"/>
<path d="M4.3382 12.0153L-0.112823 14.6569V12.0153H4.3382Z" fill="#0052B4"/>
<path d="M9.75818 12.7603V17.8735H1.14312L9.75818 12.7603Z" fill="#0052B4"/>
<path d="M6.96681 12.0154L-0.112823 16.217V17.8735L9.75815 12.0154H6.96681Z" fill="#D80027"/>
<path d="M5.71153 5.76675L-0.112823 2.31012V5.76675H5.71153Z" fill="#0052B4"/>
<path d="M9.75819 5.76649L-0.112785 -0.0916138V1.56491L6.96685 5.76649H9.75819Z" fill="#0052B4"/>
<path d="M2.51648 -0.0917969L9.75816 4.20631V-0.0917969H2.51648Z" fill="#0052B4"/>
<path d="M9.75815 5.76643L-0.112823 -0.0916748V1.56485L6.96681 5.76643H9.75815Z" fill="#F0F0F0"/>
<path d="M9.75815 5.76643L-0.112823 -0.0916748V1.56485L6.96681 5.76643H9.75815Z" fill="#D80027"/>
<path d="M20.662 5.76695L25.113 3.12537V5.76695H20.662Z" fill="#0052B4"/>
<path d="M15.2421 5.02154V-0.0916748H23.8571L15.2421 5.02154Z" fill="#0052B4"/>
<path d="M18.0334 5.76631L25.113 1.56473V-0.0917969L15.2421 5.76631H18.0334Z" fill="#D80027"/>
</g>
<defs>
<clipPath id="clip0">
<rect y="0.5" width="25" height="18" fill="white"/>
</clipPath>
</defs>
</svg>
