<svg width="22" height="15" viewBox="0 0 22 15" fill="none" xmlns="http://www.w3.org/2000/svg">
<path d="M22 0.0155029H0V14.9864H22V0.0155029Z" fill="white"/>
<path d="M22 1.88568H0V3.75686H22V1.88568Z" fill="#D80027"/>
<path d="M22 5.62854H0V7.49973H22V5.62854Z" fill="#D80027"/>
<path d="M22 9.37085H0V11.242H22V9.37085Z" fill="#D80027"/>
<path d="M22 13.1138H0V14.985H22V13.1138Z" fill="#D80027"/>
<path d="M11 0.0155029H0V8.07677H11V0.0155029Z" fill="#2E52B2"/>
<path d="M4.28922 3.31683L4.11206 3.87315H3.53903L4.00271 4.21679L3.82555 4.77306L4.28922 4.42942L4.7526 4.77306L4.57548 4.21679L5.03916 3.87315H4.46608L4.28922 3.31683Z" fill="#F0F0F0"/>
<path d="M4.46608 5.88073L4.28922 5.32446L4.11206 5.88073H3.53903L4.00271 6.22442L3.82555 6.78069L4.28922 6.43701L4.7526 6.78069L4.57548 6.22442L5.03916 5.88073H4.46608Z" fill="#F0F0F0"/>
<path d="M2.04433 5.88073L1.86742 5.32446L1.69026 5.88073H1.11723L1.58091 6.22442L1.40375 6.78069L1.86742 6.43701L2.33084 6.78069L2.15373 6.22442L2.61732 5.88073H2.04433Z" fill="#F0F0F0"/>
<path d="M1.86742 3.31683L1.69026 3.87315H1.11723L1.58091 4.21679L1.40375 4.77306L1.86742 4.42942L2.33084 4.77306L2.15373 4.21679L2.61732 3.87315H2.04433L1.86742 3.31683Z" fill="#F0F0F0"/>
<path d="M4.28922 1.3092L4.11206 1.86556H3.53903L4.00271 2.20925L3.82555 2.76552L4.28922 2.42184L4.7526 2.76552L4.57548 2.20925L5.03916 1.86556H4.46608L4.28922 1.3092Z" fill="#F0F0F0"/>
<path d="M1.86742 1.3092L1.69026 1.86556H1.11723L1.58091 2.20925L1.40375 2.76552L1.86742 2.42184L2.33084 2.76552L2.15373 2.20925L2.61732 1.86556H2.04433L1.86742 1.3092Z" fill="#F0F0F0"/>
<path d="M6.71099 3.31683L6.53388 3.87315H5.96085L6.42448 4.21679L6.2474 4.77306L6.71099 4.42942L7.17445 4.77306L6.99729 4.21679L7.46097 3.87315H6.88794L6.71099 3.31683Z" fill="#F0F0F0"/>
<path d="M6.88794 5.88073L6.71099 5.32446L6.53388 5.88073H5.96085L6.42448 6.22442L6.2474 6.78069L6.71099 6.43701L7.17445 6.78069L6.99729 6.22442L7.46097 5.88073H6.88794Z" fill="#F0F0F0"/>
<path d="M9.30974 5.88073L9.13284 5.32446L8.95568 5.88073H8.38269L8.84628 6.22442L8.66916 6.78069L9.13284 6.43701L9.59626 6.78069L9.4191 6.22442L9.88277 5.88073H9.30974Z" fill="#F0F0F0"/>
<path d="M9.13284 3.31683L8.95568 3.87315H8.38269L8.84628 4.21679L8.66916 4.77306L9.13284 4.42942L9.59626 4.77306L9.4191 4.21679L9.88277 3.87315H9.30974L9.13284 3.31683Z" fill="#F0F0F0"/>
<path d="M6.71099 1.3092L6.53388 1.86556H5.96085L6.42448 2.20925L6.2474 2.76552L6.71099 2.42184L7.17445 2.76552L6.99729 2.20925L7.46097 1.86556H6.88794L6.71099 1.3092Z" fill="#F0F0F0"/>
<path d="M9.13284 1.3092L8.95568 1.86556H8.38269L8.84628 2.20925L8.66916 2.76552L9.13284 2.42184L9.59626 2.76552L9.4191 2.20925L9.88277 1.86556H9.30974L9.13284 1.3092Z" fill="#F0F0F0"/>
</svg>
