<svg width="30" height="31" viewBox="0 0 30 31" fill="none" xmlns="http://www.w3.org/2000/svg">
<path d="M3.03125 24.5L8.12388 26.8214M1 29.5H6.48438M6.48438 29.5H14L8.12388 26.8214M6.48438 29.5C6.29092 28.8452 6.34799 27.3929 8.12388 26.8214" stroke="#109CF1" stroke-linecap="round" stroke-linejoin="round"/>
<path d="M14.3135 2.7173L28.4335 8.63244L14.3135 16.0741V2.7173Z" fill="#FF0E18"/>
<path d="M13.741 29.5C13.741 29.8161 13.9973 30.0724 14.3135 30.0724C14.6296 30.0724 14.8859 29.8161 14.8859 29.5H13.741ZM14.8859 1C14.8859 0.683854 14.6296 0.427567 14.3135 0.427567C13.9973 0.427567 13.741 0.683854 13.741 1H14.8859ZM28.4335 8.63244L28.7004 9.13885C28.8964 9.03557 29.0152 8.82848 29.0054 8.60717C28.9956 8.38586 28.859 8.19006 28.6547 8.10447L28.4335 8.63244ZM14.8859 2.7173V1H13.741V2.7173H14.8859ZM14.0923 3.24528L28.2123 9.16042L28.6547 8.10447L14.5347 2.18932L14.0923 3.24528ZM14.8859 29.5V16.0741H13.741V29.5H14.8859ZM14.8859 16.0741V2.7173H13.741V16.0741H14.8859ZM28.1666 8.12603L14.0466 15.5677L14.5804 16.5805L28.7004 9.13885L28.1666 8.12603Z" fill="#838383"/>
</svg>
