<svg width="27" height="24" viewBox="0 0 27 24" fill="none" xmlns="http://www.w3.org/2000/svg">
<ellipse cx="14.5293" cy="22.8413" rx="8.56346" ry="0.658728" fill="#109CF1"/>
<path d="M3.97357 11.3174C3.97391 11.3216 3.97403 11.3257 3.97437 11.3298C3.98331 11.45 3.99485 11.5695 4.00776 11.6885C4.01036 11.7135 4.01341 11.7384 4.01624 11.7635C4.02813 11.8649 4.04126 11.9659 4.05586 12.0666C4.05801 12.0812 4.05937 12.0959 4.06163 12.1105C4.06186 12.1124 4.06254 12.114 4.06288 12.1158C4.35433 14.0513 5.1739 15.8158 6.36982 17.2579C6.38216 17.275 6.39336 17.2929 6.40706 17.3092C7.65651 18.7989 9.26759 19.8954 11.0686 20.5108C11.0843 20.5163 11.0999 20.5218 11.1157 20.5273C11.1911 20.5526 11.2666 20.5774 11.3426 20.6011C11.4383 20.6311 11.5345 20.6594 11.6312 20.6866C11.6861 20.702 11.7413 20.717 11.7965 20.7315C11.9122 20.7621 12.0289 20.7908 12.1461 20.8176C12.1818 20.8256 12.2178 20.8333 12.2535 20.841C12.3881 20.8701 12.5237 20.8971 12.6601 20.9209C12.6774 20.924 12.6948 20.9267 12.712 20.9295C13.2886 21.0277 13.8807 21.0794 14.4846 21.0794C15.315 21.0794 16.1232 20.9825 16.8987 20.8001C16.9024 20.7992 16.9061 20.7989 16.91 20.798C16.9301 20.7933 16.9499 20.7874 16.97 20.7825C17.0655 20.7594 17.1604 20.7349 17.255 20.7092C17.2878 20.7002 17.3207 20.6917 17.3535 20.6825C17.4627 20.6517 17.5709 20.6185 17.6785 20.5842C17.7146 20.5727 17.7508 20.5609 17.7868 20.5489C17.8977 20.5122 18.0082 20.4742 18.1175 20.4338C18.1378 20.4264 18.1576 20.4185 18.1778 20.4109C18.2838 20.3711 18.389 20.3295 18.4934 20.2865C18.512 20.2788 18.5307 20.2714 18.5491 20.2637C18.6653 20.2149 18.7801 20.164 18.8941 20.1112C18.9134 20.1024 18.9326 20.0933 18.9519 20.0843C19.0686 20.0294 19.1844 19.9729 19.2987 19.9139C19.3058 19.9103 19.3126 19.9066 19.3196 19.903C19.4289 19.8461 19.5371 19.7873 19.6442 19.7269C19.6617 19.717 19.6796 19.7074 19.697 19.6973C19.7998 19.6385 19.9016 19.5779 20.0021 19.5159C20.0339 19.4962 20.0656 19.4762 20.0974 19.4563C20.1837 19.4018 20.2695 19.3463 20.3541 19.2894C20.4037 19.256 20.4524 19.2218 20.5015 19.1877C20.5476 19.1555 20.5937 19.123 20.6395 19.0899C21.37 18.5643 22.0362 17.9468 22.613 17.2489C22.6313 17.2268 22.647 17.2034 22.6627 17.1799C23.824 15.7524 24.6199 14.0166 24.9061 12.1158C24.9064 12.114 24.9071 12.1124 24.9073 12.1105C24.9096 12.0959 24.9109 12.0812 24.9131 12.0666C24.9277 11.9659 24.9408 11.865 24.9527 11.7635C24.9555 11.7384 24.9586 11.7135 24.9612 11.6885C24.9741 11.5695 24.9856 11.45 24.9946 11.3298C24.9949 11.3257 24.995 11.3216 24.9954 11.3174C25.0036 11.2042 25.0097 11.0903 25.0144 10.9763C25.0155 10.949 25.0166 10.9217 25.0174 10.8944C25.0214 10.7765 25.0241 10.6583 25.0241 10.5396C25.0241 10.4214 25.0215 10.3039 25.0175 10.1868C25.0164 10.155 25.0152 10.1233 25.0139 10.0915C25.0096 9.98928 25.0041 9.88741 24.9969 9.786C24.9957 9.76902 24.995 9.75193 24.9937 9.73506C24.9853 9.62426 24.9746 9.51413 24.9629 9.40434C24.9586 9.36427 24.9539 9.32409 24.9491 9.28391C24.9398 9.20547 24.9295 9.12726 24.9184 9.04939C24.9116 9.00117 24.9048 8.95284 24.8972 8.90474C24.8836 8.81781 24.869 8.73134 24.8533 8.6452C24.8428 8.58725 24.8315 8.52953 24.8199 8.47192C24.8109 8.42608 24.8013 8.38046 24.7914 8.33485C24.7617 8.19529 24.7295 8.05641 24.6942 7.91821C24.6933 7.91471 24.6924 7.91131 24.6916 7.90769C24.6707 7.82688 24.6488 7.7464 24.6262 7.66604C24.624 7.65879 24.622 7.65178 24.6199 7.64453C24.3135 6.56961 23.837 5.54585 23.1974 4.60811C23.1842 4.58864 23.1688 4.57144 23.1542 4.55333C21.8567 2.68034 19.9689 1.24617 17.762 0.522465C17.7532 0.519295 17.7451 0.514993 17.7361 0.51205C17.7077 0.502769 17.6788 0.495072 17.6503 0.486131C17.5781 0.463267 17.5056 0.441423 17.4325 0.420144C17.3696 0.401922 17.3066 0.384265 17.2433 0.367061C17.1703 0.347141 17.0967 0.328012 17.023 0.309676C16.98 0.299036 16.9371 0.288284 16.894 0.27821C16.7886 0.253423 16.6828 0.230332 16.5762 0.208827C16.5414 0.201923 16.5066 0.195471 16.4717 0.188793C16.3789 0.17091 16.2856 0.154272 16.1918 0.139105C16.1645 0.134578 16.1373 0.129711 16.1099 0.125409C15.995 0.107639 15.8795 0.0919068 15.7634 0.0778719C15.733 0.0741368 15.7025 0.0707409 15.672 0.0673454C15.5625 0.0551214 15.4528 0.0440296 15.3424 0.0352011C15.3299 0.0340693 15.3173 0.0328244 15.3049 0.0318057C15.1845 0.0225245 15.0634 0.015733 14.9419 0.0105265C14.9126 0.00928145 14.8832 0.00815054 14.8538 0.00724506C14.7312 0.00294402 14.6081 0 14.4844 0C14.3607 0 14.2377 0.00283083 14.115 0.00724506C14.0855 0.00826373 14.0561 0.00928145 14.0269 0.0105265C13.9055 0.015733 13.7844 0.0224113 13.6639 0.0318057C13.6515 0.0328244 13.6389 0.0340693 13.6265 0.0352011C13.516 0.0440296 13.4063 0.0551214 13.2969 0.0673454C13.2663 0.0707409 13.2359 0.0741368 13.2054 0.0778719C13.0894 0.0919068 12.9738 0.107639 12.859 0.125409C12.8317 0.129711 12.8044 0.134578 12.777 0.139105C12.6833 0.154385 12.59 0.17091 12.4971 0.188793C12.4622 0.195471 12.4274 0.201809 12.3926 0.208827C12.2861 0.230445 12.1802 0.253536 12.0748 0.27821C12.0317 0.288284 11.9888 0.29915 11.9458 0.309676C11.8721 0.328012 11.7985 0.347141 11.7255 0.367061C11.6622 0.384152 11.5992 0.401922 11.5363 0.420144C11.4633 0.441536 11.3907 0.463267 11.3185 0.486131C11.29 0.494959 11.2611 0.502656 11.2327 0.51205C11.2239 0.51488 11.2157 0.519182 11.2068 0.522465C8.99957 1.24628 7.11163 2.68057 5.81431 4.55401C5.79982 4.57189 5.78454 4.5891 5.77141 4.60834C5.13463 5.54212 4.65959 6.56124 4.35308 7.63095C4.34878 7.64566 4.34448 7.66027 4.34041 7.67498C4.31913 7.7507 4.2983 7.82654 4.27861 7.90271C4.27363 7.92218 4.2691 7.94187 4.26412 7.96134C4.23367 8.08211 4.20538 8.20367 4.17934 8.32557C4.16848 8.37616 4.15784 8.42687 4.14777 8.4778C4.13679 8.53247 4.12615 8.58737 4.11619 8.64215C4.09898 8.73689 4.08257 8.83185 4.06786 8.92726C4.06186 8.96608 4.05677 9.00513 4.05133 9.04384C4.03979 9.12454 4.02915 9.20547 4.01953 9.28674C4.01489 9.32545 4.01036 9.36439 4.00617 9.40321C3.99429 9.51368 3.98365 9.62437 3.97516 9.73586C3.97391 9.75204 3.97323 9.76834 3.9721 9.78453C3.96497 9.88662 3.95931 9.98917 3.95501 10.0921C3.95365 10.1235 3.95252 10.1551 3.95139 10.1868C3.94754 10.304 3.94482 10.4215 3.94482 10.5397C3.94482 10.6584 3.94754 10.7766 3.9515 10.8945C3.95241 10.9217 3.95354 10.949 3.95456 10.9764C3.9592 11.0903 3.96531 11.2042 3.97357 11.3174ZM9.02843 17.4896L10.8019 17.3773L11.6326 18.9069C10.6813 18.5815 9.80318 18.0991 9.02843 17.4896ZM19.4331 17.8634C19.4253 17.8687 19.4174 17.8738 19.4097 17.8791C19.3046 17.9497 19.198 18.0181 19.09 18.0843C19.0781 18.0916 19.0664 18.0991 19.0544 18.1062C18.9431 18.1738 18.8302 18.2386 18.7157 18.3013C18.6946 18.3129 18.6732 18.3238 18.6519 18.3352C18.556 18.3867 18.4593 18.4363 18.3615 18.4842C18.3368 18.4964 18.3123 18.5086 18.2877 18.5204C18.271 18.5283 18.2538 18.5354 18.2372 18.5433L18.8645 17.0525L20.2028 17.2757C19.9568 17.4847 19.7008 17.6818 19.4331 17.8634ZM22.6564 7.16712C22.8105 7.53927 22.9411 7.92376 23.0438 8.31946C23.0471 8.3327 23.0504 8.34594 23.0537 8.3593C23.0839 8.4778 23.1113 8.59721 23.1365 8.71742C23.1426 8.74662 23.1486 8.77605 23.1544 8.80525C23.1758 8.9121 23.1948 9.01985 23.2122 9.12805C23.2178 9.16269 23.2238 9.1971 23.2289 9.23173C23.2456 9.34446 23.2598 9.4581 23.2723 9.57219C23.2752 9.59879 23.2791 9.62539 23.2817 9.65221C23.295 9.78509 23.3051 9.91888 23.3124 10.0536L22.0649 8.82834L22.6564 7.16712ZM13.5407 1.74871C13.5626 1.74645 13.5847 1.74373 13.6067 1.74158C13.7358 1.72891 13.8656 1.71906 13.9962 1.71193C14.0241 1.71034 14.052 1.70932 14.08 1.70808C14.2104 1.70219 14.3416 1.69823 14.4734 1.69801C14.4807 1.69801 14.488 1.69801 14.4953 1.69801C14.6271 1.69823 14.7582 1.70219 14.8887 1.70808C14.9167 1.70932 14.9446 1.71034 14.9725 1.71193C15.1031 1.71906 15.233 1.72879 15.362 1.74158C15.384 1.74385 15.4061 1.74645 15.428 1.74871C15.478 1.75415 15.5274 1.7615 15.5772 1.76773L14.4842 2.65646L13.3912 1.76773C13.4414 1.76162 13.4908 1.75415 13.5407 1.74871ZM11.3315 2.28114L13.9489 4.40936C14.1049 4.53613 14.2947 4.59962 14.4844 4.59962C14.6742 4.59962 14.8639 4.53613 15.0199 4.40936L17.6373 2.28114C19.2008 2.88 20.5526 3.90931 21.5452 5.22509L20.2831 8.76959C20.1723 9.08097 20.2522 9.42833 20.4881 9.66002L23.1535 12.2774C22.8946 13.5709 22.3528 14.7631 21.5952 15.787L18.4815 15.2673C18.094 15.2028 17.7119 15.4128 17.5593 15.7754L16.106 19.2298C15.5799 19.3277 15.0382 19.3815 14.4842 19.3815C14.2559 19.3815 14.0305 19.37 13.8067 19.353L12.0351 16.0906C11.8774 15.8002 11.5647 15.6287 11.2355 15.6485L7.44995 15.8883C6.65256 14.842 6.08255 13.614 5.8151 12.2775L8.48072 9.66014C8.7166 9.42856 8.79651 9.08108 8.6857 8.76971L7.42346 5.2252C8.41621 3.90908 9.76798 2.88 11.3315 2.28114ZM5.68731 9.65233C5.69003 9.62505 5.69399 9.598 5.69693 9.57061C5.70927 9.45742 5.72331 9.34446 5.74006 9.23264C5.74538 9.1971 5.75149 9.16156 5.75715 9.12613C5.77435 9.0194 5.79314 8.913 5.81419 8.80751C5.8203 8.77673 5.82664 8.74583 5.83309 8.71504C5.85788 8.59767 5.88471 8.48097 5.91414 8.36507C5.91821 8.34888 5.92195 8.3327 5.92613 8.31651C6.02868 7.92195 6.15896 7.53837 6.31277 7.167L6.90439 8.82845L5.65664 10.0537C5.664 9.91899 5.67407 9.78521 5.68731 9.65233Z" fill="#838383"/>
<path d="M11.8409 14.1785C11.98 14.4787 12.2807 14.6709 12.6114 14.6709H16.3591C16.6898 14.6709 16.9904 14.4788 17.1294 14.1787L19.0038 10.1305C19.1628 9.78707 19.0753 9.37983 18.7893 9.13196L15.0411 5.88603C14.7222 5.60997 14.2486 5.60986 13.9296 5.88614L10.1819 9.13207C9.89585 9.37972 9.80825 9.78684 9.96727 10.1304L11.8409 14.1785ZM14.4853 7.65093L17.1945 9.99703L15.8167 12.973H13.154L11.7764 9.99703L14.4853 7.65093Z" fill="#838383"/>
</svg>
