<svg width="39" height="33" viewBox="0 0 39 33" fill="none" xmlns="http://www.w3.org/2000/svg">
<path d="M10.9625 21.9693C10.9628 21.9731 10.9629 21.9768 10.9632 21.9806C10.9713 22.0891 10.9817 22.1969 10.9933 22.3044C10.9957 22.327 10.9985 22.3495 11.001 22.3721C11.0117 22.4636 11.0236 22.5549 11.0368 22.6457C11.0387 22.6589 11.0399 22.6722 11.042 22.6854C11.0422 22.6871 11.0428 22.6885 11.0431 22.6902C11.3063 24.4376 12.0462 26.0308 13.126 27.3328C13.1371 27.3483 13.1472 27.3644 13.1596 27.3791C14.2877 28.7242 15.7423 29.7141 17.3683 30.2697C17.3825 30.2747 17.3966 30.2797 17.4108 30.2846C17.4789 30.3075 17.5471 30.3299 17.6157 30.3512C17.7021 30.3783 17.789 30.4039 17.8763 30.4285C17.9259 30.4424 17.9757 30.4559 18.0255 30.469C18.13 30.4967 18.2353 30.5225 18.3412 30.5467C18.3734 30.554 18.4059 30.5609 18.4382 30.5679C18.5597 30.5942 18.6821 30.6185 18.8052 30.64C18.8209 30.6428 18.8366 30.6453 18.8522 30.6478C19.3727 30.7364 19.9073 30.7831 20.4526 30.7831C21.2022 30.7831 21.932 30.6956 22.6321 30.5309C22.6355 30.5301 22.6388 30.5299 22.6423 30.5291C22.6605 30.5248 22.6784 30.5195 22.6965 30.5151C22.7827 30.4942 22.8685 30.472 22.9538 30.4488C22.9834 30.4408 23.0132 30.4331 23.0428 30.4247C23.1413 30.3969 23.239 30.367 23.3362 30.336C23.3688 30.3256 23.4015 30.315 23.434 30.3041C23.5341 30.271 23.6339 30.2367 23.7326 30.2002C23.7509 30.1936 23.7688 30.1864 23.787 30.1796C23.8827 30.1436 23.9777 30.1061 24.072 30.0673C24.0887 30.0603 24.1056 30.0536 24.1223 30.0466C24.2271 30.0026 24.3308 29.9566 24.4337 29.909C24.4511 29.901 24.4685 29.8928 24.486 29.8846C24.5913 29.8351 24.6959 29.7841 24.7991 29.7308C24.8054 29.7276 24.8115 29.7242 24.8179 29.7209C24.9166 29.6696 25.0143 29.6165 25.111 29.562C25.1268 29.553 25.1429 29.5443 25.1587 29.5352C25.2515 29.4822 25.3433 29.4274 25.4341 29.3714C25.4628 29.3537 25.4914 29.3357 25.5201 29.3177C25.5981 29.2684 25.6756 29.2184 25.7519 29.167C25.7967 29.1368 25.8407 29.1059 25.885 29.0752C25.9266 29.0461 25.9682 29.0167 26.0096 28.9869C26.6692 28.5123 27.2707 27.9548 27.7914 27.3246C27.8079 27.3047 27.8221 27.2836 27.8363 27.2624C28.8848 25.9736 29.6034 24.4064 29.8617 22.6902C29.862 22.6885 29.8626 22.6871 29.8628 22.6854C29.8649 22.6722 29.8661 22.6589 29.8681 22.6457C29.8812 22.5549 29.8931 22.4637 29.9038 22.3721C29.9064 22.3495 29.9091 22.327 29.9115 22.3044C29.9231 22.1969 29.9336 22.0891 29.9416 21.9806C29.9419 21.9768 29.942 21.9731 29.9424 21.9693C29.9498 21.8671 29.9553 21.7643 29.9595 21.6613C29.9605 21.6367 29.9616 21.6121 29.9623 21.5874C29.9659 21.4809 29.9683 21.3743 29.9683 21.2671C29.9683 21.1604 29.966 21.0543 29.9624 20.9485C29.9614 20.9198 29.9602 20.8912 29.9591 20.8625C29.9552 20.7702 29.9502 20.6782 29.9438 20.5867C29.9427 20.5713 29.942 20.5559 29.9408 20.5407C29.9333 20.4406 29.9237 20.3412 29.913 20.2421C29.9091 20.2059 29.9049 20.1696 29.9006 20.1334C29.8922 20.0625 29.8829 19.9919 29.8729 19.9216C29.8667 19.8781 29.8606 19.8344 29.8538 19.791C29.8415 19.7125 29.8283 19.6345 29.8141 19.5567C29.8046 19.5044 29.7944 19.4522 29.784 19.4002C29.7758 19.3588 29.7671 19.3177 29.7582 19.2765C29.7314 19.1505 29.7023 19.0251 29.6704 18.9003C29.6696 18.8971 29.6688 18.8941 29.6681 18.8908C29.6493 18.8178 29.6294 18.7452 29.609 18.6726C29.6071 18.6661 29.6052 18.6598 29.6034 18.6532C29.3268 17.6827 28.8965 16.7584 28.319 15.9117C28.3071 15.8942 28.2932 15.8786 28.28 15.8623C27.1086 14.1712 25.4041 12.8763 23.4116 12.2229C23.4036 12.2201 23.3963 12.2162 23.3882 12.2135C23.3626 12.2052 23.3365 12.1982 23.3108 12.1901C23.2456 12.1695 23.1801 12.1498 23.1141 12.1306C23.0573 12.1141 23.0004 12.0982 22.9433 12.0826C22.8774 12.0646 22.8109 12.0474 22.7444 12.0308C22.7056 12.0212 22.6668 12.0115 22.6279 12.0024C22.5328 11.98 22.4372 11.9592 22.341 11.9398C22.3096 11.9335 22.2781 11.9277 22.2466 11.9217C22.1628 11.9055 22.0786 11.8905 21.9939 11.8768C21.9693 11.8727 21.9447 11.8683 21.9199 11.8644C21.8162 11.8484 21.712 11.8342 21.6071 11.8215C21.5796 11.8182 21.5521 11.8151 21.5246 11.812C21.4257 11.801 21.3267 11.791 21.227 11.783C21.2157 11.782 21.2044 11.7809 21.1931 11.7799C21.0844 11.7716 20.9751 11.7654 20.8654 11.7607C20.839 11.7596 20.8124 11.7586 20.7859 11.7578C20.6751 11.7539 20.5641 11.7512 20.4524 11.7512C20.3407 11.7512 20.2296 11.7538 20.1188 11.7578C20.0922 11.7587 20.0657 11.7596 20.0393 11.7607C19.9297 11.7654 19.8203 11.7715 19.7116 11.7799C19.7003 11.7809 19.689 11.782 19.6778 11.783C19.578 11.791 19.479 11.801 19.3802 11.812C19.3526 11.8151 19.3251 11.8182 19.2976 11.8215C19.1929 11.8342 19.0885 11.8484 18.9848 11.8644C18.9602 11.8683 18.9355 11.8727 18.9108 11.8768C18.8262 11.8906 18.742 11.9055 18.6581 11.9217C18.6266 11.9277 18.5951 11.9334 18.5638 11.9398C18.4676 11.9593 18.372 11.9801 18.2768 12.0024C18.2379 12.0115 18.1992 12.0213 18.1603 12.0308C18.0938 12.0474 18.0274 12.0646 17.9615 12.0826C17.9043 12.0981 17.8474 12.1141 17.7906 12.1306C17.7247 12.1499 17.6592 12.1695 17.594 12.1901C17.5682 12.1981 17.5422 12.2051 17.5165 12.2135C17.5085 12.2161 17.5012 12.22 17.4931 12.2229C15.5003 12.8764 13.7957 14.1714 12.6244 15.8629C12.6113 15.879 12.5975 15.8946 12.5857 15.9119C12.0108 16.755 11.5819 17.6751 11.3051 18.641C11.3012 18.6542 11.2974 18.6674 11.2937 18.6807C11.2745 18.7491 11.2557 18.8175 11.2379 18.8863C11.2334 18.9039 11.2293 18.9217 11.2248 18.9392C11.1973 19.0483 11.1718 19.158 11.1483 19.2681C11.1385 19.3138 11.1288 19.3596 11.1198 19.4055C11.1098 19.4549 11.1002 19.5045 11.0912 19.5539C11.0757 19.6395 11.0609 19.7252 11.0476 19.8113C11.0422 19.8464 11.0376 19.8817 11.0327 19.9166C11.0223 19.9895 11.0127 20.0625 11.004 20.1359C10.9998 20.1709 10.9957 20.206 10.9919 20.2411C10.9812 20.3408 10.9716 20.4407 10.9639 20.5414C10.9628 20.556 10.9622 20.5707 10.9612 20.5853C10.9547 20.6775 10.9496 20.7701 10.9457 20.863C10.9445 20.8914 10.9435 20.9199 10.9425 20.9485C10.939 21.0544 10.9365 21.1605 10.9365 21.2672C10.9365 21.3744 10.939 21.4811 10.9426 21.5875C10.9434 21.6121 10.9444 21.6367 10.9453 21.6614C10.9495 21.7643 10.955 21.8671 10.9625 21.9693ZM15.5263 27.542L17.1276 27.4406L17.8776 28.8216C17.0186 28.5278 16.2258 28.0923 15.5263 27.542ZM24.9204 27.8794C24.9133 27.8842 24.9062 27.8888 24.8992 27.8936C24.8044 27.9574 24.7081 28.0191 24.6106 28.0789C24.5999 28.0856 24.5893 28.0923 24.5784 28.0987C24.478 28.1598 24.376 28.2182 24.2727 28.2748C24.2536 28.2853 24.2343 28.2952 24.215 28.3055C24.1285 28.352 24.0411 28.3967 23.9528 28.44C23.9305 28.451 23.9085 28.462 23.8862 28.4727C23.8712 28.4798 23.8556 28.4863 23.8406 28.4933L24.407 27.1473L25.6153 27.3489C25.3932 27.5376 25.1621 27.7155 24.9204 27.8794ZM27.8306 18.2222C27.9698 18.5582 28.0876 18.9053 28.1804 19.2626C28.1833 19.2745 28.1863 19.2865 28.1893 19.2986C28.2165 19.4055 28.2413 19.5134 28.2641 19.6219C28.2696 19.6482 28.275 19.6748 28.2802 19.7012C28.2995 19.7977 28.3167 19.8949 28.3324 19.9926C28.3374 20.0239 28.3429 20.055 28.3475 20.0862C28.3626 20.188 28.3754 20.2906 28.3867 20.3936C28.3892 20.4176 28.3928 20.4417 28.3952 20.4659C28.4071 20.5859 28.4162 20.7066 28.4229 20.8283L27.2965 19.722L27.8306 18.2222ZM19.6003 13.3301C19.6201 13.328 19.64 13.3256 19.6599 13.3236C19.7765 13.3122 19.8937 13.3033 20.0116 13.2969C20.0368 13.2954 20.062 13.2945 20.0872 13.2934C20.205 13.2881 20.3234 13.2845 20.4425 13.2843C20.449 13.2843 20.4556 13.2843 20.4622 13.2843C20.5812 13.2845 20.6996 13.2881 20.8174 13.2934C20.8426 13.2945 20.8679 13.2954 20.893 13.2969C21.0109 13.3033 21.1283 13.3121 21.2448 13.3236C21.2646 13.3257 21.2845 13.328 21.3043 13.3301C21.3494 13.335 21.3941 13.3416 21.439 13.3472L20.4522 14.1496L19.4653 13.3472C19.5107 13.3417 19.5552 13.335 19.6003 13.3301ZM17.6057 13.8108L19.9689 15.7323C20.1097 15.8467 20.2811 15.9041 20.4524 15.9041C20.6237 15.9041 20.795 15.8467 20.9358 15.7323L23.299 13.8108C24.7107 14.3515 25.9311 15.2808 26.8274 16.4688L25.6878 19.669C25.5878 19.9501 25.6599 20.2637 25.8729 20.4729L28.2794 22.8361C28.0457 24.0039 27.5565 25.0803 26.8724 26.0047L24.0612 25.5356C23.7113 25.4773 23.3663 25.6669 23.2286 25.9943L21.9165 29.1132C21.4415 29.2016 20.9524 29.2501 20.4522 29.2501C20.246 29.2501 20.0426 29.2397 19.8404 29.2244L18.2409 26.2789C18.0986 26.0167 17.8162 25.8619 17.5191 25.8798L14.1012 26.0962C13.3812 25.1516 12.8666 24.0429 12.6251 22.8362L15.0318 20.473C15.2448 20.264 15.317 19.9502 15.2169 19.6691L14.0773 16.4689C14.9736 15.2806 16.1941 14.3515 17.6057 13.8108ZM12.5098 20.466C12.5122 20.4414 12.5158 20.4169 12.5184 20.3922C12.5296 20.29 12.5423 20.188 12.5574 20.0871C12.5622 20.055 12.5677 20.0229 12.5728 19.9909C12.5883 19.8945 12.6053 19.7985 12.6243 19.7032C12.6298 19.6754 12.6356 19.6475 12.6414 19.6197C12.6638 19.5138 12.688 19.4084 12.7145 19.3038C12.7182 19.2891 12.7216 19.2745 12.7254 19.2599C12.818 18.9037 12.9356 18.5574 13.0745 18.2221L13.6086 19.7221L12.4821 20.8284C12.4887 20.7067 12.4978 20.586 12.5098 20.466Z" fill="#109CF1"/>
<path d="M18.0651 24.5524C18.1907 24.8234 18.4621 24.9969 18.7607 24.9969H22.1444C22.443 24.9969 22.7144 24.8235 22.8399 24.5525L24.5322 20.8975C24.6758 20.5875 24.5968 20.2198 24.3385 19.996L20.9545 17.0654C20.6665 16.8161 20.2389 16.816 19.9509 17.0655L16.5672 19.9961C16.309 20.2197 16.2299 20.5873 16.3735 20.8974L18.0651 24.5524ZM20.4526 18.6588L22.8987 20.7771L21.6547 23.464H19.2507L18.0069 20.7771L20.4526 18.6588Z" fill="#109CF1"/>
<path d="M37.7263 29.6405V13.4263C37.7261 13.4205 37.726 13.4146 37.726 13.4087V11.0508C37.726 10.1619 37.0029 9.43873 36.114 9.43873H4.79063C3.90185 9.43873 3.17872 10.1619 3.17872 11.0508V29.6405H4.29707V11.0946C4.29707 10.7976 4.53769 10.557 4.83464 10.557H36.0704C36.3673 10.557 36.608 10.7976 36.608 11.0946V29.6405H37.7263Z" fill="#109CF1"/>
<path fill-rule="evenodd" clip-rule="evenodd" d="M38.8014 13.0528C38.8014 13.0485 38.8013 13.0442 38.8012 13.04L38.8014 13.0528Z" fill="#109CF1"/>
<path d="M38.2638 31.4617H2.64108C2.34413 31.4617 2.10352 31.7023 2.10352 31.9992C2.10352 32.2962 2.34413 32.5368 2.64108 32.5368H38.2638C38.5607 32.5368 38.8014 32.2962 38.8014 31.9992C38.8014 31.7023 38.5607 31.4617 38.2638 31.4617Z" fill="#838383"/>
<path d="M20.4731 6.30571C20.7701 6.30571 21.0107 6.0651 21.0107 5.76815V1.03757C21.0107 0.740686 20.7701 0.5 20.4731 0.5C20.1762 0.5 19.9355 0.740686 19.9355 1.03757V5.76815C19.9354 6.06503 20.1761 6.30571 20.4731 6.30571Z" fill="#838383"/>
<path d="M24.9085 7.05352C24.9849 7.09115 25.0659 7.109 25.1457 7.109C25.344 7.109 25.5348 6.99883 25.6283 6.80889L27.7194 2.56571C27.8506 2.29936 27.7411 1.97703 27.4748 1.8458C27.2084 1.71456 26.8862 1.82394 26.7549 2.09035L24.6638 6.33361C24.5327 6.60003 24.6422 6.92229 24.9085 7.05352Z" fill="#838383"/>
<path d="M15.3174 6.8089C15.4111 6.99876 15.6018 7.109 15.8 7.109C15.8798 7.109 15.9608 7.09115 16.0373 7.05352C16.3036 6.92229 16.4131 6.60003 16.2818 6.33361L14.1909 2.09035C14.0596 1.82394 13.7374 1.71456 13.4709 1.8458C13.2047 1.97703 13.0951 2.29929 13.2264 2.56571L15.3174 6.8089Z" fill="#838383"/>
</svg>
