<svg width="26" height="26" viewBox="0 0 26 26" fill="none" xmlns="http://www.w3.org/2000/svg">
<path d="M13 26C20.1797 26 26 20.1797 26 13C26 5.8203 20.1797 0 13 0C5.8203 0 0 5.8203 0 13C0 20.1797 5.8203 26 13 26Z" fill="url(#paint0_linear)"/>
<path d="M4.68005 12.9887C4.68005 11.6151 4.68005 10.2405 4.68005 8.86687C4.67395 7.87035 5.02579 6.90474 5.67155 6.14574C6.31731 5.38673 7.21408 4.88476 8.19872 4.73114C8.45701 4.69424 8.71786 4.6783 8.97872 4.68347C11.7174 4.68116 14.4529 4.68001 17.1852 4.68001C18.2812 4.68798 19.3298 5.1276 20.1038 5.90356C20.8779 6.67952 21.3148 7.72929 21.3201 8.82527C21.3201 11.6038 21.3201 14.3823 21.3201 17.1609C21.3201 18.2642 20.8818 19.3223 20.1016 20.1024C19.3215 20.8826 18.2634 21.3209 17.1601 21.3209C14.3752 21.3209 11.5903 21.3209 8.80538 21.3209C6.73145 21.3209 4.92532 19.7097 4.71992 17.6488C4.65578 17.0049 4.68525 16.3488 4.68178 15.7014C4.67572 14.7983 4.68178 13.8944 4.68178 12.9913L4.68005 12.9887ZM20.1284 13.0165C20.1284 11.6237 20.1284 10.2319 20.1284 8.84001C20.1307 8.44952 20.0555 8.06245 19.9071 7.70123C19.7588 7.34001 19.5402 7.01181 19.2642 6.73565C18.9881 6.45948 18.6599 6.24084 18.2988 6.09239C17.9376 5.94394 17.5505 5.86862 17.1601 5.87081C14.3867 5.87081 11.6148 5.87081 8.84438 5.87081C8.45326 5.8678 8.06545 5.94269 7.70357 6.09111C7.34169 6.23954 7.01297 6.45852 6.7366 6.7353C6.46023 7.01208 6.24172 7.34111 6.09383 7.7032C5.94593 8.0653 5.87161 8.45322 5.87518 8.84434C5.87518 11.6177 5.87518 14.391 5.87518 17.1643C5.87218 17.5555 5.94707 17.9433 6.09549 18.3052C6.24391 18.667 6.4629 18.9957 6.73968 19.2721C7.01645 19.5485 7.34548 19.767 7.70758 19.9149C8.06968 20.0628 8.4576 20.1371 8.84872 20.1335C11.6145 20.137 14.3804 20.137 17.1462 20.1335C17.5403 20.1382 17.9313 20.0639 18.2962 19.9151C18.6612 19.7663 18.9927 19.546 19.2711 19.2671C19.5496 18.9883 19.7695 18.6565 19.9177 18.2913C20.066 17.9262 20.1397 17.535 20.1345 17.1409C20.1339 15.767 20.1327 14.3922 20.131 13.0165H20.1284Z" fill="white"/>
<path d="M13.0122 8.84001C13.5585 8.84212 14.0991 8.9518 14.603 9.16281C15.1069 9.37381 15.5643 9.68201 15.9491 10.0698C16.3339 10.4576 16.6385 10.9173 16.8457 11.4229C17.0528 11.9284 17.1583 12.4698 17.1562 13.0161C17.1541 13.5624 17.0444 14.1029 16.8334 14.6068C16.6224 15.1107 16.3142 15.5681 15.9264 15.9529C15.5386 16.3377 15.0789 16.6424 14.5733 16.8495C14.0678 17.0566 13.5265 17.1621 12.9802 17.16C10.7155 17.16 8.83748 15.2742 8.84095 13C8.84347 11.8955 9.28411 10.8372 10.0662 10.0573C10.8482 9.27733 11.9077 8.83955 13.0122 8.84001ZM15.9719 13C15.9719 12.4125 15.7977 11.8381 15.4713 11.3495C15.1448 10.861 14.6809 10.4802 14.1381 10.2553C13.5953 10.0304 12.998 9.97154 12.4217 10.0861C11.8454 10.2007 11.316 10.4835 10.9005 10.8989C10.485 11.3143 10.2019 11.8436 10.0872 12.4199C9.97247 12.9961 10.0312 13.5935 10.2559 14.1363C10.4806 14.6792 10.8613 15.1433 11.3498 15.4698C11.8382 15.7964 12.4125 15.9708 13.0001 15.971C13.3903 15.9712 13.7768 15.8945 14.1374 15.7453C14.498 15.5961 14.8257 15.3773 15.1017 15.1013C15.3777 14.8254 15.5966 14.4978 15.7459 14.1373C15.8952 13.7767 15.972 13.3903 15.9719 13Z" fill="white"/>
<path d="M18.9428 8.24895C18.9425 8.4846 18.8721 8.71483 18.7406 8.91042C18.6092 9.106 18.4226 9.25812 18.2045 9.34745C17.9865 9.43679 17.7468 9.45932 17.5159 9.41218C17.285 9.36504 17.0733 9.25036 16.9077 9.08269C16.7422 8.91503 16.6301 8.70194 16.5859 8.47048C16.5416 8.23902 16.5671 7.99963 16.6592 7.7827C16.7512 7.56577 16.9056 7.38108 17.1028 7.25207C17.3 7.12307 17.5311 7.05557 17.7668 7.05815C18.0795 7.06358 18.3777 7.19124 18.5975 7.4138C18.8173 7.63637 18.9413 7.93614 18.9428 8.24895Z" fill="white"/>
<defs>
<linearGradient id="paint0_linear" x1="13" y1="24.0569" x2="13" y2="-1.94307" gradientUnits="userSpaceOnUse">
<stop stop-color="#FFDC7F"/>
<stop offset="0.07" stop-color="#FDBC68"/>
<stop offset="0.26" stop-color="#F76D30"/>
<stop offset="0.31" stop-color="#EA6145"/>
<stop offset="0.42" stop-color="#D14970"/>
<stop offset="0.51" stop-color="#C23A8A"/>
<stop offset="0.56" stop-color="#BC3494"/>
<stop offset="0.61" stop-color="#A33FA2"/>
<stop offset="0.67" stop-color="#884BB2"/>
<stop offset="0.73" stop-color="#7752BC"/>
<stop offset="0.77" stop-color="#7155BF"/>
<stop offset="0.83" stop-color="#655AC6"/>
<stop offset="0.91" stop-color="#595FCD"/>
<stop offset="1" stop-color="#5561CF"/>
</linearGradient>
</defs>
</svg>
