<svg width="25" height="25" viewBox="0 0 25 25" fill="none" xmlns="http://www.w3.org/2000/svg">
<rect width="25" height="25" rx="12.5" fill="#4F4F4F"/>
<path d="M12.5209 8.50427C10.3872 8.50427 8.6661 10.1509 8.6661 12.1923C8.6661 14.2337 10.3872 15.8803 12.5209 15.8803C14.6546 15.8803 16.3757 14.2337 16.3757 12.1923C16.3757 10.1509 14.6546 8.50427 12.5209 8.50427ZM12.5209 14.59C11.142 14.59 10.0148 13.5147 10.0148 12.1923C10.0148 10.8699 11.1387 9.7946 12.5209 9.7946C13.9031 9.7946 15.027 10.8699 15.027 12.1923C15.027 13.5147 13.8998 14.59 12.5209 14.59ZM17.4325 8.35341C17.4325 8.83167 17.0299 9.21363 16.5334 9.21363C16.0335 9.21363 15.6343 8.82846 15.6343 8.35341C15.6343 7.87837 16.0369 7.49319 16.5334 7.49319C17.0299 7.49319 17.4325 7.87837 17.4325 8.35341ZM19.9856 9.22647C19.9286 8.07416 19.6535 7.05345 18.7711 6.21249C17.8921 5.37153 16.8253 5.10833 15.6209 5.05055C14.3795 4.98315 10.6589 4.98315 9.4176 5.05055C8.21654 5.10512 7.14967 5.36832 6.26732 6.20928C5.38498 7.05025 5.11323 8.07095 5.05284 9.22326C4.98239 10.4109 4.98239 13.9705 5.05284 15.1581C5.10987 16.3105 5.38498 17.3312 6.26732 18.1721C7.14967 19.0131 8.21318 19.2763 9.4176 19.3341C10.6589 19.4015 14.3795 19.4015 15.6209 19.3341C16.8253 19.2795 17.8921 19.0163 18.7711 18.1721C19.6501 17.3312 19.9252 16.3105 19.9856 15.1581C20.0561 13.9705 20.0561 10.4141 19.9856 9.22647ZM18.382 16.4324C18.1203 17.0615 17.6137 17.5462 16.9528 17.7998C15.9631 18.1753 13.6146 18.0887 12.5209 18.0887C11.4272 18.0887 9.0754 18.1721 8.08905 17.7998C7.43148 17.5494 6.92489 17.0647 6.65985 16.4324C6.26732 15.4855 6.35791 13.2387 6.35791 12.1923C6.35791 11.1459 6.27068 8.89587 6.65985 7.95219C6.92153 7.32308 7.42813 6.8384 8.08905 6.58483C9.07875 6.20928 11.4272 6.29595 12.5209 6.29595C13.6146 6.29595 15.9664 6.21249 16.9528 6.58483C17.6103 6.83519 18.1169 7.31987 18.382 7.95219C18.7745 8.89908 18.6839 11.1459 18.6839 12.1923C18.6839 13.2387 18.7745 15.4887 18.382 16.4324Z" fill="white"/>
</svg>
