<svg width="25" height="25" viewBox="0 0 25 25" fill="none" xmlns="http://www.w3.org/2000/svg">
<rect width="25" height="25" rx="12.5" fill="#4875B6"/>
<path d="M8.36612 19.1923H5.24835V9.58865H8.36612V19.1923ZM6.80556 8.27862C5.80881 8.27862 5 7.48875 5 6.53513C5 5.58151 5.80881 4.80769 6.80556 4.80769C7.8023 4.80769 8.61111 5.58151 8.61111 6.53513C8.61111 7.48875 7.8023 8.27862 6.80556 8.27862ZM20.0351 19.1923H16.924V14.5173C16.924 13.4031 16.9006 11.9743 15.3031 11.9743C13.6821 11.9743 13.4338 13.1848 13.4338 14.437V19.1923H10.3193V9.58865H13.3096V10.8987H13.3532C13.7694 10.1441 14.7862 9.34784 16.3032 9.34784C19.4579 9.34784 20.0385 11.3354 20.0385 13.9169V19.1923H20.0351Z" fill="white"/>
</svg>
