<svg width="25" height="25" viewBox="0 0 25 25" fill="none" xmlns="http://www.w3.org/2000/svg">
<rect width="25" height="25" rx="12.5" fill="#4F4F4F"/>
<path d="M5 5H19.3846V19.3846H5V5Z" fill="#4F4F4F"/>
<path fill-rule="evenodd" clip-rule="evenodd" d="M18.0361 12.2019C18.0361 12.2019 18.0361 10.2883 17.792 9.36997C17.6572 8.86265 17.2622 8.46451 16.7581 8.32965C15.8495 8.08242 12.1923 8.08242 12.1923 8.08242C12.1923 8.08242 8.53515 8.08242 7.62648 8.32965C7.12237 8.46451 6.72744 8.86265 6.59258 9.36997C6.34856 10.2851 6.34856 12.2019 6.34856 12.2019C6.34856 12.2019 6.34856 14.1156 6.59258 15.0339C6.72744 15.5412 7.12237 15.9233 7.62648 16.0582C8.53515 16.3022 12.1923 16.3022 12.1923 16.3022C12.1923 16.3022 15.8495 16.3022 16.7581 16.055C17.2622 15.9201 17.6572 15.538 17.792 15.0307C18.0361 14.1156 18.0361 12.2019 18.0361 12.2019ZM14.0546 12.1987L10.9979 10.4617V13.9358L14.0546 12.1987Z" fill="white"/>
</svg>
