<svg width="25" height="25" viewBox="0 0 25 25" fill="none" xmlns="http://www.w3.org/2000/svg">
<rect width="25" height="25" rx="12.5" fill="#4F4F4F"/>
<path d="M19.2526 8.5849C19.2634 8.74223 19.2634 8.89959 19.2634 9.05691C19.2634 13.8555 15.7577 19.3846 9.35027 19.3846C7.37627 19.3846 5.54252 18.789 4 17.7551C4.28047 17.7888 4.55011 17.8001 4.84137 17.8001C6.47016 17.8001 7.96955 17.2269 9.16689 16.2492C7.63516 16.2155 6.35152 15.1704 5.90925 13.7319C6.12501 13.7656 6.34073 13.7881 6.56728 13.7881C6.88008 13.7881 7.19292 13.7431 7.48415 13.6645C5.8877 13.3273 4.69033 11.8664 4.69033 10.102V10.0571C5.15415 10.3268 5.69353 10.4954 6.26519 10.5178C5.32674 9.86602 4.71191 8.75347 4.71191 7.49481C4.71191 6.82054 4.88447 6.20245 5.18652 5.66302C6.90163 7.86567 9.4797 9.3041 12.3705 9.46146C12.3166 9.19175 12.2842 8.91083 12.2842 8.62987C12.2842 6.62949 13.8376 5 15.7684 5C16.7716 5 17.6776 5.43828 18.3141 6.14627C19.1015 5.98895 19.8566 5.68551 20.5254 5.26971C20.2665 6.11258 19.7164 6.82057 18.9937 7.27006C19.6948 7.19143 20.3744 6.98911 21 6.70819C20.5255 7.42739 19.9321 8.06793 19.2526 8.5849Z" fill="white"/>
</svg>
